<svg width="197" height="26" viewBox="0 0 197 26" fill="none" xmlns="http://www.w3.org/2000/svg">
<path d="M14.3489 0.576772C11.3927 0.492967 8.50344 1.46605 6.20026 3.32121C6.15702 3.3584 6.12183 3.40402 6.09683 3.45529C6.07184 3.50655 6.05757 3.56238 6.0549 3.61935C6.05223 3.67632 6.06122 3.73324 6.08132 3.78662C6.10141 3.83999 6.13218 3.88871 6.17176 3.92978L8.97235 6.73037C9.04061 6.79785 9.13045 6.83912 9.22611 6.84694C9.32177 6.85476 9.41712 6.82862 9.49542 6.77312C10.8624 5.77223 12.5257 5.25893 14.219 5.31541C15.4239 5.34686 16.6045 5.66111 17.6657 6.2328C18.7268 6.80448 19.6387 7.6176 20.3278 8.60653C21.0168 9.59546 21.4638 10.7325 21.6326 11.926C21.8014 13.1194 21.6873 14.3358 21.2995 15.4771C20.9117 16.6183 20.2611 17.6524 19.4001 18.496C18.5391 19.3395 17.4919 19.9688 16.343 20.3332C15.1941 20.6976 13.9756 20.7868 12.7858 20.5936C11.5961 20.4004 10.4684 19.9303 9.49374 19.2212C9.41544 19.1657 9.32009 19.1395 9.22443 19.1473C9.12877 19.1552 9.03893 19.1964 8.97068 19.2639L6.17176 22.0653C6.13218 22.1064 6.10141 22.1551 6.08132 22.2085C6.06122 22.2619 6.05223 22.3188 6.0549 22.3758C6.05757 22.4327 6.07184 22.4886 6.09683 22.5398C6.12183 22.5911 6.15702 22.6367 6.20026 22.6739C7.73609 23.9125 9.54474 24.7676 11.4766 25.1685C13.4085 25.5694 15.408 25.5046 17.3099 24.9794C19.2117 24.4542 20.9612 23.4838 22.4136 22.1484C23.866 20.813 24.9796 19.1509 25.6622 17.2998C26.3449 15.4486 26.577 13.4615 26.3393 11.5028C26.1016 9.54418 25.4011 7.67025 24.2955 6.03606C23.19 4.40187 21.7112 3.05438 19.9816 2.10506C18.252 1.15574 16.3211 0.631864 14.3489 0.576772Z" fill="#0A1B5F"/>
<path d="M7.74343 18.0188C7.8112 17.9508 7.85268 17.8609 7.86051 17.7651C7.86833 17.6694 7.842 17.574 7.78618 17.4958C6.83012 16.1854 6.31495 14.6052 6.31495 12.983C6.31495 11.3609 6.83012 9.78074 7.78618 8.47032C7.84168 8.39202 7.86781 8.29667 7.85999 8.20101C7.85218 8.10535 7.8109 8.01551 7.74343 7.94725L4.17835 4.3805C4.13728 4.34092 4.08856 4.31015 4.03518 4.29006C3.98181 4.26996 3.92489 4.26097 3.86792 4.26364C3.81095 4.26631 3.75512 4.28058 3.70386 4.30557C3.65259 4.33056 3.60697 4.36576 3.56978 4.409C1.58487 6.82778 0.5 9.85996 0.5 12.9889C0.5 16.1179 1.58487 19.15 3.56978 21.5688C3.60697 21.6121 3.65259 21.6473 3.70386 21.6723C3.75512 21.6973 3.81095 21.7115 3.86792 21.7142C3.92489 21.7169 3.98181 21.7079 4.03518 21.6878C4.08856 21.6677 4.13728 21.6369 4.17835 21.5973L7.74343 18.0188Z" fill="#0061FF"/>
<path d="M51.4414 7.46632C51.3211 6.85983 51.1262 6.27054 50.8613 5.71186C50.583 5.12313 50.246 4.56398 49.8554 4.0429C49.4361 3.49745 48.9358 3.01941 48.3717 2.62542C47.7547 2.1997 47.0763 1.87067 46.3599 1.6497C45.5255 1.39683 44.6575 1.27274 43.7857 1.2817H31.0568C30.8656 1.28237 30.6824 1.35862 30.5472 1.49383C30.412 1.62903 30.3357 1.81223 30.3351 2.00344V23.9044C30.3357 24.0956 30.412 24.2788 30.5472 24.414C30.6824 24.5492 30.8656 24.6255 31.0568 24.6262H33.844C34.0352 24.6255 34.2184 24.5492 34.3536 24.414C34.4888 24.2788 34.5651 24.0956 34.5657 23.9044V18.8967H43.7865C44.3478 18.8948 44.9072 18.8333 45.4555 18.7131C46.7021 18.4599 47.8736 17.9227 48.8789 17.1431C49.4236 16.7231 49.9007 16.2221 50.2939 15.6577C50.7223 15.0422 51.0515 14.3634 51.2696 13.6459C51.5184 12.8061 51.6377 11.9332 51.6233 11.0574V9.12941C51.6073 8.56904 51.5459 8.01089 51.4397 7.46045L51.4414 7.46632ZM47.3818 11.0599C47.3908 11.5571 47.3054 12.0514 47.1303 12.5168C46.9626 12.9307 46.7121 13.3061 46.3943 13.6199C46.0717 13.937 45.6862 14.1829 45.2627 14.3417C44.7934 14.5322 44.2968 14.6468 43.7915 14.6811H34.5708V5.51403H43.7915C44.2951 5.50232 44.7958 5.5939 45.2627 5.78311C45.6717 5.95261 46.0424 6.20294 46.3524 6.5191C46.6635 6.84908 46.9043 7.23896 47.0599 7.66498C47.2372 8.13831 47.3513 8.63295 47.3994 9.13612L47.3851 11.0641L47.3818 11.0599Z" fill="#0A1B5F"/>
<path d="M99.8227 23.8055C99.8227 24.0278 99.7343 24.241 99.5771 24.3982C99.4199 24.5554 99.2067 24.6437 98.9844 24.6437H96.5535C96.3299 24.6416 96.1163 24.5512 95.9592 24.3922L82.7475 8.61217V23.9044C82.7468 24.0956 82.6706 24.2788 82.5354 24.414C82.4002 24.5492 82.217 24.6255 82.0257 24.6261H79.2385C79.0473 24.6255 78.8642 24.5492 78.729 24.414C78.5938 24.2788 78.5175 24.0956 78.5168 23.9044V2.00591C78.5175 1.8147 78.5938 1.63151 78.729 1.4963C78.8642 1.36109 79.0473 1.28484 79.2385 1.28418H81.7424C81.9659 1.28625 82.1796 1.37665 82.3368 1.53566L95.5811 17.3518V2.00591C95.5818 1.8147 95.658 1.63151 95.7932 1.4963C95.9284 1.36109 96.1116 1.28484 96.3028 1.28418H99.09C99.2812 1.28484 99.4644 1.36109 99.5996 1.4963C99.7349 1.63151 99.8111 1.8147 99.8118 2.00591V23.8055H99.8227Z" fill="#0A1B5F"/>
<path d="M173.456 23.8055C173.456 24.0278 173.368 24.241 173.211 24.3982C173.054 24.5554 172.841 24.6437 172.618 24.6437H170.187C169.964 24.6416 169.75 24.5512 169.593 24.3922L156.395 8.61888V23.9044C156.394 24.0956 156.318 24.2788 156.183 24.414C156.047 24.5492 155.864 24.6255 155.673 24.6261H152.886C152.695 24.6255 152.511 24.5492 152.376 24.414C152.241 24.2788 152.165 24.0956 152.164 23.9044V2.00591C152.165 1.8147 152.241 1.63151 152.376 1.4963C152.511 1.36109 152.695 1.28484 152.886 1.28418H155.39C155.613 1.28625 155.827 1.37665 155.984 1.53566L169.211 17.3518V2.00591C169.211 1.8147 169.288 1.63151 169.423 1.4963C169.558 1.36109 169.741 1.28484 169.932 1.28418H172.72C172.911 1.28484 173.094 1.36109 173.229 1.4963C173.365 1.63151 173.441 1.8147 173.441 2.00591V23.8055H173.456Z" fill="#0A1B5F"/>
<path d="M73.9208 20.3963H59.7174V15.091H72.0104C72.2016 15.0904 72.3848 15.0141 72.52 14.8789C72.6552 14.7437 72.7315 14.5605 72.7321 14.3693V11.5544C72.7315 11.3632 72.6552 11.18 72.52 11.0448C72.3848 10.9096 72.2016 10.8334 72.0104 10.8327H59.7174V5.51399H73.9208C74.112 5.51333 74.2952 5.43708 74.4304 5.30187C74.5656 5.16666 74.6418 4.98347 74.6425 4.79226V2.00591C74.6418 1.8147 74.5656 1.63151 74.4304 1.4963C74.2952 1.36109 74.112 1.28484 73.9208 1.28418H56.1951C56.0039 1.28484 55.8207 1.36109 55.6855 1.4963C55.5503 1.63151 55.4741 1.8147 55.4734 2.00591V23.9044C55.4741 24.0956 55.5503 24.2788 55.6855 24.414C55.8207 24.5492 56.0039 24.6255 56.1951 24.6261H73.9065C74.0977 24.6255 74.2809 24.5492 74.4161 24.414C74.5513 24.2788 74.6276 24.0956 74.6282 23.9044V21.1172C74.633 21.0224 74.6182 20.9276 74.5845 20.8389C74.5508 20.7502 74.4991 20.6694 74.4326 20.6016C74.3661 20.5339 74.2863 20.4806 74.1982 20.4453C74.1101 20.41 74.0156 20.3933 73.9208 20.3963Z" fill="#0A1B5F"/>
<path d="M145.403 1.28415H138.669C137.076 1.26429 135.495 1.55735 134.015 2.14671C132.635 2.69908 131.375 3.51606 130.308 4.55165C129.253 5.60395 128.42 6.85841 127.861 8.23996C127.258 9.73648 126.96 11.338 126.984 12.9509V23.9044C126.984 24.0956 127.061 24.2788 127.196 24.414C127.331 24.5492 127.514 24.6254 127.706 24.6261H130.504C130.696 24.6254 130.879 24.5492 131.014 24.414C131.149 24.2788 131.226 24.0956 131.226 23.9044V18.9109H144.072V23.9169C144.072 24.1081 144.148 24.2913 144.284 24.4265C144.419 24.5617 144.602 24.638 144.793 24.6387H147.581C147.772 24.638 147.955 24.5617 148.09 24.4265C148.225 24.2913 148.302 24.1081 148.302 23.9169V2.00588C148.302 1.81467 148.225 1.63148 148.09 1.49627C147.955 1.36106 147.772 1.28481 147.581 1.28415H145.403ZM144.045 14.6668H131.214V12.9551C131.19 11.9239 131.358 10.8972 131.709 9.92736C131.994 9.16152 132.421 8.45607 132.966 7.84765C133.446 7.31785 134.016 6.87712 134.65 6.54585C135.642 6.02579 136.722 5.69491 137.835 5.57013C138.259 5.52738 138.528 5.51313 138.656 5.51313H144.046L144.045 14.6668Z" fill="#0A1B5F"/>
<path d="M195.764 20.3963H181.575V15.091H193.868C194.059 15.0904 194.242 15.0141 194.377 14.8789C194.513 14.7437 194.589 14.5605 194.59 14.3693V11.5544C194.589 11.3632 194.513 11.18 194.377 11.0448C194.242 10.9096 194.059 10.8334 193.868 10.8327H181.575V5.51399H195.778C195.969 5.51333 196.153 5.43708 196.288 5.30187C196.423 5.16666 196.499 4.98347 196.5 4.79226V2.00591C196.499 1.8147 196.423 1.63151 196.288 1.4963C196.153 1.36109 195.969 1.28484 195.778 1.28418H178.053C177.861 1.28484 177.678 1.36109 177.543 1.4963C177.408 1.63151 177.332 1.8147 177.331 2.00591V23.9044C177.332 24.0956 177.408 24.2788 177.543 24.414C177.678 24.5492 177.861 24.6255 178.053 24.6261H195.764C195.955 24.6255 196.138 24.5492 196.274 24.414C196.409 24.2788 196.485 24.0956 196.486 23.9044V21.1172C196.488 21.0219 196.47 20.9272 196.435 20.8388C196.399 20.7505 196.346 20.6702 196.279 20.6028C196.211 20.5355 196.131 20.4825 196.042 20.447C195.954 20.4115 195.859 20.3943 195.764 20.3963Z" fill="#0A1B5F"/>
<path d="M122.373 20.3963H107.929V2.00591C107.928 1.8147 107.852 1.63151 107.717 1.4963C107.581 1.36109 107.398 1.28484 107.207 1.28418H104.42C104.228 1.28484 104.045 1.36109 103.91 1.4963C103.775 1.63151 103.699 1.8147 103.698 2.00591V23.9044C103.699 24.0956 103.775 24.2788 103.91 24.414C104.045 24.5492 104.228 24.6255 104.42 24.6261H122.386C122.577 24.6255 122.76 24.5492 122.896 24.414C123.031 24.2788 123.107 24.0956 123.108 23.9044V21.1172C123.104 20.9248 123.024 20.7417 122.887 20.607C122.75 20.4723 122.565 20.3967 122.373 20.3963Z" fill="#0A1B5F"/>
</svg>
