<svg width="188" height="52" viewBox="0 0 188 52" fill="none" xmlns="http://www.w3.org/2000/svg">
<path d="M187.71 15.3521H182.35V21.3521C182.35 25.1521 182.59 26.1521 185.39 26.1521C186.11 26.1521 186.83 26.0721 187.63 26.0321V31.0321C187.55 31.0721 185.75 31.9121 182.19 31.9121C178.47 31.9121 175.47 29.5921 175.47 24.8721V15.3521H172.63V9.79209H175.47V1.39209H182.35V9.79209H187.71V15.3521Z" fill="#067949"/>
<path d="M163.819 31.552V9.79201H170.699V31.552H163.819ZM167.219 8.07201C165.139 8.07201 163.379 6.35201 163.379 4.19201C163.379 2.07201 165.139 0.312012 167.219 0.312012C169.339 0.312012 171.019 2.07201 171.019 4.19201C171.019 6.35201 169.339 8.07201 167.219 8.07201Z" fill="#067949"/>
<path d="M154.387 1.39209H161.267V31.5521H154.387V30.6321C152.667 31.4721 150.667 31.9521 148.747 31.9521C142.747 31.9521 137.827 27.5121 137.827 20.6721C137.827 13.6721 142.747 9.39209 148.747 9.39209C150.707 9.39209 152.667 9.87209 154.387 10.7121V1.39209ZM150.027 25.8321C151.667 25.8321 153.227 25.2721 154.387 24.3521V16.9521C153.227 16.0321 151.667 15.4721 150.027 15.4721C146.867 15.4721 144.627 17.6721 144.627 20.6721C144.627 23.8721 146.867 25.8321 150.027 25.8321Z" fill="#067949"/>
<path d="M129.357 9.79248H136.277V31.5525H129.357V30.5525C127.877 31.4325 126.157 31.9125 124.397 31.9125C117.637 31.9125 115.077 29.0325 115.077 21.7525V9.79248H121.957V21.7525C121.957 24.5525 123.037 25.8325 125.637 25.8325C127.157 25.8325 128.397 25.3525 129.357 24.5125V9.79248Z" fill="#067949"/>
<path d="M107.78 31.5521L105.54 26.5921H94.0597L91.8597 31.5521H84.4197L98.0997 3.35205H101.5L115.22 31.5521H107.78ZM99.7797 13.7121L96.5797 20.7521H103.02L99.7797 13.7121Z" fill="#067949"/>
<path d="M83.2897 9.79248H90.3297L81.4097 32.7125C79.7697 36.9925 75.2097 39.1125 71.0097 39.1525C69.5297 39.1525 68.3297 39.1525 67.2897 39.0725L68.2097 33.9925H68.8497C71.1697 33.9925 73.3297 33.5525 74.5297 31.7525L66.4497 9.79248H73.6897L78.2497 22.9925H78.4497L83.2897 9.79248Z" fill="#067949"/>
<path d="M48.1296 29.8321L50.6496 24.8321C53.4496 26.0321 55.2496 26.5921 57.8096 26.5921C59.4896 26.5921 60.2496 25.9921 60.2496 25.2721C60.2496 24.4721 59.6496 24.0721 56.5296 23.3921C51.8896 22.3521 48.4896 20.7921 48.4896 16.3121C48.4896 12.1921 51.6896 9.39209 56.8896 9.39209C60.5296 9.39209 63.2896 10.2721 65.6096 11.1521L63.2896 16.1121C61.2496 15.3921 58.7696 14.7521 56.7696 14.7521C55.1296 14.7521 54.6096 15.1921 54.6096 15.9121C54.6096 16.7921 55.5296 17.1921 58.6896 17.8721C63.7296 18.9521 66.4496 20.7921 66.4496 24.8721C66.4496 29.2721 63.0096 31.9121 57.6496 31.9121C53.7696 31.9121 51.5296 31.5121 48.1296 29.8321Z" fill="#067949"/>
<path d="M39.9336 9.79205H46.8536V31.5521H39.9336V30.2721C38.2536 31.3121 36.3336 31.9121 34.2936 31.9121C27.3336 31.9121 23.6536 26.312 23.6536 20.6321C23.6536 14.9121 27.3336 9.35205 34.2936 9.35205C36.2536 9.35205 38.1736 9.91205 39.9336 10.8321V9.79205ZM39.9336 24.3521V16.9521C38.8136 16.0321 37.2136 15.4721 35.5736 15.4721C32.1336 15.4721 30.2536 17.9921 30.2536 20.6321C30.2536 23.2721 32.1736 25.8321 35.5736 25.8321C37.2536 25.8321 38.8136 25.2721 39.9336 24.3521Z" fill="#067949"/>
<path d="M7.17028 25.5521H22.6503V31.5521H0.290283V3.35205H21.8103V9.35205H7.17028V14.9521H19.3303V20.7921H7.17028V25.5521Z" fill="#067949"/>
<path d="M187.71 37.019V48.4682H186.323V37.019H187.71Z" fill="#067949"/>
<path d="M176.155 48.4682H174.701L178.905 37.019H180.336L184.54 48.4682H183.087L179.666 38.8303H179.576L176.155 48.4682ZM176.691 43.9959H182.55V45.2258H176.691V43.9959Z" fill="#067949"/>
<path d="M163.165 51.6883C162.941 51.6883 162.742 51.6697 162.567 51.6324C162.392 51.5989 162.271 51.5654 162.204 51.5318L162.539 50.369C162.86 50.451 163.143 50.4808 163.389 50.4584C163.635 50.4361 163.853 50.3261 164.043 50.1286C164.237 49.9348 164.414 49.6199 164.574 49.1838L164.82 48.513L161.645 39.8813H163.076L165.446 46.724H165.535L167.906 39.8813H169.337L165.692 49.7205C165.528 50.164 165.325 50.5311 165.083 50.8218C164.84 51.1163 164.559 51.3343 164.238 51.4759C163.922 51.6175 163.564 51.6883 163.165 51.6883Z" fill="#067949"/>
<path d="M153.024 48.4682V37.019H154.343V41.2454H154.455C154.552 41.0963 154.686 40.9063 154.857 40.6752C155.033 40.4404 155.282 40.2317 155.607 40.0491C155.935 39.8627 156.378 39.7695 156.937 39.7695C157.66 39.7695 158.297 39.9503 158.849 40.3118C159.401 40.6733 159.831 41.1858 160.14 41.8492C160.45 42.5126 160.604 43.2952 160.604 44.1972C160.604 45.1065 160.45 45.8948 160.14 46.5619C159.831 47.2253 159.402 47.7396 158.855 48.1049C158.307 48.4664 157.675 48.6471 156.959 48.6471C156.408 48.6471 155.966 48.5558 155.635 48.3732C155.303 48.1869 155.048 47.9763 154.869 47.7415C154.69 47.503 154.552 47.3054 154.455 47.1489H154.298V48.4682H153.024ZM154.321 44.1748C154.321 44.8233 154.416 45.3954 154.606 45.8911C154.796 46.383 155.074 46.7688 155.439 47.0483C155.804 47.3241 156.251 47.462 156.781 47.462C157.332 47.462 157.792 47.3166 158.161 47.0259C158.534 46.7315 158.814 46.3364 159 45.8407C159.19 45.3413 159.285 44.786 159.285 44.1748C159.285 43.571 159.192 43.0269 159.006 42.5424C158.823 42.0542 158.545 41.6684 158.173 41.3852C157.804 41.0982 157.34 40.9547 156.781 40.9547C156.244 40.9547 155.793 41.0907 155.428 41.3628C155.062 41.6311 154.787 42.0076 154.6 42.4921C154.414 42.9729 154.321 43.5338 154.321 44.1748Z" fill="#067949"/>
<path d="M141.883 48.6471C141.167 48.6471 140.535 48.4664 139.987 48.1049C139.44 47.7396 139.011 47.2253 138.702 46.5619C138.392 45.8948 138.238 45.1065 138.238 44.1972C138.238 43.2952 138.392 42.5126 138.702 41.8492C139.011 41.1858 139.441 40.6733 139.993 40.3118C140.545 39.9503 141.182 39.7695 141.905 39.7695C142.464 39.7695 142.906 39.8627 143.23 40.0491C143.558 40.2317 143.808 40.4404 143.979 40.6752C144.154 40.9063 144.29 41.0963 144.387 41.2454H144.499V37.019H145.818V48.4682H144.544V47.1489H144.387C144.29 47.3054 144.152 47.503 143.973 47.7415C143.795 47.9763 143.539 48.1869 143.208 48.3732C142.876 48.5558 142.434 48.6471 141.883 48.6471ZM142.062 47.462C142.591 47.462 143.038 47.3241 143.403 47.0483C143.768 46.7688 144.046 46.383 144.236 45.8911C144.426 45.3954 144.521 44.8233 144.521 44.1748C144.521 43.5338 144.428 42.9729 144.242 42.4921C144.055 42.0076 143.78 41.6311 143.414 41.3628C143.049 41.0907 142.598 40.9547 142.062 40.9547C141.502 40.9547 141.037 41.0982 140.664 41.3852C140.295 41.6684 140.017 42.0542 139.831 42.5424C139.648 43.0269 139.557 43.571 139.557 44.1748C139.557 44.786 139.65 45.3413 139.837 45.8407C140.027 46.3364 140.306 46.7315 140.675 47.0259C141.048 47.3166 141.51 47.462 142.062 47.462Z" fill="#067949"/>
<path d="M133.078 48.6466C132.25 48.6466 131.537 48.464 130.937 48.0988C130.34 47.7298 129.88 47.2155 129.556 46.5558C129.235 45.8924 129.075 45.1209 129.075 44.2414C129.075 43.3618 129.235 42.5866 129.556 41.9158C129.88 41.2412 130.331 40.7157 130.909 40.3393C131.49 39.9591 132.168 39.769 132.944 39.769C133.391 39.769 133.832 39.8436 134.268 39.9927C134.705 40.1417 135.101 40.384 135.459 40.7194C135.817 41.0511 136.102 41.4909 136.315 42.0388C136.527 42.5866 136.633 43.2612 136.633 44.0625V44.6215H130.014V43.4811H135.292C135.292 42.9966 135.195 42.5643 135.001 42.1841C134.811 41.804 134.539 41.5039 134.185 41.284C133.834 41.0642 133.421 40.9542 132.944 40.9542C132.418 40.9542 131.963 41.0847 131.579 41.3455C131.199 41.6027 130.907 41.9381 130.702 42.3518C130.497 42.7655 130.394 43.209 130.394 43.6823V44.4426C130.394 45.0911 130.506 45.6409 130.73 46.0918C130.957 46.5391 131.272 46.8801 131.674 47.1149C132.077 47.3459 132.545 47.4615 133.078 47.4615C133.424 47.4615 133.737 47.413 134.017 47.3161C134.3 47.2155 134.544 47.0664 134.749 46.8689C134.954 46.6676 135.113 46.4179 135.224 46.1198L136.499 46.4776C136.365 46.9099 136.139 47.29 135.823 47.618C135.506 47.9423 135.114 48.1957 134.649 48.3783C134.183 48.5572 133.659 48.6466 133.078 48.6466Z" fill="#067949"/>
<path d="M123.881 48.4681V39.8812H125.156V41.1782H125.245C125.402 40.7533 125.685 40.4086 126.095 40.144C126.505 39.8794 126.967 39.7471 127.481 39.7471C127.578 39.7471 127.699 39.7489 127.845 39.7527C127.99 39.7564 128.1 39.762 128.174 39.7694V41.1111C128.13 41.1 128.027 41.0832 127.867 41.0608C127.71 41.0347 127.545 41.0217 127.369 41.0217C126.952 41.0217 126.579 41.1093 126.251 41.2844C125.927 41.4559 125.67 41.6944 125.48 42C125.293 42.3019 125.2 42.6466 125.2 43.0342V48.4681H123.881Z" fill="#067949"/>
<path d="M118.319 48.6466C117.491 48.6466 116.778 48.464 116.178 48.0988C115.581 47.7298 115.121 47.2155 114.797 46.5558C114.476 45.8924 114.316 45.1209 114.316 44.2414C114.316 43.3618 114.476 42.5866 114.797 41.9158C115.121 41.2412 115.572 40.7157 116.15 40.3393C116.731 39.9591 117.409 39.769 118.184 39.769C118.632 39.769 119.073 39.8436 119.509 39.9927C119.945 40.1417 120.342 40.384 120.7 40.7194C121.058 41.0511 121.343 41.4909 121.556 42.0388C121.768 42.5866 121.874 43.2612 121.874 44.0625V44.6215H115.255V43.4811H120.532C120.532 42.9966 120.436 42.5643 120.242 42.1841C120.052 41.804 119.78 41.5039 119.426 41.284C119.075 41.0642 118.662 40.9542 118.184 40.9542C117.659 40.9542 117.204 41.0847 116.82 41.3455C116.44 41.6027 116.148 41.9381 115.943 42.3518C115.738 42.7655 115.635 43.209 115.635 43.6823V44.4426C115.635 45.0911 115.747 45.6409 115.971 46.0918C116.198 46.5391 116.513 46.8801 116.915 47.1149C117.318 47.3459 117.786 47.4615 118.319 47.4615C118.665 47.4615 118.978 47.413 119.258 47.3161C119.541 47.2155 119.785 47.0664 119.99 46.8689C120.195 46.6676 120.354 46.4179 120.465 46.1198L121.74 46.4776C121.606 46.9099 121.38 47.29 121.064 47.618C120.747 47.9423 120.355 48.1957 119.89 48.3783C119.424 48.5572 118.9 48.6466 118.319 48.6466Z" fill="#067949"/>
<path d="M104.378 48.4683L101.761 39.8813H103.148L105.004 46.4557H105.093L106.927 39.8813H108.336L110.147 46.4333H110.236L112.092 39.8813H113.479L110.862 48.4683H109.565L107.687 41.8715H107.553L105.675 48.4683H104.378Z" fill="#067949"/>
<path d="M96.9703 48.6466C96.1951 48.6466 95.5149 48.4622 94.9298 48.0932C94.3484 47.7242 93.8937 47.208 93.5657 46.5446C93.2415 45.8812 93.0793 45.106 93.0793 44.219C93.0793 43.3246 93.2415 42.5438 93.5657 41.8766C93.8937 41.2095 94.3484 40.6915 94.9298 40.3225C95.5149 39.9535 96.1951 39.769 96.9703 39.769C97.7455 39.769 98.4238 39.9535 99.0052 40.3225C99.5903 40.6915 100.045 41.2095 100.369 41.8766C100.697 42.5438 100.861 43.3246 100.861 44.219C100.861 45.106 100.697 45.8812 100.369 46.5446C100.045 47.208 99.5903 47.7242 99.0052 48.0932C98.4238 48.4622 97.7455 48.6466 96.9703 48.6466ZM96.9703 47.4615C97.5591 47.4615 98.0437 47.3105 98.4238 47.0087C98.8039 46.7068 99.0853 46.3098 99.268 45.8179C99.4506 45.3259 99.5419 44.793 99.5419 44.219C99.5419 43.6451 99.4506 43.1103 99.268 42.6146C99.0853 42.1189 98.8039 41.7182 98.4238 41.4126C98.0437 41.107 97.5591 40.9542 96.9703 40.9542C96.3814 40.9542 95.8969 41.107 95.5168 41.4126C95.1366 41.7182 94.8552 42.1189 94.6726 42.6146C94.49 43.1103 94.3987 43.6451 94.3987 44.219C94.3987 44.793 94.49 45.3259 94.6726 45.8179C94.8552 46.3098 95.1366 46.7068 95.5168 47.0087C95.8969 47.3105 96.3814 47.4615 96.9703 47.4615Z" fill="#067949"/>
<path d="M84.4197 48.4682V37.019H88.2883C89.1865 37.019 89.9207 37.1812 90.4909 37.5054C91.0648 37.8259 91.4897 38.2601 91.7655 38.808C92.0413 39.3558 92.1792 39.9671 92.1792 40.6416C92.1792 41.3162 92.0413 41.9293 91.7655 42.4809C91.4934 43.0325 91.0723 43.4723 90.5021 43.8002C89.9318 44.1245 89.2014 44.2866 88.3106 44.2866H85.5378V43.0567H88.2659C88.8808 43.0567 89.3747 42.9505 89.7474 42.7381C90.1201 42.5256 90.3903 42.2386 90.558 41.8771C90.7294 41.5119 90.8151 41.1001 90.8151 40.6416C90.8151 40.1832 90.7294 39.7733 90.558 39.4117C90.3903 39.0502 90.1182 38.767 89.7418 38.562C89.3653 38.3533 88.8659 38.2489 88.2435 38.2489H85.8061V48.4682H84.4197Z" fill="#067949"/>
</svg>
