<svg width="170" height="64" viewBox="0 0 170 64" fill="none" xmlns="http://www.w3.org/2000/svg">
<g clip-path="url(#clip0_1703_5276)">
<path d="M5.07776 28.6999L39.5345 14.3724L36.3678 36.2413L40.77 39.5703L45.5103 6.73486L4.37549 23.7448L0.5 25.262L5.07776 28.6999Z" fill="#81BC01"/>
<path d="M41.8884 58.3855L12.0549 36.0812L32.8304 27.0225L33.5652 21.6001L2.34668 34.7817L37.8438 61.4457L41.1211 64L41.8884 58.3855Z" fill="#1E1E1E"/>
<path d="M50.1271 11.4147L44.4049 48.0913L26.536 34.8265L21.4446 37.0095L48.2934 56.9387L54.8739 13.2392L55.4006 9.15479L50.1271 11.4147Z" fill="#81BC01"/>
<path d="M86.2941 22.4065C84.2328 19.8458 81.1701 18.4565 77.041 18.4565C67.8725 18.4565 59.3608 26.0492 57.5335 39.4612C55.8819 51.7337 61.435 59.6209 71.3319 59.6209C73.522 59.6594 75.695 59.2347 77.7041 58.3755C79.7133 57.5163 81.5117 56.2425 82.9778 54.6402L83.8882 58.8271H94.6303L99.091 18.495H87.5361L86.2941 22.4065ZM82.2496 36.6828L81.7814 41.6123C81.0401 45.6967 78.6472 47.5789 76.0007 47.5789C72.7494 47.5789 71.2083 44.8004 71.7025 39.5637C72.2812 33.5139 74.9537 30.729 78.3155 30.729C81.2547 30.729 82.4967 33.0017 82.2496 36.6828Z" fill="#1E1E1E"/>
<path d="M135.511 18.508H122.259L122.506 17.1443C122.923 14.0266 124.158 12.5286 126.557 12.5286C128.703 12.5286 130.355 13.5017 131.434 13.9946L133.385 1.83095C132.501 1.44043 129.035 0 123.397 0C114.723 0 109.189 4.0076 107.863 14.9933L107.369 18.508H101.835L100.43 30.6716H106.049L102.908 58.8401H117.779L120.92 30.6716H125.823C125.966 30.6716 126.115 29.4937 126.291 29.0263C128.086 24.2249 131.291 20.4285 135.511 18.508Z" fill="#1E1E1E"/>
<path d="M160.13 23.3157C157.529 20.4669 153.244 18.9624 147.775 18.9624C141.208 18.9624 135.745 21.1198 131.994 25.1979C128.242 29.2759 126.297 35.1273 126.297 42.195C126.297 47.7582 127.923 52.1115 131.135 55.1397C134.347 58.1678 138.906 59.6658 144.751 59.6658C150.415 59.6658 155.331 58.5263 158.959 56.3752L159.259 56.196L160.013 55.7478L159.896 54.8836L159.844 54.5443L158.751 46.4522L158.647 45.7096L158.407 43.8915L156.762 44.7109L156.079 45.0566C153.213 46.5277 150.038 47.3211 146.806 47.3741C142.111 47.3741 140.2 45.4023 140.2 40.5625C140.2 36.2156 141.273 31.0236 146.39 31.0236C147.2 30.9454 148.009 31.1744 148.653 31.6638C149.147 32.1632 149.381 33.1555 149.342 34.6151V35.2553L149.303 36.811L150.838 36.5933L151.488 36.5037L161.411 35.0888L161.821 35.0248L162.822 34.884L162.939 33.8789L162.984 33.4756C163.407 29.3399 162.412 25.8381 160.13 23.3157Z" fill="#1E1E1E"/>
<path d="M163.602 56.6119C163.599 56.2181 163.678 55.8279 163.836 55.466C163.992 55.1233 164.213 54.8126 164.486 54.5505C164.755 54.2891 165.073 54.0824 165.423 53.9423C165.785 53.7933 166.174 53.7171 166.567 53.7183C167.34 53.7242 168.082 54.0195 168.642 54.5441C168.915 54.801 169.136 55.1075 169.292 55.4468C169.45 55.8064 169.529 56.1946 169.526 56.5863C169.529 56.9802 169.45 57.3704 169.292 57.7323C169.138 58.0764 168.917 58.3874 168.642 58.6478C168.375 58.9222 168.054 59.1401 167.699 59.2879C167.341 59.4363 166.956 59.5125 166.567 59.512C165.791 59.5109 165.046 59.2151 164.486 58.6862C164.215 58.4275 163.994 58.1215 163.836 57.7835C163.674 57.414 163.594 57.0145 163.602 56.6119ZM164.077 56.6119C164.075 56.9432 164.139 57.2717 164.265 57.5786C164.39 57.8688 164.571 58.132 164.799 58.3533C165.026 58.5721 165.293 58.7478 165.585 58.8718C165.894 59.0011 166.226 59.0677 166.561 59.0677C166.896 59.0677 167.228 59.0011 167.536 58.8718C167.831 58.7493 168.098 58.571 168.323 58.3469C168.552 58.1244 168.733 57.8587 168.856 57.5658C168.987 57.2554 169.053 56.9224 169.051 56.5863C169.054 56.2523 168.987 55.9212 168.856 55.6132C168.732 55.3231 168.551 55.0599 168.323 54.8386C168.096 54.6185 167.829 54.4426 167.536 54.3201C167.231 54.196 166.904 54.1329 166.574 54.1344C166.241 54.1312 165.911 54.1966 165.605 54.3265C165.313 54.4505 165.046 54.6262 164.818 54.845C164.589 55.0675 164.408 55.3331 164.285 55.626C164.152 55.9384 164.081 56.2732 164.077 56.6119ZM165.462 54.9474H166.704C167.023 54.9226 167.341 55.0037 167.608 55.1779C167.709 55.2695 167.788 55.383 167.838 55.5097C167.888 55.6363 167.907 55.7726 167.894 55.9077C167.902 56.0262 167.883 56.1449 167.839 56.2555C167.795 56.3661 167.727 56.4659 167.64 56.5479C167.454 56.6936 167.227 56.7806 166.99 56.7976L167.959 58.27H167.452L166.522 56.836H165.917V58.27H165.449L165.462 54.9474ZM165.93 56.4391H166.515H166.853C166.955 56.4339 167.054 56.41 167.146 56.3687C167.229 56.3378 167.299 56.2817 167.348 56.2086C167.405 56.1167 167.433 56.0093 167.426 55.9013C167.428 55.8056 167.406 55.7109 167.361 55.626C167.316 55.5569 167.253 55.5015 167.178 55.466C167.101 55.4283 167.017 55.4044 166.931 55.3956H166.665H165.93V56.4391Z" fill="#1E1E1E"/>
</g>
<defs>
<clipPath id="clip0_1703_5276">
<rect width="169" height="64" fill="white" transform="translate(0.5)"/>
</clipPath>
</defs>
</svg>
