<svg width="84" height="84" viewBox="0 0 84 84" fill="none" xmlns="http://www.w3.org/2000/svg">
<mask id="mask0_1703_5070" style="mask-type:luminance" maskUnits="userSpaceOnUse" x="0" y="0" width="84" height="84">
<path d="M42 83.4668C64.9081 83.4668 83.4788 64.9014 83.4788 41.9998C83.4788 19.0981 64.9081 0.532715 42 0.532715C19.0919 0.532715 0.52124 19.0981 0.52124 41.9998C0.52124 64.9014 19.0919 83.4668 42 83.4668Z" fill="white"/>
</mask>
<g mask="url(#mask0_1703_5070)">
<path fill-rule="evenodd" clip-rule="evenodd" d="M14.2985 51.3007V73.5383L13.2649 89.6573H70.7349V51.1439C70.7349 48.9445 69.8526 46.8369 68.2854 45.2931L49.0117 26.3066C45.8864 23.2278 40.8928 23.1472 37.6697 26.1237L33.977 29.5338L29.986 25.6021C28.251 23.893 25.8537 23.5025 23.6898 25.5006C22.9696 26.1656 22.3031 26.7792 21.6395 27.3901C20.3093 28.6146 18.9906 29.8286 17.2739 31.4254C14.7008 33.8189 14.3438 35.3824 14.289 37.603V51.3037L14.2985 51.2964C14.2985 51.2979 14.2985 51.2993 14.2985 51.3007ZM29.3688 33.7893L20.7938 41.7079L20.8997 37.4112C20.9126 36.8842 21.1385 36.3849 21.5259 36.0273L26.7466 31.2062L29.3688 33.7893ZM20.7361 82.6516L21.2919 73.9865C21.3015 73.8373 21.3062 73.6879 21.3062 73.5383V51.3007C21.3062 50.9636 21.447 50.6418 21.6947 50.4132L42.4247 31.2698C42.8989 30.8319 43.6334 30.8438 44.0932 31.2967L63.3669 50.2833C63.5974 50.5104 63.7272 50.8204 63.7272 51.1439V82.6516H20.7361Z" fill="#2555E6"/>
<path fill-rule="evenodd" clip-rule="evenodd" d="M31.7631 81.4011V65.7724C31.7631 62.4537 33.7608 59.461 36.8263 58.1873L46.9165 53.9952C48.1882 53.4668 49.6399 53.6084 50.7854 54.3726C51.9309 55.1368 52.6188 56.4226 52.6188 57.7994V89.6569H31.3811L31.7631 81.4011ZM45.6111 62.124L39.5155 64.6566C39.0646 64.8439 38.7708 65.2843 38.7708 65.7724V81.4011C38.7708 81.509 38.7683 81.617 38.7633 81.7248L38.7204 82.6513H45.6111V62.124Z" fill="#2555E6"/>
<path fill-rule="evenodd" clip-rule="evenodd" d="M42 0.532715C64.8927 0.532715 83.4787 19.1135 83.4787 41.9998C83.4787 64.886 64.8927 83.4667 42 83.4667C19.1072 83.4667 0.52124 64.886 0.52124 41.9998C0.52124 19.1135 19.1072 0.532715 42 0.532715ZM42 7.53843C22.9748 7.53843 7.52894 22.98 7.52894 41.9998C7.52894 61.0195 22.9748 76.461 42 76.461C61.0251 76.461 76.471 61.0195 76.471 41.9998C76.471 22.98 61.0251 7.53843 42 7.53843Z" fill="#2555E6"/>
</g>
</svg>
