<svg width="124" height="124" viewBox="0 0 124 124" fill="none" xmlns="http://www.w3.org/2000/svg">
<g clip-path="url(#clip0_1703_5260)">
<path fill-rule="evenodd" clip-rule="evenodd" d="M11.2992 24.4869H86.825L99.5093 37.2057V112.697H111.326L123.996 100.027V12.7188L111.312 0H24.0179L11.2992 12.7188V24.4869ZM17.2972 18.4889V15.2032L26.5023 5.99797H108.823L117.998 15.1985C117.998 27.8285 117.998 84.9014 117.998 97.5427L108.842 106.699H105.507V37.2057L103.756 32.9703L91.0721 20.2516L86.825 18.4889H17.2972Z" fill="#FE6610"/>
<path fill-rule="evenodd" clip-rule="evenodd" d="M112.697 111.298V24.0035L99.9784 11.2847H12.7188L0 24.0035V111.312L12.6699 123.982H99.9784L112.697 111.298ZM37.0091 61.9931C43.5251 61.9931 47.2329 58.2853 47.2329 52.5871C47.2329 46.8892 43.5251 43.1813 37.0091 43.1813C30.6568 43.1813 26.8944 46.8892 26.8944 52.5871C26.8944 58.2853 30.6568 61.9931 37.0091 61.9931ZM83.7206 61.7204V57.113H72.6244V54.8227H83.3116V50.2426H72.6244V48.0615H83.7206V43.454H67.4989V61.7204H83.7206ZM53.2763 61.7204V54.5775L53.0583 51.0877H53.4128L55.7301 54.6865L61.1282 61.7204H66.581V43.454H61.8101V50.5151L61.7008 54.4957H61.3463L58.6746 50.2971L53.6035 43.454H48.1509V61.7204H53.2763ZM37.0091 57.0857C33.3014 57.0857 32.3471 56.2132 32.3471 52.5871C32.3471 48.9612 33.3014 48.0888 37.0091 48.0888C40.717 48.0888 41.7803 48.9612 41.7803 52.5871C41.7803 56.2132 40.717 57.0857 37.0091 57.0857ZM55.2121 42.8086C59.4925 42.8086 61.0464 40.7639 61.5372 38.6373H61.8099V42.5359H66.581V32.5575H55.7846V36.3199H61.4009C61.1556 37.7104 60.0649 37.9012 56.2754 37.9012C52.5675 37.9012 51.5588 37.0287 51.5588 33.4028C51.5588 29.7767 52.6221 28.9043 56.5479 28.9043C59.7924 28.9043 60.8284 29.5586 60.8284 31.249V31.4397H66.5536V31.249C66.5536 26.7233 62.8731 23.997 56.6844 23.997C50.032 23.997 46.1061 27.7047 46.1061 33.4028C46.1061 39.1007 49.4595 42.8086 55.2121 42.8086ZM83.7206 42.5359V37.9285H72.6244V35.6384H83.3116V31.0581H72.6244V28.8771H83.7206V24.2695H67.4989V42.5359H83.7206ZM16.4246 42.5359V37.9285H21.4139C25.7486 37.9285 28.475 35.4203 28.475 31.0854C28.475 26.7505 25.7486 24.2695 21.4139 24.2695H11.2992V42.5359H16.4246ZM30.7841 42.5359L32.2019 39.1554H40.8716L42.2619 42.5359H48.1509L40.2445 24.2695H32.9107L25.0315 42.5359H30.7841ZM35.2008 31.9851L36.3731 28.9043H36.7276L37.9272 31.9851L38.9903 34.5479H34.1375L35.2008 31.9851ZM20.8413 28.8771C22.6406 28.8771 23.3768 29.2315 23.3768 31.0854C23.3768 32.9665 22.6406 33.321 20.8413 33.321H16.4246V28.8771H20.8413Z" fill="#FE6610"/>
</g>
<defs>
<clipPath id="clip0_1703_5260">
<rect width="124" height="124" fill="white"/>
</clipPath>
</defs>
</svg>
