<svg width="108" height="104" viewBox="0 0 108 104" fill="none" xmlns="http://www.w3.org/2000/svg">
<g clip-path="url(#clip0_1703_5235)">
<path d="M108.055 33.0423C108.088 32.3893 107.978 31.737 107.731 31.1226C107.485 30.5082 107.107 29.9439 106.62 29.4618L77.5156 1.43613L77.4176 1.35015C77.2339 1.1721 77.0324 1.00983 76.8157 0.865411C76.1147 0.439407 75.3101 0.173932 74.471 0.0917887C73.6319 0.00964573 72.7832 0.11329 71.998 0.39382L60.5167 3.87196C56.9204 4.96133 53.9864 8.65848 53.9744 12.1136V12.7461L50.6774 9.57101L50.5794 9.48489C50.3951 9.30564 50.1927 9.14241 49.9748 8.99733C49.2741 8.57106 48.4695 8.30534 47.6303 8.22301C46.7912 8.14069 45.9425 8.24423 45.1573 8.52473L33.6724 12.0046C30.0771 13.0937 27.1446 16.7894 27.1339 20.2435V21.0359L23.7032 17.7346L23.5841 17.6301L23.5822 17.6319C23.4251 17.487 23.2552 17.354 23.0741 17.2342C22.3723 16.8076 21.5667 16.5417 20.7265 16.4594C19.8863 16.377 19.0365 16.4807 18.2503 16.7615L0.354912 22.2259L0.246508 22.2589L0.0797086 73.4084C0.0418726 74.0944 0.16435 74.7799 0.439126 75.4201C0.713902 76.0603 1.13478 76.6407 1.67423 77.1233L28.0111 102.501L28.0007 102.51L28.3771 102.855C28.8146 103.253 29.3364 103.566 29.9111 103.776C30.4858 103.986 31.1016 104.089 31.7212 104.077C32.4132 104.072 33.0998 103.965 33.7542 103.761L45.2357 100.283C48.8308 99.1933 51.7645 95.4986 51.776 92.0486L51.9214 78.6094L57.7696 84.2419L57.8463 84.3116C59.1521 85.441 61.106 85.7475 63.1303 85.1352L74.6093 81.6571C78.2064 80.5674 81.1409 76.8708 81.1511 73.4174V72.6656L84.6195 76.0089L84.6964 76.081L84.7349 76.1134C85.1754 76.4997 85.6962 76.8028 86.2672 77.0051C86.8381 77.2073 87.4478 77.3046 88.0606 77.2913C88.7452 77.2868 89.4244 77.1821 90.0722 76.9813L107.971 71.5215L108.08 71.4867L108.055 33.0423ZM106.738 31.5181C106.831 31.7629 106.898 32.0153 106.938 32.2718L106.738 31.5181Z" fill="#021D49"/>
<path d="M76.9228 0.851576C76.2864 0.428556 75.5475 0.149742 74.7678 0.0384551C73.9881 -0.0728319 73.1904 -0.0133571 72.4413 0.211905L60.1488 3.84476C58.3059 4.38623 56.7001 5.44332 55.5622 6.86398C54.4244 8.28464 53.8131 9.99566 53.8164 11.751V46.2767C53.8175 47.1942 54.2192 48.074 54.9337 48.7241C55.6483 49.3742 56.6178 49.7418 57.6304 49.7466C58.0396 49.7461 58.446 49.6867 58.8346 49.5707L78.874 43.6167L78.9834 43.584V4.51312C78.9875 3.79808 78.8026 3.09253 78.4441 2.4555C78.0856 1.81848 77.5639 1.2685 76.9228 0.851576Z" fill="#1CBFD6"/>
<path d="M23.0082 17.1266C22.3671 16.7061 21.6234 16.4322 20.8403 16.328C20.0573 16.2238 19.258 16.2926 18.5106 16.5283L0.0279675 22.249L-0.0795005 22.2825V73.8091C-0.0843563 74.5486 0.108779 75.2782 0.483351 75.9352C0.857923 76.5923 1.40276 77.1573 2.07117 77.5818C2.92803 78.1387 3.9556 78.4391 5.01016 78.441C5.58986 78.4402 6.16524 78.3506 6.712 78.1761L18.4683 74.4524C20.4017 73.8387 22.0769 72.6962 23.2626 71.1827C24.4483 69.6691 25.086 67.8593 25.0874 66.0033V20.7896C25.092 20.0725 24.9053 19.365 24.5433 18.7272C24.1813 18.0895 23.6547 17.5404 23.0082 17.1266Z" fill="#1CBFD6"/>
<path d="M50.0107 8.95815C49.3584 8.52453 48.6009 8.23876 47.8016 8.12473C47.0024 8.0107 46.1847 8.07173 45.4168 8.30272L34.204 11.6161C32.0949 12.236 30.257 13.4459 28.9547 15.0719C27.6524 16.6979 26.9529 18.6562 26.9566 20.6652V53.1047C26.9578 54.255 27.4613 55.3581 28.3571 56.1732C29.2529 56.9883 30.4683 57.4492 31.7378 57.4552C32.2509 57.4544 32.7607 57.3798 33.248 57.2343L44.904 53.7711C47.0055 53.1498 48.836 51.9416 50.1329 50.3196C51.4298 48.6976 52.1265 46.7452 52.1232 44.7423V12.712C52.1275 11.9789 51.9379 11.2556 51.5704 10.6025C51.2029 9.94942 50.6681 9.38558 50.0107 8.95815Z" fill="#11BFD7"/>
</g>
<defs>
<clipPath id="clip0_1703_5235">
<rect width="108" height="104" fill="white"/>
</clipPath>
</defs>
</svg>
