<svg width="225" height="39" viewBox="0 0 225 39" fill="none" xmlns="http://www.w3.org/2000/svg">
<path d="M6.22754 6.59387C9.5128 6.59387 12.6635 7.91013 14.9865 10.253C17.3096 12.5959 18.6146 15.7736 18.6146 19.087H6.22754V6.59387Z" fill="#0C1C5A"/>
<path d="M31.0014 6.59387C31.0014 8.23448 30.6809 9.85906 30.0584 11.3748C29.4359 12.8905 28.5235 14.2678 27.3732 15.4279C26.223 16.588 24.8575 17.5082 23.3546 18.136C21.8517 18.7639 20.2409 19.087 18.6143 19.087V6.59387H31.0014Z" fill="#060E2D"/>
<path d="M6.22754 31.5802C6.22754 28.2668 7.53257 25.0891 9.85562 22.7462C12.1787 20.4033 15.3294 19.087 18.6146 19.087V31.5802H6.22754Z" fill="#2449E0"/>
<path d="M31.0014 31.5802C29.3746 31.5802 27.7639 31.257 26.261 30.6292C24.7581 30.0014 23.3926 29.0811 22.2423 27.921C21.0921 26.761 20.1797 25.3837 19.5572 23.868C18.9346 22.3522 18.6143 20.7276 18.6143 19.087H31.0014V31.5802Z" fill="#A5B5F3"/>
<path d="M44.4796 30.2789H40.9121V7.95776H44.4796V18.7852H44.6778C45.2393 15.9867 47.2543 13.3881 51.4494 13.3881C55.9749 13.3881 58.1881 16.3865 58.1881 20.4176V30.2789H54.6536V21.2838C54.6536 17.9523 53.1672 16.6197 49.7648 16.6197C45.8669 16.6197 44.4796 18.7518 44.4796 22.2499V30.2789ZM66.2185 30.612C62.8162 30.612 60.6691 29.0129 60.6691 26.2811C60.6691 23.7158 62.7171 22.3832 65.9543 22.0167L73.4196 21.2172V20.251C73.4196 17.5192 72.2304 16.5531 69.0923 16.5531C66.0534 16.5531 64.5669 17.5525 64.5669 19.9845V20.1178H61.0325V19.9845C61.0325 16.2199 64.1375 13.3881 69.3566 13.3881C74.5757 13.3881 76.921 16.2532 76.921 20.2177V30.2789H73.6508V26.1478H73.4196C72.5607 28.9463 69.9512 30.612 66.2185 30.612ZM64.2366 26.0478C64.2366 27.3804 65.1285 28.0134 67.1765 28.0134C70.9091 28.0134 73.4196 26.6142 73.4196 23.3493L66.9783 24.0823C65.1285 24.3155 64.2366 24.7486 64.2366 26.0478ZM87.8681 30.612C82.5829 30.612 79.577 28.5132 79.577 24.6819V24.582H83.1445V24.8485C83.1445 27.014 84.4327 27.7136 87.8681 27.7136C91.0722 27.7136 92.0302 27.0473 92.0302 25.5814C92.0302 24.2155 91.2374 23.7824 88.8921 23.4493L84.3997 22.8496C81.2947 22.4498 79.4118 21.1172 79.4118 18.3521C79.4118 15.4537 82.0214 13.3881 87.0753 13.3881C92.0962 13.3881 95.1352 15.4203 95.1352 19.3515V19.4515H91.6007V19.2516C91.6007 17.286 90.6098 16.2532 86.9762 16.2532C83.9703 16.2532 82.9132 16.9195 82.9132 18.4853C82.9132 19.7846 83.5739 20.251 86.0513 20.5842L89.85 21.1172C93.7478 21.6169 95.5316 22.9495 95.5316 25.6814C95.5316 28.7797 92.4926 30.612 87.8681 30.612ZM101.673 30.2789H98.1055V7.95776H101.673V18.7852H101.871C102.433 15.9867 104.448 13.3881 108.643 13.3881C113.168 13.3881 115.381 16.3865 115.381 20.4176V30.2789H111.847V21.2838C111.847 17.9523 110.36 16.6197 106.958 16.6197C103.06 16.6197 101.673 18.7518 101.673 22.2499V30.2789ZM129.358 30.2789H125.592C122.058 30.2789 119.878 28.713 119.878 24.6819V16.7196H117.103V13.7213H119.878V10.0899H123.412V13.7213H129.358V16.7196H123.412V24.482C123.412 26.5143 124.337 27.0473 126.385 27.0473H129.358V30.2789ZM139.847 30.612C134.463 30.612 130.929 27.547 130.929 22.0167C130.929 16.8529 134.43 13.3881 139.781 13.3881C144.868 13.3881 148.337 16.2199 148.337 21.2505C148.337 21.8501 148.304 22.3166 148.205 22.8163H134.265C134.397 26.0145 135.95 27.7136 139.748 27.7136C143.184 27.7136 144.604 26.5809 144.604 24.6153V24.3488H148.172V24.6486C148.172 28.18 144.736 30.612 139.847 30.612ZM139.715 16.2199C136.082 16.2199 134.496 17.8523 134.298 20.8174H144.967V20.7507C144.967 17.6858 143.217 16.2199 139.715 16.2199ZM154.576 30.2789H151.009V13.7213H154.279V18.8518H154.51C155.006 16.0533 157.186 13.3881 161.348 13.3881C165.906 13.3881 168.152 16.4864 168.152 20.3177V30.2789H164.585V21.2838C164.585 18.1855 163.198 16.6197 159.795 16.6197C156.195 16.6197 154.576 18.4853 154.576 22.0834V30.2789ZM179.094 30.612C173.809 30.612 170.803 28.5132 170.803 24.6819V24.582H174.37V24.8485C174.37 27.014 175.659 27.7136 179.094 27.7136C182.298 27.7136 183.256 27.0473 183.256 25.5814C183.256 24.2155 182.463 23.7824 180.118 23.4493L175.626 22.8496C172.52 22.4498 170.638 21.1172 170.638 18.3521C170.638 15.4537 173.247 13.3881 178.301 13.3881C183.322 13.3881 186.361 15.4203 186.361 19.3515V19.4515H182.827V19.2516C182.827 17.286 181.836 16.2532 178.202 16.2532C175.196 16.2532 174.139 16.9195 174.139 18.4853C174.139 19.7846 174.8 20.251 177.277 20.5842L181.076 21.1172C184.974 21.6169 186.757 22.9495 186.757 25.6814C186.757 28.7797 183.718 30.612 179.094 30.612ZM197.721 30.612C192.271 30.612 188.605 27.1139 188.605 22.0167C188.605 16.8529 192.271 13.3881 197.721 13.3881C203.205 13.3881 206.871 16.8529 206.871 22.0167C206.871 27.1139 203.205 30.612 197.721 30.612ZM197.721 27.4138C201.718 27.4138 203.37 25.5148 203.37 22.0167C203.37 18.4853 201.718 16.5531 197.721 16.5531C193.758 16.5531 192.106 18.4853 192.106 22.0167C192.106 25.5148 193.758 27.4138 197.721 27.4138ZM213.028 30.2789H209.46V13.7213H212.731V18.1855H212.962C213.457 15.5203 215.241 13.3881 218.61 13.3881C222.343 13.3881 223.962 16.0866 223.962 19.2183V21.3837H220.427V19.9179C220.427 17.5525 219.436 16.4531 216.992 16.4531C214.184 16.4531 213.028 18.0189 213.028 20.984V30.2789Z" fill="#060E2D"/>
</svg>
