<svg width="98" height="125" viewBox="0 0 98 125" fill="none" xmlns="http://www.w3.org/2000/svg">
<path d="M72.8928 0C89.432 0 97.7016 9.79585 97.7016 29.3875C97.7016 48.9792 89.2794 58.7751 72.435 58.7751C55.5905 58.7751 47.1683 48.7572 47.1683 28.7215C47.1683 9.57384 55.7432 0 72.8928 0ZM72.435 4.53717C69.3269 4.53717 67.2179 6.25769 66.1079 9.69872C65.0256 13.112 64.4845 19.6749 64.4845 29.3875C64.4845 39.1001 65.0256 45.677 66.1079 49.118C67.2179 52.5313 69.3269 54.2379 72.435 54.2379C75.543 54.2379 77.6381 52.5313 78.7204 49.118C79.8304 45.677 80.3854 39.1001 80.3854 29.3875C80.3854 19.7027 79.8304 13.1398 78.7204 9.69872C77.6381 6.25769 75.543 4.53717 72.435 4.53717Z" fill="#742F88"/>
<path d="M40.0087 16.8998L32.3497 18.3151C32.6827 16.7888 32.8492 15.5123 32.8492 14.4855C32.8492 7.88096 28.8393 4.57867 20.8194 4.57867C14.4924 4.57867 11.3288 6.8542 11.3288 11.4052C11.3288 14.8185 14.867 17.7462 21.9433 20.1882C35.5964 24.878 42.423 31.8156 42.423 41.0009C42.423 46.3845 40.5082 50.7135 36.6787 53.988C32.8492 57.2348 27.757 58.8582 21.4022 58.8582C7.33279 58.8582 0.298096 53.4053 0.298096 42.4994C0.298096 41.6114 0.367471 40.5153 0.506223 39.211L8.45668 37.4627C7.84617 39.877 7.54092 41.9722 7.54092 43.7482C7.54092 50.7968 11.5786 54.321 19.6539 54.321C26.1197 54.321 29.3526 51.7819 29.3526 46.7036C29.3526 42.9296 25.4815 39.6134 17.7391 36.7551C6.55578 32.6481 0.964102 26.0851 0.964102 17.0663C0.964102 11.9602 2.82337 7.85321 6.54191 4.74518C10.2882 1.60939 15.2 0.0415039 21.2773 0.0415039C33.7649 0.0415039 40.0087 5.66093 40.0087 16.8998Z" fill="#742F88"/>
<path d="M95.2465 82.0024L87.4576 83.4417C87.7963 81.8895 87.9656 80.5914 87.9656 79.5472C87.9656 72.8307 83.8877 69.4725 75.7319 69.4725C69.2976 69.4725 66.0805 71.7866 66.0805 76.4147C66.0805 79.8859 69.6786 82.8632 76.8749 85.3466C90.7594 90.1159 97.7017 97.171 97.7017 106.512C97.7017 111.987 95.7545 116.389 91.86 119.719C87.9656 123.021 82.7871 124.672 76.3246 124.672C62.0167 124.672 54.8628 119.127 54.8628 108.036C54.8628 107.133 54.9333 106.018 55.0744 104.692L63.1597 102.914C62.5388 105.369 62.2284 107.5 62.2284 109.306C62.2284 116.474 66.3345 120.058 74.5467 120.058C81.1221 120.058 84.4098 117.476 84.4098 112.311C84.4098 108.473 80.473 105.101 72.5995 102.194C61.2265 98.0176 55.5401 91.3435 55.5401 82.1717C55.5401 76.9792 57.4309 72.8025 61.2124 69.6418C65.0222 66.4529 70.0173 64.8584 76.1976 64.8584C88.8969 64.8584 95.2465 70.5731 95.2465 82.0024Z" fill="#742F88"/>
<path d="M17.0611 94.871V123.614H0.298096V65.832H17.0611V89.0717H30.734V65.832H47.4971V123.614H30.734V94.871H17.0611Z" fill="#742F88"/>
</svg>
