<svg width="196" height="40" viewBox="0 0 196 40" fill="none" xmlns="http://www.w3.org/2000/svg">
<mask id="mask0_1703_5122" style="mask-type:luminance" maskUnits="userSpaceOnUse" x="0" y="0" width="196" height="40">
<path d="M196 0.34082H0V39.6596H196V0.34082Z" fill="white"/>
</mask>
<g mask="url(#mask0_1703_5122)">
<path d="M173.383 20.2746H167.873V4.7981H173.383V0.34082H167.813C166.648 0.344783 165.532 0.809324 164.708 1.63309C163.884 2.45686 163.42 3.57299 163.416 4.73797V20.3346C163.422 21.4991 163.887 22.6141 164.71 23.4374C165.534 24.2608 166.648 24.7259 167.813 24.7318H173.383V20.2746Z" fill="#CF1D1D"/>
<path d="M177.84 4.7981H183.349V20.2746H177.84V24.7318H183.402C184.568 24.7279 185.683 24.2633 186.507 23.4396C187.331 22.6158 187.795 21.4996 187.799 20.3346V4.73797C187.793 3.5736 187.329 2.45861 186.505 1.63526C185.681 0.811918 184.567 0.346746 183.402 0.34082H177.84V4.7981Z" fill="#CF1D1D"/>
<path d="M12.3496 33.6315C5.72005 33.6315 0.811777 30.1439 0 24.529H6.76484C7.67434 26.784 10.3577 27.5357 12.3345 27.5357C15.0105 27.5357 17.0399 26.7238 17.0399 25.2056C17.0399 23.6872 16.1229 23.131 11.5754 22.4245C6.93021 21.7479 0.706548 20.4777 0.706548 14.6599C0.706548 10.5634 4.29943 6.30908 11.8385 6.30908C17.8517 6.30908 22.2639 9.54869 23.1132 14.4569H16.1905C15.7846 13.2468 14.3189 12.2847 11.8385 12.2847C8.75671 12.2847 7.48643 13.3971 7.48643 14.3592C7.48643 15.7197 9.41069 16.1783 12.6502 16.6819C19.1294 17.7491 23.7822 19.1623 23.7822 24.8297C23.7822 29.9935 19.0243 33.6315 12.3496 33.6315Z" fill="#CF1D1D"/>
<path d="M39.3188 32.9774C31.6745 33.7892 27.6307 29.1816 27.6307 22.0484V14.4568H24.4963V8.54131H27.6307V0.34082H34.3128V8.54131H39.3188V14.4568H34.3128V22.1386C34.3128 25.7766 35.9815 27.1446 39.3188 26.9417V32.9774Z" fill="#CF1D1D"/>
<path d="M84.4327 33.5866C81.5804 33.5988 78.8376 32.4892 76.796 30.4973V39.6599H70.0311V6.97067H76.4577V9.69916C77.4915 8.63088 78.7313 7.78361 80.1022 7.20865C81.4729 6.6337 82.9463 6.34306 84.4327 6.35432C91.2653 6.35432 96.8351 12.2247 96.8351 19.884C96.8351 27.5434 91.2653 33.549 84.4327 33.549V33.5866ZM83.4782 12.5479C79.7801 12.5479 76.796 15.8401 76.796 19.884C76.796 23.9279 79.8026 27.3254 83.4782 27.3254C87.1537 27.3254 90.1528 24.1383 90.1528 19.884C90.1528 15.6297 87.1462 12.5479 83.4782 12.5479Z" fill="#CF1D1D"/>
<path d="M105.689 0.34082H99.0073V33.0301H105.689V0.34082Z" fill="#CF1D1D"/>
<path d="M114.641 22.6046C114.976 24.0808 115.806 25.398 116.993 26.3375C118.18 27.2768 119.652 27.7818 121.166 27.7684C122.272 27.8195 123.372 27.5663 124.345 27.0362C125.317 26.5061 126.126 25.7194 126.683 24.7618H133.793C132.29 30.0759 127.675 33.6613 121.196 33.6613C117.624 33.6158 114.216 32.1599 111.714 29.6112C109.212 27.0626 107.819 23.628 107.839 20.0565C107.839 12.5399 113.853 6.33887 121.196 6.33887C128.885 6.33887 135.259 12.3521 134.297 22.6346L114.641 22.6046ZM127.698 17.1401C127.338 15.6921 126.494 14.4106 125.306 13.5083C124.118 12.6059 122.657 12.1369 121.166 12.1792C119.698 12.1832 118.273 12.6717 117.11 13.5687C115.948 14.4656 115.115 15.7211 114.739 17.1401H127.698Z" fill="#CF1D1D"/>
<path d="M147.834 16.6819C144.595 16.1783 142.67 15.7197 142.67 14.3592C142.67 13.3971 143.933 12.2847 147.023 12.2847C149.503 12.2847 150.968 13.2468 151.375 14.4569H158.304C157.448 9.54869 152.991 6.30908 147.03 6.30908C139.513 6.30908 135.898 10.5634 135.898 14.6599C135.898 20.4777 142.122 21.7479 146.775 22.4545C151.427 23.161 152.239 23.7699 152.239 25.2356C152.239 26.7013 150.217 27.5657 147.534 27.5657C145.625 27.5657 143.024 26.8141 142.069 24.732H135.221C136.124 30.2265 140.987 33.6315 147.534 33.6315C154.216 33.6315 158.974 29.9935 158.974 24.8297C158.974 19.1623 154.314 17.7491 147.842 16.6819" fill="#CF1D1D"/>
<path d="M52.6154 6.41415C55.4684 6.40279 58.2124 7.50901 60.2596 9.49591V6.97037H67.0245V33.0301H60.5603V30.294C59.529 31.3566 58.2936 32.1999 56.9284 32.7734C55.5632 33.3468 54.0962 33.6386 52.6154 33.6314C45.7829 33.6314 40.2207 27.7685 40.2207 20.1016C40.2207 12.4349 45.7829 6.41415 52.6154 6.41415ZM53.5775 27.4002C57.2681 27.4002 60.2596 24.1155 60.2596 20.0641C60.2596 16.0127 57.2531 12.6303 53.5775 12.6303C49.902 12.6303 46.8953 15.8173 46.8953 20.0641C46.8953 24.311 49.902 27.4002 53.5775 27.4002Z" fill="#CF1D1D"/>
<path d="M190.724 2.28027H192.836V2.97179H192.144V4.7983H191.392V2.97179H190.701L190.724 2.28027ZM195.985 2.28027V4.7983H195.233V3.44533L194.542 4.30972L193.926 3.44533V4.7983H193.173V2.28027H193.821L194.572 3.295L195.324 2.28027H195.985Z" fill="#CF1D1D"/>
</g>
</svg>
