<svg width="170" height="65" viewBox="0 0 170 65" fill="none" xmlns="http://www.w3.org/2000/svg">
<g id="logo 1" clip-path="url(#clip0_1044_2889)">
<path id="Vector" d="M5.48696 29.1999L39.7675 14.8724L36.617 36.7413L40.9966 40.0703L45.7127 7.23486L4.78828 24.2448L0.932617 25.762L5.48696 29.1999Z" fill="#81BC01"/>
<path id="Vector_2" d="M42.109 58.8855L12.4281 36.5812L33.0973 27.5225L33.8284 22.1001L2.76953 35.2817L38.0851 61.9457L41.3456 64.5L42.109 58.8855Z" fill="#F7F7F7"/>
<path id="Vector_3" d="M50.3063 11.9147L44.6134 48.5913L26.8359 35.3265L21.7705 37.5095L48.482 57.4387L55.0289 13.7392L55.5529 9.65479L50.3063 11.9147Z" fill="#81BC01"/>
<path id="Vector_4" d="M86.2881 22.9065C84.2374 20.3458 81.1903 18.9565 77.0824 18.9565C67.9607 18.9565 59.4925 26.5492 57.6747 39.9612C56.0315 52.2337 61.5562 60.1209 71.4024 60.1209C73.5813 60.1594 75.7432 59.7347 77.7421 58.8755C79.7409 58.0163 81.5301 56.7425 82.9888 55.1402L83.8945 59.3271H94.5817L99.0196 18.995H87.5237L86.2881 22.9065ZM82.2642 37.1828L81.7985 42.1123C81.061 46.1967 78.6803 48.0789 76.0473 48.0789C72.8127 48.0789 71.2795 45.3004 71.7711 40.0637C72.3469 34.0139 75.0057 31.229 78.3503 31.229C81.2744 31.229 82.5101 33.5017 82.2642 37.1828Z" fill="#F7F7F7"/>
<path id="Vector_5" d="M135.253 19.008H122.069L122.315 17.6443C122.729 14.5266 123.958 13.0286 126.345 13.0286C128.48 13.0286 130.123 14.0017 131.197 14.4946L133.138 2.33095C132.258 1.94043 128.81 0.5 123.201 0.5C114.571 0.5 109.066 4.5076 107.746 15.4933L107.254 19.008H101.749L100.352 31.1716H105.941L102.816 59.3401H117.612L120.736 31.1716H125.614C125.756 31.1716 125.905 29.9937 126.08 29.5263C127.865 24.7249 131.055 20.9285 135.253 19.008Z" fill="#F7F7F7"/>
<path id="Vector_6" d="M159.746 23.8157C157.159 20.9669 152.895 19.4624 147.455 19.4624C140.921 19.4624 135.487 21.6198 131.754 25.6979C128.021 29.7759 126.087 35.6273 126.087 42.695C126.087 48.2582 127.704 52.6115 130.9 55.6397C134.096 58.6678 138.631 60.1658 144.447 60.1658C150.081 60.1658 154.972 59.0263 158.582 56.8752L158.879 56.696L159.63 56.2478L159.513 55.3836L159.462 55.0443L158.375 46.9522L158.271 46.2096L158.032 44.3915L156.395 45.2109L155.716 45.5566C152.865 47.0277 149.706 47.8211 146.491 47.8741C141.82 47.8741 139.918 45.9023 139.918 41.0625C139.918 36.7156 140.986 31.5236 146.077 31.5236C146.882 31.4454 147.688 31.6744 148.328 32.1638C148.82 32.6632 149.053 33.6555 149.014 35.1151V35.7553L148.975 37.311L150.502 37.0933L151.149 37.0037L161.021 35.5888L161.428 35.5248L162.425 35.384L162.541 34.3789L162.586 33.9756C163.007 29.8399 162.017 26.3381 159.746 23.8157Z" fill="#F7F7F7"/>
<path id="Vector_7" d="M163.201 57.1119C163.197 56.7181 163.277 56.3279 163.434 55.966C163.589 55.6233 163.809 55.3126 164.081 55.0505C164.348 54.7891 164.664 54.5824 165.012 54.4423C165.373 54.2933 165.76 54.2171 166.151 54.2183C166.92 54.2242 167.657 54.5195 168.214 55.0441C168.487 55.301 168.706 55.6075 168.861 55.9468C169.018 56.3064 169.098 56.6946 169.094 57.0863C169.098 57.4802 169.018 57.8704 168.861 58.2323C168.708 58.5764 168.488 58.8874 168.214 59.1478C167.949 59.4222 167.63 59.6401 167.276 59.7879C166.92 59.9363 166.537 60.0125 166.151 60.012C165.379 60.0109 164.637 59.7151 164.081 59.1862C163.81 58.9275 163.591 58.6215 163.434 58.2835C163.272 57.914 163.193 57.5145 163.201 57.1119ZM163.673 57.1119C163.671 57.4432 163.735 57.7717 163.861 58.0786C163.984 58.3688 164.165 58.632 164.391 58.8533C164.618 59.0721 164.883 59.2478 165.174 59.3718C165.481 59.5011 165.811 59.5677 166.144 59.5677C166.478 59.5677 166.808 59.5011 167.115 59.3718C167.408 59.2493 167.674 59.071 167.897 58.8469C168.125 58.6244 168.306 58.3587 168.428 58.0658C168.558 57.7554 168.624 57.4224 168.622 57.0863C168.625 56.7523 168.559 56.4212 168.428 56.1132C168.304 55.8231 168.124 55.5599 167.897 55.3386C167.672 55.1185 167.406 54.9426 167.115 54.8201C166.811 54.696 166.486 54.6329 166.157 54.6344C165.826 54.6312 165.498 54.6966 165.193 54.8265C164.902 54.9505 164.637 55.1262 164.41 55.345C164.183 55.5675 164.002 55.8331 163.88 56.126C163.747 56.4384 163.677 56.7732 163.673 57.1119ZM165.051 55.4474H166.287C166.604 55.4226 166.921 55.5037 167.186 55.6779C167.287 55.7695 167.366 55.883 167.415 56.0097C167.464 56.1363 167.483 56.2726 167.47 56.4077C167.478 56.5262 167.46 56.6449 167.416 56.7555C167.372 56.8661 167.305 56.9659 167.218 57.0479C167.033 57.1936 166.807 57.2806 166.571 57.2976L167.535 58.77H167.031L166.105 57.336H165.504V58.77H165.038L165.051 55.4474ZM165.517 56.9391H166.099H166.435C166.536 56.9339 166.635 56.91 166.726 56.8687C166.809 56.8378 166.879 56.7817 166.927 56.7086C166.985 56.6167 167.012 56.5093 167.005 56.4013C167.007 56.3056 166.985 56.2109 166.94 56.126C166.896 56.0569 166.833 56.0015 166.759 55.966C166.682 55.9283 166.599 55.9044 166.513 55.8956H166.248H165.517V56.9391Z" fill="#F7F7F7"/>
</g>
<defs>
<clipPath id="clip0_1044_2889">
<rect width="168.136" height="64" fill="white" transform="translate(0.932617 0.5)"/>
</clipPath>
</defs>
</svg>
