<svg width="432" height="432" viewBox="0 0 432 432" fill="none" xmlns="http://www.w3.org/2000/svg">
<path d="M323.273 402.813C299.604 416.398 273.569 425.364 246.554 429.233L216 215.91L323.273 402.813Z" fill="#D0D0D1"/>
<path d="M240.016 430.068C187.287 435.981 134.23 422.233 91.0072 391.458C47.7846 360.682 17.4349 315.043 5.77145 263.281C-5.89203 211.519 1.95056 157.274 27.7971 110.935C53.6436 64.5965 95.677 29.422 145.846 12.1489C196.016 -5.12418 250.794 -3.28151 299.689 17.324C348.584 37.9294 388.159 75.8492 410.833 123.82C433.507 171.791 437.686 226.441 422.571 277.302C407.455 328.163 374.107 371.659 328.914 399.461L216 215.91L240.016 430.068Z" fill="#0E86D3"/>
<rect x="17.5054" y="17.4172" width="396.99" height="396.99" rx="198.495" fill="#F0F0F0"/>
<path d="M163.91 199.729C163.91 202.541 163.344 204.641 162.211 206.027C161.078 207.414 159.373 208.107 157.094 208.107C156.228 208.107 155.606 208.055 155.229 207.951V206.027C155.808 206.19 156.391 206.271 156.977 206.271C158.526 206.271 159.682 205.855 160.444 205.021C161.205 204.188 161.622 202.88 161.694 201.096H161.576C161.192 201.682 160.727 202.105 160.18 202.365C159.64 202.626 159.005 202.756 158.276 202.756C157.013 202.756 156.02 202.362 155.297 201.574C154.575 200.786 154.213 199.706 154.213 198.332C154.213 196.841 154.63 195.656 155.463 194.777C156.303 193.892 157.446 193.449 158.891 193.449C159.907 193.449 160.792 193.697 161.547 194.191C162.302 194.686 162.885 195.406 163.295 196.35C163.705 197.287 163.91 198.413 163.91 199.729ZM158.93 195.354C158.136 195.354 157.527 195.614 157.104 196.135C156.681 196.649 156.469 197.375 156.469 198.312C156.469 199.126 156.664 199.768 157.055 200.236C157.452 200.699 158.051 200.93 158.852 200.93C159.627 200.93 160.278 200.699 160.805 200.236C161.332 199.774 161.596 199.234 161.596 198.615C161.596 198.036 161.482 197.495 161.254 196.994C161.033 196.486 160.72 196.086 160.317 195.793C159.913 195.5 159.451 195.354 158.93 195.354ZM174.819 196.916C174.819 197.821 174.555 198.576 174.028 199.182C173.5 199.781 172.758 200.184 171.801 200.393V200.471C172.947 200.614 173.806 200.972 174.379 201.545C174.952 202.111 175.239 202.867 175.239 203.811C175.239 205.184 174.754 206.245 173.784 206.994C172.813 207.736 171.433 208.107 169.643 208.107C168.061 208.107 166.726 207.85 165.639 207.336V205.295C166.244 205.594 166.886 205.826 167.563 205.988C168.24 206.151 168.891 206.232 169.516 206.232C170.623 206.232 171.45 206.027 171.996 205.617C172.543 205.207 172.817 204.572 172.817 203.713C172.817 202.951 172.514 202.391 171.909 202.033C171.303 201.675 170.353 201.496 169.057 201.496H167.817V199.631H169.076C171.355 199.631 172.494 198.843 172.494 197.268C172.494 196.656 172.296 196.184 171.899 195.852C171.502 195.52 170.916 195.354 170.141 195.354C169.601 195.354 169.08 195.432 168.578 195.588C168.077 195.738 167.485 196.034 166.801 196.477L165.678 194.875C166.987 193.911 168.507 193.43 170.239 193.43C171.677 193.43 172.8 193.739 173.608 194.357C174.415 194.976 174.819 195.829 174.819 196.916ZM178.95 197.912C178.95 198.882 179.044 199.605 179.233 200.08C179.422 200.555 179.731 200.793 180.16 200.793C181.02 200.793 181.45 199.833 181.45 197.912C181.45 195.992 181.02 195.031 180.16 195.031C179.731 195.031 179.422 195.269 179.233 195.744C179.044 196.219 178.95 196.942 178.95 197.912ZM183.344 197.893C183.344 199.39 183.074 200.516 182.534 201.271C182 202.02 181.209 202.395 180.16 202.395C179.171 202.395 178.403 202.007 177.856 201.232C177.315 200.451 177.045 199.338 177.045 197.893C177.045 194.917 178.084 193.43 180.16 193.43C181.183 193.43 181.967 193.817 182.514 194.592C183.067 195.36 183.344 196.46 183.344 197.893ZM188.246 203.615C188.246 204.585 188.341 205.311 188.53 205.793C188.725 206.275 189.037 206.516 189.467 206.516C190.32 206.516 190.746 205.549 190.746 203.615C190.746 201.708 190.32 200.754 189.467 200.754C189.037 200.754 188.725 200.988 188.53 201.457C188.341 201.926 188.246 202.645 188.246 203.615ZM192.641 203.615C192.641 205.113 192.371 206.236 191.83 206.984C191.29 207.733 190.502 208.107 189.467 208.107C188.478 208.107 187.709 207.723 187.162 206.955C186.616 206.18 186.342 205.067 186.342 203.615C186.342 200.64 187.384 199.152 189.467 199.152C190.47 199.152 191.248 199.536 191.801 200.305C192.361 201.073 192.641 202.176 192.641 203.615ZM189.741 193.635L181.821 207.912H179.926L187.846 193.635H189.741ZM212.162 200.637C212.162 202.993 211.508 204.797 210.2 206.047C208.891 207.29 207.006 207.912 204.545 207.912H200.551V193.635H204.965C207.237 193.635 209.005 194.247 210.268 195.471C211.531 196.695 212.162 198.417 212.162 200.637ZM209.701 200.715C209.701 197.297 208.103 195.588 204.907 195.588H202.885V205.949H204.545C207.983 205.949 209.701 204.204 209.701 200.715ZM219.711 208.107C218.032 208.107 216.716 207.619 215.766 206.643C214.822 205.66 214.35 204.309 214.35 202.59C214.35 200.826 214.789 199.439 215.668 198.43C216.547 197.421 217.755 196.916 219.291 196.916C220.717 196.916 221.843 197.349 222.67 198.215C223.497 199.081 223.91 200.272 223.91 201.789V203.029H216.713C216.746 204.077 217.029 204.885 217.563 205.451C218.097 206.011 218.849 206.291 219.819 206.291C220.457 206.291 221.049 206.232 221.596 206.115C222.149 205.992 222.742 205.79 223.373 205.51V207.375C222.813 207.642 222.247 207.831 221.674 207.941C221.101 208.052 220.447 208.107 219.711 208.107ZM219.291 198.654C218.562 198.654 217.976 198.885 217.534 199.348C217.097 199.81 216.837 200.484 216.752 201.369H221.655C221.642 200.477 221.427 199.803 221.01 199.348C220.593 198.885 220.021 198.654 219.291 198.654ZM233.774 204.836C233.774 205.891 233.39 206.701 232.621 207.268C231.853 207.827 230.753 208.107 229.321 208.107C227.882 208.107 226.726 207.889 225.854 207.453V205.471C227.123 206.057 228.305 206.35 229.399 206.35C230.812 206.35 231.518 205.923 231.518 205.07C231.518 204.797 231.44 204.569 231.284 204.387C231.127 204.204 230.87 204.016 230.512 203.82C230.154 203.625 229.656 203.404 229.018 203.156C227.774 202.674 226.931 202.193 226.489 201.711C226.052 201.229 225.834 200.604 225.834 199.836C225.834 198.911 226.205 198.195 226.948 197.688C227.696 197.173 228.712 196.916 229.994 196.916C231.264 196.916 232.465 197.173 233.598 197.688L232.856 199.416C231.69 198.934 230.711 198.693 229.916 198.693C228.705 198.693 228.1 199.038 228.1 199.729C228.1 200.067 228.256 200.354 228.569 200.588C228.888 200.822 229.578 201.145 230.639 201.555C231.531 201.9 232.179 202.215 232.582 202.502C232.986 202.788 233.285 203.12 233.481 203.498C233.676 203.869 233.774 204.315 233.774 204.836ZM238.481 202.209L239.78 200.588L243.041 197.111H245.688L241.342 201.75L245.961 207.912H243.266L239.799 203.176L238.539 204.211V207.912H236.264V192.717H238.539V200.129L238.422 202.209H238.481ZM251.733 206.252C252.293 206.252 252.853 206.164 253.412 205.988V207.717C253.159 207.827 252.83 207.919 252.426 207.99C252.029 208.068 251.616 208.107 251.186 208.107C249.011 208.107 247.924 206.962 247.924 204.67V198.85H246.45V197.834L248.032 196.994L248.813 194.709H250.229V197.111H253.305V198.85H250.229V204.631C250.229 205.184 250.366 205.594 250.639 205.861C250.919 206.122 251.284 206.252 251.733 206.252ZM265.16 202.492C265.16 204.257 264.708 205.633 263.803 206.623C262.898 207.613 261.638 208.107 260.024 208.107C259.015 208.107 258.123 207.88 257.348 207.424C256.573 206.968 255.978 206.314 255.561 205.461C255.144 204.608 254.936 203.618 254.936 202.492C254.936 200.741 255.385 199.374 256.284 198.391C257.182 197.408 258.448 196.916 260.082 196.916C261.645 196.916 262.882 197.421 263.793 198.43C264.705 199.432 265.16 200.786 265.16 202.492ZM257.299 202.492C257.299 204.986 258.22 206.232 260.063 206.232C261.886 206.232 262.797 204.986 262.797 202.492C262.797 200.025 261.879 198.791 260.043 198.791C259.08 198.791 258.38 199.11 257.944 199.748C257.514 200.386 257.299 201.301 257.299 202.492ZM273.285 208.107C271.918 208.107 270.857 207.616 270.102 206.633H269.965C270.056 207.544 270.102 208.098 270.102 208.293V212.717H267.807V197.111H269.662C269.715 197.313 269.822 197.795 269.985 198.557H270.102C270.818 197.463 271.892 196.916 273.325 196.916C274.672 196.916 275.72 197.404 276.469 198.381C277.224 199.357 277.602 200.728 277.602 202.492C277.602 204.257 277.218 205.633 276.45 206.623C275.688 207.613 274.633 208.107 273.285 208.107ZM272.729 198.791C271.817 198.791 271.15 199.058 270.727 199.592C270.31 200.126 270.102 200.979 270.102 202.15V202.492C270.102 203.807 270.31 204.761 270.727 205.354C271.144 205.939 271.824 206.232 272.768 206.232C273.562 206.232 274.174 205.907 274.604 205.256C275.034 204.605 275.248 203.677 275.248 202.473C275.248 201.262 275.034 200.347 274.604 199.729C274.181 199.104 273.556 198.791 272.729 198.791Z" fill="black"/>
<path d="M170.346 238.912L176.264 226.129H168.481V224.635H177.983V225.934L172.143 238.912H170.346ZM181.371 228.893C181.371 229.999 181.492 230.829 181.733 231.383C181.974 231.936 182.364 232.213 182.905 232.213C183.972 232.213 184.506 231.106 184.506 228.893C184.506 226.692 183.972 225.592 182.905 225.592C182.364 225.592 181.974 225.865 181.733 226.412C181.492 226.959 181.371 227.786 181.371 228.893ZM185.844 228.893C185.844 230.377 185.593 231.5 185.092 232.262C184.597 233.017 183.868 233.395 182.905 233.395C181.993 233.395 181.284 233.007 180.776 232.232C180.274 231.458 180.024 230.344 180.024 228.893C180.024 227.415 180.265 226.301 180.746 225.553C181.235 224.804 181.954 224.43 182.905 224.43C183.849 224.43 184.575 224.817 185.082 225.592C185.59 226.367 185.844 227.467 185.844 228.893ZM189.965 234.615C189.965 235.729 190.086 236.562 190.326 237.115C190.567 237.662 190.961 237.936 191.508 237.936C192.055 237.936 192.459 237.665 192.719 237.125C192.979 236.578 193.11 235.742 193.11 234.615C193.11 233.502 192.979 232.678 192.719 232.145C192.459 231.604 192.055 231.334 191.508 231.334C190.961 231.334 190.567 231.604 190.326 232.145C190.086 232.678 189.965 233.502 189.965 234.615ZM194.448 234.615C194.448 236.093 194.197 237.213 193.696 237.975C193.201 238.73 192.472 239.107 191.508 239.107C190.584 239.107 189.871 238.72 189.369 237.945C188.875 237.171 188.627 236.061 188.627 234.615C188.627 233.137 188.868 232.024 189.35 231.275C189.838 230.527 190.558 230.152 191.508 230.152C192.433 230.152 193.152 230.536 193.666 231.305C194.187 232.066 194.448 233.17 194.448 234.615ZM191.928 224.635L184.008 238.912H182.573L190.493 224.635H191.928ZM208.95 238.912L204.106 226.256H204.028C204.119 227.258 204.164 228.45 204.164 229.83V238.912H202.631V224.635H205.131L209.653 236.412H209.731L214.291 224.635H216.772V238.912H215.112V229.713C215.112 228.658 215.157 227.512 215.248 226.275H215.17L210.287 238.912H208.95ZM229.692 233.551C229.692 235.296 229.252 236.66 228.373 237.643C227.494 238.619 226.28 239.107 224.731 239.107C223.774 239.107 222.924 238.883 222.182 238.434C221.44 237.984 220.867 237.34 220.463 236.5C220.06 235.66 219.858 234.677 219.858 233.551C219.858 231.806 220.294 230.449 221.166 229.479C222.039 228.502 223.25 228.014 224.799 228.014C226.297 228.014 227.485 228.512 228.364 229.508C229.249 230.504 229.692 231.852 229.692 233.551ZM221.537 233.551C221.537 234.918 221.811 235.96 222.358 236.676C222.905 237.392 223.709 237.75 224.77 237.75C225.831 237.75 226.635 237.395 227.182 236.686C227.735 235.969 228.012 234.924 228.012 233.551C228.012 232.19 227.735 231.158 227.182 230.455C226.635 229.745 225.825 229.391 224.75 229.391C223.689 229.391 222.888 229.739 222.348 230.436C221.808 231.132 221.537 232.171 221.537 233.551ZM237.524 228.033C238.93 228.033 240.021 228.515 240.795 229.479C241.576 230.436 241.967 231.793 241.967 233.551C241.967 235.309 241.573 236.676 240.785 237.652C240.004 238.622 238.917 239.107 237.524 239.107C236.827 239.107 236.189 238.98 235.61 238.727C235.037 238.466 234.555 238.069 234.164 237.535H234.047L233.705 238.912H232.543V223.717H234.164V227.408C234.164 228.235 234.138 228.977 234.086 229.635H234.164C234.92 228.567 236.039 228.033 237.524 228.033ZM237.289 229.391C236.183 229.391 235.385 229.71 234.897 230.348C234.409 230.979 234.164 232.047 234.164 233.551C234.164 235.055 234.415 236.132 234.916 236.783C235.418 237.428 236.222 237.75 237.328 237.75C238.325 237.75 239.067 237.389 239.555 236.666C240.043 235.937 240.287 234.892 240.287 233.531C240.287 232.138 240.043 231.1 239.555 230.416C239.067 229.732 238.312 229.391 237.289 229.391ZM246.43 238.912H244.809V228.209H246.43V238.912ZM244.672 225.309C244.672 224.938 244.763 224.667 244.946 224.498C245.128 224.322 245.356 224.234 245.629 224.234C245.89 224.234 246.114 224.322 246.303 224.498C246.492 224.674 246.586 224.944 246.586 225.309C246.586 225.673 246.492 225.947 246.303 226.129C246.114 226.305 245.89 226.393 245.629 226.393C245.356 226.393 245.128 226.305 244.946 226.129C244.763 225.947 244.672 225.673 244.672 225.309ZM251.489 238.912H249.868V223.717H251.489V238.912ZM259.448 239.107C257.866 239.107 256.616 238.626 255.698 237.662C254.786 236.699 254.33 235.361 254.33 233.648C254.33 231.923 254.754 230.553 255.6 229.537C256.453 228.521 257.595 228.014 259.028 228.014C260.369 228.014 261.43 228.456 262.211 229.342C262.993 230.221 263.383 231.383 263.383 232.828V233.854H256.01C256.043 235.11 256.358 236.064 256.957 236.715C257.563 237.366 258.412 237.691 259.506 237.691C260.659 237.691 261.798 237.451 262.924 236.969V238.414C262.351 238.661 261.808 238.837 261.293 238.941C260.785 239.052 260.17 239.107 259.448 239.107ZM259.008 229.371C258.149 229.371 257.462 229.651 256.948 230.211C256.44 230.771 256.14 231.546 256.049 232.535H261.645C261.645 231.513 261.417 230.732 260.961 230.191C260.506 229.645 259.854 229.371 259.008 229.371Z" fill="black"/>
</svg>
