<svg width="254" height="263" viewBox="0 0 254 263" fill="none" xmlns="http://www.w3.org/2000/svg">
<path d="M131.995 9.09561C163.49 10.3818 193.275 23.7672 215.148 46.4644L127 131.41L131.995 9.09561Z" fill="#0E86D3"/>
<path d="M219.442 51.159C237.71 72.2019 248.252 98.8475 249.326 126.693C250.399 154.538 241.941 181.916 225.348 204.304C208.755 226.691 185.021 242.747 158.067 249.819C131.114 256.891 102.554 254.555 77.1072 243.198C51.6607 231.841 30.8505 212.142 18.1154 187.356C5.38029 162.57 1.48254 134.182 7.06624 106.881C12.6499 79.5799 27.3809 55.0011 48.8248 37.2059C70.2688 19.4107 97.1423 9.46415 125.005 9.00992L127 131.41L219.442 51.159Z" fill="#D0D0D1"/>
<rect x="14.2432" y="18.6551" width="225.513" height="225.513" rx="112.757" fill="#F0F0F0"/>
<path d="M95.7107 123.412H94.1287V113.236C94.1287 112.39 94.1548 111.589 94.2068 110.834C94.0701 110.97 93.9171 111.114 93.7479 111.263C93.5786 111.413 92.8038 112.048 91.4236 113.168L90.5643 112.054L94.3436 109.134H95.7107V123.412ZM111.209 120.13H109.09V123.412H107.537V120.13H100.594V118.714L107.371 109.056H109.09V118.656H111.209V120.13ZM107.537 118.656V113.91C107.537 112.979 107.569 111.927 107.635 110.755H107.556C107.244 111.38 106.951 111.898 106.678 112.308L102.215 118.656H107.537ZM113.982 113.392C113.982 114.499 114.103 115.329 114.344 115.882C114.584 116.436 114.975 116.713 115.515 116.713C116.583 116.713 117.117 115.606 117.117 113.392C117.117 111.192 116.583 110.091 115.515 110.091C114.975 110.091 114.584 110.365 114.344 110.912C114.103 111.459 113.982 112.285 113.982 113.392ZM118.455 113.392C118.455 114.877 118.204 116 117.703 116.761C117.208 117.517 116.479 117.894 115.515 117.894C114.604 117.894 113.894 117.507 113.387 116.732C112.885 115.957 112.635 114.844 112.635 113.392C112.635 111.914 112.875 110.801 113.357 110.052C113.846 109.304 114.565 108.929 115.515 108.929C116.459 108.929 117.185 109.317 117.693 110.091C118.201 110.866 118.455 111.966 118.455 113.392ZM122.576 119.115C122.576 120.228 122.696 121.061 122.937 121.615C123.178 122.162 123.572 122.435 124.119 122.435C124.666 122.435 125.069 122.165 125.33 121.625C125.59 121.078 125.721 120.241 125.721 119.115C125.721 118.002 125.59 117.178 125.33 116.644C125.069 116.104 124.666 115.834 124.119 115.834C123.572 115.834 123.178 116.104 122.937 116.644C122.696 117.178 122.576 118.002 122.576 119.115ZM127.058 119.115C127.058 120.593 126.808 121.713 126.306 122.474C125.812 123.229 125.082 123.607 124.119 123.607C123.194 123.607 122.482 123.22 121.98 122.445C121.485 121.67 121.238 120.56 121.238 119.115C121.238 117.637 121.479 116.524 121.961 115.775C122.449 115.026 123.168 114.652 124.119 114.652C125.043 114.652 125.763 115.036 126.277 115.804C126.798 116.566 127.058 117.67 127.058 119.115ZM124.539 109.134L116.619 123.412H115.183L123.103 109.134H124.539ZM138.875 116.273L142.683 109.134H144.48L139.715 117.875V123.412H138.035V117.953L133.279 109.134H135.096L138.875 116.273ZM150.73 123.607C149.148 123.607 147.898 123.125 146.98 122.162C146.069 121.198 145.613 119.86 145.613 118.148C145.613 116.423 146.036 115.052 146.883 114.037C147.735 113.021 148.878 112.513 150.31 112.513C151.652 112.513 152.713 112.956 153.494 113.841C154.275 114.72 154.666 115.882 154.666 117.328V118.353H147.293C147.325 119.61 147.641 120.563 148.24 121.214C148.846 121.866 149.695 122.191 150.789 122.191C151.941 122.191 153.081 121.95 154.207 121.468V122.914C153.634 123.161 153.09 123.337 152.576 123.441C152.068 123.552 151.453 123.607 150.73 123.607ZM150.291 113.871C149.431 113.871 148.745 114.151 148.23 114.711C147.722 115.27 147.423 116.045 147.332 117.035H152.928C152.928 116.013 152.7 115.231 152.244 114.691C151.788 114.144 151.137 113.871 150.291 113.871ZM164.344 120.492C164.344 121.488 163.972 122.256 163.23 122.797C162.488 123.337 161.446 123.607 160.105 123.607C158.686 123.607 157.579 123.382 156.785 122.933V121.429C157.299 121.69 157.849 121.895 158.435 122.045C159.028 122.194 159.597 122.269 160.144 122.269C160.991 122.269 161.642 122.136 162.097 121.869C162.553 121.595 162.781 121.182 162.781 120.629C162.781 120.212 162.599 119.857 162.234 119.564C161.876 119.265 161.173 118.913 160.125 118.509C159.129 118.138 158.419 117.816 157.996 117.543C157.579 117.263 157.267 116.947 157.058 116.595C156.857 116.244 156.756 115.824 156.756 115.336C156.756 114.463 157.11 113.776 157.82 113.275C158.53 112.767 159.503 112.513 160.74 112.513C161.892 112.513 163.019 112.748 164.119 113.216L163.543 114.535C162.469 114.092 161.495 113.871 160.623 113.871C159.855 113.871 159.275 113.991 158.885 114.232C158.494 114.473 158.299 114.805 158.299 115.228C158.299 115.515 158.37 115.759 158.513 115.961C158.663 116.162 158.901 116.354 159.226 116.537C159.552 116.719 160.177 116.983 161.101 117.328C162.371 117.79 163.227 118.255 163.67 118.724C164.119 119.193 164.344 119.782 164.344 120.492Z" fill="black"/>
<path d="M96.1111 139.949C97.4653 139.949 98.5363 140.261 99.324 140.886C100.112 141.505 100.506 142.335 100.506 143.377C100.506 144.841 99.6268 146.007 97.8689 146.873C98.9887 147.433 99.783 148.022 100.252 148.64C100.727 149.259 100.965 149.949 100.965 150.711C100.965 151.889 100.532 152.833 99.6658 153.543C98.7999 154.252 97.6281 154.607 96.1502 154.607C94.6007 154.607 93.3995 154.275 92.5467 153.611C91.6938 152.947 91.2674 152.006 91.2674 150.789C91.2674 149.994 91.4887 149.282 91.9314 148.65C92.3807 148.012 93.1131 147.446 94.1287 146.951C93.2563 146.43 92.6346 145.88 92.2635 145.3C91.8924 144.721 91.7068 144.07 91.7068 143.347C91.7068 142.312 92.1137 141.489 92.9275 140.877C93.7413 140.258 94.8025 139.949 96.1111 139.949ZM93.4647 150.711C93.4647 151.388 93.7023 151.915 94.1775 152.293C94.6528 152.664 95.2973 152.849 96.1111 152.849C96.951 152.849 97.602 152.657 98.0643 152.273C98.533 151.882 98.7674 151.355 98.7674 150.691C98.7674 150.164 98.5525 149.682 98.1229 149.246C97.6932 148.81 97.0421 148.406 96.1697 148.035L95.8865 147.908C95.0272 148.285 94.4087 148.702 94.0311 149.158C93.6535 149.607 93.4647 150.125 93.4647 150.711ZM96.0916 141.716C95.4406 141.716 94.9165 141.879 94.5193 142.205C94.1222 142.524 93.9236 142.96 93.9236 143.513C93.9236 143.852 93.9953 144.155 94.1385 144.422C94.2817 144.688 94.49 144.933 94.7635 145.154C95.0369 145.369 95.4992 145.629 96.1502 145.935C96.9314 145.59 97.4816 145.229 97.8006 144.851C98.1261 144.467 98.2889 144.021 98.2889 143.513C98.2889 142.96 98.087 142.524 97.6834 142.205C97.2863 141.879 96.7557 141.716 96.0916 141.716ZM102.752 148.328C102.752 142.742 105.027 139.949 109.578 139.949C110.294 139.949 110.9 140.004 111.394 140.115V142.029C110.9 141.886 110.327 141.814 109.676 141.814C108.146 141.814 106.997 142.224 106.228 143.045C105.46 143.865 105.043 145.18 104.978 146.99H105.096C105.402 146.463 105.831 146.056 106.385 145.769C106.938 145.476 107.589 145.33 108.338 145.33C109.633 145.33 110.642 145.727 111.365 146.521C112.088 147.315 112.449 148.393 112.449 149.754C112.449 151.251 112.029 152.436 111.189 153.308C110.356 154.174 109.217 154.607 107.771 154.607C106.749 154.607 105.86 154.363 105.105 153.875C104.35 153.38 103.767 152.664 103.357 151.726C102.954 150.782 102.752 149.649 102.752 148.328ZM107.732 152.713C108.52 152.713 109.125 152.459 109.549 151.951C109.978 151.443 110.193 150.717 110.193 149.773C110.193 148.953 109.991 148.308 109.588 147.839C109.191 147.371 108.592 147.136 107.791 147.136C107.296 147.136 106.84 147.244 106.424 147.459C106.007 147.667 105.678 147.957 105.437 148.328C105.196 148.692 105.076 149.067 105.076 149.451C105.076 150.369 105.323 151.144 105.818 151.775C106.319 152.4 106.957 152.713 107.732 152.713ZM115.984 144.412C115.984 145.382 116.079 146.104 116.267 146.58C116.456 147.055 116.765 147.293 117.195 147.293C118.054 147.293 118.484 146.332 118.484 144.412C118.484 142.491 118.054 141.531 117.195 141.531C116.765 141.531 116.456 141.769 116.267 142.244C116.079 142.719 115.984 143.442 115.984 144.412ZM120.379 144.392C120.379 145.89 120.109 147.016 119.568 147.771C119.034 148.52 118.243 148.894 117.195 148.894C116.206 148.894 115.437 148.507 114.89 147.732C114.35 146.951 114.08 145.838 114.08 144.392C114.08 141.417 115.118 139.929 117.195 139.929C118.217 139.929 119.002 140.317 119.549 141.091C120.102 141.86 120.379 142.96 120.379 144.392ZM125.281 150.115C125.281 151.085 125.375 151.811 125.564 152.293C125.76 152.774 126.072 153.015 126.502 153.015C127.355 153.015 127.781 152.048 127.781 150.115C127.781 148.207 127.355 147.254 126.502 147.254C126.072 147.254 125.76 147.488 125.564 147.957C125.375 148.425 125.281 149.145 125.281 150.115ZM129.676 150.115C129.676 151.612 129.405 152.735 128.865 153.484C128.325 154.233 127.537 154.607 126.502 154.607C125.512 154.607 124.744 154.223 124.197 153.455C123.65 152.68 123.377 151.567 123.377 150.115C123.377 147.14 124.418 145.652 126.502 145.652C127.504 145.652 128.282 146.036 128.836 146.804C129.396 147.573 129.676 148.676 129.676 150.115ZM126.775 140.134L118.855 154.412H116.961L124.881 140.134H126.775ZM149.48 154.412H146.619L139.597 143.035H139.519L139.568 143.67C139.659 144.88 139.705 145.987 139.705 146.99V154.412H137.586V140.134H140.418L147.42 151.453H147.478C147.465 151.303 147.439 150.759 147.4 149.822C147.361 148.878 147.342 148.142 147.342 147.615V140.134H149.48V154.412ZM162.586 148.992C162.586 150.756 162.133 152.133 161.228 153.123C160.323 154.112 159.064 154.607 157.449 154.607C156.44 154.607 155.548 154.379 154.773 153.923C153.999 153.468 153.403 152.813 152.986 151.961C152.569 151.108 152.361 150.118 152.361 148.992C152.361 147.241 152.81 145.873 153.709 144.89C154.607 143.907 155.874 143.416 157.508 143.416C159.07 143.416 160.307 143.92 161.219 144.929C162.13 145.932 162.586 147.286 162.586 148.992ZM154.724 148.992C154.724 151.485 155.646 152.732 157.488 152.732C159.311 152.732 160.222 151.485 160.222 148.992C160.222 146.524 159.304 145.291 157.469 145.291C156.505 145.291 155.805 145.61 155.369 146.248C154.939 146.886 154.724 147.8 154.724 148.992Z" fill="black"/>
</svg>
