<svg width="254" height="263" viewBox="0 0 254 263" fill="none" xmlns="http://www.w3.org/2000/svg">
<path d="M127.333 253.827C108.933 253.827 90.7691 249.679 74.1928 241.691C57.6166 233.704 43.0542 222.082 31.5885 207.691C20.1227 193.3 12.0487 176.509 7.96678 158.567C3.88483 140.625 3.89999 121.994 8.01112 104.059C12.1222 86.1238 20.2236 69.3461 31.7127 54.9735C43.2018 40.6009 57.7831 29.0032 74.3723 21.0427C90.9616 13.0823 109.132 8.96388 127.532 8.99381C145.932 9.02375 164.089 13.2012 180.653 21.2156L127.333 131.41L127.333 253.827Z" fill="#0E86D3"/>
<path d="M184.837 23.3402C208.521 35.9428 227.41 55.9771 238.598 80.3619C249.786 104.747 252.653 132.132 246.759 158.305C240.864 184.478 226.535 207.991 205.974 225.226C185.414 242.461 159.761 252.464 132.96 253.697L127.333 131.41L184.837 23.3402Z" fill="#D0D0D1"/>
<rect x="14.5762" y="18.6551" width="225.513" height="225.513" rx="112.757" fill="#F0F0F0"/>
<path d="M96.4539 114.496C97.8927 114.496 99.032 114.877 99.8719 115.638C100.712 116.4 101.132 117.438 101.132 118.754C101.132 120.277 100.653 121.468 99.6961 122.328C98.7456 123.181 97.3914 123.607 95.6336 123.607C94.0385 123.607 92.7853 123.35 91.8738 122.836V120.755C92.4012 121.055 93.0066 121.286 93.6902 121.449C94.3738 121.612 95.0086 121.693 95.5945 121.693C96.6297 121.693 97.4175 121.462 97.9578 121C98.4982 120.537 98.7684 119.86 98.7684 118.968C98.7684 117.263 97.6811 116.41 95.5066 116.41C95.2007 116.41 94.8231 116.442 94.3738 116.507C93.9246 116.566 93.5307 116.634 93.1922 116.713L92.1668 116.107L92.7137 109.134H100.136V111.175H94.7352L94.4129 114.711C94.6408 114.672 94.9175 114.626 95.243 114.574C95.575 114.522 95.9787 114.496 96.4539 114.496ZM104.657 123.412L110.302 111.175H102.88V109.154H112.753V110.755L107.138 123.412H104.657ZM116.307 113.412C116.307 114.382 116.402 115.104 116.591 115.58C116.779 116.055 117.089 116.293 117.518 116.293C118.378 116.293 118.807 115.332 118.807 113.412C118.807 111.491 118.378 110.531 117.518 110.531C117.089 110.531 116.779 110.769 116.591 111.244C116.402 111.719 116.307 112.442 116.307 113.412ZM120.702 113.392C120.702 114.89 120.432 116.016 119.891 116.771C119.358 117.52 118.567 117.894 117.518 117.894C116.529 117.894 115.761 117.507 115.214 116.732C114.673 115.951 114.403 114.838 114.403 113.392C114.403 110.417 115.442 108.929 117.518 108.929C118.54 108.929 119.325 109.317 119.872 110.091C120.425 110.86 120.702 111.96 120.702 113.392ZM125.604 119.115C125.604 120.085 125.699 120.811 125.888 121.293C126.083 121.774 126.395 122.015 126.825 122.015C127.678 122.015 128.104 121.048 128.104 119.115C128.104 117.207 127.678 116.254 126.825 116.254C126.395 116.254 126.083 116.488 125.888 116.957C125.699 117.425 125.604 118.145 125.604 119.115ZM129.999 119.115C129.999 120.612 129.729 121.735 129.188 122.484C128.648 123.233 127.86 123.607 126.825 123.607C125.835 123.607 125.067 123.223 124.52 122.455C123.973 121.68 123.7 120.567 123.7 119.115C123.7 116.14 124.742 114.652 126.825 114.652C127.828 114.652 128.606 115.036 129.159 115.804C129.719 116.573 129.999 117.676 129.999 119.115ZM127.098 109.134L119.179 123.412H117.284L125.204 109.134H127.098ZM141.942 115.648L145.321 109.134H147.86L143.104 117.875V123.412H140.761V117.953L136.024 109.134H138.563L141.942 115.648ZM154.218 123.607C152.538 123.607 151.223 123.119 150.272 122.142C149.328 121.159 148.856 119.808 148.856 118.089C148.856 116.325 149.296 114.938 150.175 113.929C151.054 112.92 152.261 112.416 153.798 112.416C155.223 112.416 156.35 112.849 157.177 113.714C158.003 114.58 158.417 115.772 158.417 117.289V118.529H151.22C151.252 119.577 151.535 120.384 152.069 120.951C152.603 121.511 153.355 121.791 154.325 121.791C154.963 121.791 155.555 121.732 156.102 121.615C156.656 121.491 157.248 121.289 157.88 121.009V122.875C157.32 123.142 156.753 123.33 156.18 123.441C155.608 123.552 154.953 123.607 154.218 123.607ZM153.798 114.154C153.068 114.154 152.483 114.385 152.04 114.847C151.604 115.31 151.343 115.983 151.259 116.869H156.161C156.148 115.977 155.933 115.303 155.516 114.847C155.1 114.385 154.527 114.154 153.798 114.154ZM168.28 120.336C168.28 121.39 167.896 122.201 167.128 122.767C166.36 123.327 165.259 123.607 163.827 123.607C162.388 123.607 161.233 123.389 160.36 122.953V120.97C161.63 121.556 162.811 121.849 163.905 121.849C165.318 121.849 166.024 121.423 166.024 120.57C166.024 120.297 165.946 120.069 165.79 119.886C165.634 119.704 165.376 119.515 165.018 119.32C164.66 119.125 164.162 118.903 163.524 118.656C162.281 118.174 161.438 117.692 160.995 117.211C160.559 116.729 160.341 116.104 160.341 115.336C160.341 114.411 160.712 113.695 161.454 113.187C162.203 112.673 163.218 112.416 164.501 112.416C165.77 112.416 166.971 112.673 168.104 113.187L167.362 114.916C166.197 114.434 165.217 114.193 164.423 114.193C163.212 114.193 162.606 114.538 162.606 115.228C162.606 115.567 162.763 115.853 163.075 116.088C163.394 116.322 164.084 116.644 165.145 117.054C166.037 117.399 166.685 117.715 167.089 118.002C167.492 118.288 167.792 118.62 167.987 118.998C168.182 119.369 168.28 119.815 168.28 120.336Z" fill="black"/>
<path d="M105.106 151.13H102.987V154.412H101.434V151.13H94.491V149.714L101.268 140.056H102.987V149.656H105.106V151.13ZM101.434 149.656V144.91C101.434 143.979 101.467 142.927 101.532 141.755H101.454C101.141 142.38 100.848 142.898 100.575 143.308L96.1121 149.656H101.434ZM115.341 143.494C115.341 144.405 115.083 145.151 114.569 145.73C114.061 146.31 113.339 146.697 112.401 146.892V146.97C113.547 147.114 114.397 147.478 114.95 148.064C115.503 148.65 115.78 149.418 115.78 150.369C115.78 151.729 115.308 152.778 114.364 153.513C113.42 154.242 112.079 154.607 110.341 154.607C109.585 154.607 108.892 154.548 108.261 154.431C107.636 154.321 107.027 154.122 106.434 153.836V152.293C107.053 152.599 107.71 152.833 108.407 152.996C109.11 153.152 109.774 153.23 110.399 153.23C112.867 153.23 114.1 152.263 114.1 150.33C114.1 148.598 112.74 147.732 110.018 147.732H108.612V146.336H110.038C111.151 146.336 112.033 146.091 112.684 145.603C113.335 145.108 113.661 144.425 113.661 143.552C113.661 142.856 113.42 142.309 112.938 141.912C112.463 141.515 111.815 141.316 110.995 141.316C110.37 141.316 109.781 141.401 109.227 141.57C108.674 141.739 108.042 142.052 107.333 142.507L106.513 141.414C107.098 140.951 107.772 140.59 108.534 140.33C109.302 140.063 110.11 139.929 110.956 139.929C112.343 139.929 113.42 140.248 114.188 140.886C114.957 141.518 115.341 142.387 115.341 143.494ZM119.325 144.392C119.325 145.499 119.445 146.329 119.686 146.882C119.927 147.436 120.318 147.713 120.858 147.713C121.926 147.713 122.46 146.606 122.46 144.392C122.46 142.192 121.926 141.091 120.858 141.091C120.318 141.091 119.927 141.365 119.686 141.912C119.445 142.459 119.325 143.285 119.325 144.392ZM123.798 144.392C123.798 145.877 123.547 147 123.046 147.761C122.551 148.517 121.822 148.894 120.858 148.894C119.947 148.894 119.237 148.507 118.729 147.732C118.228 146.957 117.977 145.844 117.977 144.392C117.977 142.914 118.218 141.801 118.7 141.052C119.188 140.304 119.908 139.929 120.858 139.929C121.802 139.929 122.528 140.317 123.036 141.091C123.544 141.866 123.798 142.966 123.798 144.392ZM127.919 150.115C127.919 151.228 128.039 152.061 128.28 152.615C128.521 153.162 128.915 153.435 129.462 153.435C130.009 153.435 130.412 153.165 130.673 152.625C130.933 152.078 131.063 151.241 131.063 150.115C131.063 149.002 130.933 148.178 130.673 147.644C130.412 147.104 130.009 146.834 129.462 146.834C128.915 146.834 128.521 147.104 128.28 147.644C128.039 148.178 127.919 149.002 127.919 150.115ZM132.401 150.115C132.401 151.593 132.151 152.713 131.649 153.474C131.154 154.229 130.425 154.607 129.462 154.607C128.537 154.607 127.824 154.22 127.323 153.445C126.828 152.67 126.581 151.56 126.581 150.115C126.581 148.637 126.822 147.524 127.304 146.775C127.792 146.026 128.511 145.652 129.462 145.652C130.386 145.652 131.106 146.036 131.62 146.804C132.141 147.566 132.401 148.67 132.401 150.115ZM129.882 140.134L121.962 154.412H120.526L128.446 140.134H129.882ZM151.737 154.412H149.843L142.04 142.429H141.962C142.066 143.836 142.118 145.125 142.118 146.297V154.412H140.585V140.134H142.46L150.243 152.068H150.321C150.308 151.892 150.279 151.329 150.233 150.379C150.188 149.422 150.171 148.738 150.184 148.328V140.134H151.737V154.412ZM164.657 149.05C164.657 150.795 164.218 152.159 163.339 153.142C162.46 154.119 161.246 154.607 159.696 154.607C158.739 154.607 157.889 154.382 157.147 153.933C156.405 153.484 155.832 152.839 155.429 152C155.025 151.16 154.823 150.177 154.823 149.05C154.823 147.306 155.259 145.948 156.132 144.978C157.004 144.002 158.215 143.513 159.764 143.513C161.262 143.513 162.45 144.011 163.329 145.007C164.214 146.004 164.657 147.351 164.657 149.05ZM156.503 149.05C156.503 150.418 156.776 151.459 157.323 152.175C157.87 152.892 158.674 153.25 159.735 153.25C160.796 153.25 161.6 152.895 162.147 152.185C162.701 151.469 162.977 150.424 162.977 149.05C162.977 147.69 162.701 146.658 162.147 145.955C161.6 145.245 160.79 144.89 159.716 144.89C158.654 144.89 157.854 145.239 157.313 145.935C156.773 146.632 156.503 147.67 156.503 149.05Z" fill="black"/>
</svg>
