<svg width="254" height="263" viewBox="0 0 254 263" fill="none" xmlns="http://www.w3.org/2000/svg">
<path d="M126.666 253.827C103.445 253.827 80.7015 247.222 61.0922 234.782C41.4829 222.343 25.8161 204.583 15.9207 183.575C6.02519 162.567 2.30923 139.177 5.20652 116.137C8.10381 93.0963 17.4948 71.3552 32.2834 53.451C47.072 35.5469 66.648 22.2184 88.7266 15.0213C110.805 7.82424 134.475 7.05549 156.974 12.8048C179.473 18.5541 199.873 30.5842 215.792 47.4911C231.711 64.3979 242.493 85.4839 246.879 108.288L126.667 131.41L126.666 253.827Z" fill="#0E86D3"/>
<path d="M248.048 115.525C250.231 132.203 248.953 149.153 244.294 165.316C239.635 181.478 231.695 196.507 220.97 209.465C210.245 222.423 196.964 233.032 181.957 240.629C166.95 248.226 150.538 252.649 133.745 253.622L126.667 131.41L248.048 115.525Z" fill="#D0D0D1"/>
<rect x="13.9097" y="18.6551" width="225.513" height="225.513" rx="112.757" fill="#F0F0F0"/>
<path d="M92.5648 123.412L98.2093 111.175H90.7874V109.154H100.66V110.755L95.0452 123.412H92.5648ZM112.047 123.412H102.369V121.673L106.051 117.972C107.138 116.859 107.858 116.071 108.209 115.609C108.567 115.14 108.828 114.701 108.991 114.291C109.153 113.88 109.235 113.441 109.235 112.972C109.235 112.328 109.039 111.82 108.649 111.449C108.265 111.078 107.731 110.892 107.047 110.892C106.5 110.892 105.97 110.993 105.455 111.195C104.948 111.397 104.358 111.761 103.688 112.289L102.448 110.775C103.242 110.104 104.013 109.629 104.762 109.349C105.511 109.069 106.308 108.929 107.155 108.929C108.483 108.929 109.547 109.278 110.348 109.974C111.149 110.664 111.549 111.595 111.549 112.767C111.549 113.412 111.432 114.024 111.198 114.603C110.97 115.183 110.615 115.782 110.133 116.4C109.658 117.012 108.864 117.842 107.75 118.89L105.27 121.293V121.39H112.047V123.412ZM115.641 113.412C115.641 114.382 115.735 115.104 115.924 115.58C116.113 116.055 116.422 116.293 116.852 116.293C117.711 116.293 118.141 115.332 118.141 113.412C118.141 111.491 117.711 110.531 116.852 110.531C116.422 110.531 116.113 110.769 115.924 111.244C115.735 111.719 115.641 112.442 115.641 113.412ZM120.035 113.392C120.035 114.89 119.765 116.016 119.225 116.771C118.691 117.52 117.9 117.894 116.852 117.894C115.862 117.894 115.094 117.507 114.547 116.732C114.007 115.951 113.737 114.838 113.737 113.392C113.737 110.417 114.775 108.929 116.852 108.929C117.874 108.929 118.659 109.317 119.205 110.091C119.759 110.86 120.035 111.96 120.035 113.392ZM124.938 119.115C124.938 120.085 125.032 120.811 125.221 121.293C125.416 121.774 125.729 122.015 126.159 122.015C127.011 122.015 127.438 121.048 127.438 119.115C127.438 117.207 127.011 116.254 126.159 116.254C125.729 116.254 125.416 116.488 125.221 116.957C125.032 117.425 124.938 118.145 124.938 119.115ZM129.332 119.115C129.332 120.612 129.062 121.735 128.522 122.484C127.981 123.233 127.194 123.607 126.159 123.607C125.169 123.607 124.401 123.223 123.854 122.455C123.307 121.68 123.034 120.567 123.034 119.115C123.034 116.14 124.075 114.652 126.159 114.652C127.161 114.652 127.939 115.036 128.492 115.804C129.052 116.573 129.332 117.676 129.332 119.115ZM126.432 109.134L118.512 123.412H116.617L124.537 109.134H126.432ZM141.276 115.648L144.655 109.134H147.194L142.438 117.875V123.412H140.094V117.953L135.358 109.134H137.897L141.276 115.648ZM153.551 123.607C151.871 123.607 150.556 123.119 149.606 122.142C148.662 121.159 148.19 119.808 148.19 118.089C148.19 116.325 148.629 114.938 149.508 113.929C150.387 112.92 151.595 112.416 153.131 112.416C154.557 112.416 155.683 112.849 156.51 113.714C157.337 114.58 157.75 115.772 157.75 117.289V118.529H150.553C150.586 119.577 150.869 120.384 151.403 120.951C151.936 121.511 152.688 121.791 153.659 121.791C154.297 121.791 154.889 121.732 155.436 121.615C155.989 121.491 156.582 121.289 157.213 121.009V122.875C156.653 123.142 156.087 123.33 155.514 123.441C154.941 123.552 154.287 123.607 153.551 123.607ZM153.131 114.154C152.402 114.154 151.816 114.385 151.373 114.847C150.937 115.31 150.677 115.983 150.592 116.869H155.494C155.481 115.977 155.267 115.303 154.85 114.847C154.433 114.385 153.86 114.154 153.131 114.154ZM167.614 120.336C167.614 121.39 167.229 122.201 166.461 122.767C165.693 123.327 164.593 123.607 163.16 123.607C161.722 123.607 160.566 123.389 159.694 122.953V120.97C160.963 121.556 162.145 121.849 163.239 121.849C164.651 121.849 165.358 121.423 165.358 120.57C165.358 120.297 165.28 120.069 165.123 119.886C164.967 119.704 164.71 119.515 164.352 119.32C163.994 119.125 163.496 118.903 162.858 118.656C161.614 118.174 160.771 117.692 160.328 117.211C159.892 116.729 159.674 116.104 159.674 115.336C159.674 114.411 160.045 113.695 160.787 113.187C161.536 112.673 162.552 112.416 163.834 112.416C165.104 112.416 166.305 112.673 167.438 113.187L166.696 114.916C165.53 114.434 164.55 114.193 163.756 114.193C162.545 114.193 161.94 114.538 161.94 115.228C161.94 115.567 162.096 115.853 162.409 116.088C162.728 116.322 163.418 116.644 164.479 117.054C165.371 117.399 166.019 117.715 166.422 118.002C166.826 118.288 167.125 118.62 167.321 118.998C167.516 119.369 167.614 119.815 167.614 120.336Z" fill="black"/>
<path d="M101.168 154.412H91.7835V153.015L95.5433 149.236C96.6891 148.077 97.4443 147.25 97.8089 146.755C98.1735 146.261 98.4469 145.779 98.6292 145.31C98.8115 144.841 98.9026 144.337 98.9026 143.797C98.9026 143.035 98.6715 142.433 98.2093 141.99C97.747 141.541 97.1058 141.316 96.2855 141.316C95.693 141.316 95.1299 141.414 94.596 141.609C94.0687 141.804 93.4795 142.159 92.8284 142.673L91.969 141.57C93.2842 140.476 94.7164 139.929 96.2659 139.929C97.6071 139.929 98.6585 140.274 99.4202 140.964C100.182 141.648 100.563 142.569 100.563 143.728C100.563 144.633 100.309 145.528 99.8011 146.414C99.2933 147.299 98.3427 148.419 96.9495 149.773L93.8245 152.83V152.908H101.168V154.412ZM107.955 139.929C109.257 139.929 110.289 140.232 111.051 140.838C111.813 141.443 112.194 142.28 112.194 143.347C112.194 144.05 111.976 144.692 111.539 145.271C111.103 145.851 110.407 146.378 109.45 146.853C110.608 147.407 111.432 147.989 111.92 148.601C112.409 149.207 112.653 149.91 112.653 150.711C112.653 151.895 112.239 152.843 111.412 153.552C110.586 154.255 109.453 154.607 108.014 154.607C106.491 154.607 105.319 154.275 104.498 153.611C103.678 152.94 103.268 151.993 103.268 150.769C103.268 149.135 104.264 147.862 106.256 146.951C105.358 146.443 104.713 145.896 104.323 145.31C103.932 144.718 103.737 144.057 103.737 143.328C103.737 142.293 104.117 141.469 104.879 140.857C105.647 140.239 106.673 139.929 107.955 139.929ZM104.869 150.808C104.869 151.589 105.14 152.198 105.68 152.634C106.227 153.071 106.992 153.289 107.975 153.289C108.945 153.289 109.7 153.061 110.241 152.605C110.781 152.149 111.051 151.524 111.051 150.73C111.051 150.099 110.797 149.539 110.289 149.05C109.782 148.556 108.896 148.077 107.633 147.615C106.663 148.032 105.96 148.494 105.524 149.002C105.088 149.503 104.869 150.105 104.869 150.808ZM107.936 141.248C107.122 141.248 106.484 141.443 106.022 141.834C105.56 142.224 105.328 142.745 105.328 143.396C105.328 143.995 105.52 144.509 105.905 144.939C106.289 145.369 106.998 145.798 108.034 146.228C108.964 145.838 109.622 145.418 110.006 144.968C110.397 144.519 110.592 143.995 110.592 143.396C110.592 142.739 110.354 142.218 109.879 141.834C109.41 141.443 108.763 141.248 107.936 141.248ZM116.061 144.392C116.061 145.499 116.181 146.329 116.422 146.882C116.663 147.436 117.054 147.713 117.594 147.713C118.662 147.713 119.196 146.606 119.196 144.392C119.196 142.192 118.662 141.091 117.594 141.091C117.054 141.091 116.663 141.365 116.422 141.912C116.181 142.459 116.061 143.285 116.061 144.392ZM120.534 144.392C120.534 145.877 120.283 147 119.782 147.761C119.287 148.517 118.558 148.894 117.594 148.894C116.683 148.894 115.973 148.507 115.465 147.732C114.964 146.957 114.713 145.844 114.713 144.392C114.713 142.914 114.954 141.801 115.436 141.052C115.924 140.304 116.644 139.929 117.594 139.929C118.538 139.929 119.264 140.317 119.772 141.091C120.28 141.866 120.534 142.966 120.534 144.392ZM124.655 150.115C124.655 151.228 124.775 152.061 125.016 152.615C125.257 153.162 125.651 153.435 126.198 153.435C126.744 153.435 127.148 153.165 127.409 152.625C127.669 152.078 127.799 151.241 127.799 150.115C127.799 149.002 127.669 148.178 127.409 147.644C127.148 147.104 126.744 146.834 126.198 146.834C125.651 146.834 125.257 147.104 125.016 147.644C124.775 148.178 124.655 149.002 124.655 150.115ZM129.137 150.115C129.137 151.593 128.886 152.713 128.385 153.474C127.89 154.229 127.161 154.607 126.198 154.607C125.273 154.607 124.56 154.22 124.059 153.445C123.564 152.67 123.317 151.56 123.317 150.115C123.317 148.637 123.558 147.524 124.039 146.775C124.528 146.026 125.247 145.652 126.198 145.652C127.122 145.652 127.841 146.036 128.356 146.804C128.877 147.566 129.137 148.67 129.137 150.115ZM126.617 140.134L118.698 154.412H117.262L125.182 140.134H126.617ZM148.473 154.412H146.578L138.776 142.429H138.698C138.802 143.836 138.854 145.125 138.854 146.297V154.412H137.321V140.134H139.196L146.979 152.068H147.057C147.044 151.892 147.015 151.329 146.969 150.379C146.923 149.422 146.907 148.738 146.92 148.328V140.134H148.473V154.412ZM161.393 149.05C161.393 150.795 160.953 152.159 160.075 153.142C159.196 154.119 157.981 154.607 156.432 154.607C155.475 154.607 154.625 154.382 153.883 153.933C153.141 153.484 152.568 152.839 152.164 152C151.761 151.16 151.559 150.177 151.559 149.05C151.559 147.306 151.995 145.948 152.867 144.978C153.74 144.002 154.951 143.513 156.5 143.513C157.998 143.513 159.186 144.011 160.065 145.007C160.95 146.004 161.393 147.351 161.393 149.05ZM153.239 149.05C153.239 150.418 153.512 151.459 154.059 152.175C154.606 152.892 155.41 153.25 156.471 153.25C157.532 153.25 158.336 152.895 158.883 152.185C159.436 151.469 159.713 150.424 159.713 149.05C159.713 147.69 159.436 146.658 158.883 145.955C158.336 145.245 157.526 144.89 156.451 144.89C155.39 144.89 154.589 145.239 154.049 145.935C153.509 146.632 153.239 147.67 153.239 149.05Z" fill="black"/>
</svg>
