<svg width="448" height="432" viewBox="0 0 448 432" fill="none" xmlns="http://www.w3.org/2000/svg">
<path d="M333.573 401.637C329.686 403.932 325.728 406.105 321.705 408.151L224 216.073L333.573 401.637Z" fill="#A1A2A4"/>
<path d="M318.653 409.673C298.338 419.606 276.586 426.279 254.195 429.447L224 216.073L318.653 409.673Z" fill="#D0D0D1"/>
<path d="M248.016 430.231C195.286 436.144 142.229 422.396 99.0067 391.621C55.7841 360.845 25.4345 315.206 13.771 263.444C2.10748 211.682 9.95007 157.437 35.7966 111.098C61.6431 64.7596 103.677 29.5851 153.846 12.312C204.015 -4.96109 258.793 -3.11843 307.689 17.4871C356.584 38.0925 396.158 76.0122 418.832 123.983C441.506 171.954 445.686 226.604 430.57 277.465C415.455 328.326 382.107 371.822 336.914 399.624L224 216.073L248.016 430.231Z" fill="#1F74FE"/>
<rect x="25.5049" y="17.5801" width="396.99" height="396.99" rx="198.495" fill="#F0F0F0"/>
<path d="M171.91 184.392C171.91 187.204 171.344 189.304 170.211 190.69C169.078 192.077 167.372 192.771 165.094 192.771C164.228 192.771 163.606 192.718 163.228 192.614V190.69C163.808 190.853 164.39 190.935 164.976 190.935C166.526 190.935 167.681 190.518 168.443 189.685C169.205 188.851 169.622 187.543 169.693 185.759H169.576C169.192 186.345 168.726 186.768 168.18 187.028C167.639 187.289 167.004 187.419 166.275 187.419C165.012 187.419 164.019 187.025 163.297 186.237C162.574 185.45 162.213 184.369 162.213 182.995C162.213 181.504 162.629 180.319 163.463 179.44C164.303 178.555 165.445 178.112 166.89 178.112C167.906 178.112 168.791 178.36 169.547 178.854C170.302 179.349 170.885 180.069 171.295 181.013C171.705 181.95 171.91 183.076 171.91 184.392ZM166.93 180.017C166.135 180.017 165.527 180.277 165.103 180.798C164.68 181.312 164.469 182.038 164.469 182.976C164.469 183.789 164.664 184.431 165.055 184.899C165.452 185.362 166.051 185.593 166.851 185.593C167.626 185.593 168.277 185.362 168.805 184.899C169.332 184.437 169.596 183.897 169.596 183.278C169.596 182.699 169.482 182.159 169.254 181.657C169.032 181.149 168.72 180.749 168.316 180.456C167.913 180.163 167.45 180.017 166.93 180.017ZM182.818 181.579C182.818 182.484 182.555 183.239 182.027 183.845C181.5 184.444 180.758 184.847 179.801 185.056V185.134C180.946 185.277 181.806 185.635 182.379 186.208C182.952 186.774 183.238 187.53 183.238 188.474C183.238 189.847 182.753 190.909 181.783 191.657C180.813 192.399 179.433 192.771 177.642 192.771C176.06 192.771 174.726 192.513 173.639 191.999V189.958C174.244 190.257 174.885 190.489 175.562 190.651C176.239 190.814 176.89 190.896 177.515 190.896C178.622 190.896 179.449 190.69 179.996 190.28C180.543 189.87 180.816 189.235 180.816 188.376C180.816 187.614 180.514 187.054 179.908 186.696C179.303 186.338 178.352 186.159 177.056 186.159H175.816V184.294H177.076C179.355 184.294 180.494 183.506 180.494 181.931C180.494 181.319 180.295 180.847 179.898 180.515C179.501 180.183 178.915 180.017 178.14 180.017C177.6 180.017 177.079 180.095 176.578 180.251C176.077 180.401 175.484 180.697 174.801 181.14L173.678 179.538C174.986 178.575 176.506 178.093 178.238 178.093C179.677 178.093 180.8 178.402 181.607 179.021C182.415 179.639 182.818 180.492 182.818 181.579ZM186.949 182.575C186.949 183.545 187.043 184.268 187.232 184.743C187.421 185.218 187.73 185.456 188.16 185.456C189.019 185.456 189.449 184.496 189.449 182.575C189.449 180.655 189.019 179.694 188.16 179.694C187.73 179.694 187.421 179.932 187.232 180.407C187.043 180.882 186.949 181.605 186.949 182.575ZM191.344 182.556C191.344 184.053 191.073 185.179 190.533 185.935C189.999 186.683 189.208 187.058 188.16 187.058C187.17 187.058 186.402 186.67 185.855 185.896C185.315 185.114 185.045 184.001 185.045 182.556C185.045 179.58 186.083 178.093 188.16 178.093C189.182 178.093 189.967 178.48 190.514 179.255C191.067 180.023 191.344 181.123 191.344 182.556ZM196.246 188.278C196.246 189.248 196.34 189.974 196.529 190.456C196.724 190.938 197.037 191.179 197.467 191.179C198.319 191.179 198.746 190.212 198.746 188.278C198.746 186.371 198.319 185.417 197.467 185.417C197.037 185.417 196.724 185.651 196.529 186.12C196.34 186.589 196.246 187.308 196.246 188.278ZM200.64 188.278C200.64 189.776 200.37 190.899 199.83 191.647C199.29 192.396 198.502 192.771 197.467 192.771C196.477 192.771 195.709 192.386 195.162 191.618C194.615 190.843 194.342 189.73 194.342 188.278C194.342 185.303 195.383 183.815 197.467 183.815C198.469 183.815 199.247 184.2 199.801 184.968C200.361 185.736 200.64 186.84 200.64 188.278ZM197.74 178.298L189.82 192.575H187.926L195.846 178.298H197.74ZM220.162 185.3C220.162 187.657 219.508 189.46 218.199 190.71C216.89 191.953 215.006 192.575 212.545 192.575H208.551V178.298H212.965C215.237 178.298 217.004 178.91 218.267 180.134C219.53 181.358 220.162 183.08 220.162 185.3ZM217.701 185.378C217.701 181.96 216.103 180.251 212.906 180.251H210.885V190.612H212.545C215.982 190.612 217.701 188.868 217.701 185.378ZM227.711 192.771C226.031 192.771 224.716 192.282 223.765 191.306C222.821 190.323 222.349 188.972 222.349 187.253C222.349 185.489 222.789 184.102 223.668 183.093C224.547 182.084 225.754 181.579 227.291 181.579C228.717 181.579 229.843 182.012 230.67 182.878C231.497 183.744 231.91 184.935 231.91 186.452V187.692H224.713C224.745 188.741 225.028 189.548 225.562 190.114C226.096 190.674 226.848 190.954 227.818 190.954C228.456 190.954 229.049 190.896 229.596 190.778C230.149 190.655 230.741 190.453 231.373 190.173V192.038C230.813 192.305 230.247 192.494 229.674 192.604C229.101 192.715 228.446 192.771 227.711 192.771ZM227.291 183.317C226.562 183.317 225.976 183.549 225.533 184.011C225.097 184.473 224.836 185.147 224.752 186.032H229.654C229.641 185.14 229.426 184.466 229.01 184.011C228.593 183.549 228.02 183.317 227.291 183.317ZM241.773 189.499C241.773 190.554 241.389 191.364 240.621 191.931C239.853 192.491 238.752 192.771 237.32 192.771C235.881 192.771 234.726 192.552 233.853 192.116V190.134C235.123 190.72 236.305 191.013 237.398 191.013C238.811 191.013 239.517 190.586 239.517 189.733C239.517 189.46 239.439 189.232 239.283 189.05C239.127 188.868 238.87 188.679 238.512 188.483C238.153 188.288 237.655 188.067 237.017 187.819C235.774 187.338 234.931 186.856 234.488 186.374C234.052 185.892 233.834 185.267 233.834 184.499C233.834 183.575 234.205 182.858 234.947 182.351C235.696 181.836 236.711 181.579 237.994 181.579C239.264 181.579 240.465 181.836 241.597 182.351L240.855 184.079C239.69 183.597 238.71 183.356 237.916 183.356C236.705 183.356 236.099 183.701 236.099 184.392C236.099 184.73 236.256 185.017 236.568 185.251C236.887 185.485 237.577 185.808 238.639 186.218C239.53 186.563 240.178 186.879 240.582 187.165C240.986 187.451 241.285 187.784 241.48 188.161C241.676 188.532 241.773 188.978 241.773 189.499ZM246.48 186.872L247.779 185.251L251.041 181.774H253.687L249.342 186.413L253.961 192.575H251.265L247.799 187.839L246.539 188.874V192.575H244.264V177.38H246.539V184.792L246.422 186.872H246.48ZM259.732 190.915C260.292 190.915 260.852 190.827 261.412 190.651V192.38C261.158 192.491 260.829 192.582 260.426 192.653C260.028 192.731 259.615 192.771 259.185 192.771C257.011 192.771 255.924 191.625 255.924 189.333V183.513H254.449V182.497L256.031 181.657L256.812 179.372H258.228V181.774H261.305V183.513H258.228V189.294C258.228 189.847 258.365 190.257 258.639 190.524C258.918 190.785 259.283 190.915 259.732 190.915ZM273.16 187.155C273.16 188.92 272.708 190.297 271.803 191.286C270.898 192.276 269.638 192.771 268.023 192.771C267.014 192.771 266.122 192.543 265.347 192.087C264.573 191.631 263.977 190.977 263.56 190.124C263.144 189.271 262.935 188.282 262.935 187.155C262.935 185.404 263.385 184.037 264.283 183.054C265.181 182.071 266.448 181.579 268.082 181.579C269.644 181.579 270.881 182.084 271.793 183.093C272.704 184.095 273.16 185.45 273.16 187.155ZM265.299 187.155C265.299 189.649 266.22 190.896 268.062 190.896C269.885 190.896 270.797 189.649 270.797 187.155C270.797 184.688 269.879 183.454 268.043 183.454C267.079 183.454 266.379 183.773 265.943 184.411C265.514 185.049 265.299 185.964 265.299 187.155ZM281.285 192.771C279.918 192.771 278.857 192.279 278.101 191.296H277.965C278.056 192.207 278.101 192.761 278.101 192.956V197.38H275.806V181.774H277.662C277.714 181.976 277.821 182.458 277.984 183.22H278.101C278.818 182.126 279.892 181.579 281.324 181.579C282.672 181.579 283.72 182.067 284.469 183.044C285.224 184.021 285.601 185.391 285.601 187.155C285.601 188.92 285.217 190.297 284.449 191.286C283.687 192.276 282.633 192.771 281.285 192.771ZM280.728 183.454C279.817 183.454 279.15 183.721 278.726 184.255C278.31 184.789 278.101 185.642 278.101 186.813V187.155C278.101 188.47 278.31 189.424 278.726 190.017C279.143 190.603 279.823 190.896 280.767 190.896C281.562 190.896 282.174 190.57 282.603 189.919C283.033 189.268 283.248 188.34 283.248 187.136C283.248 185.925 283.033 185.01 282.603 184.392C282.18 183.767 281.555 183.454 280.728 183.454Z" fill="black"/>
<path d="M181.002 214.854C182.506 214.854 183.687 215.229 184.547 215.978C185.413 216.72 185.846 217.739 185.846 219.034C185.846 220.512 185.374 221.671 184.43 222.511C183.492 223.351 182.196 223.771 180.543 223.771C178.935 223.771 177.708 223.513 176.861 222.999V221.437C177.317 221.729 177.883 221.961 178.56 222.13C179.237 222.293 179.905 222.374 180.562 222.374C181.708 222.374 182.597 222.104 183.228 221.563C183.866 221.023 184.185 220.242 184.185 219.22C184.185 217.228 182.965 216.231 180.523 216.231C179.905 216.231 179.078 216.326 178.043 216.515L177.203 215.978L177.74 209.298H184.84V210.792H179.127L178.765 215.079C179.514 214.929 180.26 214.854 181.002 214.854ZM189.371 213.556C189.371 214.662 189.491 215.493 189.732 216.046C189.973 216.599 190.364 216.876 190.904 216.876C191.972 216.876 192.506 215.769 192.506 213.556C192.506 211.355 191.972 210.255 190.904 210.255C190.364 210.255 189.973 210.528 189.732 211.075C189.491 211.622 189.371 212.449 189.371 213.556ZM193.844 213.556C193.844 215.04 193.593 216.163 193.092 216.925C192.597 217.68 191.868 218.058 190.904 218.058C189.993 218.058 189.283 217.67 188.775 216.896C188.274 216.121 188.023 215.007 188.023 213.556C188.023 212.078 188.264 210.965 188.746 210.216C189.234 209.467 189.954 209.093 190.904 209.093C191.848 209.093 192.574 209.48 193.082 210.255C193.59 211.03 193.844 212.13 193.844 213.556ZM197.965 219.278C197.965 220.392 198.085 221.225 198.326 221.778C198.567 222.325 198.961 222.599 199.508 222.599C200.055 222.599 200.458 222.328 200.719 221.788C200.979 221.241 201.109 220.405 201.109 219.278C201.109 218.165 200.979 217.341 200.719 216.808C200.458 216.267 200.055 215.997 199.508 215.997C198.961 215.997 198.567 216.267 198.326 216.808C198.085 217.341 197.965 218.165 197.965 219.278ZM202.447 219.278C202.447 220.756 202.196 221.876 201.695 222.638C201.2 223.393 200.471 223.771 199.508 223.771C198.583 223.771 197.87 223.383 197.369 222.608C196.874 221.834 196.627 220.724 196.627 219.278C196.627 217.8 196.868 216.687 197.349 215.938C197.838 215.19 198.557 214.815 199.508 214.815C200.432 214.815 201.152 215.2 201.666 215.968C202.187 216.729 202.447 217.833 202.447 219.278ZM199.928 209.298L192.008 223.575H190.572L198.492 209.298H199.928ZM216.949 223.575L212.105 210.919H212.027C212.118 211.922 212.164 213.113 212.164 214.493V223.575H210.631V209.298H213.131L217.652 221.075H217.73L222.291 209.298H224.771V223.575H223.111V214.376C223.111 213.321 223.157 212.175 223.248 210.938H223.17L218.287 223.575H216.949ZM237.691 218.214C237.691 219.959 237.252 221.323 236.373 222.306C235.494 223.282 234.28 223.771 232.73 223.771C231.773 223.771 230.924 223.546 230.181 223.097C229.439 222.647 228.866 222.003 228.463 221.163C228.059 220.323 227.857 219.34 227.857 218.214C227.857 216.469 228.293 215.112 229.166 214.142C230.038 213.165 231.249 212.677 232.799 212.677C234.296 212.677 235.484 213.175 236.363 214.171C237.249 215.167 237.691 216.515 237.691 218.214ZM229.537 218.214C229.537 219.581 229.81 220.623 230.357 221.339C230.904 222.055 231.708 222.413 232.769 222.413C233.831 222.413 234.635 222.058 235.181 221.349C235.735 220.632 236.012 219.588 236.012 218.214C236.012 216.853 235.735 215.821 235.181 215.118C234.635 214.409 233.824 214.054 232.75 214.054C231.689 214.054 230.888 214.402 230.347 215.099C229.807 215.795 229.537 216.834 229.537 218.214ZM245.523 212.696C246.93 212.696 248.02 213.178 248.795 214.142C249.576 215.099 249.967 216.456 249.967 218.214C249.967 219.972 249.573 221.339 248.785 222.315C248.004 223.285 246.916 223.771 245.523 223.771C244.827 223.771 244.189 223.644 243.609 223.39C243.036 223.129 242.555 222.732 242.164 222.198H242.047L241.705 223.575H240.543V208.38H242.164V212.071C242.164 212.898 242.138 213.64 242.086 214.298H242.164C242.919 213.23 244.039 212.696 245.523 212.696ZM245.289 214.054C244.182 214.054 243.385 214.373 242.896 215.011C242.408 215.642 242.164 216.71 242.164 218.214C242.164 219.718 242.415 220.795 242.916 221.446C243.417 222.091 244.221 222.413 245.328 222.413C246.324 222.413 247.066 222.052 247.555 221.329C248.043 220.6 248.287 219.555 248.287 218.194C248.287 216.801 248.043 215.763 247.555 215.079C247.066 214.396 246.311 214.054 245.289 214.054ZM254.43 223.575H252.808V212.872H254.43V223.575ZM252.672 209.972C252.672 209.601 252.763 209.33 252.945 209.161C253.127 208.985 253.355 208.897 253.629 208.897C253.889 208.897 254.114 208.985 254.303 209.161C254.491 209.337 254.586 209.607 254.586 209.972C254.586 210.336 254.491 210.61 254.303 210.792C254.114 210.968 253.889 211.056 253.629 211.056C253.355 211.056 253.127 210.968 252.945 210.792C252.763 210.61 252.672 210.336 252.672 209.972ZM259.488 223.575H257.867V208.38H259.488V223.575ZM267.447 223.771C265.865 223.771 264.615 223.289 263.697 222.325C262.786 221.362 262.33 220.024 262.33 218.312C262.33 216.586 262.753 215.216 263.599 214.2C264.452 213.185 265.595 212.677 267.027 212.677C268.368 212.677 269.43 213.119 270.211 214.005C270.992 214.884 271.383 216.046 271.383 217.491V218.517H264.01C264.042 219.773 264.358 220.727 264.957 221.378C265.562 222.029 266.412 222.354 267.506 222.354C268.658 222.354 269.797 222.114 270.924 221.632V223.077C270.351 223.325 269.807 223.5 269.293 223.604C268.785 223.715 268.17 223.771 267.447 223.771ZM267.008 214.034C266.148 214.034 265.461 214.314 264.947 214.874C264.439 215.434 264.14 216.209 264.049 217.198H269.644C269.644 216.176 269.416 215.395 268.961 214.854C268.505 214.308 267.854 214.034 267.008 214.034Z" fill="black"/>
<path d="M188.892 254.575H179.508V253.179L183.267 249.399C184.413 248.241 185.168 247.414 185.533 246.919C185.898 246.424 186.171 245.942 186.353 245.474C186.536 245.005 186.627 244.5 186.627 243.96C186.627 243.198 186.396 242.596 185.933 242.153C185.471 241.704 184.83 241.479 184.01 241.479C183.417 241.479 182.854 241.577 182.32 241.772C181.793 241.968 181.204 242.323 180.553 242.837L179.693 241.733C181.008 240.64 182.441 240.093 183.99 240.093C185.331 240.093 186.383 240.438 187.144 241.128C187.906 241.812 188.287 242.733 188.287 243.892C188.287 244.797 188.033 245.692 187.525 246.577C187.017 247.463 186.067 248.582 184.674 249.937L181.549 252.993V253.071H188.892V254.575ZM192.34 244.556C192.34 245.662 192.46 246.493 192.701 247.046C192.942 247.599 193.333 247.876 193.873 247.876C194.941 247.876 195.474 246.769 195.474 244.556C195.474 242.355 194.941 241.255 193.873 241.255C193.333 241.255 192.942 241.528 192.701 242.075C192.46 242.622 192.34 243.449 192.34 244.556ZM196.812 244.556C196.812 246.04 196.562 247.163 196.06 247.925C195.566 248.68 194.836 249.058 193.873 249.058C192.961 249.058 192.252 248.67 191.744 247.896C191.243 247.121 190.992 246.007 190.992 244.556C190.992 243.078 191.233 241.965 191.715 241.216C192.203 240.467 192.922 240.093 193.873 240.093C194.817 240.093 195.543 240.48 196.051 241.255C196.558 242.03 196.812 243.13 196.812 244.556ZM200.933 250.278C200.933 251.392 201.054 252.225 201.295 252.778C201.536 253.325 201.93 253.599 202.476 253.599C203.023 253.599 203.427 253.328 203.687 252.788C203.948 252.241 204.078 251.405 204.078 250.278C204.078 249.165 203.948 248.341 203.687 247.808C203.427 247.267 203.023 246.997 202.476 246.997C201.93 246.997 201.536 247.267 201.295 247.808C201.054 248.341 200.933 249.165 200.933 250.278ZM205.416 250.278C205.416 251.756 205.165 252.876 204.664 253.638C204.169 254.393 203.44 254.771 202.476 254.771C201.552 254.771 200.839 254.383 200.338 253.608C199.843 252.834 199.596 251.724 199.596 250.278C199.596 248.8 199.836 247.687 200.318 246.938C200.806 246.19 201.526 245.815 202.476 245.815C203.401 245.815 204.12 246.2 204.635 246.968C205.155 247.729 205.416 248.833 205.416 250.278ZM202.896 240.298L194.976 254.575H193.541L201.461 240.298H202.896ZM217.994 254.575H216.334V241.772H211.812V240.298H222.515V241.772H217.994V254.575ZM231.012 254.575L230.689 253.052H230.611C230.077 253.722 229.543 254.178 229.01 254.419C228.482 254.653 227.821 254.771 227.027 254.771C225.966 254.771 225.133 254.497 224.527 253.95C223.928 253.403 223.629 252.625 223.629 251.616C223.629 249.455 225.357 248.322 228.814 248.218L230.631 248.159V247.495C230.631 246.655 230.448 246.037 230.084 245.64C229.726 245.236 229.15 245.034 228.355 245.034C227.463 245.034 226.454 245.308 225.328 245.854L224.83 244.614C225.357 244.328 225.933 244.103 226.558 243.94C227.19 243.778 227.821 243.696 228.453 243.696C229.729 243.696 230.673 243.979 231.285 244.546C231.903 245.112 232.213 246.021 232.213 247.271V254.575H231.012ZM227.349 253.433C228.359 253.433 229.15 253.156 229.722 252.603C230.302 252.049 230.592 251.274 230.592 250.278V249.312L228.971 249.38C227.681 249.425 226.75 249.627 226.178 249.985C225.611 250.337 225.328 250.887 225.328 251.636C225.328 252.222 225.504 252.668 225.855 252.974C226.213 253.28 226.711 253.433 227.349 253.433ZM240.543 243.696C241.949 243.696 243.04 244.178 243.814 245.142C244.596 246.099 244.986 247.456 244.986 249.214C244.986 250.972 244.592 252.339 243.805 253.315C243.023 254.285 241.936 254.771 240.543 254.771C239.846 254.771 239.208 254.644 238.629 254.39C238.056 254.129 237.574 253.732 237.183 253.198H237.066L236.724 254.575H235.562V239.38H237.183V243.071C237.183 243.898 237.157 244.64 237.105 245.298H237.183C237.939 244.23 239.058 243.696 240.543 243.696ZM240.308 245.054C239.202 245.054 238.404 245.373 237.916 246.011C237.428 246.642 237.183 247.71 237.183 249.214C237.183 250.718 237.434 251.795 237.935 252.446C238.437 253.091 239.241 253.413 240.347 253.413C241.344 253.413 242.086 253.052 242.574 252.329C243.062 251.6 243.306 250.555 243.306 249.194C243.306 247.801 243.062 246.763 242.574 246.079C242.086 245.396 241.331 245.054 240.308 245.054ZM249.449 254.575H247.828V239.38H249.449V254.575ZM257.408 254.771C255.826 254.771 254.576 254.289 253.658 253.325C252.747 252.362 252.291 251.024 252.291 249.312C252.291 247.586 252.714 246.216 253.56 245.2C254.413 244.185 255.556 243.677 256.988 243.677C258.329 243.677 259.39 244.119 260.172 245.005C260.953 245.884 261.344 247.046 261.344 248.491V249.517H253.971C254.003 250.773 254.319 251.727 254.918 252.378C255.523 253.029 256.373 253.354 257.467 253.354C258.619 253.354 259.758 253.114 260.885 252.632V254.077C260.312 254.325 259.768 254.5 259.254 254.604C258.746 254.715 258.131 254.771 257.408 254.771ZM256.969 245.034C256.109 245.034 255.422 245.314 254.908 245.874C254.4 246.434 254.101 247.209 254.01 248.198H259.605C259.605 247.176 259.377 246.395 258.922 245.854C258.466 245.308 257.815 245.034 256.969 245.034ZM267.574 253.433C267.861 253.433 268.137 253.413 268.404 253.374C268.671 253.328 268.883 253.283 269.039 253.237V254.478C268.863 254.562 268.603 254.631 268.258 254.683C267.919 254.741 267.613 254.771 267.34 254.771C265.269 254.771 264.234 253.68 264.234 251.499V245.132H262.701V244.351L264.234 243.677L264.918 241.392H265.855V243.872H268.961V245.132H265.855V251.431C265.855 252.075 266.008 252.57 266.314 252.915C266.62 253.26 267.04 253.433 267.574 253.433Z" fill="black"/>
</svg>
