<svg width="432" height="432" viewBox="0 0 432 432" fill="none" xmlns="http://www.w3.org/2000/svg">
<path d="M430.308 238.707C426.093 278.62 410.815 316.563 386.196 348.261L216 216.073L430.308 238.707Z" fill="#D32F2F"/>
<path d="M379.029 357.005C350.778 389.686 313.357 413.121 271.623 424.271C229.888 435.421 185.765 433.771 144.98 419.534C104.194 405.298 68.6291 379.132 42.8985 344.433C17.1678 309.733 2.4597 268.101 0.682455 224.939L216 216.073L379.029 357.005Z" fill="#D0D0D1"/>
<path d="M0.5 216.073C0.500003 187.204 6.30074 158.628 17.5578 132.044C28.8149 105.459 45.2988 81.4078 66.0308 61.317C86.7628 41.2263 111.32 25.506 138.245 15.0895C165.17 4.67306 193.914 -0.227236 222.769 0.679578C251.624 1.58639 280.003 8.28183 306.221 20.3684C332.439 32.4549 355.961 49.6861 375.39 71.039C394.82 92.3919 409.761 117.431 419.327 144.67C428.892 171.909 432.887 200.792 431.075 229.605L216 216.073L0.5 216.073Z" fill="#1F74FE"/>
<rect x="17.5049" y="17.5801" width="396.99" height="396.99" rx="198.495" fill="#F0F0F0"/>
<path d="M161.303 183.659C162.741 183.659 163.881 184.04 164.721 184.802C165.56 185.563 165.98 186.602 165.98 187.917C165.98 189.44 165.502 190.632 164.545 191.491C163.594 192.344 162.24 192.771 160.482 192.771C158.887 192.771 157.634 192.513 156.722 191.999V189.919C157.25 190.218 157.855 190.45 158.539 190.612C159.222 190.775 159.857 190.856 160.443 190.856C161.478 190.856 162.266 190.625 162.806 190.163C163.347 189.701 163.617 189.024 163.617 188.132C163.617 186.426 162.53 185.573 160.355 185.573C160.049 185.573 159.672 185.606 159.222 185.671C158.773 185.729 158.379 185.798 158.041 185.876L157.015 185.271L157.562 178.298H164.984V180.339H159.584L159.262 183.874C159.489 183.835 159.766 183.789 160.092 183.737C160.424 183.685 160.827 183.659 161.303 183.659ZM177.562 192.575H167.885V190.837L171.566 187.136C172.653 186.022 173.373 185.235 173.724 184.772C174.083 184.304 174.343 183.864 174.506 183.454C174.668 183.044 174.75 182.604 174.75 182.136C174.75 181.491 174.555 180.983 174.164 180.612C173.78 180.241 173.246 180.056 172.562 180.056C172.015 180.056 171.485 180.157 170.971 180.358C170.463 180.56 169.874 180.925 169.203 181.452L167.963 179.938C168.757 179.268 169.528 178.793 170.277 178.513C171.026 178.233 171.823 178.093 172.67 178.093C173.998 178.093 175.062 178.441 175.863 179.138C176.664 179.828 177.064 180.759 177.064 181.931C177.064 182.575 176.947 183.187 176.713 183.767C176.485 184.346 176.13 184.945 175.648 185.563C175.173 186.175 174.379 187.006 173.265 188.054L170.785 190.456V190.554H177.562V192.575ZM181.156 182.575C181.156 183.545 181.25 184.268 181.439 184.743C181.628 185.218 181.937 185.456 182.367 185.456C183.226 185.456 183.656 184.496 183.656 182.575C183.656 180.655 183.226 179.694 182.367 179.694C181.937 179.694 181.628 179.932 181.439 180.407C181.25 180.882 181.156 181.605 181.156 182.575ZM185.551 182.556C185.551 184.053 185.28 185.179 184.74 185.935C184.206 186.683 183.415 187.058 182.367 187.058C181.377 187.058 180.609 186.67 180.062 185.896C179.522 185.114 179.252 184.001 179.252 182.556C179.252 179.58 180.29 178.093 182.367 178.093C183.389 178.093 184.174 178.48 184.721 179.255C185.274 180.023 185.551 181.123 185.551 182.556ZM190.453 188.278C190.453 189.248 190.547 189.974 190.736 190.456C190.931 190.938 191.244 191.179 191.674 191.179C192.527 191.179 192.953 190.212 192.953 188.278C192.953 186.371 192.527 185.417 191.674 185.417C191.244 185.417 190.931 185.651 190.736 186.12C190.547 186.589 190.453 187.308 190.453 188.278ZM194.847 188.278C194.847 189.776 194.577 190.899 194.037 191.647C193.497 192.396 192.709 192.771 191.674 192.771C190.684 192.771 189.916 192.386 189.369 191.618C188.822 190.843 188.549 189.73 188.549 188.278C188.549 185.303 189.59 183.815 191.674 183.815C192.676 183.815 193.454 184.2 194.008 184.968C194.568 185.736 194.847 186.84 194.847 188.278ZM191.947 178.298L184.027 192.575H182.133L190.053 178.298H191.947ZM212.211 182.614C212.211 184.105 211.722 185.248 210.746 186.042C209.769 186.836 208.379 187.233 206.576 187.233H205.092V192.575H202.758V178.298H206.869C208.653 178.298 209.987 178.662 210.873 179.392C211.765 180.121 212.211 181.195 212.211 182.614ZM205.092 185.271H206.332C207.53 185.271 208.409 185.062 208.969 184.646C209.528 184.229 209.808 183.578 209.808 182.692C209.808 181.872 209.558 181.26 209.056 180.856C208.555 180.453 207.774 180.251 206.713 180.251H205.092V185.271ZM224.398 187.155C224.398 188.92 223.946 190.297 223.041 191.286C222.136 192.276 220.876 192.771 219.262 192.771C218.252 192.771 217.361 192.543 216.586 192.087C215.811 191.631 215.215 190.977 214.799 190.124C214.382 189.271 214.174 188.282 214.174 187.155C214.174 185.404 214.623 184.037 215.521 183.054C216.42 182.071 217.686 181.579 219.32 181.579C220.883 181.579 222.12 182.084 223.031 183.093C223.943 184.095 224.398 185.45 224.398 187.155ZM216.537 187.155C216.537 189.649 217.458 190.896 219.301 190.896C221.124 190.896 222.035 189.649 222.035 187.155C222.035 184.688 221.117 183.454 219.281 183.454C218.318 183.454 217.618 183.773 217.181 184.411C216.752 185.049 216.537 185.964 216.537 187.155ZM234.301 189.499C234.301 190.554 233.916 191.364 233.148 191.931C232.38 192.491 231.28 192.771 229.847 192.771C228.409 192.771 227.253 192.552 226.381 192.116V190.134C227.65 190.72 228.832 191.013 229.926 191.013C231.338 191.013 232.045 190.586 232.045 189.733C232.045 189.46 231.967 189.232 231.81 189.05C231.654 188.868 231.397 188.679 231.039 188.483C230.681 188.288 230.183 188.067 229.545 187.819C228.301 187.338 227.458 186.856 227.015 186.374C226.579 185.892 226.361 185.267 226.361 184.499C226.361 183.575 226.732 182.858 227.474 182.351C228.223 181.836 229.239 181.579 230.521 181.579C231.791 181.579 232.992 181.836 234.125 182.351L233.383 184.079C232.217 183.597 231.237 183.356 230.443 183.356C229.232 183.356 228.627 183.701 228.627 184.392C228.627 184.73 228.783 185.017 229.096 185.251C229.415 185.485 230.105 185.808 231.166 186.218C232.058 186.563 232.706 186.879 233.109 187.165C233.513 187.451 233.812 187.784 234.008 188.161C234.203 188.532 234.301 188.978 234.301 189.499ZM239.086 192.575H236.791V181.774H239.086V192.575ZM236.654 178.913C236.654 178.503 236.765 178.187 236.986 177.966C237.214 177.744 237.536 177.634 237.953 177.634C238.357 177.634 238.669 177.744 238.89 177.966C239.118 178.187 239.232 178.503 239.232 178.913C239.232 179.304 239.118 179.613 238.89 179.841C238.669 180.062 238.357 180.173 237.953 180.173C237.536 180.173 237.214 180.062 236.986 179.841C236.765 179.613 236.654 179.304 236.654 178.913ZM246.4 190.915C246.96 190.915 247.52 190.827 248.08 190.651V192.38C247.826 192.491 247.497 192.582 247.094 192.653C246.696 192.731 246.283 192.771 245.853 192.771C243.679 192.771 242.592 191.625 242.592 189.333V183.513H241.117V182.497L242.699 181.657L243.48 179.372H244.896V181.774H247.972V183.513H244.896V189.294C244.896 189.847 245.033 190.257 245.306 190.524C245.586 190.785 245.951 190.915 246.4 190.915ZM252.543 192.575H250.248V181.774H252.543V192.575ZM250.111 178.913C250.111 178.503 250.222 178.187 250.443 177.966C250.671 177.744 250.993 177.634 251.41 177.634C251.814 177.634 252.126 177.744 252.347 177.966C252.575 178.187 252.689 178.503 252.689 178.913C252.689 179.304 252.575 179.613 252.347 179.841C252.126 180.062 251.814 180.173 251.41 180.173C250.993 180.173 250.671 180.062 250.443 179.841C250.222 179.613 250.111 179.304 250.111 178.913ZM258.295 192.575L254.193 181.774H256.615L258.812 188.054C259.19 189.108 259.418 189.961 259.496 190.612H259.574C259.633 190.144 259.861 189.291 260.258 188.054L262.455 181.774H264.896L260.775 192.575H258.295ZM271.254 192.771C269.574 192.771 268.259 192.282 267.308 191.306C266.364 190.323 265.892 188.972 265.892 187.253C265.892 185.489 266.332 184.102 267.211 183.093C268.09 182.084 269.297 181.579 270.834 181.579C272.26 181.579 273.386 182.012 274.213 182.878C275.04 183.744 275.453 184.935 275.453 186.452V187.692H268.256C268.288 188.741 268.571 189.548 269.105 190.114C269.639 190.674 270.391 190.954 271.361 190.954C271.999 190.954 272.592 190.896 273.139 190.778C273.692 190.655 274.284 190.453 274.916 190.173V192.038C274.356 192.305 273.79 192.494 273.217 192.604C272.644 192.715 271.989 192.771 271.254 192.771ZM270.834 183.317C270.105 183.317 269.519 183.549 269.076 184.011C268.64 184.473 268.379 185.147 268.295 186.032H273.197C273.184 185.14 272.969 184.466 272.553 184.011C272.136 183.549 271.563 183.317 270.834 183.317Z" fill="black"/>
<path d="M168.539 212.657C168.539 213.569 168.282 214.314 167.767 214.894C167.26 215.473 166.537 215.86 165.599 216.056V216.134C166.745 216.277 167.595 216.642 168.148 217.228C168.702 217.813 168.978 218.582 168.978 219.532C168.978 220.893 168.506 221.941 167.562 222.677C166.618 223.406 165.277 223.771 163.539 223.771C162.784 223.771 162.09 223.712 161.459 223.595C160.834 223.484 160.225 223.285 159.633 222.999V221.456C160.251 221.762 160.909 221.996 161.605 222.159C162.308 222.315 162.972 222.394 163.597 222.394C166.065 222.394 167.299 221.427 167.299 219.493C167.299 217.761 165.938 216.896 163.217 216.896H161.81V215.499H163.236C164.349 215.499 165.232 215.255 165.883 214.767C166.534 214.272 166.859 213.588 166.859 212.716C166.859 212.019 166.618 211.472 166.137 211.075C165.661 210.678 165.014 210.479 164.193 210.479C163.568 210.479 162.979 210.564 162.426 210.733C161.872 210.903 161.241 211.215 160.531 211.671L159.711 210.577C160.297 210.115 160.971 209.754 161.732 209.493C162.5 209.226 163.308 209.093 164.154 209.093C165.541 209.093 166.618 209.412 167.387 210.05C168.155 210.681 168.539 211.55 168.539 212.657ZM175.863 209.093C177.165 209.093 178.197 209.396 178.959 210.001C179.721 210.606 180.101 211.443 180.101 212.511C180.101 213.214 179.883 213.855 179.447 214.435C179.011 215.014 178.314 215.541 177.357 216.017C178.516 216.57 179.34 217.153 179.828 217.765C180.316 218.37 180.56 219.073 180.56 219.874C180.56 221.059 180.147 222.006 179.32 222.716C178.493 223.419 177.361 223.771 175.922 223.771C174.398 223.771 173.226 223.438 172.406 222.774C171.586 222.104 171.176 221.157 171.176 219.933C171.176 218.299 172.172 217.026 174.164 216.114C173.265 215.606 172.621 215.06 172.23 214.474C171.84 213.881 171.644 213.22 171.644 212.491C171.644 211.456 172.025 210.632 172.787 210.021C173.555 209.402 174.581 209.093 175.863 209.093ZM172.777 219.972C172.777 220.753 173.047 221.362 173.588 221.798C174.135 222.234 174.9 222.452 175.883 222.452C176.853 222.452 177.608 222.224 178.148 221.769C178.689 221.313 178.959 220.688 178.959 219.894C178.959 219.262 178.705 218.702 178.197 218.214C177.689 217.719 176.804 217.241 175.541 216.778C174.571 217.195 173.868 217.657 173.431 218.165C172.995 218.666 172.777 219.269 172.777 219.972ZM175.844 210.411C175.03 210.411 174.392 210.606 173.93 210.997C173.467 211.388 173.236 211.909 173.236 212.56C173.236 213.159 173.428 213.673 173.812 214.103C174.196 214.532 174.906 214.962 175.941 215.392C176.872 215.001 177.53 214.581 177.914 214.132C178.305 213.683 178.5 213.159 178.5 212.56C178.5 211.902 178.262 211.381 177.787 210.997C177.318 210.606 176.67 210.411 175.844 210.411ZM183.969 213.556C183.969 214.662 184.089 215.493 184.33 216.046C184.571 216.599 184.961 216.876 185.502 216.876C186.569 216.876 187.103 215.769 187.103 213.556C187.103 211.355 186.569 210.255 185.502 210.255C184.961 210.255 184.571 210.528 184.33 211.075C184.089 211.622 183.969 212.449 183.969 213.556ZM188.441 213.556C188.441 215.04 188.191 216.163 187.689 216.925C187.194 217.68 186.465 218.058 185.502 218.058C184.59 218.058 183.881 217.67 183.373 216.896C182.872 216.121 182.621 215.007 182.621 213.556C182.621 212.078 182.862 210.965 183.344 210.216C183.832 209.467 184.551 209.093 185.502 209.093C186.446 209.093 187.172 209.48 187.68 210.255C188.187 211.03 188.441 212.13 188.441 213.556ZM192.562 219.278C192.562 220.392 192.683 221.225 192.924 221.778C193.165 222.325 193.558 222.599 194.105 222.599C194.652 222.599 195.056 222.328 195.316 221.788C195.577 221.241 195.707 220.405 195.707 219.278C195.707 218.165 195.577 217.341 195.316 216.808C195.056 216.267 194.652 215.997 194.105 215.997C193.558 215.997 193.165 216.267 192.924 216.808C192.683 217.341 192.562 218.165 192.562 219.278ZM197.045 219.278C197.045 220.756 196.794 221.876 196.293 222.638C195.798 223.393 195.069 223.771 194.105 223.771C193.181 223.771 192.468 223.383 191.967 222.608C191.472 221.834 191.224 220.724 191.224 219.278C191.224 217.8 191.465 216.687 191.947 215.938C192.435 215.19 193.155 214.815 194.105 214.815C195.03 214.815 195.749 215.2 196.264 215.968C196.784 216.729 197.045 217.833 197.045 219.278ZM194.525 209.298L186.605 223.575H185.17L193.09 209.298H194.525ZM216.381 223.575H214.486L206.683 211.593H206.605C206.709 212.999 206.762 214.288 206.762 215.46V223.575H205.228V209.298H207.103L214.887 221.231H214.965C214.952 221.056 214.922 220.493 214.877 219.542C214.831 218.585 214.815 217.901 214.828 217.491V209.298H216.381V223.575ZM224.584 223.771C223.002 223.771 221.752 223.289 220.834 222.325C219.922 221.362 219.467 220.024 219.467 218.312C219.467 216.586 219.89 215.216 220.736 214.2C221.589 213.185 222.732 212.677 224.164 212.677C225.505 212.677 226.566 213.119 227.347 214.005C228.129 214.884 228.519 216.046 228.519 217.491V218.517H221.146C221.179 219.773 221.495 220.727 222.094 221.378C222.699 222.029 223.549 222.354 224.642 222.354C225.795 222.354 226.934 222.114 228.06 221.632V223.077C227.487 223.325 226.944 223.5 226.43 223.604C225.922 223.715 225.306 223.771 224.584 223.771ZM224.144 214.034C223.285 214.034 222.598 214.314 222.084 214.874C221.576 215.434 221.277 216.209 221.185 217.198H226.781C226.781 216.176 226.553 215.395 226.097 214.854C225.642 214.308 224.991 214.034 224.144 214.034ZM232.816 212.872V219.815C232.816 220.688 233.015 221.339 233.412 221.769C233.809 222.198 234.431 222.413 235.277 222.413C236.397 222.413 237.214 222.107 237.728 221.495C238.249 220.883 238.51 219.884 238.51 218.497V212.872H240.131V223.575H238.793L238.558 222.14H238.471C238.139 222.667 237.676 223.071 237.084 223.351C236.498 223.631 235.827 223.771 235.072 223.771C233.77 223.771 232.793 223.461 232.142 222.843C231.498 222.224 231.176 221.235 231.176 219.874V212.872H232.816ZM247.035 222.433C247.321 222.433 247.598 222.413 247.865 222.374C248.132 222.328 248.344 222.283 248.5 222.237V223.478C248.324 223.562 248.064 223.631 247.719 223.683C247.38 223.741 247.074 223.771 246.801 223.771C244.73 223.771 243.695 222.68 243.695 220.499V214.132H242.162V213.351L243.695 212.677L244.379 210.392H245.316V212.872H248.422V214.132H245.316V220.431C245.316 221.075 245.469 221.57 245.775 221.915C246.081 222.26 246.501 222.433 247.035 222.433ZM255.531 212.677C256.006 212.677 256.433 212.716 256.81 212.794L256.586 214.298C256.143 214.2 255.752 214.151 255.414 214.151C254.548 214.151 253.806 214.503 253.187 215.206C252.575 215.909 252.269 216.785 252.269 217.833V223.575H250.648V212.872H251.986L252.172 214.854H252.25C252.647 214.158 253.125 213.621 253.685 213.243C254.245 212.866 254.861 212.677 255.531 212.677ZM265.394 223.575L265.072 222.052H264.994C264.46 222.722 263.926 223.178 263.392 223.419C262.865 223.653 262.204 223.771 261.41 223.771C260.349 223.771 259.515 223.497 258.91 222.95C258.311 222.403 258.012 221.625 258.012 220.616C258.012 218.455 259.74 217.322 263.197 217.218L265.014 217.159V216.495C265.014 215.655 264.831 215.037 264.467 214.64C264.109 214.236 263.532 214.034 262.738 214.034C261.846 214.034 260.837 214.308 259.711 214.854L259.213 213.614C259.74 213.328 260.316 213.103 260.941 212.94C261.573 212.778 262.204 212.696 262.836 212.696C264.112 212.696 265.056 212.979 265.668 213.546C266.286 214.112 266.596 215.021 266.596 216.271V223.575H265.394ZM261.732 222.433C262.741 222.433 263.532 222.156 264.105 221.603C264.685 221.049 264.974 220.274 264.974 219.278V218.312L263.353 218.38C262.064 218.425 261.133 218.627 260.56 218.985C259.994 219.337 259.711 219.887 259.711 220.636C259.711 221.222 259.887 221.668 260.238 221.974C260.596 222.28 261.094 222.433 261.732 222.433ZM271.566 223.575H269.945V208.38H271.566V223.575Z" fill="black"/>
<path d="M159.818 254.575H158.236V244.399C158.236 243.553 158.262 242.752 158.314 241.997C158.178 242.134 158.025 242.277 157.855 242.427C157.686 242.576 156.911 243.211 155.531 244.331L154.672 243.218L158.451 240.298H159.818V254.575ZM174.721 247.417C174.721 249.884 174.33 251.727 173.549 252.944C172.774 254.162 171.586 254.771 169.984 254.771C168.448 254.771 167.279 254.149 166.478 252.905C165.678 251.655 165.277 249.826 165.277 247.417C165.277 244.93 165.665 243.084 166.439 241.88C167.214 240.675 168.396 240.073 169.984 240.073C171.534 240.073 172.709 240.701 173.51 241.958C174.317 243.215 174.721 245.034 174.721 247.417ZM166.918 247.417C166.918 249.494 167.162 251.007 167.65 251.958C168.139 252.902 168.916 253.374 169.984 253.374C171.065 253.374 171.846 252.896 172.328 251.938C172.816 250.975 173.06 249.468 173.06 247.417C173.06 245.366 172.816 243.866 172.328 242.915C171.846 241.958 171.065 241.479 169.984 241.479C168.916 241.479 168.139 241.951 167.65 242.896C167.162 243.833 166.918 245.34 166.918 247.417ZM178.09 244.556C178.09 245.662 178.21 246.493 178.451 247.046C178.692 247.599 179.083 247.876 179.623 247.876C180.691 247.876 181.224 246.769 181.224 244.556C181.224 242.355 180.691 241.255 179.623 241.255C179.083 241.255 178.692 241.528 178.451 242.075C178.21 242.622 178.09 243.449 178.09 244.556ZM182.562 244.556C182.562 246.04 182.312 247.163 181.81 247.925C181.316 248.68 180.586 249.058 179.623 249.058C178.711 249.058 178.002 248.67 177.494 247.896C176.993 247.121 176.742 246.007 176.742 244.556C176.742 243.078 176.983 241.965 177.465 241.216C177.953 240.467 178.672 240.093 179.623 240.093C180.567 240.093 181.293 240.48 181.801 241.255C182.308 242.03 182.562 243.13 182.562 244.556ZM186.683 250.278C186.683 251.392 186.804 252.225 187.045 252.778C187.286 253.325 187.68 253.599 188.226 253.599C188.773 253.599 189.177 253.328 189.437 252.788C189.698 252.241 189.828 251.405 189.828 250.278C189.828 249.165 189.698 248.341 189.437 247.808C189.177 247.267 188.773 246.997 188.226 246.997C187.68 246.997 187.286 247.267 187.045 247.808C186.804 248.341 186.683 249.165 186.683 250.278ZM191.166 250.278C191.166 251.756 190.915 252.876 190.414 253.638C189.919 254.393 189.19 254.771 188.226 254.771C187.302 254.771 186.589 254.383 186.088 253.608C185.593 252.834 185.346 251.724 185.346 250.278C185.346 248.8 185.586 247.687 186.068 246.938C186.556 246.19 187.276 245.815 188.226 245.815C189.151 245.815 189.87 246.2 190.385 246.968C190.905 247.729 191.166 248.833 191.166 250.278ZM188.646 240.298L180.726 254.575H179.291L187.211 240.298H188.646ZM210.502 254.575H208.607L200.805 242.593H200.726C200.831 243.999 200.883 245.288 200.883 246.46V254.575H199.349V240.298H201.224L209.008 252.231H209.086C209.073 252.056 209.043 251.493 208.998 250.542C208.952 249.585 208.936 248.901 208.949 248.491V240.298H210.502V254.575ZM218.705 254.771C217.123 254.771 215.873 254.289 214.955 253.325C214.043 252.362 213.588 251.024 213.588 249.312C213.588 247.586 214.011 246.216 214.857 245.2C215.71 244.185 216.853 243.677 218.285 243.677C219.626 243.677 220.687 244.119 221.469 245.005C222.25 245.884 222.64 247.046 222.64 248.491V249.517H215.267C215.3 250.773 215.616 251.727 216.215 252.378C216.82 253.029 217.67 253.354 218.764 253.354C219.916 253.354 221.055 253.114 222.181 252.632V254.077C221.609 254.325 221.065 254.5 220.551 254.604C220.043 254.715 219.428 254.771 218.705 254.771ZM218.265 245.034C217.406 245.034 216.719 245.314 216.205 245.874C215.697 246.434 215.398 247.209 215.306 248.198H220.902C220.902 247.176 220.674 246.395 220.219 245.854C219.763 245.308 219.112 245.034 218.265 245.034ZM234.174 243.872V244.897L232.191 245.132C232.374 245.36 232.536 245.659 232.68 246.03C232.823 246.395 232.894 246.808 232.894 247.271C232.894 248.319 232.536 249.155 231.82 249.78C231.104 250.405 230.121 250.718 228.871 250.718C228.552 250.718 228.252 250.692 227.972 250.64C227.282 251.004 226.937 251.463 226.937 252.017C226.937 252.31 227.058 252.528 227.299 252.671C227.54 252.808 227.953 252.876 228.539 252.876H230.433C231.592 252.876 232.481 253.12 233.099 253.608C233.724 254.097 234.037 254.806 234.037 255.737C234.037 256.922 233.562 257.824 232.611 258.442C231.661 259.067 230.274 259.38 228.451 259.38C227.051 259.38 225.971 259.119 225.209 258.599C224.454 258.078 224.076 257.342 224.076 256.392C224.076 255.741 224.284 255.177 224.701 254.702C225.118 254.227 225.704 253.905 226.459 253.735C226.185 253.612 225.954 253.42 225.765 253.159C225.583 252.899 225.492 252.596 225.492 252.251C225.492 251.86 225.596 251.519 225.805 251.226C226.013 250.933 226.342 250.649 226.791 250.376C226.237 250.148 225.785 249.761 225.433 249.214C225.088 248.667 224.916 248.042 224.916 247.339C224.916 246.167 225.267 245.265 225.971 244.634C226.674 243.996 227.67 243.677 228.959 243.677C229.519 243.677 230.023 243.742 230.472 243.872H234.174ZM225.639 256.372C225.639 256.951 225.883 257.391 226.371 257.69C226.859 257.99 227.559 258.14 228.471 258.14C229.831 258.14 230.837 257.935 231.488 257.524C232.146 257.121 232.474 256.571 232.474 255.874C232.474 255.295 232.295 254.891 231.937 254.663C231.579 254.442 230.905 254.331 229.916 254.331H227.972C227.237 254.331 226.664 254.507 226.254 254.858C225.844 255.21 225.639 255.715 225.639 256.372ZM226.517 247.3C226.517 248.049 226.729 248.615 227.152 248.999C227.575 249.383 228.165 249.575 228.92 249.575C230.502 249.575 231.293 248.807 231.293 247.271C231.293 245.662 230.492 244.858 228.89 244.858C228.129 244.858 227.543 245.063 227.133 245.474C226.722 245.884 226.517 246.493 226.517 247.3ZM242.953 254.575L242.631 253.052H242.553C242.019 253.722 241.485 254.178 240.951 254.419C240.424 254.653 239.763 254.771 238.969 254.771C237.907 254.771 237.074 254.497 236.469 253.95C235.87 253.403 235.57 252.625 235.57 251.616C235.57 249.455 237.299 248.322 240.756 248.218L242.572 248.159V247.495C242.572 246.655 242.39 246.037 242.025 245.64C241.667 245.236 241.091 245.034 240.297 245.034C239.405 245.034 238.396 245.308 237.269 245.854L236.771 244.614C237.299 244.328 237.875 244.103 238.5 243.94C239.131 243.778 239.763 243.696 240.394 243.696C241.67 243.696 242.614 243.979 243.226 244.546C243.845 245.112 244.154 246.021 244.154 247.271V254.575H242.953ZM239.291 253.433C240.3 253.433 241.091 253.156 241.664 252.603C242.243 252.049 242.533 251.274 242.533 250.278V249.312L240.912 249.38C239.623 249.425 238.692 249.627 238.119 249.985C237.553 250.337 237.269 250.887 237.269 251.636C237.269 252.222 237.445 252.668 237.797 252.974C238.155 253.28 238.653 253.433 239.291 253.433ZM250.961 253.433C251.247 253.433 251.524 253.413 251.791 253.374C252.058 253.328 252.269 253.283 252.426 253.237V254.478C252.25 254.562 251.989 254.631 251.644 254.683C251.306 254.741 251 254.771 250.726 254.771C248.656 254.771 247.621 253.68 247.621 251.499V245.132H246.088V244.351L247.621 243.677L248.305 241.392H249.242V243.872H252.347V245.132H249.242V251.431C249.242 252.075 249.395 252.57 249.701 252.915C250.007 253.26 250.427 253.433 250.961 253.433ZM256.195 254.575H254.574V243.872H256.195V254.575ZM254.437 240.972C254.437 240.601 254.528 240.33 254.711 240.161C254.893 239.985 255.121 239.897 255.394 239.897C255.655 239.897 255.879 239.985 256.068 240.161C256.257 240.337 256.351 240.607 256.351 240.972C256.351 241.336 256.257 241.61 256.068 241.792C255.879 241.968 255.655 242.056 255.394 242.056C255.121 242.056 254.893 241.968 254.711 241.792C254.528 241.61 254.437 241.336 254.437 240.972ZM261.976 254.575L257.914 243.872H259.652L261.957 250.22C262.478 251.704 262.784 252.668 262.875 253.11H262.953C263.025 252.765 263.249 252.052 263.627 250.972C264.011 249.884 264.867 247.518 266.195 243.872H267.933L263.871 254.575H261.976ZM274.174 254.771C272.592 254.771 271.342 254.289 270.424 253.325C269.512 252.362 269.056 251.024 269.056 249.312C269.056 247.586 269.48 246.216 270.326 245.2C271.179 244.185 272.321 243.677 273.754 243.677C275.095 243.677 276.156 244.119 276.937 245.005C277.719 245.884 278.109 247.046 278.109 248.491V249.517H270.736C270.769 250.773 271.084 251.727 271.683 252.378C272.289 253.029 273.139 253.354 274.232 253.354C275.385 253.354 276.524 253.114 277.65 252.632V254.077C277.077 254.325 276.534 254.5 276.019 254.604C275.512 254.715 274.896 254.771 274.174 254.771ZM273.734 245.034C272.875 245.034 272.188 245.314 271.674 245.874C271.166 246.434 270.866 247.209 270.775 248.198H276.371C276.371 247.176 276.143 246.395 275.687 245.854C275.232 245.308 274.581 245.034 273.734 245.034Z" fill="black"/>
</svg>
