<svg width="448" height="432" viewBox="0 0 448 432" fill="none" xmlns="http://www.w3.org/2000/svg">
<path d="M237.052 431.235C209.941 432.88 182.763 429.385 156.95 420.935L224 216.131L237.052 431.235Z" fill="#0A1B5F"/>
<path d="M151.814 419.181C108.934 403.937 71.981 375.509 46.2506 337.973C20.5201 300.436 7.33363 255.716 8.58096 210.224L224 216.131L151.814 419.181Z" fill="#4A4B4D"/>
<path d="M299.73 417.886C281.533 424.717 262.495 429.054 243.134 430.78L224 216.131L299.73 417.886Z" fill="#1F74FE"/>
<path d="M8.77962 205.156C10.745 166.613 23.0252 129.304 44.3372 97.1286C65.6492 64.9529 95.2109 39.091 129.934 22.2448C164.657 5.39859 203.266 -1.81372 241.729 1.3614C280.192 4.53651 317.097 17.9825 348.587 40.2947C380.077 62.6068 404.998 92.9663 420.745 128.201C436.492 163.436 442.488 202.253 438.107 240.597C433.725 278.942 419.126 315.405 395.836 346.179C372.546 376.953 341.419 400.908 305.706 415.541L224 216.131L8.77962 205.156Z" fill="#D0D0D1"/>
<rect x="25.5049" y="17.6377" width="396.99" height="396.99" rx="198.495" fill="#F0F0F0"/>
<path d="M136.197 171.029C136.197 168.223 136.741 166.127 137.828 164.74C138.922 163.347 140.536 162.65 142.672 162.65C143.407 162.65 143.987 162.712 144.41 162.836V164.232C143.909 164.07 143.336 163.988 142.691 163.988C141.161 163.988 139.993 164.467 139.185 165.424C138.378 166.374 137.935 167.872 137.857 169.916H137.974C138.691 168.796 139.823 168.236 141.373 168.236C142.655 168.236 143.665 168.624 144.4 169.398C145.142 170.173 145.514 171.225 145.514 172.553C145.514 174.037 145.107 175.206 144.293 176.059C143.486 176.905 142.392 177.328 141.012 177.328C139.534 177.328 138.362 176.775 137.496 175.668C136.63 174.555 136.197 173.008 136.197 171.029ZM140.992 175.951C141.916 175.951 142.633 175.661 143.14 175.082C143.655 174.496 143.912 173.653 143.912 172.553C143.912 171.609 143.674 170.867 143.199 170.326C142.724 169.786 142.014 169.516 141.07 169.516C140.484 169.516 139.947 169.636 139.459 169.877C138.971 170.118 138.58 170.45 138.287 170.873C138 171.296 137.857 171.736 137.857 172.191C137.857 172.862 137.987 173.487 138.248 174.066C138.508 174.646 138.876 175.105 139.351 175.443C139.833 175.782 140.38 175.951 140.992 175.951ZM152.203 162.65C153.505 162.65 154.537 162.953 155.299 163.559C156.06 164.164 156.441 165.001 156.441 166.068C156.441 166.771 156.223 167.413 155.787 167.992C155.351 168.572 154.654 169.099 153.697 169.574C154.856 170.128 155.68 170.71 156.168 171.322C156.656 171.928 156.9 172.631 156.9 173.432C156.9 174.617 156.487 175.564 155.66 176.273C154.833 176.977 153.7 177.328 152.262 177.328C150.738 177.328 149.566 176.996 148.746 176.332C147.926 175.661 147.515 174.714 147.515 173.49C147.515 171.856 148.512 170.583 150.504 169.672C149.605 169.164 148.961 168.617 148.57 168.031C148.18 167.439 147.984 166.778 147.984 166.049C147.984 165.014 148.365 164.19 149.127 163.578C149.895 162.96 150.92 162.65 152.203 162.65ZM149.117 173.529C149.117 174.311 149.387 174.919 149.928 175.355C150.474 175.792 151.239 176.01 152.222 176.01C153.193 176.01 153.948 175.782 154.488 175.326C155.028 174.87 155.299 174.245 155.299 173.451C155.299 172.82 155.045 172.26 154.537 171.771C154.029 171.277 153.144 170.798 151.881 170.336C150.911 170.753 150.208 171.215 149.771 171.723C149.335 172.224 149.117 172.826 149.117 173.529ZM152.183 163.969C151.37 163.969 150.732 164.164 150.269 164.555C149.807 164.945 149.576 165.466 149.576 166.117C149.576 166.716 149.768 167.23 150.152 167.66C150.536 168.09 151.246 168.52 152.281 168.949C153.212 168.559 153.87 168.139 154.254 167.689C154.644 167.24 154.84 166.716 154.84 166.117C154.84 165.46 154.602 164.939 154.127 164.555C153.658 164.164 153.01 163.969 152.183 163.969ZM160.308 167.113C160.308 168.22 160.429 169.05 160.67 169.604C160.911 170.157 161.301 170.434 161.842 170.434C162.909 170.434 163.443 169.327 163.443 167.113C163.443 164.913 162.909 163.812 161.842 163.812C161.301 163.812 160.911 164.086 160.67 164.633C160.429 165.18 160.308 166.007 160.308 167.113ZM164.781 167.113C164.781 168.598 164.53 169.721 164.029 170.482C163.534 171.238 162.805 171.615 161.842 171.615C160.93 171.615 160.221 171.228 159.713 170.453C159.211 169.678 158.961 168.565 158.961 167.113C158.961 165.635 159.202 164.522 159.683 163.773C160.172 163.025 160.891 162.65 161.842 162.65C162.786 162.65 163.512 163.038 164.019 163.812C164.527 164.587 164.781 165.688 164.781 167.113ZM168.902 172.836C168.902 173.949 169.023 174.783 169.264 175.336C169.504 175.883 169.898 176.156 170.445 176.156C170.992 176.156 171.396 175.886 171.656 175.346C171.916 174.799 172.047 173.962 172.047 172.836C172.047 171.723 171.916 170.899 171.656 170.365C171.396 169.825 170.992 169.555 170.445 169.555C169.898 169.555 169.504 169.825 169.264 170.365C169.023 170.899 168.902 171.723 168.902 172.836ZM173.385 172.836C173.385 174.314 173.134 175.434 172.633 176.195C172.138 176.951 171.409 177.328 170.445 177.328C169.521 177.328 168.808 176.941 168.306 176.166C167.812 175.391 167.564 174.281 167.564 172.836C167.564 171.358 167.805 170.245 168.287 169.496C168.775 168.747 169.495 168.373 170.445 168.373C171.37 168.373 172.089 168.757 172.603 169.525C173.124 170.287 173.385 171.391 173.385 172.836ZM170.865 162.855L162.945 177.133H161.51L169.43 162.855H170.865ZM192.721 177.133H190.826L183.023 165.15H182.945C183.049 166.557 183.101 167.846 183.101 169.018V177.133H181.568V162.855H183.443L191.226 174.789H191.305C191.291 174.613 191.262 174.05 191.217 173.1C191.171 172.143 191.155 171.459 191.168 171.049V162.855H192.721V177.133ZM205.64 171.771C205.64 173.516 205.201 174.88 204.322 175.863C203.443 176.84 202.229 177.328 200.68 177.328C199.722 177.328 198.873 177.104 198.131 176.654C197.389 176.205 196.816 175.561 196.412 174.721C196.008 173.881 195.806 172.898 195.806 171.771C195.806 170.027 196.243 168.669 197.115 167.699C197.987 166.723 199.198 166.234 200.748 166.234C202.245 166.234 203.433 166.732 204.312 167.729C205.198 168.725 205.64 170.072 205.64 171.771ZM197.486 171.771C197.486 173.139 197.76 174.18 198.306 174.896C198.853 175.613 199.657 175.971 200.719 175.971C201.78 175.971 202.584 175.616 203.131 174.906C203.684 174.19 203.961 173.145 203.961 171.771C203.961 170.411 203.684 169.379 203.131 168.676C202.584 167.966 201.773 167.611 200.699 167.611C199.638 167.611 198.837 167.96 198.297 168.656C197.756 169.353 197.486 170.391 197.486 171.771ZM215.308 177.133H213.687V166.43H215.308V177.133ZM213.551 163.529C213.551 163.158 213.642 162.888 213.824 162.719C214.006 162.543 214.234 162.455 214.508 162.455C214.768 162.455 214.993 162.543 215.181 162.719C215.37 162.895 215.465 163.165 215.465 163.529C215.465 163.894 215.37 164.167 215.181 164.35C214.993 164.525 214.768 164.613 214.508 164.613C214.234 164.613 214.006 164.525 213.824 164.35C213.642 164.167 213.551 163.894 213.551 163.529ZM226.07 177.133V170.209C226.07 169.337 225.872 168.686 225.474 168.256C225.077 167.826 224.456 167.611 223.609 167.611C222.489 167.611 221.669 167.914 221.148 168.52C220.627 169.125 220.367 170.124 220.367 171.518V177.133H218.746V166.43H220.064L220.328 167.895H220.406C220.738 167.367 221.204 166.96 221.803 166.674C222.402 166.381 223.069 166.234 223.805 166.234C225.094 166.234 226.064 166.547 226.715 167.172C227.366 167.79 227.691 168.783 227.691 170.15V177.133H226.07ZM234.488 175.99C234.775 175.99 235.051 175.971 235.318 175.932C235.585 175.886 235.797 175.84 235.953 175.795V177.035C235.777 177.12 235.517 177.188 235.172 177.24C234.833 177.299 234.527 177.328 234.254 177.328C232.183 177.328 231.148 176.238 231.148 174.057V167.689H229.615V166.908L231.148 166.234L231.832 163.949H232.769V166.43H235.875V167.689H232.769V173.988C232.769 174.633 232.922 175.128 233.228 175.473C233.534 175.818 233.954 175.99 234.488 175.99ZM242.623 177.328C241.041 177.328 239.791 176.846 238.873 175.883C237.961 174.919 237.506 173.581 237.506 171.869C237.506 170.144 237.929 168.773 238.775 167.758C239.628 166.742 240.771 166.234 242.203 166.234C243.544 166.234 244.605 166.677 245.387 167.562C246.168 168.441 246.558 169.604 246.558 171.049V172.074H239.185C239.218 173.331 239.534 174.285 240.133 174.936C240.738 175.587 241.588 175.912 242.681 175.912C243.834 175.912 244.973 175.671 246.099 175.189V176.635C245.527 176.882 244.983 177.058 244.469 177.162C243.961 177.273 243.346 177.328 242.623 177.328ZM242.183 167.592C241.324 167.592 240.637 167.872 240.123 168.432C239.615 168.992 239.316 169.766 239.224 170.756H244.82C244.82 169.734 244.592 168.952 244.137 168.412C243.681 167.865 243.03 167.592 242.183 167.592ZM254.215 166.234C254.69 166.234 255.116 166.273 255.494 166.352L255.269 167.855C254.827 167.758 254.436 167.709 254.097 167.709C253.232 167.709 252.489 168.061 251.871 168.764C251.259 169.467 250.953 170.342 250.953 171.391V177.133H249.332V166.43H250.67L250.855 168.412H250.933C251.331 167.715 251.809 167.178 252.369 166.801C252.929 166.423 253.544 166.234 254.215 166.234ZM264.078 177.133L263.756 175.609H263.678C263.144 176.28 262.61 176.736 262.076 176.977C261.549 177.211 260.888 177.328 260.094 177.328C259.032 177.328 258.199 177.055 257.594 176.508C256.995 175.961 256.695 175.183 256.695 174.174C256.695 172.012 258.424 170.88 261.881 170.775L263.697 170.717V170.053C263.697 169.213 263.515 168.594 263.15 168.197C262.792 167.794 262.216 167.592 261.422 167.592C260.53 167.592 259.521 167.865 258.394 168.412L257.896 167.172C258.424 166.885 259 166.661 259.625 166.498C260.256 166.335 260.888 166.254 261.519 166.254C262.795 166.254 263.739 166.537 264.351 167.104C264.97 167.67 265.279 168.578 265.279 169.828V177.133H264.078ZM260.416 175.99C261.425 175.99 262.216 175.714 262.789 175.16C263.368 174.607 263.658 173.832 263.658 172.836V171.869L262.037 171.938C260.748 171.983 259.817 172.185 259.244 172.543C258.678 172.895 258.394 173.445 258.394 174.193C258.394 174.779 258.57 175.225 258.922 175.531C259.28 175.837 259.778 175.99 260.416 175.99ZM272.906 177.328C271.357 177.328 270.155 176.853 269.303 175.902C268.456 174.945 268.033 173.594 268.033 171.85C268.033 170.059 268.463 168.676 269.322 167.699C270.188 166.723 271.418 166.234 273.014 166.234C273.528 166.234 274.042 166.29 274.556 166.4C275.071 166.511 275.474 166.641 275.767 166.791L275.269 168.168C274.911 168.025 274.521 167.908 274.097 167.816C273.674 167.719 273.3 167.67 272.974 167.67C270.8 167.67 269.713 169.057 269.713 171.83C269.713 173.145 269.976 174.154 270.504 174.857C271.038 175.561 271.825 175.912 272.867 175.912C273.759 175.912 274.674 175.72 275.611 175.336V176.771C274.895 177.143 273.993 177.328 272.906 177.328ZM281.617 175.99C281.903 175.99 282.18 175.971 282.447 175.932C282.714 175.886 282.926 175.84 283.082 175.795V177.035C282.906 177.12 282.646 177.188 282.301 177.24C281.962 177.299 281.656 177.328 281.383 177.328C279.312 177.328 278.277 176.238 278.277 174.057V167.689H276.744V166.908L278.277 166.234L278.961 163.949H279.898V166.43H283.004V167.689H279.898V173.988C279.898 174.633 280.051 175.128 280.357 175.473C280.663 175.818 281.083 175.99 281.617 175.99ZM286.851 177.133H285.23V166.43H286.851V177.133ZM285.094 163.529C285.094 163.158 285.185 162.888 285.367 162.719C285.549 162.543 285.777 162.455 286.051 162.455C286.311 162.455 286.536 162.543 286.724 162.719C286.913 162.895 287.008 163.165 287.008 163.529C287.008 163.894 286.913 164.167 286.724 164.35C286.536 164.525 286.311 164.613 286.051 164.613C285.777 164.613 285.549 164.525 285.367 164.35C285.185 164.167 285.094 163.894 285.094 163.529ZM299.527 171.771C299.527 173.516 299.088 174.88 298.209 175.863C297.33 176.84 296.116 177.328 294.566 177.328C293.609 177.328 292.76 177.104 292.017 176.654C291.275 176.205 290.702 175.561 290.299 174.721C289.895 173.881 289.693 172.898 289.693 171.771C289.693 170.027 290.129 168.669 291.002 167.699C291.874 166.723 293.085 166.234 294.635 166.234C296.132 166.234 297.32 166.732 298.199 167.729C299.084 168.725 299.527 170.072 299.527 171.771ZM291.373 171.771C291.373 173.139 291.646 174.18 292.193 174.896C292.74 175.613 293.544 175.971 294.605 175.971C295.666 175.971 296.471 175.616 297.017 174.906C297.571 174.19 297.847 173.145 297.847 171.771C297.847 170.411 297.571 169.379 297.017 168.676C296.471 167.966 295.66 167.611 294.586 167.611C293.525 167.611 292.724 167.96 292.183 168.656C291.643 169.353 291.373 170.391 291.373 171.771ZM309.703 177.133V170.209C309.703 169.337 309.504 168.686 309.107 168.256C308.71 167.826 308.088 167.611 307.242 167.611C306.122 167.611 305.302 167.914 304.781 168.52C304.26 169.125 304 170.124 304 171.518V177.133H302.379V166.43H303.697L303.961 167.895H304.039C304.371 167.367 304.836 166.96 305.435 166.674C306.034 166.381 306.702 166.234 307.437 166.234C308.726 166.234 309.696 166.547 310.347 167.172C310.999 167.79 311.324 168.783 311.324 170.15V177.133H309.703Z" fill="black"/>
<path d="M178.951 208.133H169.566V206.736L173.326 202.957C174.472 201.798 175.227 200.971 175.592 200.477C175.956 199.982 176.23 199.5 176.412 199.031C176.594 198.562 176.685 198.058 176.685 197.518C176.685 196.756 176.454 196.154 175.992 195.711C175.53 195.262 174.889 195.037 174.068 195.037C173.476 195.037 172.913 195.135 172.379 195.33C171.851 195.525 171.262 195.88 170.611 196.395L169.752 195.291C171.067 194.197 172.499 193.65 174.049 193.65C175.39 193.65 176.441 193.995 177.203 194.686C177.965 195.369 178.346 196.29 178.346 197.449C178.346 198.354 178.092 199.249 177.584 200.135C177.076 201.02 176.125 202.14 174.732 203.494L171.607 206.551V206.629H178.951V208.133ZM187.017 208.133H185.435V197.957C185.435 197.111 185.461 196.31 185.514 195.555C185.377 195.691 185.224 195.835 185.055 195.984C184.885 196.134 184.111 196.769 182.73 197.889L181.871 196.775L185.65 193.855H187.017V208.133ZM193.844 198.113C193.844 199.22 193.964 200.05 194.205 200.604C194.446 201.157 194.836 201.434 195.377 201.434C196.444 201.434 196.978 200.327 196.978 198.113C196.978 195.913 196.444 194.812 195.377 194.812C194.836 194.812 194.446 195.086 194.205 195.633C193.964 196.18 193.844 197.007 193.844 198.113ZM198.316 198.113C198.316 199.598 198.066 200.721 197.564 201.482C197.069 202.238 196.34 202.615 195.377 202.615C194.465 202.615 193.756 202.228 193.248 201.453C192.747 200.678 192.496 199.565 192.496 198.113C192.496 196.635 192.737 195.522 193.219 194.773C193.707 194.025 194.426 193.65 195.377 193.65C196.321 193.65 197.047 194.038 197.555 194.812C198.062 195.587 198.316 196.688 198.316 198.113ZM202.437 203.836C202.437 204.949 202.558 205.783 202.799 206.336C203.04 206.883 203.433 207.156 203.98 207.156C204.527 207.156 204.931 206.886 205.191 206.346C205.452 205.799 205.582 204.962 205.582 203.836C205.582 202.723 205.452 201.899 205.191 201.365C204.931 200.825 204.527 200.555 203.98 200.555C203.433 200.555 203.04 200.825 202.799 201.365C202.558 201.899 202.437 202.723 202.437 203.836ZM206.92 203.836C206.92 205.314 206.669 206.434 206.168 207.195C205.673 207.951 204.944 208.328 203.98 208.328C203.056 208.328 202.343 207.941 201.842 207.166C201.347 206.391 201.099 205.281 201.099 203.836C201.099 202.358 201.34 201.245 201.822 200.496C202.31 199.747 203.03 199.373 203.98 199.373C204.905 199.373 205.624 199.757 206.139 200.525C206.659 201.287 206.92 202.391 206.92 203.836ZM204.4 193.855L196.48 208.133H195.045L202.965 193.855H204.4ZM221.217 195.135C219.648 195.135 218.407 195.659 217.496 196.707C216.591 197.749 216.139 199.178 216.139 200.994C216.139 202.863 216.575 204.308 217.447 205.33C218.326 206.346 219.576 206.854 221.197 206.854C222.193 206.854 223.329 206.674 224.605 206.316V207.771C223.616 208.143 222.395 208.328 220.943 208.328C218.84 208.328 217.216 207.69 216.07 206.414C214.931 205.138 214.361 203.325 214.361 200.975C214.361 199.503 214.635 198.214 215.181 197.107C215.735 196.001 216.529 195.148 217.564 194.549C218.606 193.95 219.83 193.65 221.236 193.65C222.734 193.65 224.042 193.924 225.162 194.471L224.459 195.896C223.378 195.389 222.297 195.135 221.217 195.135ZM229.097 208.133H227.476V192.938H229.097V208.133ZM234.156 208.133H232.535V197.43H234.156V208.133ZM232.398 194.529C232.398 194.158 232.489 193.888 232.672 193.719C232.854 193.543 233.082 193.455 233.355 193.455C233.616 193.455 233.84 193.543 234.029 193.719C234.218 193.895 234.312 194.165 234.312 194.529C234.312 194.894 234.218 195.167 234.029 195.35C233.84 195.525 233.616 195.613 233.355 195.613C233.082 195.613 232.854 195.525 232.672 195.35C232.489 195.167 232.398 194.894 232.398 194.529ZM241.871 208.328C240.321 208.328 239.12 207.853 238.267 206.902C237.421 205.945 236.998 204.594 236.998 202.85C236.998 201.059 237.428 199.676 238.287 198.699C239.153 197.723 240.383 197.234 241.978 197.234C242.493 197.234 243.007 197.29 243.521 197.4C244.036 197.511 244.439 197.641 244.732 197.791L244.234 199.168C243.876 199.025 243.486 198.908 243.062 198.816C242.639 198.719 242.265 198.67 241.939 198.67C239.765 198.67 238.678 200.057 238.678 202.83C238.678 204.145 238.941 205.154 239.469 205.857C240.002 206.561 240.79 206.912 241.832 206.912C242.724 206.912 243.639 206.72 244.576 206.336V207.771C243.86 208.143 242.958 208.328 241.871 208.328ZM248.726 202.654C249.006 202.257 249.433 201.736 250.006 201.092L253.463 197.43H255.387L251.051 201.99L255.689 208.133H253.726L249.947 203.074L248.726 204.129V208.133H247.125V192.938H248.726V200.994C248.726 201.352 248.7 201.906 248.648 202.654H248.726ZM262.154 208.328C260.572 208.328 259.322 207.846 258.404 206.883C257.493 205.919 257.037 204.581 257.037 202.869C257.037 201.144 257.46 199.773 258.306 198.758C259.159 197.742 260.302 197.234 261.734 197.234C263.075 197.234 264.137 197.677 264.918 198.562C265.699 199.441 266.09 200.604 266.09 202.049V203.074H258.717C258.749 204.331 259.065 205.285 259.664 205.936C260.269 206.587 261.119 206.912 262.213 206.912C263.365 206.912 264.504 206.671 265.631 206.189V207.635C265.058 207.882 264.514 208.058 264 208.162C263.492 208.273 262.877 208.328 262.154 208.328ZM261.715 198.592C260.855 198.592 260.168 198.872 259.654 199.432C259.146 199.992 258.847 200.766 258.756 201.756H264.351C264.351 200.734 264.124 199.952 263.668 199.412C263.212 198.865 262.561 198.592 261.715 198.592ZM276.148 206.697H276.06C275.312 207.785 274.192 208.328 272.701 208.328C271.301 208.328 270.211 207.85 269.43 206.893C268.655 205.936 268.267 204.575 268.267 202.811C268.267 201.046 268.658 199.676 269.439 198.699C270.221 197.723 271.308 197.234 272.701 197.234C274.153 197.234 275.266 197.762 276.041 198.816H276.168L276.099 198.045L276.06 197.293V192.938H277.681V208.133H276.363L276.148 206.697ZM272.906 206.971C274.013 206.971 274.814 206.671 275.308 206.072C275.81 205.467 276.06 204.493 276.06 203.152V202.811C276.06 201.294 275.806 200.213 275.299 199.568C274.797 198.917 273.993 198.592 272.887 198.592C271.936 198.592 271.207 198.963 270.699 199.705C270.198 200.441 269.947 201.482 269.947 202.83C269.947 204.197 270.198 205.229 270.699 205.926C271.2 206.622 271.936 206.971 272.906 206.971Z" fill="black"/>
<path d="M131.734 233.029C131.734 230.223 132.278 228.127 133.365 226.74C134.459 225.347 136.073 224.65 138.209 224.65C138.944 224.65 139.524 224.712 139.947 224.836V226.232C139.446 226.07 138.873 225.988 138.228 225.988C136.698 225.988 135.53 226.467 134.722 227.424C133.915 228.374 133.472 229.872 133.394 231.916H133.512C134.228 230.796 135.361 230.236 136.91 230.236C138.193 230.236 139.202 230.624 139.937 231.398C140.68 232.173 141.051 233.225 141.051 234.553C141.051 236.037 140.644 237.206 139.83 238.059C139.023 238.905 137.929 239.328 136.549 239.328C135.071 239.328 133.899 238.775 133.033 237.668C132.167 236.555 131.734 235.008 131.734 233.029ZM136.529 237.951C137.454 237.951 138.17 237.661 138.678 237.082C139.192 236.496 139.449 235.653 139.449 234.553C139.449 233.609 139.211 232.867 138.736 232.326C138.261 231.786 137.551 231.516 136.607 231.516C136.021 231.516 135.484 231.636 134.996 231.877C134.508 232.118 134.117 232.45 133.824 232.873C133.538 233.296 133.394 233.736 133.394 234.191C133.394 234.862 133.525 235.487 133.785 236.066C134.045 236.646 134.413 237.105 134.889 237.443C135.37 237.782 135.917 237.951 136.529 237.951ZM143.521 238.098C143.521 237.661 143.619 237.333 143.814 237.111C144.016 236.883 144.303 236.77 144.674 236.77C145.051 236.77 145.344 236.883 145.553 237.111C145.767 237.333 145.875 237.661 145.875 238.098C145.875 238.521 145.767 238.846 145.553 239.074C145.338 239.302 145.045 239.416 144.674 239.416C144.342 239.416 144.065 239.315 143.844 239.113C143.629 238.905 143.521 238.566 143.521 238.098ZM157.193 228.215C157.193 229.126 156.936 229.872 156.422 230.451C155.914 231.031 155.191 231.418 154.254 231.613V231.691C155.4 231.835 156.249 232.199 156.803 232.785C157.356 233.371 157.633 234.139 157.633 235.09C157.633 236.451 157.161 237.499 156.217 238.234C155.273 238.964 153.931 239.328 152.193 239.328C151.438 239.328 150.745 239.27 150.113 239.152C149.488 239.042 148.879 238.843 148.287 238.557V237.014C148.905 237.32 149.563 237.554 150.26 237.717C150.963 237.873 151.627 237.951 152.252 237.951C154.719 237.951 155.953 236.984 155.953 235.051C155.953 233.319 154.592 232.453 151.871 232.453H150.465V231.057H151.89C153.004 231.057 153.886 230.812 154.537 230.324C155.188 229.829 155.514 229.146 155.514 228.273C155.514 227.577 155.273 227.03 154.791 226.633C154.316 226.236 153.668 226.037 152.847 226.037C152.222 226.037 151.633 226.122 151.08 226.291C150.527 226.46 149.895 226.773 149.185 227.229L148.365 226.135C148.951 225.673 149.625 225.311 150.387 225.051C151.155 224.784 151.962 224.65 152.808 224.65C154.195 224.65 155.273 224.969 156.041 225.607C156.809 226.239 157.193 227.108 157.193 228.215ZM161.178 229.113C161.178 230.22 161.298 231.05 161.539 231.604C161.78 232.157 162.17 232.434 162.711 232.434C163.778 232.434 164.312 231.327 164.312 229.113C164.312 226.913 163.778 225.812 162.711 225.812C162.17 225.812 161.78 226.086 161.539 226.633C161.298 227.18 161.178 228.007 161.178 229.113ZM165.65 229.113C165.65 230.598 165.4 231.721 164.898 232.482C164.403 233.238 163.674 233.615 162.711 233.615C161.799 233.615 161.09 233.228 160.582 232.453C160.081 231.678 159.83 230.565 159.83 229.113C159.83 227.635 160.071 226.522 160.553 225.773C161.041 225.025 161.76 224.65 162.711 224.65C163.655 224.65 164.381 225.038 164.889 225.812C165.396 226.587 165.65 227.688 165.65 229.113ZM169.771 234.836C169.771 235.949 169.892 236.783 170.133 237.336C170.374 237.883 170.767 238.156 171.314 238.156C171.861 238.156 172.265 237.886 172.525 237.346C172.786 236.799 172.916 235.962 172.916 234.836C172.916 233.723 172.786 232.899 172.525 232.365C172.265 231.825 171.861 231.555 171.314 231.555C170.767 231.555 170.374 231.825 170.133 232.365C169.892 232.899 169.771 233.723 169.771 234.836ZM174.254 234.836C174.254 236.314 174.003 237.434 173.502 238.195C173.007 238.951 172.278 239.328 171.314 239.328C170.39 239.328 169.677 238.941 169.176 238.166C168.681 237.391 168.433 236.281 168.433 234.836C168.433 233.358 168.674 232.245 169.156 231.496C169.644 230.747 170.364 230.373 171.314 230.373C172.239 230.373 172.958 230.757 173.472 231.525C173.993 232.287 174.254 233.391 174.254 234.836ZM171.734 224.855L163.814 239.133H162.379L170.299 224.855H171.734ZM190.494 235.334C190.494 236.59 190.038 237.57 189.127 238.273C188.215 238.977 186.978 239.328 185.416 239.328C183.723 239.328 182.421 239.11 181.51 238.674V237.072C182.096 237.32 182.734 237.515 183.424 237.658C184.114 237.801 184.797 237.873 185.474 237.873C186.581 237.873 187.415 237.665 187.974 237.248C188.534 236.825 188.814 236.239 188.814 235.49C188.814 234.995 188.713 234.592 188.512 234.279C188.316 233.96 187.984 233.667 187.515 233.4C187.053 233.133 186.347 232.831 185.396 232.492C184.068 232.017 183.118 231.454 182.545 230.803C181.978 230.152 181.695 229.302 181.695 228.254C181.695 227.154 182.109 226.278 182.935 225.627C183.762 224.976 184.856 224.65 186.217 224.65C187.636 224.65 188.941 224.911 190.133 225.432L189.615 226.877C188.437 226.382 187.291 226.135 186.178 226.135C185.299 226.135 184.612 226.324 184.117 226.701C183.622 227.079 183.375 227.603 183.375 228.273C183.375 228.768 183.466 229.175 183.648 229.494C183.831 229.807 184.137 230.096 184.566 230.363C185.002 230.624 185.666 230.913 186.558 231.232C188.056 231.766 189.084 232.339 189.644 232.951C190.211 233.563 190.494 234.357 190.494 235.334ZM196.627 237.99C196.913 237.99 197.19 237.971 197.457 237.932C197.724 237.886 197.935 237.84 198.092 237.795V239.035C197.916 239.12 197.655 239.188 197.31 239.24C196.972 239.299 196.666 239.328 196.392 239.328C194.322 239.328 193.287 238.238 193.287 236.057V229.689H191.754V228.908L193.287 228.234L193.971 225.949H194.908V228.43H198.014V229.689H194.908V235.988C194.908 236.633 195.061 237.128 195.367 237.473C195.673 237.818 196.093 237.99 196.627 237.99ZM206.822 239.133L206.5 237.609H206.422C205.888 238.28 205.354 238.736 204.82 238.977C204.293 239.211 203.632 239.328 202.838 239.328C201.777 239.328 200.943 239.055 200.338 238.508C199.739 237.961 199.439 237.183 199.439 236.174C199.439 234.012 201.168 232.88 204.625 232.775L206.441 232.717V232.053C206.441 231.213 206.259 230.594 205.894 230.197C205.536 229.794 204.96 229.592 204.166 229.592C203.274 229.592 202.265 229.865 201.139 230.412L200.64 229.172C201.168 228.885 201.744 228.661 202.369 228.498C203 228.335 203.632 228.254 204.264 228.254C205.54 228.254 206.484 228.537 207.096 229.104C207.714 229.67 208.023 230.578 208.023 231.828V239.133H206.822ZM203.16 237.99C204.169 237.99 204.96 237.714 205.533 237.16C206.112 236.607 206.402 235.832 206.402 234.836V233.869L204.781 233.938C203.492 233.983 202.561 234.185 201.988 234.543C201.422 234.895 201.139 235.445 201.139 236.193C201.139 236.779 201.314 237.225 201.666 237.531C202.024 237.837 202.522 237.99 203.16 237.99ZM216.256 228.234C216.731 228.234 217.157 228.273 217.535 228.352L217.31 229.855C216.868 229.758 216.477 229.709 216.139 229.709C215.273 229.709 214.53 230.061 213.912 230.764C213.3 231.467 212.994 232.342 212.994 233.391V239.133H211.373V228.43H212.711L212.896 230.412H212.974C213.372 229.715 213.85 229.178 214.41 228.801C214.97 228.423 215.585 228.234 216.256 228.234ZM222.994 237.99C223.28 237.99 223.557 237.971 223.824 237.932C224.091 237.886 224.303 237.84 224.459 237.795V239.035C224.283 239.12 224.023 239.188 223.678 239.24C223.339 239.299 223.033 239.328 222.76 239.328C220.689 239.328 219.654 238.238 219.654 236.057V229.689H218.121V228.908L219.654 228.234L220.338 225.949H221.275V228.43H224.381V229.689H221.275V235.988C221.275 236.633 221.428 237.128 221.734 237.473C222.04 237.818 222.46 237.99 222.994 237.99ZM231.129 239.328C229.547 239.328 228.297 238.846 227.379 237.883C226.467 236.919 226.012 235.581 226.012 233.869C226.012 232.144 226.435 230.773 227.281 229.758C228.134 228.742 229.277 228.234 230.709 228.234C232.05 228.234 233.111 228.677 233.892 229.562C234.674 230.441 235.064 231.604 235.064 233.049V234.074H227.691C227.724 235.331 228.04 236.285 228.639 236.936C229.244 237.587 230.094 237.912 231.187 237.912C232.34 237.912 233.479 237.671 234.605 237.189V238.635C234.032 238.882 233.489 239.058 232.974 239.162C232.467 239.273 231.851 239.328 231.129 239.328ZM230.689 229.592C229.83 229.592 229.143 229.872 228.629 230.432C228.121 230.992 227.821 231.766 227.73 232.756H233.326C233.326 231.734 233.098 230.952 232.642 230.412C232.187 229.865 231.536 229.592 230.689 229.592ZM245.123 237.697H245.035C244.286 238.785 243.166 239.328 241.676 239.328C240.276 239.328 239.185 238.85 238.404 237.893C237.629 236.936 237.242 235.575 237.242 233.811C237.242 232.046 237.633 230.676 238.414 229.699C239.195 228.723 240.282 228.234 241.676 228.234C243.127 228.234 244.241 228.762 245.015 229.816H245.142L245.074 229.045L245.035 228.293V223.938H246.656V239.133H245.338L245.123 237.697ZM241.881 237.971C242.987 237.971 243.788 237.671 244.283 237.072C244.784 236.467 245.035 235.493 245.035 234.152V233.811C245.035 232.294 244.781 231.213 244.273 230.568C243.772 229.917 242.968 229.592 241.861 229.592C240.911 229.592 240.181 229.963 239.674 230.705C239.172 231.441 238.922 232.482 238.922 233.83C238.922 235.197 239.172 236.229 239.674 236.926C240.175 237.622 240.911 237.971 241.881 237.971ZM263.599 235.334C263.599 236.59 263.144 237.57 262.232 238.273C261.321 238.977 260.084 239.328 258.521 239.328C256.829 239.328 255.527 239.11 254.615 238.674V237.072C255.201 237.32 255.839 237.515 256.529 237.658C257.219 237.801 257.903 237.873 258.58 237.873C259.687 237.873 260.52 237.665 261.08 237.248C261.64 236.825 261.92 236.239 261.92 235.49C261.92 234.995 261.819 234.592 261.617 234.279C261.422 233.96 261.09 233.667 260.621 233.4C260.159 233.133 259.452 232.831 258.502 232.492C257.174 232.017 256.223 231.454 255.65 230.803C255.084 230.152 254.801 229.302 254.801 228.254C254.801 227.154 255.214 226.278 256.041 225.627C256.868 224.976 257.961 224.65 259.322 224.65C260.741 224.65 262.047 224.911 263.238 225.432L262.721 226.877C261.542 226.382 260.396 226.135 259.283 226.135C258.404 226.135 257.717 226.324 257.222 226.701C256.728 227.079 256.48 227.603 256.48 228.273C256.48 228.768 256.571 229.175 256.754 229.494C256.936 229.807 257.242 230.096 257.672 230.363C258.108 230.624 258.772 230.913 259.664 231.232C261.161 231.766 262.19 232.339 262.75 232.951C263.316 233.563 263.599 234.357 263.599 235.334ZM267.896 239.133H266.275V228.43H267.896V239.133ZM266.139 225.529C266.139 225.158 266.23 224.888 266.412 224.719C266.594 224.543 266.822 224.455 267.096 224.455C267.356 224.455 267.581 224.543 267.769 224.719C267.958 224.895 268.053 225.165 268.053 225.529C268.053 225.894 267.958 226.167 267.769 226.35C267.581 226.525 267.356 226.613 267.096 226.613C266.822 226.613 266.594 226.525 266.412 226.35C266.23 226.167 266.139 225.894 266.139 225.529ZM280.094 228.43V229.455L278.111 229.689C278.293 229.917 278.456 230.217 278.599 230.588C278.743 230.952 278.814 231.366 278.814 231.828C278.814 232.876 278.456 233.713 277.74 234.338C277.024 234.963 276.041 235.275 274.791 235.275C274.472 235.275 274.172 235.249 273.892 235.197C273.202 235.562 272.857 236.021 272.857 236.574C272.857 236.867 272.978 237.085 273.219 237.229C273.459 237.365 273.873 237.434 274.459 237.434H276.353C277.512 237.434 278.401 237.678 279.019 238.166C279.644 238.654 279.957 239.364 279.957 240.295C279.957 241.48 279.482 242.382 278.531 243C277.581 243.625 276.194 243.938 274.371 243.938C272.971 243.938 271.89 243.677 271.129 243.156C270.374 242.635 269.996 241.9 269.996 240.949C269.996 240.298 270.204 239.735 270.621 239.26C271.038 238.785 271.624 238.462 272.379 238.293C272.105 238.169 271.874 237.977 271.685 237.717C271.503 237.456 271.412 237.154 271.412 236.809C271.412 236.418 271.516 236.076 271.724 235.783C271.933 235.49 272.262 235.207 272.711 234.934C272.157 234.706 271.705 234.318 271.353 233.771C271.008 233.225 270.836 232.6 270.836 231.896C270.836 230.725 271.187 229.823 271.89 229.191C272.594 228.553 273.59 228.234 274.879 228.234C275.439 228.234 275.943 228.299 276.392 228.43H280.094ZM271.558 240.93C271.558 241.509 271.803 241.949 272.291 242.248C272.779 242.548 273.479 242.697 274.39 242.697C275.751 242.697 276.757 242.492 277.408 242.082C278.066 241.678 278.394 241.128 278.394 240.432C278.394 239.852 278.215 239.449 277.857 239.221C277.499 238.999 276.825 238.889 275.836 238.889H273.892C273.157 238.889 272.584 239.064 272.174 239.416C271.764 239.768 271.558 240.272 271.558 240.93ZM272.437 231.857C272.437 232.606 272.649 233.173 273.072 233.557C273.495 233.941 274.084 234.133 274.84 234.133C276.422 234.133 277.213 233.365 277.213 231.828C277.213 230.22 276.412 229.416 274.81 229.416C274.049 229.416 273.463 229.621 273.053 230.031C272.642 230.441 272.437 231.05 272.437 231.857ZM289.615 239.133V232.209C289.615 231.337 289.416 230.686 289.019 230.256C288.622 229.826 288 229.611 287.154 229.611C286.034 229.611 285.214 229.914 284.693 230.52C284.172 231.125 283.912 232.124 283.912 233.518V239.133H282.291V228.43H283.609L283.873 229.895H283.951C284.283 229.367 284.749 228.96 285.347 228.674C285.946 228.381 286.614 228.234 287.349 228.234C288.639 228.234 289.609 228.547 290.26 229.172C290.911 229.79 291.236 230.783 291.236 232.15V239.133H289.615ZM296.099 228.43V235.373C296.099 236.245 296.298 236.896 296.695 237.326C297.092 237.756 297.714 237.971 298.56 237.971C299.68 237.971 300.497 237.665 301.012 237.053C301.532 236.441 301.793 235.441 301.793 234.055V228.43H303.414V239.133H302.076L301.842 237.697H301.754C301.422 238.225 300.959 238.628 300.367 238.908C299.781 239.188 299.111 239.328 298.355 239.328C297.053 239.328 296.077 239.019 295.426 238.4C294.781 237.782 294.459 236.792 294.459 235.432V228.43H296.099ZM311.842 239.328C311.145 239.328 310.507 239.201 309.928 238.947C309.355 238.687 308.873 238.29 308.482 237.756H308.365C308.443 238.381 308.482 238.973 308.482 239.533V243.938H306.861V228.43H308.18L308.404 229.895H308.482C308.899 229.309 309.384 228.885 309.937 228.625C310.491 228.365 311.125 228.234 311.842 228.234C313.261 228.234 314.355 228.719 315.123 229.689C315.898 230.66 316.285 232.02 316.285 233.771C316.285 235.529 315.891 236.896 315.103 237.873C314.322 238.843 313.235 239.328 311.842 239.328ZM311.607 229.611C310.514 229.611 309.722 229.914 309.234 230.52C308.746 231.125 308.495 232.089 308.482 233.41V233.771C308.482 235.275 308.733 236.353 309.234 237.004C309.736 237.648 310.54 237.971 311.646 237.971C312.571 237.971 313.293 237.596 313.814 236.848C314.342 236.099 314.605 235.067 314.605 233.752C314.605 232.417 314.342 231.395 313.814 230.686C313.293 229.969 312.558 229.611 311.607 229.611Z" fill="black"/>
<path d="M124.361 266.852H122.242V270.133H120.689V266.852H113.746V265.436L120.523 255.777H122.242V265.377H124.361V266.852ZM120.689 265.377V260.631C120.689 259.7 120.722 258.648 120.787 257.477H120.709C120.396 258.102 120.103 258.619 119.83 259.029L115.367 265.377H120.689ZM126.256 269.098C126.256 268.661 126.353 268.333 126.549 268.111C126.75 267.883 127.037 267.77 127.408 267.77C127.786 267.77 128.079 267.883 128.287 268.111C128.502 268.333 128.609 268.661 128.609 269.098C128.609 269.521 128.502 269.846 128.287 270.074C128.072 270.302 127.779 270.416 127.408 270.416C127.076 270.416 126.799 270.315 126.578 270.113C126.363 269.905 126.256 269.566 126.256 269.098ZM132.887 270.133L138.805 257.35H131.021V255.855H140.523V257.154L134.683 270.133H132.887ZM143.912 260.113C143.912 261.22 144.032 262.05 144.273 262.604C144.514 263.157 144.905 263.434 145.445 263.434C146.513 263.434 147.047 262.327 147.047 260.113C147.047 257.913 146.513 256.812 145.445 256.812C144.905 256.812 144.514 257.086 144.273 257.633C144.032 258.18 143.912 259.007 143.912 260.113ZM148.385 260.113C148.385 261.598 148.134 262.721 147.633 263.482C147.138 264.238 146.409 264.615 145.445 264.615C144.534 264.615 143.824 264.228 143.316 263.453C142.815 262.678 142.564 261.565 142.564 260.113C142.564 258.635 142.805 257.522 143.287 256.773C143.775 256.025 144.495 255.65 145.445 255.65C146.389 255.65 147.115 256.038 147.623 256.812C148.131 257.587 148.385 258.688 148.385 260.113ZM152.506 265.836C152.506 266.949 152.626 267.783 152.867 268.336C153.108 268.883 153.502 269.156 154.049 269.156C154.596 269.156 154.999 268.886 155.26 268.346C155.52 267.799 155.65 266.962 155.65 265.836C155.65 264.723 155.52 263.899 155.26 263.365C154.999 262.825 154.596 262.555 154.049 262.555C153.502 262.555 153.108 262.825 152.867 263.365C152.626 263.899 152.506 264.723 152.506 265.836ZM156.988 265.836C156.988 267.314 156.737 268.434 156.236 269.195C155.741 269.951 155.012 270.328 154.049 270.328C153.124 270.328 152.411 269.941 151.91 269.166C151.415 268.391 151.168 267.281 151.168 265.836C151.168 264.358 151.409 263.245 151.89 262.496C152.379 261.747 153.098 261.373 154.049 261.373C154.973 261.373 155.693 261.757 156.207 262.525C156.728 263.287 156.988 264.391 156.988 265.836ZM154.469 255.855L146.549 270.133H145.113L153.033 255.855H154.469ZM171.285 257.135C169.716 257.135 168.476 257.659 167.564 258.707C166.659 259.749 166.207 261.178 166.207 262.994C166.207 264.863 166.643 266.308 167.515 267.33C168.394 268.346 169.644 268.854 171.265 268.854C172.262 268.854 173.398 268.674 174.674 268.316V269.771C173.684 270.143 172.463 270.328 171.012 270.328C168.909 270.328 167.284 269.69 166.139 268.414C164.999 267.138 164.43 265.325 164.43 262.975C164.43 261.503 164.703 260.214 165.25 259.107C165.803 258.001 166.597 257.148 167.633 256.549C168.674 255.95 169.898 255.65 171.305 255.65C172.802 255.65 174.111 255.924 175.23 256.471L174.527 257.896C173.446 257.389 172.366 257.135 171.285 257.135ZM186.783 264.771C186.783 266.516 186.344 267.88 185.465 268.863C184.586 269.84 183.372 270.328 181.822 270.328C180.865 270.328 180.015 270.104 179.273 269.654C178.531 269.205 177.958 268.561 177.555 267.721C177.151 266.881 176.949 265.898 176.949 264.771C176.949 263.027 177.385 261.669 178.258 260.699C179.13 259.723 180.341 259.234 181.89 259.234C183.388 259.234 184.576 259.732 185.455 260.729C186.34 261.725 186.783 263.072 186.783 264.771ZM178.629 264.771C178.629 266.139 178.902 267.18 179.449 267.896C179.996 268.613 180.8 268.971 181.861 268.971C182.922 268.971 183.726 268.616 184.273 267.906C184.827 267.19 185.103 266.145 185.103 264.771C185.103 263.411 184.827 262.379 184.273 261.676C183.726 260.966 182.916 260.611 181.842 260.611C180.78 260.611 179.98 260.96 179.439 261.656C178.899 262.353 178.629 263.391 178.629 264.771ZM203.277 270.133V263.17C203.277 262.317 203.095 261.679 202.73 261.256C202.366 260.826 201.799 260.611 201.031 260.611C200.022 260.611 199.277 260.901 198.795 261.48C198.313 262.06 198.072 262.952 198.072 264.156V270.133H196.451V263.17C196.451 262.317 196.269 261.679 195.904 261.256C195.54 260.826 194.97 260.611 194.195 260.611C193.18 260.611 192.434 260.917 191.959 261.529C191.49 262.135 191.256 263.131 191.256 264.518V270.133H189.635V259.43H190.953L191.217 260.895H191.295C191.601 260.374 192.03 259.967 192.584 259.674C193.144 259.381 193.769 259.234 194.459 259.234C196.132 259.234 197.226 259.84 197.74 261.051H197.818C198.137 260.491 198.599 260.048 199.205 259.723C199.81 259.397 200.5 259.234 201.275 259.234C202.486 259.234 203.391 259.547 203.99 260.172C204.596 260.79 204.898 261.783 204.898 263.15V270.133H203.277ZM213.228 270.328C212.532 270.328 211.894 270.201 211.314 269.947C210.741 269.687 210.26 269.29 209.869 268.756H209.752C209.83 269.381 209.869 269.973 209.869 270.533V274.938H208.248V259.43H209.566L209.791 260.895H209.869C210.286 260.309 210.771 259.885 211.324 259.625C211.877 259.365 212.512 259.234 213.228 259.234C214.648 259.234 215.741 259.719 216.51 260.689C217.284 261.66 217.672 263.02 217.672 264.771C217.672 266.529 217.278 267.896 216.49 268.873C215.709 269.843 214.622 270.328 213.228 270.328ZM212.994 260.611C211.9 260.611 211.109 260.914 210.621 261.52C210.133 262.125 209.882 263.089 209.869 264.41V264.771C209.869 266.275 210.12 267.353 210.621 268.004C211.122 268.648 211.926 268.971 213.033 268.971C213.958 268.971 214.68 268.596 215.201 267.848C215.728 267.099 215.992 266.067 215.992 264.752C215.992 263.417 215.728 262.395 215.201 261.686C214.68 260.969 213.944 260.611 212.994 260.611ZM222.135 270.133H220.514V254.938H222.135V270.133ZM230.094 270.328C228.512 270.328 227.262 269.846 226.344 268.883C225.432 267.919 224.976 266.581 224.976 264.869C224.976 263.144 225.4 261.773 226.246 260.758C227.099 259.742 228.241 259.234 229.674 259.234C231.015 259.234 232.076 259.677 232.857 260.562C233.639 261.441 234.029 262.604 234.029 264.049V265.074H226.656C226.689 266.331 227.004 267.285 227.603 267.936C228.209 268.587 229.058 268.912 230.152 268.912C231.305 268.912 232.444 268.671 233.57 268.189V269.635C232.997 269.882 232.454 270.058 231.939 270.162C231.431 270.273 230.816 270.328 230.094 270.328ZM229.654 260.592C228.795 260.592 228.108 260.872 227.594 261.432C227.086 261.992 226.786 262.766 226.695 263.756H232.291C232.291 262.734 232.063 261.952 231.607 261.412C231.152 260.865 230.5 260.592 229.654 260.592ZM240.26 268.99C240.546 268.99 240.823 268.971 241.09 268.932C241.357 268.886 241.568 268.84 241.724 268.795V270.035C241.549 270.12 241.288 270.188 240.943 270.24C240.605 270.299 240.299 270.328 240.025 270.328C237.955 270.328 236.92 269.238 236.92 267.057V260.689H235.387V259.908L236.92 259.234L237.603 256.949H238.541V259.43H241.646V260.689H238.541V266.988C238.541 267.633 238.694 268.128 239 268.473C239.306 268.818 239.726 268.99 240.26 268.99ZM248.394 270.328C246.812 270.328 245.562 269.846 244.644 268.883C243.733 267.919 243.277 266.581 243.277 264.869C243.277 263.144 243.7 261.773 244.547 260.758C245.4 259.742 246.542 259.234 247.974 259.234C249.316 259.234 250.377 259.677 251.158 260.562C251.939 261.441 252.33 262.604 252.33 264.049V265.074H244.957C244.989 266.331 245.305 267.285 245.904 267.936C246.51 268.587 247.359 268.912 248.453 268.912C249.605 268.912 250.745 268.671 251.871 268.189V269.635C251.298 269.882 250.754 270.058 250.24 270.162C249.732 270.273 249.117 270.328 248.394 270.328ZM247.955 260.592C247.096 260.592 246.409 260.872 245.894 261.432C245.387 261.992 245.087 262.766 244.996 263.756H250.592C250.592 262.734 250.364 261.952 249.908 261.412C249.452 260.865 248.801 260.592 247.955 260.592ZM262.389 268.697H262.301C261.552 269.785 260.432 270.328 258.941 270.328C257.541 270.328 256.451 269.85 255.67 268.893C254.895 267.936 254.508 266.575 254.508 264.811C254.508 263.046 254.898 261.676 255.68 260.699C256.461 259.723 257.548 259.234 258.941 259.234C260.393 259.234 261.506 259.762 262.281 260.816H262.408L262.34 260.045L262.301 259.293V254.938H263.922V270.133H262.603L262.389 268.697ZM259.146 268.971C260.253 268.971 261.054 268.671 261.549 268.072C262.05 267.467 262.301 266.493 262.301 265.152V264.811C262.301 263.294 262.047 262.213 261.539 261.568C261.038 260.917 260.234 260.592 259.127 260.592C258.176 260.592 257.447 260.963 256.939 261.705C256.438 262.441 256.187 263.482 256.187 264.83C256.187 266.197 256.438 267.229 256.939 267.926C257.441 268.622 258.176 268.971 259.146 268.971ZM280.865 266.334C280.865 267.59 280.409 268.57 279.498 269.273C278.586 269.977 277.349 270.328 275.787 270.328C274.094 270.328 272.792 270.11 271.881 269.674V268.072C272.467 268.32 273.105 268.515 273.795 268.658C274.485 268.801 275.168 268.873 275.846 268.873C276.952 268.873 277.786 268.665 278.346 268.248C278.905 267.825 279.185 267.239 279.185 266.49C279.185 265.995 279.084 265.592 278.883 265.279C278.687 264.96 278.355 264.667 277.887 264.4C277.424 264.133 276.718 263.831 275.767 263.492C274.439 263.017 273.489 262.454 272.916 261.803C272.349 261.152 272.066 260.302 272.066 259.254C272.066 258.154 272.48 257.278 273.306 256.627C274.133 255.976 275.227 255.65 276.588 255.65C278.007 255.65 279.312 255.911 280.504 256.432L279.986 257.877C278.808 257.382 277.662 257.135 276.549 257.135C275.67 257.135 274.983 257.324 274.488 257.701C273.993 258.079 273.746 258.603 273.746 259.273C273.746 259.768 273.837 260.175 274.019 260.494C274.202 260.807 274.508 261.096 274.937 261.363C275.374 261.624 276.038 261.913 276.93 262.232C278.427 262.766 279.456 263.339 280.015 263.951C280.582 264.563 280.865 265.357 280.865 266.334ZM285.162 270.133H283.541V259.43H285.162V270.133ZM283.404 256.529C283.404 256.158 283.495 255.888 283.678 255.719C283.86 255.543 284.088 255.455 284.361 255.455C284.622 255.455 284.846 255.543 285.035 255.719C285.224 255.895 285.318 256.165 285.318 256.529C285.318 256.894 285.224 257.167 285.035 257.35C284.846 257.525 284.622 257.613 284.361 257.613C284.088 257.613 283.86 257.525 283.678 257.35C283.495 257.167 283.404 256.894 283.404 256.529ZM297.359 259.43V260.455L295.377 260.689C295.559 260.917 295.722 261.217 295.865 261.588C296.008 261.952 296.08 262.366 296.08 262.828C296.08 263.876 295.722 264.713 295.006 265.338C294.29 265.963 293.306 266.275 292.056 266.275C291.737 266.275 291.438 266.249 291.158 266.197C290.468 266.562 290.123 267.021 290.123 267.574C290.123 267.867 290.243 268.085 290.484 268.229C290.725 268.365 291.139 268.434 291.724 268.434H293.619C294.778 268.434 295.666 268.678 296.285 269.166C296.91 269.654 297.222 270.364 297.222 271.295C297.222 272.48 296.747 273.382 295.797 274C294.846 274.625 293.459 274.938 291.637 274.938C290.237 274.938 289.156 274.677 288.394 274.156C287.639 273.635 287.262 272.9 287.262 271.949C287.262 271.298 287.47 270.735 287.887 270.26C288.303 269.785 288.889 269.462 289.644 269.293C289.371 269.169 289.14 268.977 288.951 268.717C288.769 268.456 288.678 268.154 288.678 267.809C288.678 267.418 288.782 267.076 288.99 266.783C289.198 266.49 289.527 266.207 289.976 265.934C289.423 265.706 288.971 265.318 288.619 264.771C288.274 264.225 288.101 263.6 288.101 262.896C288.101 261.725 288.453 260.823 289.156 260.191C289.859 259.553 290.855 259.234 292.144 259.234C292.704 259.234 293.209 259.299 293.658 259.43H297.359ZM288.824 271.93C288.824 272.509 289.068 272.949 289.556 273.248C290.045 273.548 290.745 273.697 291.656 273.697C293.017 273.697 294.023 273.492 294.674 273.082C295.331 272.678 295.66 272.128 295.66 271.432C295.66 270.852 295.481 270.449 295.123 270.221C294.765 269.999 294.091 269.889 293.101 269.889H291.158C290.422 269.889 289.849 270.064 289.439 270.416C289.029 270.768 288.824 271.272 288.824 271.93ZM289.703 262.857C289.703 263.606 289.915 264.173 290.338 264.557C290.761 264.941 291.35 265.133 292.105 265.133C293.687 265.133 294.478 264.365 294.478 262.828C294.478 261.22 293.678 260.416 292.076 260.416C291.314 260.416 290.728 260.621 290.318 261.031C289.908 261.441 289.703 262.05 289.703 262.857ZM306.881 270.133V263.209C306.881 262.337 306.682 261.686 306.285 261.256C305.888 260.826 305.266 260.611 304.42 260.611C303.3 260.611 302.48 260.914 301.959 261.52C301.438 262.125 301.178 263.124 301.178 264.518V270.133H299.556V259.43H300.875L301.139 260.895H301.217C301.549 260.367 302.014 259.96 302.613 259.674C303.212 259.381 303.879 259.234 304.615 259.234C305.904 259.234 306.874 259.547 307.525 260.172C308.176 260.79 308.502 261.783 308.502 263.15V270.133H306.881ZM313.365 259.43V266.373C313.365 267.245 313.564 267.896 313.961 268.326C314.358 268.756 314.98 268.971 315.826 268.971C316.946 268.971 317.763 268.665 318.277 268.053C318.798 267.441 319.058 266.441 319.058 265.055V259.43H320.68V270.133H319.342L319.107 268.697H319.019C318.687 269.225 318.225 269.628 317.633 269.908C317.047 270.188 316.376 270.328 315.621 270.328C314.319 270.328 313.342 270.019 312.691 269.4C312.047 268.782 311.724 267.792 311.724 266.432V259.43H313.365ZM329.107 270.328C328.411 270.328 327.773 270.201 327.193 269.947C326.62 269.687 326.138 269.29 325.748 268.756H325.631C325.709 269.381 325.748 269.973 325.748 270.533V274.938H324.127V259.43H325.445L325.67 260.895H325.748C326.165 260.309 326.65 259.885 327.203 259.625C327.756 259.365 328.391 259.234 329.107 259.234C330.527 259.234 331.62 259.719 332.388 260.689C333.163 261.66 333.551 263.02 333.551 264.771C333.551 266.529 333.157 267.896 332.369 268.873C331.588 269.843 330.5 270.328 329.107 270.328ZM328.873 260.611C327.779 260.611 326.988 260.914 326.5 261.52C326.012 262.125 325.761 263.089 325.748 264.41V264.771C325.748 266.275 325.999 267.353 326.5 268.004C327.001 268.648 327.805 268.971 328.912 268.971C329.836 268.971 330.559 268.596 331.08 267.848C331.607 267.099 331.871 266.067 331.871 264.752C331.871 263.417 331.607 262.395 331.08 261.686C330.559 260.969 329.823 260.611 328.873 260.611Z" fill="black"/>
</svg>
