<svg width="448" height="432" viewBox="0 0 448 432" fill="none" xmlns="http://www.w3.org/2000/svg">
<path d="M198.305 430.036C171.338 426.797 145.226 418.49 121.344 405.552L224 216.073L198.305 430.036Z" fill="#0A1B5F"/>
<path d="M115.677 402.37C88.2539 386.424 64.6892 364.622 46.6653 338.518C28.6413 312.414 16.6025 282.653 11.4084 251.359L224 216.073L115.677 402.37Z" fill="#4A4B4D"/>
<path d="M247.324 430.307C233.854 431.774 220.275 431.967 206.768 430.883L224 216.073L247.324 430.307Z" fill="#1F74FE"/>
<path d="M10.7453 247.1C4.60873 204.922 11.1172 161.872 29.4476 123.393C47.778 84.9143 77.107 52.7352 113.726 30.925C150.345 9.11486 192.609 -1.34677 235.173 0.863092C277.738 3.07295 318.691 17.855 352.855 43.3401C387.018 68.8251 412.857 103.868 427.104 144.039C441.351 184.209 443.366 227.702 432.895 269.017C422.424 310.333 399.936 347.615 368.276 376.15C336.616 404.686 297.205 423.191 255.027 429.328L224 216.073L10.7453 247.1Z" fill="#D0D0D1"/>
<rect x="25.5049" y="17.5801" width="396.99" height="396.99" rx="198.495" fill="#F0F0F0"/>
<path d="M137.838 177.075L143.756 164.292H135.972V162.798H145.474V164.097L139.635 177.075H137.838ZM147.642 170.972C147.642 168.166 148.186 166.069 149.273 164.683C150.367 163.289 151.982 162.593 154.117 162.593C154.853 162.593 155.432 162.655 155.855 162.778V164.175C155.354 164.012 154.781 163.931 154.137 163.931C152.607 163.931 151.438 164.409 150.631 165.366C149.823 166.317 149.381 167.814 149.303 169.858H149.42C150.136 168.739 151.269 168.179 152.818 168.179C154.101 168.179 155.11 168.566 155.846 169.341C156.588 170.116 156.959 171.167 156.959 172.495C156.959 173.979 156.552 175.148 155.738 176.001C154.931 176.847 153.837 177.271 152.457 177.271C150.979 177.271 149.807 176.717 148.941 175.61C148.075 174.497 147.642 172.951 147.642 170.972ZM152.437 175.894C153.362 175.894 154.078 175.604 154.586 175.024C155.1 174.438 155.357 173.595 155.357 172.495C155.357 171.551 155.12 170.809 154.644 170.269C154.169 169.728 153.459 169.458 152.515 169.458C151.93 169.458 151.392 169.578 150.904 169.819C150.416 170.06 150.025 170.392 149.732 170.815C149.446 171.239 149.303 171.678 149.303 172.134C149.303 172.804 149.433 173.429 149.693 174.009C149.954 174.588 150.321 175.047 150.797 175.386C151.278 175.724 151.825 175.894 152.437 175.894ZM160.308 167.056C160.308 168.162 160.429 168.993 160.67 169.546C160.911 170.099 161.301 170.376 161.842 170.376C162.909 170.376 163.443 169.269 163.443 167.056C163.443 164.855 162.909 163.755 161.842 163.755C161.301 163.755 160.911 164.028 160.67 164.575C160.429 165.122 160.308 165.949 160.308 167.056ZM164.781 167.056C164.781 168.54 164.53 169.663 164.029 170.425C163.534 171.18 162.805 171.558 161.842 171.558C160.93 171.558 160.221 171.17 159.713 170.396C159.211 169.621 158.961 168.507 158.961 167.056C158.961 165.578 159.202 164.465 159.683 163.716C160.172 162.967 160.891 162.593 161.842 162.593C162.786 162.593 163.512 162.98 164.019 163.755C164.527 164.53 164.781 165.63 164.781 167.056ZM168.902 172.778C168.902 173.892 169.023 174.725 169.264 175.278C169.504 175.825 169.898 176.099 170.445 176.099C170.992 176.099 171.396 175.828 171.656 175.288C171.916 174.741 172.047 173.905 172.047 172.778C172.047 171.665 171.916 170.841 171.656 170.308C171.396 169.767 170.992 169.497 170.445 169.497C169.898 169.497 169.504 169.767 169.264 170.308C169.023 170.841 168.902 171.665 168.902 172.778ZM173.385 172.778C173.385 174.256 173.134 175.376 172.633 176.138C172.138 176.893 171.409 177.271 170.445 177.271C169.521 177.271 168.808 176.883 168.306 176.108C167.812 175.334 167.564 174.224 167.564 172.778C167.564 171.3 167.805 170.187 168.287 169.438C168.775 168.69 169.495 168.315 170.445 168.315C171.37 168.315 172.089 168.7 172.603 169.468C173.124 170.229 173.385 171.333 173.385 172.778ZM170.865 162.798L162.945 177.075H161.51L169.43 162.798H170.865ZM192.721 177.075H190.826L183.023 165.093H182.945C183.049 166.499 183.101 167.788 183.101 168.96V177.075H181.568V162.798H183.443L191.226 174.731H191.305C191.291 174.556 191.262 173.993 191.217 173.042C191.171 172.085 191.155 171.401 191.168 170.991V162.798H192.721V177.075ZM205.64 171.714C205.64 173.459 205.201 174.823 204.322 175.806C203.443 176.782 202.229 177.271 200.68 177.271C199.722 177.271 198.873 177.046 198.131 176.597C197.389 176.147 196.816 175.503 196.412 174.663C196.008 173.823 195.806 172.84 195.806 171.714C195.806 169.969 196.243 168.612 197.115 167.642C197.987 166.665 199.198 166.177 200.748 166.177C202.245 166.177 203.433 166.675 204.312 167.671C205.198 168.667 205.64 170.015 205.64 171.714ZM197.486 171.714C197.486 173.081 197.76 174.123 198.306 174.839C198.853 175.555 199.657 175.913 200.719 175.913C201.78 175.913 202.584 175.558 203.131 174.849C203.684 174.132 203.961 173.088 203.961 171.714C203.961 170.353 203.684 169.321 203.131 168.618C202.584 167.909 201.773 167.554 200.699 167.554C199.638 167.554 198.837 167.902 198.297 168.599C197.756 169.295 197.486 170.334 197.486 171.714ZM215.308 177.075H213.687V166.372H215.308V177.075ZM213.551 163.472C213.551 163.101 213.642 162.83 213.824 162.661C214.006 162.485 214.234 162.397 214.508 162.397C214.768 162.397 214.993 162.485 215.181 162.661C215.37 162.837 215.465 163.107 215.465 163.472C215.465 163.836 215.37 164.11 215.181 164.292C214.993 164.468 214.768 164.556 214.508 164.556C214.234 164.556 214.006 164.468 213.824 164.292C213.642 164.11 213.551 163.836 213.551 163.472ZM226.07 177.075V170.151C226.07 169.279 225.872 168.628 225.474 168.198C225.077 167.769 224.456 167.554 223.609 167.554C222.489 167.554 221.669 167.856 221.148 168.462C220.627 169.067 220.367 170.067 220.367 171.46V177.075H218.746V166.372H220.064L220.328 167.837H220.406C220.738 167.31 221.204 166.903 221.803 166.616C222.402 166.323 223.069 166.177 223.805 166.177C225.094 166.177 226.064 166.489 226.715 167.114C227.366 167.733 227.691 168.726 227.691 170.093V177.075H226.07ZM234.488 175.933C234.775 175.933 235.051 175.913 235.318 175.874C235.585 175.828 235.797 175.783 235.953 175.737V176.978C235.777 177.062 235.517 177.131 235.172 177.183C234.833 177.241 234.527 177.271 234.254 177.271C232.183 177.271 231.148 176.18 231.148 173.999V167.632H229.615V166.851L231.148 166.177L231.832 163.892H232.769V166.372H235.875V167.632H232.769V173.931C232.769 174.575 232.922 175.07 233.228 175.415C233.534 175.76 233.954 175.933 234.488 175.933ZM242.623 177.271C241.041 177.271 239.791 176.789 238.873 175.825C237.961 174.862 237.506 173.524 237.506 171.812C237.506 170.086 237.929 168.716 238.775 167.7C239.628 166.685 240.771 166.177 242.203 166.177C243.544 166.177 244.605 166.619 245.387 167.505C246.168 168.384 246.558 169.546 246.558 170.991V172.017H239.185C239.218 173.273 239.534 174.227 240.133 174.878C240.738 175.529 241.588 175.854 242.681 175.854C243.834 175.854 244.973 175.614 246.099 175.132V176.577C245.527 176.825 244.983 177 244.469 177.104C243.961 177.215 243.346 177.271 242.623 177.271ZM242.183 167.534C241.324 167.534 240.637 167.814 240.123 168.374C239.615 168.934 239.316 169.709 239.224 170.698H244.82C244.82 169.676 244.592 168.895 244.137 168.354C243.681 167.808 243.03 167.534 242.183 167.534ZM254.215 166.177C254.69 166.177 255.116 166.216 255.494 166.294L255.269 167.798C254.827 167.7 254.436 167.651 254.097 167.651C253.232 167.651 252.489 168.003 251.871 168.706C251.259 169.409 250.953 170.285 250.953 171.333V177.075H249.332V166.372H250.67L250.855 168.354H250.933C251.331 167.658 251.809 167.121 252.369 166.743C252.929 166.366 253.544 166.177 254.215 166.177ZM264.078 177.075L263.756 175.552H263.678C263.144 176.222 262.61 176.678 262.076 176.919C261.549 177.153 260.888 177.271 260.094 177.271C259.032 177.271 258.199 176.997 257.594 176.45C256.995 175.903 256.695 175.125 256.695 174.116C256.695 171.955 258.424 170.822 261.881 170.718L263.697 170.659V169.995C263.697 169.155 263.515 168.537 263.15 168.14C262.792 167.736 262.216 167.534 261.422 167.534C260.53 167.534 259.521 167.808 258.394 168.354L257.896 167.114C258.424 166.828 259 166.603 259.625 166.44C260.256 166.278 260.888 166.196 261.519 166.196C262.795 166.196 263.739 166.479 264.351 167.046C264.97 167.612 265.279 168.521 265.279 169.771V177.075H264.078ZM260.416 175.933C261.425 175.933 262.216 175.656 262.789 175.103C263.368 174.549 263.658 173.774 263.658 172.778V171.812L262.037 171.88C260.748 171.925 259.817 172.127 259.244 172.485C258.678 172.837 258.394 173.387 258.394 174.136C258.394 174.722 258.57 175.168 258.922 175.474C259.28 175.78 259.778 175.933 260.416 175.933ZM272.906 177.271C271.357 177.271 270.155 176.795 269.303 175.845C268.456 174.888 268.033 173.537 268.033 171.792C268.033 170.002 268.463 168.618 269.322 167.642C270.188 166.665 271.418 166.177 273.014 166.177C273.528 166.177 274.042 166.232 274.556 166.343C275.071 166.453 275.474 166.584 275.767 166.733L275.269 168.11C274.911 167.967 274.521 167.85 274.097 167.759C273.674 167.661 273.3 167.612 272.974 167.612C270.8 167.612 269.713 168.999 269.713 171.772C269.713 173.088 269.976 174.097 270.504 174.8C271.038 175.503 271.825 175.854 272.867 175.854C273.759 175.854 274.674 175.662 275.611 175.278V176.714C274.895 177.085 273.993 177.271 272.906 177.271ZM281.617 175.933C281.903 175.933 282.18 175.913 282.447 175.874C282.714 175.828 282.926 175.783 283.082 175.737V176.978C282.906 177.062 282.646 177.131 282.301 177.183C281.962 177.241 281.656 177.271 281.383 177.271C279.312 177.271 278.277 176.18 278.277 173.999V167.632H276.744V166.851L278.277 166.177L278.961 163.892H279.898V166.372H283.004V167.632H279.898V173.931C279.898 174.575 280.051 175.07 280.357 175.415C280.663 175.76 281.083 175.933 281.617 175.933ZM286.851 177.075H285.23V166.372H286.851V177.075ZM285.094 163.472C285.094 163.101 285.185 162.83 285.367 162.661C285.549 162.485 285.777 162.397 286.051 162.397C286.311 162.397 286.536 162.485 286.724 162.661C286.913 162.837 287.008 163.107 287.008 163.472C287.008 163.836 286.913 164.11 286.724 164.292C286.536 164.468 286.311 164.556 286.051 164.556C285.777 164.556 285.549 164.468 285.367 164.292C285.185 164.11 285.094 163.836 285.094 163.472ZM299.527 171.714C299.527 173.459 299.088 174.823 298.209 175.806C297.33 176.782 296.116 177.271 294.566 177.271C293.609 177.271 292.76 177.046 292.017 176.597C291.275 176.147 290.702 175.503 290.299 174.663C289.895 173.823 289.693 172.84 289.693 171.714C289.693 169.969 290.129 168.612 291.002 167.642C291.874 166.665 293.085 166.177 294.635 166.177C296.132 166.177 297.32 166.675 298.199 167.671C299.084 168.667 299.527 170.015 299.527 171.714ZM291.373 171.714C291.373 173.081 291.646 174.123 292.193 174.839C292.74 175.555 293.544 175.913 294.605 175.913C295.666 175.913 296.471 175.558 297.017 174.849C297.571 174.132 297.847 173.088 297.847 171.714C297.847 170.353 297.571 169.321 297.017 168.618C296.471 167.909 295.66 167.554 294.586 167.554C293.525 167.554 292.724 167.902 292.183 168.599C291.643 169.295 291.373 170.334 291.373 171.714ZM309.703 177.075V170.151C309.703 169.279 309.504 168.628 309.107 168.198C308.71 167.769 308.088 167.554 307.242 167.554C306.122 167.554 305.302 167.856 304.781 168.462C304.26 169.067 304 170.067 304 171.46V177.075H302.379V166.372H303.697L303.961 167.837H304.039C304.371 167.31 304.836 166.903 305.435 166.616C306.034 166.323 306.702 166.177 307.437 166.177C308.726 166.177 309.696 166.489 310.347 167.114C310.999 167.733 311.324 168.726 311.324 170.093V177.075H309.703Z" fill="black"/>
<path d="M175.572 208.075H173.99V197.899C173.99 197.053 174.016 196.252 174.068 195.497C173.931 195.634 173.778 195.777 173.609 195.927C173.44 196.076 172.665 196.711 171.285 197.831L170.426 196.718L174.205 193.798H175.572V208.075ZM185.474 199.354C186.978 199.354 188.16 199.729 189.019 200.478C189.885 201.22 190.318 202.239 190.318 203.534C190.318 205.012 189.846 206.171 188.902 207.011C187.965 207.851 186.669 208.271 185.015 208.271C183.407 208.271 182.18 208.013 181.334 207.499V205.937C181.79 206.229 182.356 206.461 183.033 206.63C183.71 206.793 184.377 206.874 185.035 206.874C186.181 206.874 187.069 206.604 187.701 206.063C188.339 205.523 188.658 204.742 188.658 203.72C188.658 201.728 187.437 200.731 184.996 200.731C184.377 200.731 183.551 200.826 182.515 201.015L181.676 200.478L182.213 193.798H189.312V195.292H183.599L183.238 199.579C183.987 199.429 184.732 199.354 185.474 199.354ZM193.844 198.056C193.844 199.162 193.964 199.993 194.205 200.546C194.446 201.099 194.836 201.376 195.377 201.376C196.444 201.376 196.978 200.269 196.978 198.056C196.978 195.855 196.444 194.755 195.377 194.755C194.836 194.755 194.446 195.028 194.205 195.575C193.964 196.122 193.844 196.949 193.844 198.056ZM198.316 198.056C198.316 199.54 198.066 200.663 197.564 201.425C197.069 202.18 196.34 202.558 195.377 202.558C194.465 202.558 193.756 202.17 193.248 201.396C192.747 200.621 192.496 199.507 192.496 198.056C192.496 196.578 192.737 195.465 193.219 194.716C193.707 193.967 194.426 193.593 195.377 193.593C196.321 193.593 197.047 193.98 197.555 194.755C198.062 195.53 198.316 196.63 198.316 198.056ZM202.437 203.778C202.437 204.892 202.558 205.725 202.799 206.278C203.04 206.825 203.433 207.099 203.98 207.099C204.527 207.099 204.931 206.828 205.191 206.288C205.452 205.741 205.582 204.905 205.582 203.778C205.582 202.665 205.452 201.841 205.191 201.308C204.931 200.767 204.527 200.497 203.98 200.497C203.433 200.497 203.04 200.767 202.799 201.308C202.558 201.841 202.437 202.665 202.437 203.778ZM206.92 203.778C206.92 205.256 206.669 206.376 206.168 207.138C205.673 207.893 204.944 208.271 203.98 208.271C203.056 208.271 202.343 207.883 201.842 207.108C201.347 206.334 201.099 205.224 201.099 203.778C201.099 202.3 201.34 201.187 201.822 200.438C202.31 199.69 203.03 199.315 203.98 199.315C204.905 199.315 205.624 199.7 206.139 200.468C206.659 201.229 206.92 202.333 206.92 203.778ZM204.4 193.798L196.48 208.075H195.045L202.965 193.798H204.4ZM221.217 195.077C219.648 195.077 218.407 195.601 217.496 196.649C216.591 197.691 216.139 199.12 216.139 200.937C216.139 202.805 216.575 204.25 217.447 205.272C218.326 206.288 219.576 206.796 221.197 206.796C222.193 206.796 223.329 206.617 224.605 206.259V207.714C223.616 208.085 222.395 208.271 220.943 208.271C218.84 208.271 217.216 207.632 216.07 206.356C214.931 205.08 214.361 203.267 214.361 200.917C214.361 199.446 214.635 198.157 215.181 197.05C215.735 195.943 216.529 195.09 217.564 194.491C218.606 193.892 219.83 193.593 221.236 193.593C222.734 193.593 224.042 193.866 225.162 194.413L224.459 195.839C223.378 195.331 222.297 195.077 221.217 195.077ZM229.097 208.075H227.476V192.88H229.097V208.075ZM234.156 208.075H232.535V197.372H234.156V208.075ZM232.398 194.472C232.398 194.101 232.489 193.83 232.672 193.661C232.854 193.485 233.082 193.397 233.355 193.397C233.616 193.397 233.84 193.485 234.029 193.661C234.218 193.837 234.312 194.107 234.312 194.472C234.312 194.836 234.218 195.11 234.029 195.292C233.84 195.468 233.616 195.556 233.355 195.556C233.082 195.556 232.854 195.468 232.672 195.292C232.489 195.11 232.398 194.836 232.398 194.472ZM241.871 208.271C240.321 208.271 239.12 207.795 238.267 206.845C237.421 205.888 236.998 204.537 236.998 202.792C236.998 201.002 237.428 199.618 238.287 198.642C239.153 197.665 240.383 197.177 241.978 197.177C242.493 197.177 243.007 197.232 243.521 197.343C244.036 197.453 244.439 197.584 244.732 197.733L244.234 199.11C243.876 198.967 243.486 198.85 243.062 198.759C242.639 198.661 242.265 198.612 241.939 198.612C239.765 198.612 238.678 199.999 238.678 202.772C238.678 204.088 238.941 205.097 239.469 205.8C240.002 206.503 240.79 206.854 241.832 206.854C242.724 206.854 243.639 206.662 244.576 206.278V207.714C243.86 208.085 242.958 208.271 241.871 208.271ZM248.726 202.597C249.006 202.2 249.433 201.679 250.006 201.034L253.463 197.372H255.387L251.051 201.933L255.689 208.075H253.726L249.947 203.017L248.726 204.071V208.075H247.125V192.88H248.726V200.937C248.726 201.295 248.7 201.848 248.648 202.597H248.726ZM262.154 208.271C260.572 208.271 259.322 207.789 258.404 206.825C257.493 205.862 257.037 204.524 257.037 202.812C257.037 201.086 257.46 199.716 258.306 198.7C259.159 197.685 260.302 197.177 261.734 197.177C263.075 197.177 264.137 197.619 264.918 198.505C265.699 199.384 266.09 200.546 266.09 201.991V203.017H258.717C258.749 204.273 259.065 205.227 259.664 205.878C260.269 206.529 261.119 206.854 262.213 206.854C263.365 206.854 264.504 206.614 265.631 206.132V207.577C265.058 207.825 264.514 208 264 208.104C263.492 208.215 262.877 208.271 262.154 208.271ZM261.715 198.534C260.855 198.534 260.168 198.814 259.654 199.374C259.146 199.934 258.847 200.709 258.756 201.698H264.351C264.351 200.676 264.124 199.895 263.668 199.354C263.212 198.808 262.561 198.534 261.715 198.534ZM276.148 206.64H276.06C275.312 207.727 274.192 208.271 272.701 208.271C271.301 208.271 270.211 207.792 269.43 206.835C268.655 205.878 268.267 204.517 268.267 202.753C268.267 200.989 268.658 199.618 269.439 198.642C270.221 197.665 271.308 197.177 272.701 197.177C274.153 197.177 275.266 197.704 276.041 198.759H276.168L276.099 197.987L276.06 197.235V192.88H277.681V208.075H276.363L276.148 206.64ZM272.906 206.913C274.013 206.913 274.814 206.614 275.308 206.015C275.81 205.409 276.06 204.436 276.06 203.095V202.753C276.06 201.236 275.806 200.155 275.299 199.511C274.797 198.86 273.993 198.534 272.887 198.534C271.936 198.534 271.207 198.905 270.699 199.647C270.198 200.383 269.947 201.425 269.947 202.772C269.947 204.14 270.198 205.172 270.699 205.868C271.2 206.565 271.936 206.913 272.906 206.913Z" fill="black"/>
<path d="M140.123 232.972C140.123 230.166 140.666 228.069 141.754 226.683C142.847 225.289 144.462 224.593 146.597 224.593C147.333 224.593 147.913 224.655 148.336 224.778V226.175C147.834 226.012 147.262 225.931 146.617 225.931C145.087 225.931 143.918 226.409 143.111 227.366C142.304 228.317 141.861 229.814 141.783 231.858H141.9C142.616 230.739 143.749 230.179 145.299 230.179C146.581 230.179 147.59 230.566 148.326 231.341C149.068 232.116 149.439 233.167 149.439 234.495C149.439 235.979 149.032 237.148 148.219 238.001C147.411 238.847 146.318 239.271 144.937 239.271C143.459 239.271 142.288 238.717 141.422 237.61C140.556 236.497 140.123 234.951 140.123 232.972ZM144.918 237.894C145.842 237.894 146.558 237.604 147.066 237.024C147.581 236.438 147.838 235.595 147.838 234.495C147.838 233.551 147.6 232.809 147.125 232.269C146.65 231.728 145.94 231.458 144.996 231.458C144.41 231.458 143.873 231.578 143.385 231.819C142.896 232.06 142.506 232.392 142.213 232.815C141.926 233.239 141.783 233.678 141.783 234.134C141.783 234.804 141.913 235.429 142.174 236.009C142.434 236.588 142.802 237.047 143.277 237.386C143.759 237.724 144.306 237.894 144.918 237.894ZM152.789 229.056C152.789 230.162 152.909 230.993 153.15 231.546C153.391 232.099 153.782 232.376 154.322 232.376C155.39 232.376 155.924 231.269 155.924 229.056C155.924 226.855 155.39 225.755 154.322 225.755C153.782 225.755 153.391 226.028 153.15 226.575C152.909 227.122 152.789 227.949 152.789 229.056ZM157.262 229.056C157.262 230.54 157.011 231.663 156.51 232.425C156.015 233.18 155.286 233.558 154.322 233.558C153.411 233.558 152.701 233.17 152.193 232.396C151.692 231.621 151.441 230.507 151.441 229.056C151.441 227.578 151.682 226.465 152.164 225.716C152.652 224.967 153.372 224.593 154.322 224.593C155.266 224.593 155.992 224.98 156.5 225.755C157.008 226.53 157.262 227.63 157.262 229.056ZM161.383 234.778C161.383 235.892 161.503 236.725 161.744 237.278C161.985 237.825 162.379 238.099 162.926 238.099C163.472 238.099 163.876 237.828 164.137 237.288C164.397 236.741 164.527 235.905 164.527 234.778C164.527 233.665 164.397 232.841 164.137 232.308C163.876 231.767 163.472 231.497 162.926 231.497C162.379 231.497 161.985 231.767 161.744 232.308C161.503 232.841 161.383 233.665 161.383 234.778ZM165.865 234.778C165.865 236.256 165.614 237.376 165.113 238.138C164.618 238.893 163.889 239.271 162.926 239.271C162.001 239.271 161.288 238.883 160.787 238.108C160.292 237.334 160.045 236.224 160.045 234.778C160.045 233.3 160.286 232.187 160.767 231.438C161.256 230.69 161.975 230.315 162.926 230.315C163.85 230.315 164.569 230.7 165.084 231.468C165.605 232.229 165.865 233.333 165.865 234.778ZM163.346 224.798L155.426 239.075H153.99L161.91 224.798H163.346ZM182.105 235.276C182.105 236.533 181.65 237.513 180.738 238.216C179.827 238.919 178.59 239.271 177.027 239.271C175.334 239.271 174.032 239.052 173.121 238.616V237.015C173.707 237.262 174.345 237.457 175.035 237.601C175.725 237.744 176.409 237.815 177.086 237.815C178.193 237.815 179.026 237.607 179.586 237.19C180.146 236.767 180.426 236.181 180.426 235.433C180.426 234.938 180.325 234.534 180.123 234.222C179.928 233.903 179.596 233.61 179.127 233.343C178.665 233.076 177.958 232.773 177.008 232.435C175.68 231.959 174.729 231.396 174.156 230.745C173.59 230.094 173.306 229.244 173.306 228.196C173.306 227.096 173.72 226.22 174.547 225.569C175.374 224.918 176.467 224.593 177.828 224.593C179.247 224.593 180.553 224.853 181.744 225.374L181.226 226.819C180.048 226.325 178.902 226.077 177.789 226.077C176.91 226.077 176.223 226.266 175.728 226.644C175.234 227.021 174.986 227.545 174.986 228.216C174.986 228.711 175.077 229.118 175.26 229.437C175.442 229.749 175.748 230.039 176.178 230.306C176.614 230.566 177.278 230.856 178.17 231.175C179.667 231.709 180.696 232.282 181.256 232.894C181.822 233.506 182.105 234.3 182.105 235.276ZM188.238 237.933C188.525 237.933 188.801 237.913 189.068 237.874C189.335 237.828 189.547 237.783 189.703 237.737V238.978C189.527 239.062 189.267 239.131 188.922 239.183C188.583 239.241 188.277 239.271 188.004 239.271C185.933 239.271 184.898 238.18 184.898 235.999V229.632H183.365V228.851L184.898 228.177L185.582 225.892H186.519V228.372H189.625V229.632H186.519V235.931C186.519 236.575 186.672 237.07 186.978 237.415C187.284 237.76 187.704 237.933 188.238 237.933ZM198.433 239.075L198.111 237.552H198.033C197.499 238.222 196.965 238.678 196.431 238.919C195.904 239.153 195.243 239.271 194.449 239.271C193.388 239.271 192.555 238.997 191.949 238.45C191.35 237.903 191.051 237.125 191.051 236.116C191.051 233.955 192.779 232.822 196.236 232.718L198.053 232.659V231.995C198.053 231.155 197.87 230.537 197.506 230.14C197.148 229.736 196.571 229.534 195.777 229.534C194.885 229.534 193.876 229.808 192.75 230.354L192.252 229.114C192.779 228.828 193.355 228.603 193.98 228.44C194.612 228.278 195.243 228.196 195.875 228.196C197.151 228.196 198.095 228.479 198.707 229.046C199.325 229.612 199.635 230.521 199.635 231.771V239.075H198.433ZM194.771 237.933C195.78 237.933 196.571 237.656 197.144 237.103C197.724 236.549 198.014 235.774 198.014 234.778V233.812L196.392 233.88C195.103 233.925 194.172 234.127 193.599 234.485C193.033 234.837 192.75 235.387 192.75 236.136C192.75 236.722 192.926 237.168 193.277 237.474C193.635 237.78 194.133 237.933 194.771 237.933ZM207.867 228.177C208.342 228.177 208.769 228.216 209.146 228.294L208.922 229.798C208.479 229.7 208.088 229.651 207.75 229.651C206.884 229.651 206.142 230.003 205.523 230.706C204.911 231.409 204.605 232.285 204.605 233.333V239.075H202.984V228.372H204.322L204.508 230.354H204.586C204.983 229.658 205.461 229.121 206.021 228.743C206.581 228.366 207.196 228.177 207.867 228.177ZM214.605 237.933C214.892 237.933 215.168 237.913 215.435 237.874C215.702 237.828 215.914 237.783 216.07 237.737V238.978C215.894 239.062 215.634 239.131 215.289 239.183C214.95 239.241 214.644 239.271 214.371 239.271C212.301 239.271 211.265 238.18 211.265 235.999V229.632H209.732V228.851L211.265 228.177L211.949 225.892H212.887V228.372H215.992V229.632H212.887V235.931C212.887 236.575 213.04 237.07 213.346 237.415C213.652 237.76 214.071 237.933 214.605 237.933ZM222.74 239.271C221.158 239.271 219.908 238.789 218.99 237.825C218.079 236.862 217.623 235.524 217.623 233.812C217.623 232.086 218.046 230.716 218.892 229.7C219.745 228.685 220.888 228.177 222.32 228.177C223.661 228.177 224.722 228.619 225.504 229.505C226.285 230.384 226.676 231.546 226.676 232.991V234.017H219.303C219.335 235.273 219.651 236.227 220.25 236.878C220.855 237.529 221.705 237.854 222.799 237.854C223.951 237.854 225.09 237.614 226.217 237.132V238.577C225.644 238.825 225.1 239 224.586 239.104C224.078 239.215 223.463 239.271 222.74 239.271ZM222.301 229.534C221.441 229.534 220.754 229.814 220.24 230.374C219.732 230.934 219.433 231.709 219.342 232.698H224.937C224.937 231.676 224.709 230.895 224.254 230.354C223.798 229.808 223.147 229.534 222.301 229.534ZM236.734 237.64H236.646C235.898 238.727 234.778 239.271 233.287 239.271C231.887 239.271 230.797 238.792 230.015 237.835C229.241 236.878 228.853 235.517 228.853 233.753C228.853 231.989 229.244 230.618 230.025 229.642C230.806 228.665 231.894 228.177 233.287 228.177C234.739 228.177 235.852 228.704 236.627 229.759H236.754L236.685 228.987L236.646 228.235V223.88H238.267V239.075H236.949L236.734 237.64ZM233.492 237.913C234.599 237.913 235.4 237.614 235.894 237.015C236.396 236.409 236.646 235.436 236.646 234.095V233.753C236.646 232.236 236.392 231.155 235.885 230.511C235.383 229.86 234.579 229.534 233.472 229.534C232.522 229.534 231.793 229.905 231.285 230.647C230.784 231.383 230.533 232.425 230.533 233.772C230.533 235.14 230.784 236.172 231.285 236.868C231.786 237.565 232.522 237.913 233.492 237.913ZM255.211 235.276C255.211 236.533 254.755 237.513 253.844 238.216C252.932 238.919 251.695 239.271 250.133 239.271C248.44 239.271 247.138 239.052 246.226 238.616V237.015C246.812 237.262 247.45 237.457 248.14 237.601C248.831 237.744 249.514 237.815 250.191 237.815C251.298 237.815 252.131 237.607 252.691 237.19C253.251 236.767 253.531 236.181 253.531 235.433C253.531 234.938 253.43 234.534 253.228 234.222C253.033 233.903 252.701 233.61 252.232 233.343C251.77 233.076 251.064 232.773 250.113 232.435C248.785 231.959 247.834 231.396 247.262 230.745C246.695 230.094 246.412 229.244 246.412 228.196C246.412 227.096 246.825 226.22 247.652 225.569C248.479 224.918 249.573 224.593 250.933 224.593C252.353 224.593 253.658 224.853 254.849 225.374L254.332 226.819C253.153 226.325 252.008 226.077 250.894 226.077C250.015 226.077 249.329 226.266 248.834 226.644C248.339 227.021 248.092 227.545 248.092 228.216C248.092 228.711 248.183 229.118 248.365 229.437C248.547 229.749 248.853 230.039 249.283 230.306C249.719 230.566 250.383 230.856 251.275 231.175C252.773 231.709 253.801 232.282 254.361 232.894C254.928 233.506 255.211 234.3 255.211 235.276ZM259.508 239.075H257.887V228.372H259.508V239.075ZM257.75 225.472C257.75 225.101 257.841 224.83 258.023 224.661C258.206 224.485 258.433 224.397 258.707 224.397C258.967 224.397 259.192 224.485 259.381 224.661C259.569 224.837 259.664 225.107 259.664 225.472C259.664 225.836 259.569 226.11 259.381 226.292C259.192 226.468 258.967 226.556 258.707 226.556C258.433 226.556 258.206 226.468 258.023 226.292C257.841 226.11 257.75 225.836 257.75 225.472ZM271.705 228.372V229.397L269.722 229.632C269.905 229.86 270.068 230.159 270.211 230.53C270.354 230.895 270.426 231.308 270.426 231.771C270.426 232.819 270.068 233.655 269.351 234.28C268.635 234.905 267.652 235.218 266.402 235.218C266.083 235.218 265.784 235.192 265.504 235.14C264.814 235.504 264.469 235.963 264.469 236.517C264.469 236.81 264.589 237.028 264.83 237.171C265.071 237.308 265.484 237.376 266.07 237.376H267.965C269.124 237.376 270.012 237.62 270.631 238.108C271.256 238.597 271.568 239.306 271.568 240.237C271.568 241.422 271.093 242.324 270.142 242.942C269.192 243.567 267.805 243.88 265.982 243.88C264.583 243.88 263.502 243.619 262.74 243.099C261.985 242.578 261.607 241.842 261.607 240.892C261.607 240.241 261.816 239.677 262.232 239.202C262.649 238.727 263.235 238.405 263.99 238.235C263.717 238.112 263.486 237.92 263.297 237.659C263.114 237.399 263.023 237.096 263.023 236.751C263.023 236.36 263.127 236.019 263.336 235.726C263.544 235.433 263.873 235.149 264.322 234.876C263.769 234.648 263.316 234.261 262.965 233.714C262.62 233.167 262.447 232.542 262.447 231.839C262.447 230.667 262.799 229.765 263.502 229.134C264.205 228.496 265.201 228.177 266.49 228.177C267.05 228.177 267.555 228.242 268.004 228.372H271.705ZM263.17 240.872C263.17 241.451 263.414 241.891 263.902 242.19C264.39 242.49 265.09 242.64 266.002 242.64C267.362 242.64 268.368 242.435 269.019 242.024C269.677 241.621 270.006 241.071 270.006 240.374C270.006 239.795 269.827 239.391 269.469 239.163C269.111 238.942 268.437 238.831 267.447 238.831H265.504C264.768 238.831 264.195 239.007 263.785 239.358C263.375 239.71 263.17 240.215 263.17 240.872ZM264.049 231.8C264.049 232.549 264.26 233.115 264.683 233.499C265.107 233.883 265.696 234.075 266.451 234.075C268.033 234.075 268.824 233.307 268.824 231.771C268.824 230.162 268.023 229.358 266.422 229.358C265.66 229.358 265.074 229.563 264.664 229.974C264.254 230.384 264.049 230.993 264.049 231.8ZM281.226 239.075V232.151C281.226 231.279 281.028 230.628 280.631 230.198C280.234 229.769 279.612 229.554 278.765 229.554C277.646 229.554 276.825 229.856 276.305 230.462C275.784 231.067 275.523 232.067 275.523 233.46V239.075H273.902V228.372H275.221L275.484 229.837H275.562C275.894 229.31 276.36 228.903 276.959 228.616C277.558 228.323 278.225 228.177 278.961 228.177C280.25 228.177 281.22 228.489 281.871 229.114C282.522 229.733 282.847 230.726 282.847 232.093V239.075H281.226ZM287.711 228.372V235.315C287.711 236.188 287.909 236.839 288.306 237.269C288.704 237.698 289.325 237.913 290.172 237.913C291.291 237.913 292.109 237.607 292.623 236.995C293.144 236.383 293.404 235.384 293.404 233.997V228.372H295.025V239.075H293.687L293.453 237.64H293.365C293.033 238.167 292.571 238.571 291.978 238.851C291.392 239.131 290.722 239.271 289.967 239.271C288.665 239.271 287.688 238.961 287.037 238.343C286.392 237.724 286.07 236.735 286.07 235.374V228.372H287.711ZM303.453 239.271C302.756 239.271 302.118 239.144 301.539 238.89C300.966 238.629 300.484 238.232 300.094 237.698H299.976C300.055 238.323 300.094 238.916 300.094 239.476V243.88H298.472V228.372H299.791L300.015 229.837H300.094C300.51 229.251 300.995 228.828 301.549 228.567C302.102 228.307 302.737 228.177 303.453 228.177C304.872 228.177 305.966 228.662 306.734 229.632C307.509 230.602 307.896 231.963 307.896 233.714C307.896 235.472 307.502 236.839 306.715 237.815C305.933 238.785 304.846 239.271 303.453 239.271ZM303.219 229.554C302.125 229.554 301.334 229.856 300.846 230.462C300.357 231.067 300.107 232.031 300.094 233.353V233.714C300.094 235.218 300.344 236.295 300.846 236.946C301.347 237.591 302.151 237.913 303.258 237.913C304.182 237.913 304.905 237.539 305.426 236.79C305.953 236.041 306.217 235.009 306.217 233.694C306.217 232.36 305.953 231.338 305.426 230.628C304.905 229.912 304.169 229.554 303.219 229.554Z" fill="black"/>
<path d="M131.539 259.157C131.539 260.069 131.282 260.814 130.767 261.394C130.26 261.973 129.537 262.36 128.599 262.556V262.634C129.745 262.777 130.595 263.142 131.148 263.728C131.702 264.313 131.978 265.082 131.978 266.032C131.978 267.393 131.506 268.441 130.562 269.177C129.618 269.906 128.277 270.271 126.539 270.271C125.784 270.271 125.09 270.212 124.459 270.095C123.834 269.984 123.225 269.785 122.633 269.499V267.956C123.251 268.262 123.909 268.496 124.605 268.659C125.308 268.815 125.972 268.894 126.597 268.894C129.065 268.894 130.299 267.927 130.299 265.993C130.299 264.261 128.938 263.396 126.217 263.396H124.81V261.999H126.236C127.349 261.999 128.232 261.755 128.883 261.267C129.534 260.772 129.859 260.088 129.859 259.216C129.859 258.519 129.618 257.972 129.137 257.575C128.661 257.178 128.014 256.979 127.193 256.979C126.568 256.979 125.979 257.064 125.426 257.233C124.872 257.403 124.241 257.715 123.531 258.171L122.711 257.077C123.297 256.615 123.971 256.254 124.732 255.993C125.5 255.726 126.308 255.593 127.154 255.593C128.541 255.593 129.618 255.912 130.387 256.55C131.155 257.181 131.539 258.05 131.539 259.157ZM135.523 260.056C135.523 261.162 135.644 261.993 135.885 262.546C136.125 263.099 136.516 263.376 137.056 263.376C138.124 263.376 138.658 262.269 138.658 260.056C138.658 257.855 138.124 256.755 137.056 256.755C136.516 256.755 136.125 257.028 135.885 257.575C135.644 258.122 135.523 258.949 135.523 260.056ZM139.996 260.056C139.996 261.54 139.745 262.663 139.244 263.425C138.749 264.18 138.02 264.558 137.056 264.558C136.145 264.558 135.435 264.17 134.928 263.396C134.426 262.621 134.176 261.507 134.176 260.056C134.176 258.578 134.416 257.465 134.898 256.716C135.387 255.967 136.106 255.593 137.056 255.593C138 255.593 138.726 255.98 139.234 256.755C139.742 257.53 139.996 258.63 139.996 260.056ZM144.117 265.778C144.117 266.892 144.237 267.725 144.478 268.278C144.719 268.825 145.113 269.099 145.66 269.099C146.207 269.099 146.611 268.828 146.871 268.288C147.131 267.741 147.262 266.905 147.262 265.778C147.262 264.665 147.131 263.841 146.871 263.308C146.611 262.767 146.207 262.497 145.66 262.497C145.113 262.497 144.719 262.767 144.478 263.308C144.237 263.841 144.117 264.665 144.117 265.778ZM148.599 265.778C148.599 267.256 148.349 268.376 147.847 269.138C147.353 269.893 146.624 270.271 145.66 270.271C144.736 270.271 144.023 269.883 143.521 269.108C143.027 268.334 142.779 267.224 142.779 265.778C142.779 264.3 143.02 263.187 143.502 262.438C143.99 261.69 144.709 261.315 145.66 261.315C146.584 261.315 147.304 261.7 147.818 262.468C148.339 263.229 148.599 264.333 148.599 265.778ZM146.08 255.798L138.16 270.075H136.724L144.644 255.798H146.08ZM162.896 257.077C161.327 257.077 160.087 257.601 159.176 258.649C158.271 259.691 157.818 261.12 157.818 262.937C157.818 264.805 158.254 266.25 159.127 267.272C160.006 268.288 161.256 268.796 162.877 268.796C163.873 268.796 165.009 268.617 166.285 268.259V269.714C165.295 270.085 164.075 270.271 162.623 270.271C160.52 270.271 158.896 269.632 157.75 268.356C156.611 267.08 156.041 265.267 156.041 262.917C156.041 261.446 156.314 260.157 156.861 259.05C157.415 257.943 158.209 257.09 159.244 256.491C160.286 255.892 161.51 255.593 162.916 255.593C164.413 255.593 165.722 255.866 166.842 256.413L166.139 257.839C165.058 257.331 163.977 257.077 162.896 257.077ZM178.394 264.714C178.394 266.459 177.955 267.823 177.076 268.806C176.197 269.782 174.983 270.271 173.433 270.271C172.476 270.271 171.627 270.046 170.885 269.597C170.142 269.147 169.569 268.503 169.166 267.663C168.762 266.823 168.56 265.84 168.56 264.714C168.56 262.969 168.997 261.612 169.869 260.642C170.741 259.665 171.952 259.177 173.502 259.177C174.999 259.177 176.187 259.675 177.066 260.671C177.952 261.667 178.394 263.015 178.394 264.714ZM170.24 264.714C170.24 266.081 170.514 267.123 171.06 267.839C171.607 268.555 172.411 268.913 173.472 268.913C174.534 268.913 175.338 268.558 175.885 267.849C176.438 267.132 176.715 266.088 176.715 264.714C176.715 263.353 176.438 262.321 175.885 261.618C175.338 260.909 174.527 260.554 173.453 260.554C172.392 260.554 171.591 260.902 171.051 261.599C170.51 262.295 170.24 263.334 170.24 264.714ZM194.889 270.075V263.112C194.889 262.259 194.706 261.621 194.342 261.198C193.977 260.769 193.411 260.554 192.642 260.554C191.633 260.554 190.888 260.843 190.406 261.423C189.924 262.002 189.683 262.894 189.683 264.099V270.075H188.062V263.112C188.062 262.259 187.88 261.621 187.515 261.198C187.151 260.769 186.581 260.554 185.806 260.554C184.791 260.554 184.045 260.86 183.57 261.472C183.101 262.077 182.867 263.073 182.867 264.46V270.075H181.246V259.372H182.564L182.828 260.837H182.906C183.212 260.316 183.642 259.909 184.195 259.616C184.755 259.323 185.38 259.177 186.07 259.177C187.743 259.177 188.837 259.782 189.351 260.993H189.43C189.749 260.433 190.211 259.991 190.816 259.665C191.422 259.34 192.112 259.177 192.887 259.177C194.097 259.177 195.002 259.489 195.601 260.114C196.207 260.733 196.51 261.726 196.51 263.093V270.075H194.889ZM204.84 270.271C204.143 270.271 203.505 270.144 202.926 269.89C202.353 269.629 201.871 269.232 201.48 268.698H201.363C201.441 269.323 201.48 269.916 201.48 270.476V274.88H199.859V259.372H201.178L201.402 260.837H201.48C201.897 260.251 202.382 259.828 202.935 259.567C203.489 259.307 204.124 259.177 204.84 259.177C206.259 259.177 207.353 259.662 208.121 260.632C208.896 261.602 209.283 262.963 209.283 264.714C209.283 266.472 208.889 267.839 208.101 268.815C207.32 269.785 206.233 270.271 204.84 270.271ZM204.605 260.554C203.512 260.554 202.721 260.856 202.232 261.462C201.744 262.067 201.493 263.031 201.48 264.353V264.714C201.48 266.218 201.731 267.295 202.232 267.946C202.734 268.591 203.538 268.913 204.644 268.913C205.569 268.913 206.291 268.539 206.812 267.79C207.34 267.041 207.603 266.009 207.603 264.694C207.603 263.36 207.34 262.338 206.812 261.628C206.291 260.912 205.556 260.554 204.605 260.554ZM213.746 270.075H212.125V254.88H213.746V270.075ZM221.705 270.271C220.123 270.271 218.873 269.789 217.955 268.825C217.043 267.862 216.588 266.524 216.588 264.812C216.588 263.086 217.011 261.716 217.857 260.7C218.71 259.685 219.853 259.177 221.285 259.177C222.626 259.177 223.687 259.619 224.469 260.505C225.25 261.384 225.64 262.546 225.64 263.991V265.017H218.267C218.3 266.273 218.616 267.227 219.215 267.878C219.82 268.529 220.67 268.854 221.764 268.854C222.916 268.854 224.055 268.614 225.181 268.132V269.577C224.609 269.825 224.065 270 223.551 270.104C223.043 270.215 222.428 270.271 221.705 270.271ZM221.265 260.534C220.406 260.534 219.719 260.814 219.205 261.374C218.697 261.934 218.398 262.709 218.306 263.698H223.902C223.902 262.676 223.674 261.895 223.219 261.354C222.763 260.808 222.112 260.534 221.265 260.534ZM231.871 268.933C232.157 268.933 232.434 268.913 232.701 268.874C232.968 268.828 233.18 268.783 233.336 268.737V269.978C233.16 270.062 232.9 270.131 232.555 270.183C232.216 270.241 231.91 270.271 231.637 270.271C229.566 270.271 228.531 269.18 228.531 266.999V260.632H226.998V259.851L228.531 259.177L229.215 256.892H230.152V259.372H233.258V260.632H230.152V266.931C230.152 267.575 230.305 268.07 230.611 268.415C230.917 268.76 231.337 268.933 231.871 268.933ZM240.006 270.271C238.424 270.271 237.174 269.789 236.256 268.825C235.344 267.862 234.889 266.524 234.889 264.812C234.889 263.086 235.312 261.716 236.158 260.7C237.011 259.685 238.153 259.177 239.586 259.177C240.927 259.177 241.988 259.619 242.769 260.505C243.551 261.384 243.941 262.546 243.941 263.991V265.017H236.568C236.601 266.273 236.916 267.227 237.515 267.878C238.121 268.529 238.971 268.854 240.064 268.854C241.217 268.854 242.356 268.614 243.482 268.132V269.577C242.909 269.825 242.366 270 241.851 270.104C241.344 270.215 240.728 270.271 240.006 270.271ZM239.566 260.534C238.707 260.534 238.02 260.814 237.506 261.374C236.998 261.934 236.698 262.709 236.607 263.698H242.203C242.203 262.676 241.975 261.895 241.519 261.354C241.064 260.808 240.413 260.534 239.566 260.534ZM254 268.64H253.912C253.163 269.727 252.043 270.271 250.553 270.271C249.153 270.271 248.062 269.792 247.281 268.835C246.506 267.878 246.119 266.517 246.119 264.753C246.119 262.989 246.51 261.618 247.291 260.642C248.072 259.665 249.159 259.177 250.553 259.177C252.004 259.177 253.118 259.704 253.892 260.759H254.019L253.951 259.987L253.912 259.235V254.88H255.533V270.075H254.215L254 268.64ZM250.758 268.913C251.864 268.913 252.665 268.614 253.16 268.015C253.661 267.409 253.912 266.436 253.912 265.095V264.753C253.912 263.236 253.658 262.155 253.15 261.511C252.649 260.86 251.845 260.534 250.738 260.534C249.788 260.534 249.058 260.905 248.551 261.647C248.049 262.383 247.799 263.425 247.799 264.772C247.799 266.14 248.049 267.172 248.551 267.868C249.052 268.565 249.788 268.913 250.758 268.913ZM272.476 266.276C272.476 267.533 272.021 268.513 271.109 269.216C270.198 269.919 268.961 270.271 267.398 270.271C265.706 270.271 264.403 270.052 263.492 269.616V268.015C264.078 268.262 264.716 268.457 265.406 268.601C266.096 268.744 266.78 268.815 267.457 268.815C268.564 268.815 269.397 268.607 269.957 268.19C270.517 267.767 270.797 267.181 270.797 266.433C270.797 265.938 270.696 265.534 270.494 265.222C270.299 264.903 269.967 264.61 269.498 264.343C269.036 264.076 268.329 263.773 267.379 263.435C266.051 262.959 265.1 262.396 264.527 261.745C263.961 261.094 263.678 260.244 263.678 259.196C263.678 258.096 264.091 257.22 264.918 256.569C265.745 255.918 266.838 255.593 268.199 255.593C269.618 255.593 270.924 255.853 272.115 256.374L271.597 257.819C270.419 257.325 269.273 257.077 268.16 257.077C267.281 257.077 266.594 257.266 266.099 257.644C265.605 258.021 265.357 258.545 265.357 259.216C265.357 259.711 265.448 260.118 265.631 260.437C265.813 260.749 266.119 261.039 266.549 261.306C266.985 261.566 267.649 261.856 268.541 262.175C270.038 262.709 271.067 263.282 271.627 263.894C272.193 264.506 272.476 265.3 272.476 266.276ZM276.773 270.075H275.152V259.372H276.773V270.075ZM275.015 256.472C275.015 256.101 275.107 255.83 275.289 255.661C275.471 255.485 275.699 255.397 275.972 255.397C276.233 255.397 276.458 255.485 276.646 255.661C276.835 255.837 276.93 256.107 276.93 256.472C276.93 256.836 276.835 257.11 276.646 257.292C276.458 257.468 276.233 257.556 275.972 257.556C275.699 257.556 275.471 257.468 275.289 257.292C275.107 257.11 275.015 256.836 275.015 256.472ZM288.971 259.372V260.397L286.988 260.632C287.17 260.86 287.333 261.159 287.476 261.53C287.62 261.895 287.691 262.308 287.691 262.771C287.691 263.819 287.333 264.655 286.617 265.28C285.901 265.905 284.918 266.218 283.668 266.218C283.349 266.218 283.049 266.192 282.769 266.14C282.079 266.504 281.734 266.963 281.734 267.517C281.734 267.81 281.855 268.028 282.096 268.171C282.336 268.308 282.75 268.376 283.336 268.376H285.23C286.389 268.376 287.278 268.62 287.896 269.108C288.521 269.597 288.834 270.306 288.834 271.237C288.834 272.422 288.359 273.324 287.408 273.942C286.458 274.567 285.071 274.88 283.248 274.88C281.848 274.88 280.767 274.619 280.006 274.099C279.25 273.578 278.873 272.842 278.873 271.892C278.873 271.241 279.081 270.677 279.498 270.202C279.915 269.727 280.5 269.405 281.256 269.235C280.982 269.112 280.751 268.92 280.562 268.659C280.38 268.399 280.289 268.096 280.289 267.751C280.289 267.36 280.393 267.019 280.601 266.726C280.81 266.433 281.139 266.149 281.588 265.876C281.034 265.648 280.582 265.261 280.23 264.714C279.885 264.167 279.713 263.542 279.713 262.839C279.713 261.667 280.064 260.765 280.767 260.134C281.471 259.496 282.467 259.177 283.756 259.177C284.316 259.177 284.82 259.242 285.269 259.372H288.971ZM280.435 271.872C280.435 272.451 280.68 272.891 281.168 273.19C281.656 273.49 282.356 273.64 283.267 273.64C284.628 273.64 285.634 273.435 286.285 273.024C286.943 272.621 287.271 272.071 287.271 271.374C287.271 270.795 287.092 270.391 286.734 270.163C286.376 269.942 285.702 269.831 284.713 269.831H282.769C282.034 269.831 281.461 270.007 281.051 270.358C280.64 270.71 280.435 271.215 280.435 271.872ZM281.314 262.8C281.314 263.549 281.526 264.115 281.949 264.499C282.372 264.883 282.961 265.075 283.717 265.075C285.299 265.075 286.09 264.307 286.09 262.771C286.09 261.162 285.289 260.358 283.687 260.358C282.926 260.358 282.34 260.563 281.93 260.974C281.519 261.384 281.314 261.993 281.314 262.8ZM298.492 270.075V263.151C298.492 262.279 298.293 261.628 297.896 261.198C297.499 260.769 296.877 260.554 296.031 260.554C294.911 260.554 294.091 260.856 293.57 261.462C293.049 262.067 292.789 263.067 292.789 264.46V270.075H291.168V259.372H292.486L292.75 260.837H292.828C293.16 260.31 293.625 259.903 294.224 259.616C294.823 259.323 295.491 259.177 296.226 259.177C297.515 259.177 298.486 259.489 299.137 260.114C299.788 260.733 300.113 261.726 300.113 263.093V270.075H298.492ZM304.976 259.372V266.315C304.976 267.188 305.175 267.839 305.572 268.269C305.969 268.698 306.591 268.913 307.437 268.913C308.557 268.913 309.374 268.607 309.889 267.995C310.409 267.383 310.67 266.384 310.67 264.997V259.372H312.291V270.075H310.953L310.719 268.64H310.631C310.299 269.167 309.836 269.571 309.244 269.851C308.658 270.131 307.987 270.271 307.232 270.271C305.93 270.271 304.954 269.961 304.303 269.343C303.658 268.724 303.336 267.735 303.336 266.374V259.372H304.976ZM320.719 270.271C320.022 270.271 319.384 270.144 318.805 269.89C318.232 269.629 317.75 269.232 317.359 268.698H317.242C317.32 269.323 317.359 269.916 317.359 270.476V274.88H315.738V259.372H317.056L317.281 260.837H317.359C317.776 260.251 318.261 259.828 318.814 259.567C319.368 259.307 320.002 259.177 320.719 259.177C322.138 259.177 323.232 259.662 324 260.632C324.775 261.602 325.162 262.963 325.162 264.714C325.162 266.472 324.768 267.839 323.98 268.815C323.199 269.785 322.112 270.271 320.719 270.271ZM320.484 260.554C319.39 260.554 318.599 260.856 318.111 261.462C317.623 262.067 317.372 263.031 317.359 264.353V264.714C317.359 266.218 317.61 267.295 318.111 267.946C318.612 268.591 319.416 268.913 320.523 268.913C321.448 268.913 322.17 268.539 322.691 267.79C323.219 267.041 323.482 266.009 323.482 264.694C323.482 263.36 323.219 262.338 322.691 261.628C322.17 260.912 321.435 260.554 320.484 260.554Z" fill="black"/>
</svg>
