<svg width="448" height="432" viewBox="0 0 448 432" fill="none" xmlns="http://www.w3.org/2000/svg">
<path d="M34.1441 318.087C23.4453 298.164 15.949 276.682 11.9303 254.428L224 216.131L34.1441 318.087Z" fill="#D32F2F"/>
<path d="M409.174 326.362C390.02 358.538 362.813 385.168 330.233 403.627C297.654 422.086 260.826 431.738 223.381 431.63C185.936 431.522 149.164 421.66 116.691 403.013C84.2184 384.367 57.1644 357.582 38.1957 325.296L224 216.131L409.174 326.362Z" fill="#D0D0D1"/>
<path d="M10.7453 247.158C5.8489 213.504 8.98691 179.169 19.9027 146.96C30.8186 114.752 49.2023 85.5837 73.5508 61.8413C97.8993 38.0988 127.521 20.456 159.995 10.3553C192.468 0.254608 226.871 -2.01716 260.391 3.72573C293.911 9.46862 325.596 23.0631 352.855 43.3977C380.114 63.7323 402.173 90.2297 417.23 120.723C432.286 151.217 439.911 184.841 439.483 218.846C439.054 252.852 430.584 286.273 414.764 316.378L224 216.131L10.7453 247.158Z" fill="#1F74FE"/>
<rect x="25.5049" y="17.6377" width="396.99" height="396.99" rx="198.495" fill="#F0F0F0"/>
<path d="M164.498 186.549C164.498 180.963 166.773 178.17 171.324 178.17C172.04 178.17 172.646 178.225 173.14 178.336V180.25C172.646 180.107 172.073 180.035 171.422 180.035C169.892 180.035 168.743 180.445 167.974 181.266C167.206 182.086 166.79 183.401 166.724 185.211H166.842C167.148 184.684 167.577 184.277 168.131 183.99C168.684 183.697 169.335 183.551 170.084 183.551C171.379 183.551 172.389 183.948 173.111 184.742C173.834 185.536 174.195 186.614 174.195 187.975C174.195 189.472 173.775 190.657 172.935 191.529C172.102 192.395 170.963 192.828 169.517 192.828C168.495 192.828 167.607 192.584 166.851 192.096C166.096 191.601 165.514 190.885 165.103 189.947C164.7 189.003 164.498 187.87 164.498 186.549ZM169.478 190.934C170.266 190.934 170.872 190.68 171.295 190.172C171.724 189.664 171.939 188.938 171.939 187.994C171.939 187.174 171.737 186.529 171.334 186.061C170.937 185.592 170.338 185.357 169.537 185.357C169.042 185.357 168.586 185.465 168.17 185.68C167.753 185.888 167.424 186.178 167.183 186.549C166.943 186.913 166.822 187.288 166.822 187.672C166.822 188.59 167.069 189.365 167.564 189.996C168.066 190.621 168.704 190.934 169.478 190.934ZM185.562 185.494C185.562 187.975 185.162 189.817 184.361 191.021C183.567 192.226 182.349 192.828 180.709 192.828C179.12 192.828 177.916 192.206 177.096 190.963C176.275 189.719 175.865 187.896 175.865 185.494C175.865 182.975 176.262 181.119 177.056 179.928C177.857 178.73 179.075 178.131 180.709 178.131C182.304 178.131 183.512 178.756 184.332 180.006C185.152 181.256 185.562 183.085 185.562 185.494ZM178.189 185.494C178.189 187.441 178.388 188.831 178.785 189.664C179.189 190.497 179.83 190.914 180.709 190.914C181.588 190.914 182.229 190.491 182.633 189.645C183.043 188.798 183.248 187.415 183.248 185.494C183.248 183.58 183.043 182.197 182.633 181.344C182.229 180.484 181.588 180.055 180.709 180.055C179.83 180.055 179.189 180.475 178.785 181.314C178.388 182.154 178.189 183.548 178.189 185.494ZM189.156 182.633C189.156 183.603 189.25 184.326 189.439 184.801C189.628 185.276 189.937 185.514 190.367 185.514C191.226 185.514 191.656 184.553 191.656 182.633C191.656 180.712 191.226 179.752 190.367 179.752C189.937 179.752 189.628 179.99 189.439 180.465C189.25 180.94 189.156 181.663 189.156 182.633ZM193.551 182.613C193.551 184.111 193.28 185.237 192.74 185.992C192.206 186.741 191.415 187.115 190.367 187.115C189.377 187.115 188.609 186.728 188.062 185.953C187.522 185.172 187.252 184.059 187.252 182.613C187.252 179.638 188.29 178.15 190.367 178.15C191.389 178.15 192.174 178.538 192.721 179.312C193.274 180.081 193.551 181.181 193.551 182.613ZM198.453 188.336C198.453 189.306 198.547 190.032 198.736 190.514C198.931 190.995 199.244 191.236 199.674 191.236C200.527 191.236 200.953 190.27 200.953 188.336C200.953 186.428 200.527 185.475 199.674 185.475C199.244 185.475 198.931 185.709 198.736 186.178C198.547 186.646 198.453 187.366 198.453 188.336ZM202.847 188.336C202.847 189.833 202.577 190.956 202.037 191.705C201.497 192.454 200.709 192.828 199.674 192.828C198.684 192.828 197.916 192.444 197.369 191.676C196.822 190.901 196.549 189.788 196.549 188.336C196.549 185.361 197.59 183.873 199.674 183.873C200.676 183.873 201.454 184.257 202.008 185.025C202.568 185.794 202.847 186.897 202.847 188.336ZM199.947 178.355L192.027 192.633H190.133L198.053 178.355H199.947ZM220.211 182.672C220.211 184.163 219.722 185.305 218.746 186.1C217.769 186.894 216.379 187.291 214.576 187.291H213.092V192.633H210.758V178.355H214.869C216.653 178.355 217.987 178.72 218.873 179.449C219.765 180.178 220.211 181.253 220.211 182.672ZM213.092 185.328H214.332C215.53 185.328 216.409 185.12 216.969 184.703C217.528 184.286 217.808 183.635 217.808 182.75C217.808 181.93 217.558 181.318 217.056 180.914C216.555 180.51 215.774 180.309 214.713 180.309H213.092V185.328ZM232.398 187.213C232.398 188.977 231.946 190.354 231.041 191.344C230.136 192.333 228.876 192.828 227.262 192.828C226.252 192.828 225.361 192.6 224.586 192.145C223.811 191.689 223.215 191.035 222.799 190.182C222.382 189.329 222.174 188.339 222.174 187.213C222.174 185.462 222.623 184.094 223.521 183.111C224.42 182.128 225.686 181.637 227.32 181.637C228.883 181.637 230.12 182.141 231.031 183.15C231.943 184.153 232.398 185.507 232.398 187.213ZM224.537 187.213C224.537 189.706 225.458 190.953 227.301 190.953C229.124 190.953 230.035 189.706 230.035 187.213C230.035 184.745 229.117 183.512 227.281 183.512C226.318 183.512 225.618 183.831 225.181 184.469C224.752 185.107 224.537 186.021 224.537 187.213ZM242.301 189.557C242.301 190.611 241.916 191.422 241.148 191.988C240.38 192.548 239.28 192.828 237.847 192.828C236.409 192.828 235.253 192.61 234.381 192.174V190.191C235.65 190.777 236.832 191.07 237.926 191.07C239.338 191.07 240.045 190.644 240.045 189.791C240.045 189.518 239.967 189.29 239.81 189.107C239.654 188.925 239.397 188.736 239.039 188.541C238.681 188.346 238.183 188.124 237.545 187.877C236.301 187.395 235.458 186.913 235.015 186.432C234.579 185.95 234.361 185.325 234.361 184.557C234.361 183.632 234.732 182.916 235.474 182.408C236.223 181.894 237.239 181.637 238.521 181.637C239.791 181.637 240.992 181.894 242.125 182.408L241.383 184.137C240.217 183.655 239.237 183.414 238.443 183.414C237.232 183.414 236.627 183.759 236.627 184.449C236.627 184.788 236.783 185.074 237.096 185.309C237.415 185.543 238.105 185.865 239.166 186.275C240.058 186.62 240.706 186.936 241.109 187.223C241.513 187.509 241.812 187.841 242.008 188.219C242.203 188.59 242.301 189.036 242.301 189.557ZM247.086 192.633H244.791V181.832H247.086V192.633ZM244.654 178.971C244.654 178.561 244.765 178.245 244.986 178.023C245.214 177.802 245.536 177.691 245.953 177.691C246.357 177.691 246.669 177.802 246.89 178.023C247.118 178.245 247.232 178.561 247.232 178.971C247.232 179.361 247.118 179.671 246.89 179.898C246.669 180.12 246.357 180.23 245.953 180.23C245.536 180.23 245.214 180.12 244.986 179.898C244.765 179.671 244.654 179.361 244.654 178.971ZM254.4 190.973C254.96 190.973 255.52 190.885 256.08 190.709V192.438C255.826 192.548 255.497 192.639 255.094 192.711C254.696 192.789 254.283 192.828 253.853 192.828C251.679 192.828 250.592 191.682 250.592 189.391V183.57H249.117V182.555L250.699 181.715L251.48 179.43H252.896V181.832H255.972V183.57H252.896V189.352C252.896 189.905 253.033 190.315 253.306 190.582C253.586 190.842 253.951 190.973 254.4 190.973ZM260.543 192.633H258.248V181.832H260.543V192.633ZM258.111 178.971C258.111 178.561 258.222 178.245 258.443 178.023C258.671 177.802 258.993 177.691 259.41 177.691C259.814 177.691 260.126 177.802 260.347 178.023C260.575 178.245 260.689 178.561 260.689 178.971C260.689 179.361 260.575 179.671 260.347 179.898C260.126 180.12 259.814 180.23 259.41 180.23C258.993 180.23 258.671 180.12 258.443 179.898C258.222 179.671 258.111 179.361 258.111 178.971ZM266.295 192.633L262.193 181.832H264.615L266.812 188.111C267.19 189.166 267.418 190.019 267.496 190.67H267.574C267.633 190.201 267.861 189.348 268.258 188.111L270.455 181.832H272.896L268.775 192.633H266.295ZM279.254 192.828C277.574 192.828 276.259 192.34 275.308 191.363C274.364 190.38 273.892 189.029 273.892 187.311C273.892 185.546 274.332 184.16 275.211 183.15C276.09 182.141 277.297 181.637 278.834 181.637C280.26 181.637 281.386 182.07 282.213 182.936C283.04 183.801 283.453 184.993 283.453 186.51V187.75H276.256C276.288 188.798 276.571 189.605 277.105 190.172C277.639 190.732 278.391 191.012 279.361 191.012C279.999 191.012 280.592 190.953 281.139 190.836C281.692 190.712 282.284 190.51 282.916 190.23V192.096C282.356 192.363 281.79 192.551 281.217 192.662C280.644 192.773 279.989 192.828 279.254 192.828ZM278.834 183.375C278.105 183.375 277.519 183.606 277.076 184.068C276.64 184.531 276.379 185.204 276.295 186.09H281.197C281.184 185.198 280.969 184.524 280.553 184.068C280.136 183.606 279.563 183.375 278.834 183.375Z" fill="black"/>
<path d="M176.539 212.715C176.539 213.626 176.282 214.372 175.767 214.951C175.26 215.531 174.537 215.918 173.599 216.113V216.191C174.745 216.335 175.595 216.699 176.148 217.285C176.702 217.871 176.978 218.639 176.978 219.59C176.978 220.951 176.506 221.999 175.562 222.734C174.618 223.464 173.277 223.828 171.539 223.828C170.784 223.828 170.09 223.77 169.459 223.652C168.834 223.542 168.225 223.343 167.633 223.057V221.514C168.251 221.82 168.909 222.054 169.605 222.217C170.308 222.373 170.972 222.451 171.597 222.451C174.065 222.451 175.299 221.484 175.299 219.551C175.299 217.819 173.938 216.953 171.217 216.953H169.81V215.557H171.236C172.349 215.557 173.232 215.312 173.883 214.824C174.534 214.329 174.859 213.646 174.859 212.773C174.859 212.077 174.618 211.53 174.137 211.133C173.661 210.736 173.014 210.537 172.193 210.537C171.568 210.537 170.979 210.622 170.426 210.791C169.872 210.96 169.241 211.273 168.531 211.729L167.711 210.635C168.297 210.173 168.971 209.811 169.732 209.551C170.5 209.284 171.308 209.15 172.154 209.15C173.541 209.15 174.618 209.469 175.387 210.107C176.155 210.739 176.539 211.608 176.539 212.715ZM187.984 212.715C187.984 213.626 187.727 214.372 187.213 214.951C186.705 215.531 185.982 215.918 185.045 216.113V216.191C186.191 216.335 187.04 216.699 187.594 217.285C188.147 217.871 188.424 218.639 188.424 219.59C188.424 220.951 187.952 221.999 187.008 222.734C186.064 223.464 184.722 223.828 182.984 223.828C182.229 223.828 181.536 223.77 180.904 223.652C180.279 223.542 179.67 223.343 179.078 223.057V221.514C179.696 221.82 180.354 222.054 181.051 222.217C181.754 222.373 182.418 222.451 183.043 222.451C185.51 222.451 186.744 221.484 186.744 219.551C186.744 217.819 185.383 216.953 182.662 216.953H181.256V215.557H182.681C183.795 215.557 184.677 215.312 185.328 214.824C185.979 214.329 186.305 213.646 186.305 212.773C186.305 212.077 186.064 211.53 185.582 211.133C185.107 210.736 184.459 210.537 183.639 210.537C183.014 210.537 182.424 210.622 181.871 210.791C181.318 210.96 180.686 211.273 179.976 211.729L179.156 210.635C179.742 210.173 180.416 209.811 181.178 209.551C181.946 209.284 182.753 209.15 183.599 209.15C184.986 209.15 186.064 209.469 186.832 210.107C187.6 210.739 187.984 211.608 187.984 212.715ZM191.969 213.613C191.969 214.72 192.089 215.55 192.33 216.104C192.571 216.657 192.961 216.934 193.502 216.934C194.569 216.934 195.103 215.827 195.103 213.613C195.103 211.413 194.569 210.312 193.502 210.312C192.961 210.312 192.571 210.586 192.33 211.133C192.089 211.68 191.969 212.507 191.969 213.613ZM196.441 213.613C196.441 215.098 196.191 216.221 195.689 216.982C195.194 217.738 194.465 218.115 193.502 218.115C192.59 218.115 191.881 217.728 191.373 216.953C190.872 216.178 190.621 215.065 190.621 213.613C190.621 212.135 190.862 211.022 191.344 210.273C191.832 209.525 192.551 209.15 193.502 209.15C194.446 209.15 195.172 209.538 195.68 210.312C196.187 211.087 196.441 212.188 196.441 213.613ZM200.562 219.336C200.562 220.449 200.683 221.283 200.924 221.836C201.165 222.383 201.558 222.656 202.105 222.656C202.652 222.656 203.056 222.386 203.316 221.846C203.577 221.299 203.707 220.462 203.707 219.336C203.707 218.223 203.577 217.399 203.316 216.865C203.056 216.325 202.652 216.055 202.105 216.055C201.558 216.055 201.165 216.325 200.924 216.865C200.683 217.399 200.562 218.223 200.562 219.336ZM205.045 219.336C205.045 220.814 204.794 221.934 204.293 222.695C203.798 223.451 203.069 223.828 202.105 223.828C201.181 223.828 200.468 223.441 199.967 222.666C199.472 221.891 199.224 220.781 199.224 219.336C199.224 217.858 199.465 216.745 199.947 215.996C200.435 215.247 201.155 214.873 202.105 214.873C203.03 214.873 203.749 215.257 204.264 216.025C204.784 216.787 205.045 217.891 205.045 219.336ZM202.525 209.355L194.605 223.633H193.17L201.09 209.355H202.525ZM224.381 223.633H222.486L214.683 211.65H214.605C214.709 213.057 214.762 214.346 214.762 215.518V223.633H213.228V209.355H215.103L222.887 221.289H222.965C222.952 221.113 222.922 220.55 222.877 219.6C222.831 218.643 222.815 217.959 222.828 217.549V209.355H224.381V223.633ZM232.584 223.828C231.002 223.828 229.752 223.346 228.834 222.383C227.922 221.419 227.467 220.081 227.467 218.369C227.467 216.644 227.89 215.273 228.736 214.258C229.589 213.242 230.732 212.734 232.164 212.734C233.505 212.734 234.566 213.177 235.347 214.062C236.129 214.941 236.519 216.104 236.519 217.549V218.574H229.146C229.179 219.831 229.495 220.785 230.094 221.436C230.699 222.087 231.549 222.412 232.642 222.412C233.795 222.412 234.934 222.171 236.06 221.689V223.135C235.487 223.382 234.944 223.558 234.43 223.662C233.922 223.773 233.306 223.828 232.584 223.828ZM232.144 214.092C231.285 214.092 230.598 214.372 230.084 214.932C229.576 215.492 229.277 216.266 229.185 217.256H234.781C234.781 216.234 234.553 215.452 234.097 214.912C233.642 214.365 232.991 214.092 232.144 214.092ZM240.816 212.93V219.873C240.816 220.745 241.015 221.396 241.412 221.826C241.809 222.256 242.431 222.471 243.277 222.471C244.397 222.471 245.214 222.165 245.728 221.553C246.249 220.941 246.51 219.941 246.51 218.555V212.93H248.131V223.633H246.793L246.558 222.197H246.471C246.139 222.725 245.676 223.128 245.084 223.408C244.498 223.688 243.827 223.828 243.072 223.828C241.77 223.828 240.793 223.519 240.142 222.9C239.498 222.282 239.176 221.292 239.176 219.932V212.93H240.816ZM255.035 222.49C255.321 222.49 255.598 222.471 255.865 222.432C256.132 222.386 256.344 222.34 256.5 222.295V223.535C256.324 223.62 256.064 223.688 255.719 223.74C255.38 223.799 255.074 223.828 254.801 223.828C252.73 223.828 251.695 222.738 251.695 220.557V214.189H250.162V213.408L251.695 212.734L252.379 210.449H253.316V212.93H256.422V214.189H253.316V220.488C253.316 221.133 253.469 221.628 253.775 221.973C254.081 222.318 254.501 222.49 255.035 222.49ZM263.531 212.734C264.006 212.734 264.433 212.773 264.81 212.852L264.586 214.355C264.143 214.258 263.752 214.209 263.414 214.209C262.548 214.209 261.806 214.561 261.187 215.264C260.575 215.967 260.269 216.842 260.269 217.891V223.633H258.648V212.93H259.986L260.172 214.912H260.25C260.647 214.215 261.125 213.678 261.685 213.301C262.245 212.923 262.861 212.734 263.531 212.734ZM273.394 223.633L273.072 222.109H272.994C272.46 222.78 271.926 223.236 271.392 223.477C270.865 223.711 270.204 223.828 269.41 223.828C268.349 223.828 267.515 223.555 266.91 223.008C266.311 222.461 266.012 221.683 266.012 220.674C266.012 218.512 267.74 217.38 271.197 217.275L273.014 217.217V216.553C273.014 215.713 272.831 215.094 272.467 214.697C272.109 214.294 271.532 214.092 270.738 214.092C269.846 214.092 268.837 214.365 267.711 214.912L267.213 213.672C267.74 213.385 268.316 213.161 268.941 212.998C269.573 212.835 270.204 212.754 270.836 212.754C272.112 212.754 273.056 213.037 273.668 213.604C274.286 214.17 274.596 215.078 274.596 216.328V223.633H273.394ZM269.732 222.49C270.741 222.49 271.532 222.214 272.105 221.66C272.685 221.107 272.974 220.332 272.974 219.336V218.369L271.353 218.438C270.064 218.483 269.133 218.685 268.56 219.043C267.994 219.395 267.711 219.945 267.711 220.693C267.711 221.279 267.887 221.725 268.238 222.031C268.596 222.337 269.094 222.49 269.732 222.49ZM279.566 223.633H277.945V208.438H279.566V223.633Z" fill="black"/>
<path d="M169.342 254.633L175.26 241.85H167.476V240.355H176.978V241.654L171.139 254.633H169.342ZM180.367 244.613C180.367 245.72 180.487 246.55 180.728 247.104C180.969 247.657 181.36 247.934 181.9 247.934C182.968 247.934 183.502 246.827 183.502 244.613C183.502 242.413 182.968 241.312 181.9 241.312C181.36 241.312 180.969 241.586 180.728 242.133C180.487 242.68 180.367 243.507 180.367 244.613ZM184.84 244.613C184.84 246.098 184.589 247.221 184.088 247.982C183.593 248.738 182.864 249.115 181.9 249.115C180.989 249.115 180.279 248.728 179.771 247.953C179.27 247.178 179.019 246.065 179.019 244.613C179.019 243.135 179.26 242.022 179.742 241.273C180.23 240.525 180.95 240.15 181.9 240.15C182.844 240.15 183.57 240.538 184.078 241.312C184.586 242.087 184.84 243.188 184.84 244.613ZM188.961 250.336C188.961 251.449 189.081 252.283 189.322 252.836C189.563 253.383 189.957 253.656 190.504 253.656C191.051 253.656 191.454 253.386 191.715 252.846C191.975 252.299 192.105 251.462 192.105 250.336C192.105 249.223 191.975 248.399 191.715 247.865C191.454 247.325 191.051 247.055 190.504 247.055C189.957 247.055 189.563 247.325 189.322 247.865C189.081 248.399 188.961 249.223 188.961 250.336ZM193.443 250.336C193.443 251.814 193.193 252.934 192.691 253.695C192.196 254.451 191.467 254.828 190.504 254.828C189.579 254.828 188.866 254.441 188.365 253.666C187.87 252.891 187.623 251.781 187.623 250.336C187.623 248.858 187.864 247.745 188.346 246.996C188.834 246.247 189.553 245.873 190.504 245.873C191.428 245.873 192.148 246.257 192.662 247.025C193.183 247.787 193.443 248.891 193.443 250.336ZM190.924 240.355L183.004 254.633H181.568L189.488 240.355H190.924ZM212.779 254.633H210.885L203.082 242.65H203.004C203.108 244.057 203.16 245.346 203.16 246.518V254.633H201.627V240.355H203.502L211.285 252.289H211.363C211.35 252.113 211.321 251.55 211.275 250.6C211.23 249.643 211.213 248.959 211.226 248.549V240.355H212.779V254.633ZM220.982 254.828C219.4 254.828 218.15 254.346 217.232 253.383C216.321 252.419 215.865 251.081 215.865 249.369C215.865 247.644 216.288 246.273 217.135 245.258C217.987 244.242 219.13 243.734 220.562 243.734C221.903 243.734 222.965 244.177 223.746 245.062C224.527 245.941 224.918 247.104 224.918 248.549V249.574H217.545C217.577 250.831 217.893 251.785 218.492 252.436C219.097 253.087 219.947 253.412 221.041 253.412C222.193 253.412 223.333 253.171 224.459 252.689V254.135C223.886 254.382 223.342 254.558 222.828 254.662C222.32 254.773 221.705 254.828 220.982 254.828ZM220.543 245.092C219.683 245.092 218.997 245.372 218.482 245.932C217.974 246.492 217.675 247.266 217.584 248.256H223.18C223.18 247.234 222.952 246.452 222.496 245.912C222.04 245.365 221.389 245.092 220.543 245.092ZM236.451 243.93V244.955L234.469 245.189C234.651 245.417 234.814 245.717 234.957 246.088C235.1 246.452 235.172 246.866 235.172 247.328C235.172 248.376 234.814 249.213 234.097 249.838C233.381 250.463 232.398 250.775 231.148 250.775C230.829 250.775 230.53 250.749 230.25 250.697C229.56 251.062 229.215 251.521 229.215 252.074C229.215 252.367 229.335 252.585 229.576 252.729C229.817 252.865 230.23 252.934 230.816 252.934H232.711C233.87 252.934 234.758 253.178 235.377 253.666C236.002 254.154 236.314 254.864 236.314 255.795C236.314 256.98 235.839 257.882 234.889 258.5C233.938 259.125 232.551 259.438 230.728 259.438C229.329 259.438 228.248 259.177 227.486 258.656C226.731 258.135 226.353 257.4 226.353 256.449C226.353 255.798 226.562 255.235 226.978 254.76C227.395 254.285 227.981 253.962 228.736 253.793C228.463 253.669 228.232 253.477 228.043 253.217C227.861 252.956 227.769 252.654 227.769 252.309C227.769 251.918 227.874 251.576 228.082 251.283C228.29 250.99 228.619 250.707 229.068 250.434C228.515 250.206 228.062 249.818 227.711 249.271C227.366 248.725 227.193 248.1 227.193 247.396C227.193 246.225 227.545 245.323 228.248 244.691C228.951 244.053 229.947 243.734 231.236 243.734C231.796 243.734 232.301 243.799 232.75 243.93H236.451ZM227.916 256.43C227.916 257.009 228.16 257.449 228.648 257.748C229.137 258.048 229.836 258.197 230.748 258.197C232.109 258.197 233.114 257.992 233.765 257.582C234.423 257.178 234.752 256.628 234.752 255.932C234.752 255.352 234.573 254.949 234.215 254.721C233.857 254.499 233.183 254.389 232.193 254.389H230.25C229.514 254.389 228.941 254.564 228.531 254.916C228.121 255.268 227.916 255.772 227.916 256.43ZM228.795 247.357C228.795 248.106 229.006 248.673 229.43 249.057C229.853 249.441 230.442 249.633 231.197 249.633C232.779 249.633 233.57 248.865 233.57 247.328C233.57 245.72 232.769 244.916 231.168 244.916C230.406 244.916 229.82 245.121 229.41 245.531C229 245.941 228.795 246.55 228.795 247.357ZM245.23 254.633L244.908 253.109H244.83C244.296 253.78 243.762 254.236 243.228 254.477C242.701 254.711 242.04 254.828 241.246 254.828C240.185 254.828 239.351 254.555 238.746 254.008C238.147 253.461 237.847 252.683 237.847 251.674C237.847 249.512 239.576 248.38 243.033 248.275L244.849 248.217V247.553C244.849 246.713 244.667 246.094 244.303 245.697C243.944 245.294 243.368 245.092 242.574 245.092C241.682 245.092 240.673 245.365 239.547 245.912L239.049 244.672C239.576 244.385 240.152 244.161 240.777 243.998C241.409 243.835 242.04 243.754 242.672 243.754C243.948 243.754 244.892 244.037 245.504 244.604C246.122 245.17 246.431 246.078 246.431 247.328V254.633H245.23ZM241.568 253.49C242.577 253.49 243.368 253.214 243.941 252.66C244.521 252.107 244.81 251.332 244.81 250.336V249.369L243.189 249.438C241.9 249.483 240.969 249.685 240.396 250.043C239.83 250.395 239.547 250.945 239.547 251.693C239.547 252.279 239.722 252.725 240.074 253.031C240.432 253.337 240.93 253.49 241.568 253.49ZM253.238 253.49C253.525 253.49 253.801 253.471 254.068 253.432C254.335 253.386 254.547 253.34 254.703 253.295V254.535C254.527 254.62 254.267 254.688 253.922 254.74C253.583 254.799 253.277 254.828 253.004 254.828C250.933 254.828 249.898 253.738 249.898 251.557V245.189H248.365V244.408L249.898 243.734L250.582 241.449H251.519V243.93H254.625V245.189H251.519V251.488C251.519 252.133 251.672 252.628 251.978 252.973C252.284 253.318 252.704 253.49 253.238 253.49ZM258.472 254.633H256.851V243.93H258.472V254.633ZM256.715 241.029C256.715 240.658 256.806 240.388 256.988 240.219C257.17 240.043 257.398 239.955 257.672 239.955C257.932 239.955 258.157 240.043 258.346 240.219C258.534 240.395 258.629 240.665 258.629 241.029C258.629 241.394 258.534 241.667 258.346 241.85C258.157 242.025 257.932 242.113 257.672 242.113C257.398 242.113 257.17 242.025 256.988 241.85C256.806 241.667 256.715 241.394 256.715 241.029ZM264.254 254.633L260.191 243.93H261.93L264.234 250.277C264.755 251.762 265.061 252.725 265.152 253.168H265.23C265.302 252.823 265.527 252.11 265.904 251.029C266.288 249.942 267.144 247.576 268.472 243.93H270.211L266.148 254.633H264.254ZM276.451 254.828C274.869 254.828 273.619 254.346 272.701 253.383C271.79 252.419 271.334 251.081 271.334 249.369C271.334 247.644 271.757 246.273 272.603 245.258C273.456 244.242 274.599 243.734 276.031 243.734C277.372 243.734 278.433 244.177 279.215 245.062C279.996 245.941 280.387 247.104 280.387 248.549V249.574H273.014C273.046 250.831 273.362 251.785 273.961 252.436C274.566 253.087 275.416 253.412 276.51 253.412C277.662 253.412 278.801 253.171 279.928 252.689V254.135C279.355 254.382 278.811 254.558 278.297 254.662C277.789 254.773 277.174 254.828 276.451 254.828ZM276.012 245.092C275.152 245.092 274.465 245.372 273.951 245.932C273.443 246.492 273.144 247.266 273.053 248.256H278.648C278.648 247.234 278.42 246.452 277.965 245.912C277.509 245.365 276.858 245.092 276.012 245.092Z" fill="black"/>
</svg>
