<svg width="448" height="432" viewBox="0 0 448 432" fill="none" xmlns="http://www.w3.org/2000/svg">
<path d="M34.1441 317.659C23.4453 297.736 15.949 276.254 11.9303 254L224 215.703L34.1441 317.659Z" fill="#D32F2F"/>
<path d="M409.174 325.934C390.02 358.11 362.813 384.74 330.233 403.199C297.654 421.658 260.826 431.31 223.381 431.202C185.936 431.095 149.164 421.232 116.691 402.586C84.2184 383.94 57.1644 357.154 38.1957 324.868L224 215.703L409.174 325.934Z" fill="#D0D0D1"/>
<path d="M10.7453 246.73C5.8489 213.076 8.98691 178.741 19.9027 146.533C30.8186 114.324 49.2023 85.156 73.5508 61.4135C97.8993 37.6711 127.521 20.0283 159.995 9.92757C192.468 -0.173126 226.871 -2.4449 260.391 3.298C293.911 9.04089 325.596 22.6354 352.855 42.97C380.114 63.3046 402.173 89.8019 417.23 120.296C432.286 150.789 439.911 184.413 439.483 218.419C439.054 252.424 430.584 285.845 414.764 315.95L224 215.703L10.7453 246.73Z" fill="#1F74FE"/>
<rect x="25.5049" y="17.21" width="396.99" height="396.99" rx="198.495" fill="#F0F0F0"/>
<path d="M164.498 186.121C164.498 180.535 166.773 177.742 171.324 177.742C172.04 177.742 172.646 177.798 173.14 177.908V179.822C172.646 179.679 172.073 179.607 171.422 179.607C169.892 179.607 168.743 180.018 167.974 180.838C167.206 181.658 166.79 182.973 166.724 184.783H166.842C167.148 184.256 167.577 183.849 168.131 183.562C168.684 183.27 169.335 183.123 170.084 183.123C171.379 183.123 172.389 183.52 173.111 184.314C173.834 185.109 174.195 186.186 174.195 187.547C174.195 189.044 173.775 190.229 172.935 191.102C172.102 191.967 170.963 192.4 169.517 192.4C168.495 192.4 167.607 192.156 166.851 191.668C166.096 191.173 165.514 190.457 165.103 189.52C164.7 188.576 164.498 187.443 164.498 186.121ZM169.478 190.506C170.266 190.506 170.872 190.252 171.295 189.744C171.724 189.236 171.939 188.51 171.939 187.566C171.939 186.746 171.737 186.102 171.334 185.633C170.937 185.164 170.338 184.93 169.537 184.93C169.042 184.93 168.586 185.037 168.17 185.252C167.753 185.46 167.424 185.75 167.183 186.121C166.943 186.486 166.822 186.86 166.822 187.244C166.822 188.162 167.069 188.937 167.564 189.568C168.066 190.193 168.704 190.506 169.478 190.506ZM185.562 185.066C185.562 187.547 185.162 189.389 184.361 190.594C183.567 191.798 182.349 192.4 180.709 192.4C179.12 192.4 177.916 191.779 177.096 190.535C176.275 189.292 175.865 187.469 175.865 185.066C175.865 182.547 176.262 180.691 177.056 179.5C177.857 178.302 179.075 177.703 180.709 177.703C182.304 177.703 183.512 178.328 184.332 179.578C185.152 180.828 185.562 182.658 185.562 185.066ZM178.189 185.066C178.189 187.013 178.388 188.403 178.785 189.236C179.189 190.07 179.83 190.486 180.709 190.486C181.588 190.486 182.229 190.063 182.633 189.217C183.043 188.37 183.248 186.987 183.248 185.066C183.248 183.152 183.043 181.769 182.633 180.916C182.229 180.057 181.588 179.627 180.709 179.627C179.83 179.627 179.189 180.047 178.785 180.887C178.388 181.727 178.189 183.12 178.189 185.066ZM189.156 182.205C189.156 183.175 189.25 183.898 189.439 184.373C189.628 184.848 189.937 185.086 190.367 185.086C191.226 185.086 191.656 184.126 191.656 182.205C191.656 180.285 191.226 179.324 190.367 179.324C189.937 179.324 189.628 179.562 189.439 180.037C189.25 180.512 189.156 181.235 189.156 182.205ZM193.551 182.186C193.551 183.683 193.28 184.809 192.74 185.564C192.206 186.313 191.415 186.688 190.367 186.688C189.377 186.688 188.609 186.3 188.062 185.525C187.522 184.744 187.252 183.631 187.252 182.186C187.252 179.21 188.29 177.723 190.367 177.723C191.389 177.723 192.174 178.11 192.721 178.885C193.274 179.653 193.551 180.753 193.551 182.186ZM198.453 187.908C198.453 188.878 198.547 189.604 198.736 190.086C198.931 190.568 199.244 190.809 199.674 190.809C200.527 190.809 200.953 189.842 200.953 187.908C200.953 186.001 200.527 185.047 199.674 185.047C199.244 185.047 198.931 185.281 198.736 185.75C198.547 186.219 198.453 186.938 198.453 187.908ZM202.847 187.908C202.847 189.406 202.577 190.529 202.037 191.277C201.497 192.026 200.709 192.4 199.674 192.4C198.684 192.4 197.916 192.016 197.369 191.248C196.822 190.473 196.549 189.36 196.549 187.908C196.549 184.933 197.59 183.445 199.674 183.445C200.676 183.445 201.454 183.829 202.008 184.598C202.568 185.366 202.847 186.469 202.847 187.908ZM199.947 177.928L192.027 192.205H190.133L198.053 177.928H199.947ZM220.211 182.244C220.211 183.735 219.722 184.878 218.746 185.672C217.769 186.466 216.379 186.863 214.576 186.863H213.092V192.205H210.758V177.928H214.869C216.653 177.928 217.987 178.292 218.873 179.021C219.765 179.751 220.211 180.825 220.211 182.244ZM213.092 184.9H214.332C215.53 184.9 216.409 184.692 216.969 184.275C217.528 183.859 217.808 183.208 217.808 182.322C217.808 181.502 217.558 180.89 217.056 180.486C216.555 180.083 215.774 179.881 214.713 179.881H213.092V184.9ZM232.398 186.785C232.398 188.549 231.946 189.926 231.041 190.916C230.136 191.906 228.876 192.4 227.262 192.4C226.252 192.4 225.361 192.173 224.586 191.717C223.811 191.261 223.215 190.607 222.799 189.754C222.382 188.901 222.174 187.911 222.174 186.785C222.174 185.034 222.623 183.667 223.521 182.684C224.42 181.701 225.686 181.209 227.32 181.209C228.883 181.209 230.12 181.714 231.031 182.723C231.943 183.725 232.398 185.079 232.398 186.785ZM224.537 186.785C224.537 189.279 225.458 190.525 227.301 190.525C229.124 190.525 230.035 189.279 230.035 186.785C230.035 184.318 229.117 183.084 227.281 183.084C226.318 183.084 225.618 183.403 225.181 184.041C224.752 184.679 224.537 185.594 224.537 186.785ZM242.301 189.129C242.301 190.184 241.916 190.994 241.148 191.561C240.38 192.12 239.28 192.4 237.847 192.4C236.409 192.4 235.253 192.182 234.381 191.746V189.764C235.65 190.35 236.832 190.643 237.926 190.643C239.338 190.643 240.045 190.216 240.045 189.363C240.045 189.09 239.967 188.862 239.81 188.68C239.654 188.497 239.397 188.309 239.039 188.113C238.681 187.918 238.183 187.697 237.545 187.449C236.301 186.967 235.458 186.486 235.015 186.004C234.579 185.522 234.361 184.897 234.361 184.129C234.361 183.204 234.732 182.488 235.474 181.98C236.223 181.466 237.239 181.209 238.521 181.209C239.791 181.209 240.992 181.466 242.125 181.98L241.383 183.709C240.217 183.227 239.237 182.986 238.443 182.986C237.232 182.986 236.627 183.331 236.627 184.021C236.627 184.36 236.783 184.646 237.096 184.881C237.415 185.115 238.105 185.438 239.166 185.848C240.058 186.193 240.706 186.508 241.109 186.795C241.513 187.081 241.812 187.413 242.008 187.791C242.203 188.162 242.301 188.608 242.301 189.129ZM247.086 192.205H244.791V181.404H247.086V192.205ZM244.654 178.543C244.654 178.133 244.765 177.817 244.986 177.596C245.214 177.374 245.536 177.264 245.953 177.264C246.357 177.264 246.669 177.374 246.89 177.596C247.118 177.817 247.232 178.133 247.232 178.543C247.232 178.934 247.118 179.243 246.89 179.471C246.669 179.692 246.357 179.803 245.953 179.803C245.536 179.803 245.214 179.692 244.986 179.471C244.765 179.243 244.654 178.934 244.654 178.543ZM254.4 190.545C254.96 190.545 255.52 190.457 256.08 190.281V192.01C255.826 192.12 255.497 192.212 255.094 192.283C254.696 192.361 254.283 192.4 253.853 192.4C251.679 192.4 250.592 191.255 250.592 188.963V183.143H249.117V182.127L250.699 181.287L251.48 179.002H252.896V181.404H255.972V183.143H252.896V188.924C252.896 189.477 253.033 189.887 253.306 190.154C253.586 190.415 253.951 190.545 254.4 190.545ZM260.543 192.205H258.248V181.404H260.543V192.205ZM258.111 178.543C258.111 178.133 258.222 177.817 258.443 177.596C258.671 177.374 258.993 177.264 259.41 177.264C259.814 177.264 260.126 177.374 260.347 177.596C260.575 177.817 260.689 178.133 260.689 178.543C260.689 178.934 260.575 179.243 260.347 179.471C260.126 179.692 259.814 179.803 259.41 179.803C258.993 179.803 258.671 179.692 258.443 179.471C258.222 179.243 258.111 178.934 258.111 178.543ZM266.295 192.205L262.193 181.404H264.615L266.812 187.684C267.19 188.738 267.418 189.591 267.496 190.242H267.574C267.633 189.773 267.861 188.921 268.258 187.684L270.455 181.404H272.896L268.775 192.205H266.295ZM279.254 192.4C277.574 192.4 276.259 191.912 275.308 190.936C274.364 189.952 273.892 188.602 273.892 186.883C273.892 185.118 274.332 183.732 275.211 182.723C276.09 181.714 277.297 181.209 278.834 181.209C280.26 181.209 281.386 181.642 282.213 182.508C283.04 183.374 283.453 184.565 283.453 186.082V187.322H276.256C276.288 188.37 276.571 189.178 277.105 189.744C277.639 190.304 278.391 190.584 279.361 190.584C279.999 190.584 280.592 190.525 281.139 190.408C281.692 190.285 282.284 190.083 282.916 189.803V191.668C282.356 191.935 281.79 192.124 281.217 192.234C280.644 192.345 279.989 192.4 279.254 192.4ZM278.834 182.947C278.105 182.947 277.519 183.178 277.076 183.641C276.64 184.103 276.379 184.777 276.295 185.662H281.197C281.184 184.77 280.969 184.096 280.553 183.641C280.136 183.178 279.563 182.947 278.834 182.947Z" fill="black"/>
<path d="M176.539 212.287C176.539 213.199 176.282 213.944 175.767 214.523C175.26 215.103 174.537 215.49 173.599 215.686V215.764C174.745 215.907 175.595 216.271 176.148 216.857C176.702 217.443 176.978 218.212 176.978 219.162C176.978 220.523 176.506 221.571 175.562 222.307C174.618 223.036 173.277 223.4 171.539 223.4C170.784 223.4 170.09 223.342 169.459 223.225C168.834 223.114 168.225 222.915 167.633 222.629V221.086C168.251 221.392 168.909 221.626 169.605 221.789C170.308 221.945 170.972 222.023 171.597 222.023C174.065 222.023 175.299 221.057 175.299 219.123C175.299 217.391 173.938 216.525 171.217 216.525H169.81V215.129H171.236C172.349 215.129 173.232 214.885 173.883 214.396C174.534 213.902 174.859 213.218 174.859 212.346C174.859 211.649 174.618 211.102 174.137 210.705C173.661 210.308 173.014 210.109 172.193 210.109C171.568 210.109 170.979 210.194 170.426 210.363C169.872 210.533 169.241 210.845 168.531 211.301L167.711 210.207C168.297 209.745 168.971 209.383 169.732 209.123C170.5 208.856 171.308 208.723 172.154 208.723C173.541 208.723 174.618 209.042 175.387 209.68C176.155 210.311 176.539 211.18 176.539 212.287ZM187.984 212.287C187.984 213.199 187.727 213.944 187.213 214.523C186.705 215.103 185.982 215.49 185.045 215.686V215.764C186.191 215.907 187.04 216.271 187.594 216.857C188.147 217.443 188.424 218.212 188.424 219.162C188.424 220.523 187.952 221.571 187.008 222.307C186.064 223.036 184.722 223.4 182.984 223.4C182.229 223.4 181.536 223.342 180.904 223.225C180.279 223.114 179.67 222.915 179.078 222.629V221.086C179.696 221.392 180.354 221.626 181.051 221.789C181.754 221.945 182.418 222.023 183.043 222.023C185.51 222.023 186.744 221.057 186.744 219.123C186.744 217.391 185.383 216.525 182.662 216.525H181.256V215.129H182.681C183.795 215.129 184.677 214.885 185.328 214.396C185.979 213.902 186.305 213.218 186.305 212.346C186.305 211.649 186.064 211.102 185.582 210.705C185.107 210.308 184.459 210.109 183.639 210.109C183.014 210.109 182.424 210.194 181.871 210.363C181.318 210.533 180.686 210.845 179.976 211.301L179.156 210.207C179.742 209.745 180.416 209.383 181.178 209.123C181.946 208.856 182.753 208.723 183.599 208.723C184.986 208.723 186.064 209.042 186.832 209.68C187.6 210.311 187.984 211.18 187.984 212.287ZM191.969 213.186C191.969 214.292 192.089 215.122 192.33 215.676C192.571 216.229 192.961 216.506 193.502 216.506C194.569 216.506 195.103 215.399 195.103 213.186C195.103 210.985 194.569 209.885 193.502 209.885C192.961 209.885 192.571 210.158 192.33 210.705C192.089 211.252 191.969 212.079 191.969 213.186ZM196.441 213.186C196.441 214.67 196.191 215.793 195.689 216.555C195.194 217.31 194.465 217.688 193.502 217.688C192.59 217.688 191.881 217.3 191.373 216.525C190.872 215.751 190.621 214.637 190.621 213.186C190.621 211.708 190.862 210.594 191.344 209.846C191.832 209.097 192.551 208.723 193.502 208.723C194.446 208.723 195.172 209.11 195.68 209.885C196.187 210.66 196.441 211.76 196.441 213.186ZM200.562 218.908C200.562 220.021 200.683 220.855 200.924 221.408C201.165 221.955 201.558 222.229 202.105 222.229C202.652 222.229 203.056 221.958 203.316 221.418C203.577 220.871 203.707 220.035 203.707 218.908C203.707 217.795 203.577 216.971 203.316 216.438C203.056 215.897 202.652 215.627 202.105 215.627C201.558 215.627 201.165 215.897 200.924 216.438C200.683 216.971 200.562 217.795 200.562 218.908ZM205.045 218.908C205.045 220.386 204.794 221.506 204.293 222.268C203.798 223.023 203.069 223.4 202.105 223.4C201.181 223.4 200.468 223.013 199.967 222.238C199.472 221.464 199.224 220.354 199.224 218.908C199.224 217.43 199.465 216.317 199.947 215.568C200.435 214.82 201.155 214.445 202.105 214.445C203.03 214.445 203.749 214.829 204.264 215.598C204.784 216.359 205.045 217.463 205.045 218.908ZM202.525 208.928L194.605 223.205H193.17L201.09 208.928H202.525ZM224.381 223.205H222.486L214.683 211.223H214.605C214.709 212.629 214.762 213.918 214.762 215.09V223.205H213.228V208.928H215.103L222.887 220.861H222.965C222.952 220.686 222.922 220.122 222.877 219.172C222.831 218.215 222.815 217.531 222.828 217.121V208.928H224.381V223.205ZM232.584 223.4C231.002 223.4 229.752 222.919 228.834 221.955C227.922 220.992 227.467 219.654 227.467 217.941C227.467 216.216 227.89 214.846 228.736 213.83C229.589 212.814 230.732 212.307 232.164 212.307C233.505 212.307 234.566 212.749 235.347 213.635C236.129 214.514 236.519 215.676 236.519 217.121V218.146H229.146C229.179 219.403 229.495 220.357 230.094 221.008C230.699 221.659 231.549 221.984 232.642 221.984C233.795 221.984 234.934 221.743 236.06 221.262V222.707C235.487 222.954 234.944 223.13 234.43 223.234C233.922 223.345 233.306 223.4 232.584 223.4ZM232.144 213.664C231.285 213.664 230.598 213.944 230.084 214.504C229.576 215.064 229.277 215.839 229.185 216.828H234.781C234.781 215.806 234.553 215.025 234.097 214.484C233.642 213.938 232.991 213.664 232.144 213.664ZM240.816 212.502V219.445C240.816 220.318 241.015 220.969 241.412 221.398C241.809 221.828 242.431 222.043 243.277 222.043C244.397 222.043 245.214 221.737 245.728 221.125C246.249 220.513 246.51 219.514 246.51 218.127V212.502H248.131V223.205H246.793L246.558 221.77H246.471C246.139 222.297 245.676 222.701 245.084 222.98C244.498 223.26 243.827 223.4 243.072 223.4C241.77 223.4 240.793 223.091 240.142 222.473C239.498 221.854 239.176 220.865 239.176 219.504V212.502H240.816ZM255.035 222.062C255.321 222.062 255.598 222.043 255.865 222.004C256.132 221.958 256.344 221.913 256.5 221.867V223.107C256.324 223.192 256.064 223.26 255.719 223.312C255.38 223.371 255.074 223.4 254.801 223.4C252.73 223.4 251.695 222.31 251.695 220.129V213.762H250.162V212.98L251.695 212.307L252.379 210.021H253.316V212.502H256.422V213.762H253.316V220.061C253.316 220.705 253.469 221.2 253.775 221.545C254.081 221.89 254.501 222.062 255.035 222.062ZM263.531 212.307C264.006 212.307 264.433 212.346 264.81 212.424L264.586 213.928C264.143 213.83 263.752 213.781 263.414 213.781C262.548 213.781 261.806 214.133 261.187 214.836C260.575 215.539 260.269 216.415 260.269 217.463V223.205H258.648V212.502H259.986L260.172 214.484H260.25C260.647 213.788 261.125 213.251 261.685 212.873C262.245 212.495 262.861 212.307 263.531 212.307ZM273.394 223.205L273.072 221.682H272.994C272.46 222.352 271.926 222.808 271.392 223.049C270.865 223.283 270.204 223.4 269.41 223.4C268.349 223.4 267.515 223.127 266.91 222.58C266.311 222.033 266.012 221.255 266.012 220.246C266.012 218.085 267.74 216.952 271.197 216.848L273.014 216.789V216.125C273.014 215.285 272.831 214.667 272.467 214.27C272.109 213.866 271.532 213.664 270.738 213.664C269.846 213.664 268.837 213.938 267.711 214.484L267.213 213.244C267.74 212.958 268.316 212.733 268.941 212.57C269.573 212.408 270.204 212.326 270.836 212.326C272.112 212.326 273.056 212.609 273.668 213.176C274.286 213.742 274.596 214.65 274.596 215.9V223.205H273.394ZM269.732 222.062C270.741 222.062 271.532 221.786 272.105 221.232C272.685 220.679 272.974 219.904 272.974 218.908V217.941L271.353 218.01C270.064 218.055 269.133 218.257 268.56 218.615C267.994 218.967 267.711 219.517 267.711 220.266C267.711 220.852 267.887 221.298 268.238 221.604C268.596 221.91 269.094 222.062 269.732 222.062ZM279.566 223.205H277.945V208.01H279.566V223.205Z" fill="black"/>
<path d="M169.342 254.205L175.26 241.422H167.476V239.928H176.978V241.227L171.139 254.205H169.342ZM180.367 244.186C180.367 245.292 180.487 246.122 180.728 246.676C180.969 247.229 181.36 247.506 181.9 247.506C182.968 247.506 183.502 246.399 183.502 244.186C183.502 241.985 182.968 240.885 181.9 240.885C181.36 240.885 180.969 241.158 180.728 241.705C180.487 242.252 180.367 243.079 180.367 244.186ZM184.84 244.186C184.84 245.67 184.589 246.793 184.088 247.555C183.593 248.31 182.864 248.688 181.9 248.688C180.989 248.688 180.279 248.3 179.771 247.525C179.27 246.751 179.019 245.637 179.019 244.186C179.019 242.708 179.26 241.594 179.742 240.846C180.23 240.097 180.95 239.723 181.9 239.723C182.844 239.723 183.57 240.11 184.078 240.885C184.586 241.66 184.84 242.76 184.84 244.186ZM188.961 249.908C188.961 251.021 189.081 251.855 189.322 252.408C189.563 252.955 189.957 253.229 190.504 253.229C191.051 253.229 191.454 252.958 191.715 252.418C191.975 251.871 192.105 251.035 192.105 249.908C192.105 248.795 191.975 247.971 191.715 247.438C191.454 246.897 191.051 246.627 190.504 246.627C189.957 246.627 189.563 246.897 189.322 247.438C189.081 247.971 188.961 248.795 188.961 249.908ZM193.443 249.908C193.443 251.386 193.193 252.506 192.691 253.268C192.196 254.023 191.467 254.4 190.504 254.4C189.579 254.4 188.866 254.013 188.365 253.238C187.87 252.464 187.623 251.354 187.623 249.908C187.623 248.43 187.864 247.317 188.346 246.568C188.834 245.82 189.553 245.445 190.504 245.445C191.428 245.445 192.148 245.829 192.662 246.598C193.183 247.359 193.443 248.463 193.443 249.908ZM190.924 239.928L183.004 254.205H181.568L189.488 239.928H190.924ZM212.779 254.205H210.885L203.082 242.223H203.004C203.108 243.629 203.16 244.918 203.16 246.09V254.205H201.627V239.928H203.502L211.285 251.861H211.363C211.35 251.686 211.321 251.122 211.275 250.172C211.23 249.215 211.213 248.531 211.226 248.121V239.928H212.779V254.205ZM220.982 254.4C219.4 254.4 218.15 253.919 217.232 252.955C216.321 251.992 215.865 250.654 215.865 248.941C215.865 247.216 216.288 245.846 217.135 244.83C217.987 243.814 219.13 243.307 220.562 243.307C221.903 243.307 222.965 243.749 223.746 244.635C224.527 245.514 224.918 246.676 224.918 248.121V249.146H217.545C217.577 250.403 217.893 251.357 218.492 252.008C219.097 252.659 219.947 252.984 221.041 252.984C222.193 252.984 223.333 252.743 224.459 252.262V253.707C223.886 253.954 223.342 254.13 222.828 254.234C222.32 254.345 221.705 254.4 220.982 254.4ZM220.543 244.664C219.683 244.664 218.997 244.944 218.482 245.504C217.974 246.064 217.675 246.839 217.584 247.828H223.18C223.18 246.806 222.952 246.025 222.496 245.484C222.04 244.938 221.389 244.664 220.543 244.664ZM236.451 243.502V244.527L234.469 244.762C234.651 244.99 234.814 245.289 234.957 245.66C235.1 246.025 235.172 246.438 235.172 246.9C235.172 247.949 234.814 248.785 234.097 249.41C233.381 250.035 232.398 250.348 231.148 250.348C230.829 250.348 230.53 250.322 230.25 250.27C229.56 250.634 229.215 251.093 229.215 251.646C229.215 251.939 229.335 252.158 229.576 252.301C229.817 252.438 230.23 252.506 230.816 252.506H232.711C233.87 252.506 234.758 252.75 235.377 253.238C236.002 253.727 236.314 254.436 236.314 255.367C236.314 256.552 235.839 257.454 234.889 258.072C233.938 258.697 232.551 259.01 230.728 259.01C229.329 259.01 228.248 258.749 227.486 258.229C226.731 257.708 226.353 256.972 226.353 256.021C226.353 255.37 226.562 254.807 226.978 254.332C227.395 253.857 227.981 253.535 228.736 253.365C228.463 253.242 228.232 253.049 228.043 252.789C227.861 252.529 227.769 252.226 227.769 251.881C227.769 251.49 227.874 251.148 228.082 250.855C228.29 250.562 228.619 250.279 229.068 250.006C228.515 249.778 228.062 249.391 227.711 248.844C227.366 248.297 227.193 247.672 227.193 246.969C227.193 245.797 227.545 244.895 228.248 244.264C228.951 243.626 229.947 243.307 231.236 243.307C231.796 243.307 232.301 243.372 232.75 243.502H236.451ZM227.916 256.002C227.916 256.581 228.16 257.021 228.648 257.32C229.137 257.62 229.836 257.77 230.748 257.77C232.109 257.77 233.114 257.564 233.765 257.154C234.423 256.751 234.752 256.201 234.752 255.504C234.752 254.924 234.573 254.521 234.215 254.293C233.857 254.072 233.183 253.961 232.193 253.961H230.25C229.514 253.961 228.941 254.137 228.531 254.488C228.121 254.84 227.916 255.344 227.916 256.002ZM228.795 246.93C228.795 247.678 229.006 248.245 229.43 248.629C229.853 249.013 230.442 249.205 231.197 249.205C232.779 249.205 233.57 248.437 233.57 246.9C233.57 245.292 232.769 244.488 231.168 244.488C230.406 244.488 229.82 244.693 229.41 245.104C229 245.514 228.795 246.122 228.795 246.93ZM245.23 254.205L244.908 252.682H244.83C244.296 253.352 243.762 253.808 243.228 254.049C242.701 254.283 242.04 254.4 241.246 254.4C240.185 254.4 239.351 254.127 238.746 253.58C238.147 253.033 237.847 252.255 237.847 251.246C237.847 249.085 239.576 247.952 243.033 247.848L244.849 247.789V247.125C244.849 246.285 244.667 245.667 244.303 245.27C243.944 244.866 243.368 244.664 242.574 244.664C241.682 244.664 240.673 244.938 239.547 245.484L239.049 244.244C239.576 243.958 240.152 243.733 240.777 243.57C241.409 243.408 242.04 243.326 242.672 243.326C243.948 243.326 244.892 243.609 245.504 244.176C246.122 244.742 246.431 245.65 246.431 246.9V254.205H245.23ZM241.568 253.062C242.577 253.062 243.368 252.786 243.941 252.232C244.521 251.679 244.81 250.904 244.81 249.908V248.941L243.189 249.01C241.9 249.055 240.969 249.257 240.396 249.615C239.83 249.967 239.547 250.517 239.547 251.266C239.547 251.852 239.722 252.298 240.074 252.604C240.432 252.91 240.93 253.062 241.568 253.062ZM253.238 253.062C253.525 253.062 253.801 253.043 254.068 253.004C254.335 252.958 254.547 252.913 254.703 252.867V254.107C254.527 254.192 254.267 254.26 253.922 254.312C253.583 254.371 253.277 254.4 253.004 254.4C250.933 254.4 249.898 253.31 249.898 251.129V244.762H248.365V243.98L249.898 243.307L250.582 241.021H251.519V243.502H254.625V244.762H251.519V251.061C251.519 251.705 251.672 252.2 251.978 252.545C252.284 252.89 252.704 253.062 253.238 253.062ZM258.472 254.205H256.851V243.502H258.472V254.205ZM256.715 240.602C256.715 240.23 256.806 239.96 256.988 239.791C257.17 239.615 257.398 239.527 257.672 239.527C257.932 239.527 258.157 239.615 258.346 239.791C258.534 239.967 258.629 240.237 258.629 240.602C258.629 240.966 258.534 241.24 258.346 241.422C258.157 241.598 257.932 241.686 257.672 241.686C257.398 241.686 257.17 241.598 256.988 241.422C256.806 241.24 256.715 240.966 256.715 240.602ZM264.254 254.205L260.191 243.502H261.93L264.234 249.85C264.755 251.334 265.061 252.298 265.152 252.74H265.23C265.302 252.395 265.527 251.682 265.904 250.602C266.288 249.514 267.144 247.148 268.472 243.502H270.211L266.148 254.205H264.254ZM276.451 254.4C274.869 254.4 273.619 253.919 272.701 252.955C271.79 251.992 271.334 250.654 271.334 248.941C271.334 247.216 271.757 245.846 272.603 244.83C273.456 243.814 274.599 243.307 276.031 243.307C277.372 243.307 278.433 243.749 279.215 244.635C279.996 245.514 280.387 246.676 280.387 248.121V249.146H273.014C273.046 250.403 273.362 251.357 273.961 252.008C274.566 252.659 275.416 252.984 276.51 252.984C277.662 252.984 278.801 252.743 279.928 252.262V253.707C279.355 253.954 278.811 254.13 278.297 254.234C277.789 254.345 277.174 254.4 276.451 254.4ZM276.012 244.664C275.152 244.664 274.465 244.944 273.951 245.504C273.443 246.064 273.144 246.839 273.053 247.828H278.648C278.648 246.806 278.42 246.025 277.965 245.484C277.509 244.938 276.858 244.664 276.012 244.664Z" fill="black"/>
</svg>
