<svg width="448" height="432" viewBox="0 0 448 432" fill="none" xmlns="http://www.w3.org/2000/svg">
<path d="M198.305 429.609C171.338 426.37 145.226 418.063 121.344 405.124L224 215.646L198.305 429.609Z" fill="#0A1B5F"/>
<path d="M115.677 401.943C88.2539 385.997 64.6892 364.194 46.6653 338.09C28.6413 311.987 16.6025 282.225 11.4084 250.932L224 215.646L115.677 401.943Z" fill="#4A4B4D"/>
<path d="M247.324 429.88C233.854 431.347 220.275 431.539 206.768 430.456L224 215.646L247.324 429.88Z" fill="#1F74FE"/>
<path d="M10.7453 246.673C4.60873 204.495 11.1172 161.445 29.4476 122.966C47.778 84.4871 77.107 52.3079 113.726 30.4978C150.345 8.68761 192.609 -1.77401 235.173 0.435846C277.738 2.6457 318.691 17.4278 352.855 42.9128C387.018 68.3978 412.857 103.441 427.104 143.611C441.351 183.782 443.366 227.274 432.895 268.59C422.424 309.905 399.936 347.188 368.276 375.723C336.616 404.258 297.205 422.764 255.027 428.901L224 215.646L10.7453 246.673Z" fill="#D0D0D1"/>
<rect x="25.5049" y="17.1531" width="396.99" height="396.99" rx="198.495" fill="#F0F0F0"/>
<path d="M131.539 165.73C131.539 166.641 131.282 167.387 130.767 167.966C130.26 168.546 129.537 168.933 128.599 169.128V169.207C129.745 169.35 130.595 169.714 131.148 170.3C131.702 170.886 131.978 171.654 131.978 172.605C131.978 173.966 131.506 175.014 130.562 175.75C129.618 176.479 128.277 176.843 126.539 176.843C125.784 176.843 125.09 176.785 124.459 176.667C123.834 176.557 123.225 176.358 122.633 176.072V174.529C123.251 174.835 123.909 175.069 124.605 175.232C125.308 175.388 125.972 175.466 126.597 175.466C129.065 175.466 130.299 174.5 130.299 172.566C130.299 170.834 128.938 169.968 126.217 169.968H124.81V168.572H126.236C127.349 168.572 128.232 168.328 128.883 167.839C129.534 167.345 129.859 166.661 129.859 165.789C129.859 165.092 129.618 164.545 129.137 164.148C128.661 163.751 128.014 163.552 127.193 163.552C126.568 163.552 125.979 163.637 125.426 163.806C124.872 163.975 124.241 164.288 123.531 164.744L122.711 163.65C123.297 163.188 123.971 162.826 124.732 162.566C125.5 162.299 126.308 162.166 127.154 162.166C128.541 162.166 129.618 162.485 130.387 163.123C131.155 163.754 131.539 164.623 131.539 165.73ZM135.523 166.628C135.523 167.735 135.644 168.565 135.885 169.119C136.125 169.672 136.516 169.949 137.056 169.949C138.124 169.949 138.658 168.842 138.658 166.628C138.658 164.428 138.124 163.328 137.056 163.328C136.516 163.328 136.125 163.601 135.885 164.148C135.644 164.695 135.523 165.522 135.523 166.628ZM139.996 166.628C139.996 168.113 139.745 169.236 139.244 169.998C138.749 170.753 138.02 171.13 137.056 171.13C136.145 171.13 135.435 170.743 134.928 169.968C134.426 169.194 134.176 168.08 134.176 166.628C134.176 165.151 134.416 164.037 134.898 163.289C135.387 162.54 136.106 162.166 137.056 162.166C138 162.166 138.726 162.553 139.234 163.328C139.742 164.102 139.996 165.203 139.996 166.628ZM144.117 172.351C144.117 173.464 144.237 174.298 144.478 174.851C144.719 175.398 145.113 175.671 145.66 175.671C146.207 175.671 146.611 175.401 146.871 174.861C147.131 174.314 147.262 173.477 147.262 172.351C147.262 171.238 147.131 170.414 146.871 169.88C146.611 169.34 146.207 169.07 145.66 169.07C145.113 169.07 144.719 169.34 144.478 169.88C144.237 170.414 144.117 171.238 144.117 172.351ZM148.599 172.351C148.599 173.829 148.349 174.949 147.847 175.71C147.353 176.466 146.624 176.843 145.66 176.843C144.736 176.843 144.023 176.456 143.521 175.681C143.027 174.906 142.779 173.796 142.779 172.351C142.779 170.873 143.02 169.76 143.502 169.011C143.99 168.263 144.709 167.888 145.66 167.888C146.584 167.888 147.304 168.272 147.818 169.041C148.339 169.802 148.599 170.906 148.599 172.351ZM146.08 162.371L138.16 176.648H136.724L144.644 162.371H146.08ZM162.896 163.65C161.327 163.65 160.087 164.174 159.176 165.222C158.271 166.264 157.818 167.693 157.818 169.509C157.818 171.378 158.254 172.823 159.127 173.845C160.006 174.861 161.256 175.369 162.877 175.369C163.873 175.369 165.009 175.19 166.285 174.832V176.287C165.295 176.658 164.075 176.843 162.623 176.843C160.52 176.843 158.896 176.205 157.75 174.929C156.611 173.653 156.041 171.84 156.041 169.49C156.041 168.018 156.314 166.729 156.861 165.623C157.415 164.516 158.209 163.663 159.244 163.064C160.286 162.465 161.51 162.166 162.916 162.166C164.413 162.166 165.722 162.439 166.842 162.986L166.139 164.412C165.058 163.904 163.977 163.65 162.896 163.65ZM178.394 171.287C178.394 173.031 177.955 174.395 177.076 175.378C176.197 176.355 174.983 176.843 173.433 176.843C172.476 176.843 171.627 176.619 170.885 176.169C170.142 175.72 169.569 175.076 169.166 174.236C168.762 173.396 168.56 172.413 168.56 171.287C168.56 169.542 168.997 168.184 169.869 167.214C170.741 166.238 171.952 165.75 173.502 165.75C174.999 165.75 176.187 166.248 177.066 167.244C177.952 168.24 178.394 169.587 178.394 171.287ZM170.24 171.287C170.24 172.654 170.514 173.695 171.06 174.412C171.607 175.128 172.411 175.486 173.472 175.486C174.534 175.486 175.338 175.131 175.885 174.421C176.438 173.705 176.715 172.66 176.715 171.287C176.715 169.926 176.438 168.894 175.885 168.191C175.338 167.481 174.527 167.126 173.453 167.126C172.392 167.126 171.591 167.475 171.051 168.171C170.51 168.868 170.24 169.906 170.24 171.287ZM194.889 176.648V169.685C194.889 168.832 194.706 168.194 194.342 167.771C193.977 167.341 193.411 167.126 192.642 167.126C191.633 167.126 190.888 167.416 190.406 167.996C189.924 168.575 189.683 169.467 189.683 170.671V176.648H188.062V169.685C188.062 168.832 187.88 168.194 187.515 167.771C187.151 167.341 186.581 167.126 185.806 167.126C184.791 167.126 184.045 167.432 183.57 168.044C183.101 168.65 182.867 169.646 182.867 171.033V176.648H181.246V165.945H182.564L182.828 167.41H182.906C183.212 166.889 183.642 166.482 184.195 166.189C184.755 165.896 185.38 165.75 186.07 165.75C187.743 165.75 188.837 166.355 189.351 167.566H189.43C189.749 167.006 190.211 166.563 190.816 166.238C191.422 165.912 192.112 165.75 192.887 165.75C194.097 165.75 195.002 166.062 195.601 166.687C196.207 167.306 196.51 168.298 196.51 169.666V176.648H194.889ZM204.84 176.843C204.143 176.843 203.505 176.716 202.926 176.462C202.353 176.202 201.871 175.805 201.48 175.271H201.363C201.441 175.896 201.48 176.488 201.48 177.048V181.453H199.859V165.945H201.178L201.402 167.41H201.48C201.897 166.824 202.382 166.401 202.935 166.14C203.489 165.88 204.124 165.75 204.84 165.75C206.259 165.75 207.353 166.235 208.121 167.205C208.896 168.175 209.283 169.535 209.283 171.287C209.283 173.044 208.889 174.412 208.101 175.388C207.32 176.358 206.233 176.843 204.84 176.843ZM204.605 167.126C203.512 167.126 202.721 167.429 202.232 168.035C201.744 168.64 201.493 169.604 201.48 170.925V171.287C201.48 172.791 201.731 173.868 202.232 174.519C202.734 175.164 203.538 175.486 204.644 175.486C205.569 175.486 206.291 175.111 206.812 174.363C207.34 173.614 207.603 172.582 207.603 171.267C207.603 169.932 207.34 168.91 206.812 168.201C206.291 167.485 205.556 167.126 204.605 167.126ZM213.746 176.648H212.125V161.453H213.746V176.648ZM221.705 176.843C220.123 176.843 218.873 176.361 217.955 175.398C217.043 174.434 216.588 173.097 216.588 171.384C216.588 169.659 217.011 168.289 217.857 167.273C218.71 166.257 219.853 165.75 221.285 165.75C222.626 165.75 223.687 166.192 224.469 167.078C225.25 167.957 225.64 169.119 225.64 170.564V171.589H218.267C218.3 172.846 218.616 173.8 219.215 174.451C219.82 175.102 220.67 175.427 221.764 175.427C222.916 175.427 224.055 175.186 225.181 174.705V176.15C224.609 176.397 224.065 176.573 223.551 176.677C223.043 176.788 222.428 176.843 221.705 176.843ZM221.265 167.107C220.406 167.107 219.719 167.387 219.205 167.947C218.697 168.507 218.398 169.281 218.306 170.271H223.902C223.902 169.249 223.674 168.468 223.219 167.927C222.763 167.38 222.112 167.107 221.265 167.107ZM231.871 175.505C232.157 175.505 232.434 175.486 232.701 175.447C232.968 175.401 233.18 175.356 233.336 175.31V176.55C233.16 176.635 232.9 176.703 232.555 176.755C232.216 176.814 231.91 176.843 231.637 176.843C229.566 176.843 228.531 175.753 228.531 173.572V167.205H226.998V166.423L228.531 165.75L229.215 163.464H230.152V165.945H233.258V167.205H230.152V173.503C230.152 174.148 230.305 174.643 230.611 174.988C230.917 175.333 231.337 175.505 231.871 175.505ZM240.006 176.843C238.424 176.843 237.174 176.361 236.256 175.398C235.344 174.434 234.889 173.097 234.889 171.384C234.889 169.659 235.312 168.289 236.158 167.273C237.011 166.257 238.153 165.75 239.586 165.75C240.927 165.75 241.988 166.192 242.769 167.078C243.551 167.957 243.941 169.119 243.941 170.564V171.589H236.568C236.601 172.846 236.916 173.8 237.515 174.451C238.121 175.102 238.971 175.427 240.064 175.427C241.217 175.427 242.356 175.186 243.482 174.705V176.15C242.909 176.397 242.366 176.573 241.851 176.677C241.344 176.788 240.728 176.843 240.006 176.843ZM239.566 167.107C238.707 167.107 238.02 167.387 237.506 167.947C236.998 168.507 236.698 169.281 236.607 170.271H242.203C242.203 169.249 241.975 168.468 241.519 167.927C241.064 167.38 240.413 167.107 239.566 167.107ZM254 175.212H253.912C253.163 176.3 252.043 176.843 250.553 176.843C249.153 176.843 248.062 176.365 247.281 175.408C246.506 174.451 246.119 173.09 246.119 171.326C246.119 169.561 246.51 168.191 247.291 167.214C248.072 166.238 249.159 165.75 250.553 165.75C252.004 165.75 253.118 166.277 253.892 167.332H254.019L253.951 166.56L253.912 165.808V161.453H255.533V176.648H254.215L254 175.212ZM250.758 175.486C251.864 175.486 252.665 175.186 253.16 174.587C253.661 173.982 253.912 173.009 253.912 171.667V171.326C253.912 169.809 253.658 168.728 253.15 168.083C252.649 167.432 251.845 167.107 250.738 167.107C249.788 167.107 249.058 167.478 248.551 168.22C248.049 168.956 247.799 169.998 247.799 171.345C247.799 172.712 248.049 173.744 248.551 174.441C249.052 175.138 249.788 175.486 250.758 175.486ZM272.476 172.849C272.476 174.106 272.021 175.085 271.109 175.789C270.198 176.492 268.961 176.843 267.398 176.843C265.706 176.843 264.403 176.625 263.492 176.189V174.587C264.078 174.835 264.716 175.03 265.406 175.173C266.096 175.317 266.78 175.388 267.457 175.388C268.564 175.388 269.397 175.18 269.957 174.763C270.517 174.34 270.797 173.754 270.797 173.005C270.797 172.511 270.696 172.107 270.494 171.794C270.299 171.475 269.967 171.182 269.498 170.916C269.036 170.649 268.329 170.346 267.379 170.007C266.051 169.532 265.1 168.969 264.527 168.318C263.961 167.667 263.678 166.817 263.678 165.769C263.678 164.669 264.091 163.793 264.918 163.142C265.745 162.491 266.838 162.166 268.199 162.166C269.618 162.166 270.924 162.426 272.115 162.947L271.597 164.392C270.419 163.897 269.273 163.65 268.16 163.65C267.281 163.65 266.594 163.839 266.099 164.216C265.605 164.594 265.357 165.118 265.357 165.789C265.357 166.283 265.448 166.69 265.631 167.009C265.813 167.322 266.119 167.611 266.549 167.878C266.985 168.139 267.649 168.429 268.541 168.748C270.038 169.281 271.067 169.854 271.627 170.466C272.193 171.078 272.476 171.873 272.476 172.849ZM276.773 176.648H275.152V165.945H276.773V176.648ZM275.015 163.044C275.015 162.673 275.107 162.403 275.289 162.234C275.471 162.058 275.699 161.97 275.972 161.97C276.233 161.97 276.458 162.058 276.646 162.234C276.835 162.41 276.93 162.68 276.93 163.044C276.93 163.409 276.835 163.682 276.646 163.865C276.458 164.041 276.233 164.128 275.972 164.128C275.699 164.128 275.471 164.041 275.289 163.865C275.107 163.682 275.015 163.409 275.015 163.044ZM288.971 165.945V166.97L286.988 167.205C287.17 167.432 287.333 167.732 287.476 168.103C287.62 168.468 287.691 168.881 287.691 169.343C287.691 170.391 287.333 171.228 286.617 171.853C285.901 172.478 284.918 172.791 283.668 172.791C283.349 172.791 283.049 172.764 282.769 172.712C282.079 173.077 281.734 173.536 281.734 174.089C281.734 174.382 281.855 174.6 282.096 174.744C282.336 174.88 282.75 174.949 283.336 174.949H285.23C286.389 174.949 287.278 175.193 287.896 175.681C288.521 176.169 288.834 176.879 288.834 177.81C288.834 178.995 288.359 179.897 287.408 180.515C286.458 181.14 285.071 181.453 283.248 181.453C281.848 181.453 280.767 181.192 280.006 180.671C279.25 180.151 278.873 179.415 278.873 178.464C278.873 177.813 279.081 177.25 279.498 176.775C279.915 176.3 280.5 175.977 281.256 175.808C280.982 175.684 280.751 175.492 280.562 175.232C280.38 174.972 280.289 174.669 280.289 174.324C280.289 173.933 280.393 173.591 280.601 173.298C280.81 173.005 281.139 172.722 281.588 172.449C281.034 172.221 280.582 171.833 280.23 171.287C279.885 170.74 279.713 170.115 279.713 169.412C279.713 168.24 280.064 167.338 280.767 166.707C281.471 166.069 282.467 165.75 283.756 165.75C284.316 165.75 284.82 165.815 285.269 165.945H288.971ZM280.435 178.445C280.435 179.024 280.68 179.464 281.168 179.763C281.656 180.063 282.356 180.212 283.267 180.212C284.628 180.212 285.634 180.007 286.285 179.597C286.943 179.194 287.271 178.643 287.271 177.947C287.271 177.367 287.092 176.964 286.734 176.736C286.376 176.514 285.702 176.404 284.713 176.404H282.769C282.034 176.404 281.461 176.58 281.051 176.931C280.64 177.283 280.435 177.787 280.435 178.445ZM281.314 169.373C281.314 170.121 281.526 170.688 281.949 171.072C282.372 171.456 282.961 171.648 283.717 171.648C285.299 171.648 286.09 170.88 286.09 169.343C286.09 167.735 285.289 166.931 283.687 166.931C282.926 166.931 282.34 167.136 281.93 167.546C281.519 167.957 281.314 168.565 281.314 169.373ZM298.492 176.648V169.724C298.492 168.852 298.293 168.201 297.896 167.771C297.499 167.341 296.877 167.126 296.031 167.126C294.911 167.126 294.091 167.429 293.57 168.035C293.049 168.64 292.789 169.639 292.789 171.033V176.648H291.168V165.945H292.486L292.75 167.41H292.828C293.16 166.882 293.625 166.475 294.224 166.189C294.823 165.896 295.491 165.75 296.226 165.75C297.515 165.75 298.486 166.062 299.137 166.687C299.788 167.306 300.113 168.298 300.113 169.666V176.648H298.492ZM304.976 165.945V172.888C304.976 173.761 305.175 174.412 305.572 174.841C305.969 175.271 306.591 175.486 307.437 175.486C308.557 175.486 309.374 175.18 309.889 174.568C310.409 173.956 310.67 172.957 310.67 171.57V165.945H312.291V176.648H310.953L310.719 175.212H310.631C310.299 175.74 309.836 176.143 309.244 176.423C308.658 176.703 307.987 176.843 307.232 176.843C305.93 176.843 304.954 176.534 304.303 175.916C303.658 175.297 303.336 174.307 303.336 172.947V165.945H304.976ZM320.719 176.843C320.022 176.843 319.384 176.716 318.805 176.462C318.232 176.202 317.75 175.805 317.359 175.271H317.242C317.32 175.896 317.359 176.488 317.359 177.048V181.453H315.738V165.945H317.056L317.281 167.41H317.359C317.776 166.824 318.261 166.401 318.814 166.14C319.368 165.88 320.002 165.75 320.719 165.75C322.138 165.75 323.232 166.235 324 167.205C324.775 168.175 325.162 169.535 325.162 171.287C325.162 173.044 324.768 174.412 323.98 175.388C323.199 176.358 322.112 176.843 320.719 176.843ZM320.484 167.126C319.39 167.126 318.599 167.429 318.111 168.035C317.623 168.64 317.372 169.604 317.359 170.925V171.287C317.359 172.791 317.61 173.868 318.111 174.519C318.612 175.164 319.416 175.486 320.523 175.486C321.448 175.486 322.17 175.111 322.691 174.363C323.219 173.614 323.482 172.582 323.482 171.267C323.482 169.932 323.219 168.91 322.691 168.201C322.17 167.485 321.435 167.126 320.484 167.126Z" fill="black"/>
<path d="M140.123 201.544C140.123 198.738 140.666 196.642 141.754 195.255C142.847 193.862 144.462 193.166 146.597 193.166C147.333 193.166 147.913 193.227 148.336 193.351V194.748C147.834 194.585 147.262 194.503 146.617 194.503C145.087 194.503 143.918 194.982 143.111 195.939C142.304 196.889 141.861 198.387 141.783 200.431H141.9C142.616 199.311 143.749 198.751 145.299 198.751C146.581 198.751 147.59 199.139 148.326 199.914C149.068 200.688 149.439 201.74 149.439 203.068C149.439 204.552 149.032 205.721 148.219 206.574C147.411 207.42 146.318 207.843 144.937 207.843C143.459 207.843 142.288 207.29 141.422 206.183C140.556 205.07 140.123 203.524 140.123 201.544ZM144.918 206.466C145.842 206.466 146.558 206.177 147.066 205.597C147.581 205.011 147.838 204.168 147.838 203.068C147.838 202.124 147.6 201.382 147.125 200.841C146.65 200.301 145.94 200.031 144.996 200.031C144.41 200.031 143.873 200.151 143.385 200.392C142.896 200.633 142.506 200.965 142.213 201.388C141.926 201.811 141.783 202.251 141.783 202.707C141.783 203.377 141.913 204.002 142.174 204.582C142.434 205.161 142.802 205.62 143.277 205.958C143.759 206.297 144.306 206.466 144.918 206.466ZM152.789 197.628C152.789 198.735 152.909 199.565 153.15 200.119C153.391 200.672 153.782 200.949 154.322 200.949C155.39 200.949 155.924 199.842 155.924 197.628C155.924 195.428 155.39 194.328 154.322 194.328C153.782 194.328 153.391 194.601 153.15 195.148C152.909 195.695 152.789 196.522 152.789 197.628ZM157.262 197.628C157.262 199.113 157.011 200.236 156.51 200.998C156.015 201.753 155.286 202.13 154.322 202.13C153.411 202.13 152.701 201.743 152.193 200.968C151.692 200.194 151.441 199.08 151.441 197.628C151.441 196.151 151.682 195.037 152.164 194.289C152.652 193.54 153.372 193.166 154.322 193.166C155.266 193.166 155.992 193.553 156.5 194.328C157.008 195.102 157.262 196.203 157.262 197.628ZM161.383 203.351C161.383 204.464 161.503 205.298 161.744 205.851C161.985 206.398 162.379 206.671 162.926 206.671C163.472 206.671 163.876 206.401 164.137 205.861C164.397 205.314 164.527 204.477 164.527 203.351C164.527 202.238 164.397 201.414 164.137 200.88C163.876 200.34 163.472 200.07 162.926 200.07C162.379 200.07 161.985 200.34 161.744 200.88C161.503 201.414 161.383 202.238 161.383 203.351ZM165.865 203.351C165.865 204.829 165.614 205.949 165.113 206.71C164.618 207.466 163.889 207.843 162.926 207.843C162.001 207.843 161.288 207.456 160.787 206.681C160.292 205.906 160.045 204.796 160.045 203.351C160.045 201.873 160.286 200.76 160.767 200.011C161.256 199.263 161.975 198.888 162.926 198.888C163.85 198.888 164.569 199.272 165.084 200.041C165.605 200.802 165.865 201.906 165.865 203.351ZM163.346 193.371L155.426 207.648H153.99L161.91 193.371H163.346ZM182.105 203.849C182.105 205.106 181.65 206.085 180.738 206.789C179.827 207.492 178.59 207.843 177.027 207.843C175.334 207.843 174.032 207.625 173.121 207.189V205.587C173.707 205.835 174.345 206.03 175.035 206.173C175.725 206.317 176.409 206.388 177.086 206.388C178.193 206.388 179.026 206.18 179.586 205.763C180.146 205.34 180.426 204.754 180.426 204.005C180.426 203.511 180.325 203.107 180.123 202.794C179.928 202.475 179.596 202.182 179.127 201.916C178.665 201.649 177.958 201.346 177.008 201.007C175.68 200.532 174.729 199.969 174.156 199.318C173.59 198.667 173.306 197.817 173.306 196.769C173.306 195.669 173.72 194.793 174.547 194.142C175.374 193.491 176.467 193.166 177.828 193.166C179.247 193.166 180.553 193.426 181.744 193.947L181.226 195.392C180.048 194.897 178.902 194.65 177.789 194.65C176.91 194.65 176.223 194.839 175.728 195.216C175.234 195.594 174.986 196.118 174.986 196.789C174.986 197.283 175.077 197.69 175.26 198.009C175.442 198.322 175.748 198.611 176.178 198.878C176.614 199.139 177.278 199.429 178.17 199.748C179.667 200.281 180.696 200.854 181.256 201.466C181.822 202.078 182.105 202.873 182.105 203.849ZM188.238 206.505C188.525 206.505 188.801 206.486 189.068 206.447C189.335 206.401 189.547 206.356 189.703 206.31V207.55C189.527 207.635 189.267 207.703 188.922 207.755C188.583 207.814 188.277 207.843 188.004 207.843C185.933 207.843 184.898 206.753 184.898 204.572V198.205H183.365V197.423L184.898 196.75L185.582 194.464H186.519V196.945H189.625V198.205H186.519V204.503C186.519 205.148 186.672 205.643 186.978 205.988C187.284 206.333 187.704 206.505 188.238 206.505ZM198.433 207.648L198.111 206.125H198.033C197.499 206.795 196.965 207.251 196.431 207.492C195.904 207.726 195.243 207.843 194.449 207.843C193.388 207.843 192.555 207.57 191.949 207.023C191.35 206.476 191.051 205.698 191.051 204.689C191.051 202.528 192.779 201.395 196.236 201.291L198.053 201.232V200.568C198.053 199.728 197.87 199.11 197.506 198.712C197.148 198.309 196.571 198.107 195.777 198.107C194.885 198.107 193.876 198.38 192.75 198.927L192.252 197.687C192.779 197.401 193.355 197.176 193.98 197.013C194.612 196.85 195.243 196.769 195.875 196.769C197.151 196.769 198.095 197.052 198.707 197.619C199.325 198.185 199.635 199.093 199.635 200.343V207.648H198.433ZM194.771 206.505C195.78 206.505 196.571 206.229 197.144 205.675C197.724 205.122 198.014 204.347 198.014 203.351V202.384L196.392 202.453C195.103 202.498 194.172 202.7 193.599 203.058C193.033 203.41 192.75 203.96 192.75 204.708C192.75 205.294 192.926 205.74 193.277 206.046C193.635 206.352 194.133 206.505 194.771 206.505ZM207.867 196.75C208.342 196.75 208.769 196.789 209.146 196.867L208.922 198.371C208.479 198.273 208.088 198.224 207.75 198.224C206.884 198.224 206.142 198.576 205.523 199.279C204.911 199.982 204.605 200.858 204.605 201.906V207.648H202.984V196.945H204.322L204.508 198.927H204.586C204.983 198.231 205.461 197.694 206.021 197.316C206.581 196.938 207.196 196.75 207.867 196.75ZM214.605 206.505C214.892 206.505 215.168 206.486 215.435 206.447C215.702 206.401 215.914 206.356 216.07 206.31V207.55C215.894 207.635 215.634 207.703 215.289 207.755C214.95 207.814 214.644 207.843 214.371 207.843C212.301 207.843 211.265 206.753 211.265 204.572V198.205H209.732V197.423L211.265 196.75L211.949 194.464H212.887V196.945H215.992V198.205H212.887V204.503C212.887 205.148 213.04 205.643 213.346 205.988C213.652 206.333 214.071 206.505 214.605 206.505ZM222.74 207.843C221.158 207.843 219.908 207.361 218.99 206.398C218.079 205.434 217.623 204.097 217.623 202.384C217.623 200.659 218.046 199.289 218.892 198.273C219.745 197.257 220.888 196.75 222.32 196.75C223.661 196.75 224.722 197.192 225.504 198.078C226.285 198.957 226.676 200.119 226.676 201.564V202.589H219.303C219.335 203.846 219.651 204.8 220.25 205.451C220.855 206.102 221.705 206.427 222.799 206.427C223.951 206.427 225.09 206.186 226.217 205.705V207.15C225.644 207.397 225.1 207.573 224.586 207.677C224.078 207.788 223.463 207.843 222.74 207.843ZM222.301 198.107C221.441 198.107 220.754 198.387 220.24 198.947C219.732 199.507 219.433 200.281 219.342 201.271H224.937C224.937 200.249 224.709 199.468 224.254 198.927C223.798 198.38 223.147 198.107 222.301 198.107ZM236.734 206.212H236.646C235.898 207.3 234.778 207.843 233.287 207.843C231.887 207.843 230.797 207.365 230.015 206.408C229.241 205.451 228.853 204.09 228.853 202.326C228.853 200.561 229.244 199.191 230.025 198.214C230.806 197.238 231.894 196.75 233.287 196.75C234.739 196.75 235.852 197.277 236.627 198.332H236.754L236.685 197.56L236.646 196.808V192.453H238.267V207.648H236.949L236.734 206.212ZM233.492 206.486C234.599 206.486 235.4 206.186 235.894 205.587C236.396 204.982 236.646 204.009 236.646 202.667V202.326C236.646 200.809 236.392 199.728 235.885 199.083C235.383 198.432 234.579 198.107 233.472 198.107C232.522 198.107 231.793 198.478 231.285 199.22C230.784 199.956 230.533 200.998 230.533 202.345C230.533 203.712 230.784 204.744 231.285 205.441C231.786 206.138 232.522 206.486 233.492 206.486ZM255.211 203.849C255.211 205.106 254.755 206.085 253.844 206.789C252.932 207.492 251.695 207.843 250.133 207.843C248.44 207.843 247.138 207.625 246.226 207.189V205.587C246.812 205.835 247.45 206.03 248.14 206.173C248.831 206.317 249.514 206.388 250.191 206.388C251.298 206.388 252.131 206.18 252.691 205.763C253.251 205.34 253.531 204.754 253.531 204.005C253.531 203.511 253.43 203.107 253.228 202.794C253.033 202.475 252.701 202.182 252.232 201.916C251.77 201.649 251.064 201.346 250.113 201.007C248.785 200.532 247.834 199.969 247.262 199.318C246.695 198.667 246.412 197.817 246.412 196.769C246.412 195.669 246.825 194.793 247.652 194.142C248.479 193.491 249.573 193.166 250.933 193.166C252.353 193.166 253.658 193.426 254.849 193.947L254.332 195.392C253.153 194.897 252.008 194.65 250.894 194.65C250.015 194.65 249.329 194.839 248.834 195.216C248.339 195.594 248.092 196.118 248.092 196.789C248.092 197.283 248.183 197.69 248.365 198.009C248.547 198.322 248.853 198.611 249.283 198.878C249.719 199.139 250.383 199.429 251.275 199.748C252.773 200.281 253.801 200.854 254.361 201.466C254.928 202.078 255.211 202.873 255.211 203.849ZM259.508 207.648H257.887V196.945H259.508V207.648ZM257.75 194.044C257.75 193.673 257.841 193.403 258.023 193.234C258.206 193.058 258.433 192.97 258.707 192.97C258.967 192.97 259.192 193.058 259.381 193.234C259.569 193.41 259.664 193.68 259.664 194.044C259.664 194.409 259.569 194.682 259.381 194.865C259.192 195.041 258.967 195.128 258.707 195.128C258.433 195.128 258.206 195.041 258.023 194.865C257.841 194.682 257.75 194.409 257.75 194.044ZM271.705 196.945V197.97L269.722 198.205C269.905 198.432 270.068 198.732 270.211 199.103C270.354 199.468 270.426 199.881 270.426 200.343C270.426 201.391 270.068 202.228 269.351 202.853C268.635 203.478 267.652 203.791 266.402 203.791C266.083 203.791 265.784 203.764 265.504 203.712C264.814 204.077 264.469 204.536 264.469 205.089C264.469 205.382 264.589 205.6 264.83 205.744C265.071 205.88 265.484 205.949 266.07 205.949H267.965C269.124 205.949 270.012 206.193 270.631 206.681C271.256 207.169 271.568 207.879 271.568 208.81C271.568 209.995 271.093 210.897 270.142 211.515C269.192 212.14 267.805 212.453 265.982 212.453C264.583 212.453 263.502 212.192 262.74 211.671C261.985 211.151 261.607 210.415 261.607 209.464C261.607 208.813 261.816 208.25 262.232 207.775C262.649 207.3 263.235 206.977 263.99 206.808C263.717 206.684 263.486 206.492 263.297 206.232C263.114 205.972 263.023 205.669 263.023 205.324C263.023 204.933 263.127 204.591 263.336 204.298C263.544 204.005 263.873 203.722 264.322 203.449C263.769 203.221 263.316 202.833 262.965 202.287C262.62 201.74 262.447 201.115 262.447 200.412C262.447 199.24 262.799 198.338 263.502 197.707C264.205 197.069 265.201 196.75 266.49 196.75C267.05 196.75 267.555 196.815 268.004 196.945H271.705ZM263.17 209.445C263.17 210.024 263.414 210.464 263.902 210.763C264.39 211.063 265.09 211.212 266.002 211.212C267.362 211.212 268.368 211.007 269.019 210.597C269.677 210.194 270.006 209.643 270.006 208.947C270.006 208.367 269.827 207.964 269.469 207.736C269.111 207.514 268.437 207.404 267.447 207.404H265.504C264.768 207.404 264.195 207.58 263.785 207.931C263.375 208.283 263.17 208.787 263.17 209.445ZM264.049 200.373C264.049 201.121 264.26 201.688 264.683 202.072C265.107 202.456 265.696 202.648 266.451 202.648C268.033 202.648 268.824 201.88 268.824 200.343C268.824 198.735 268.023 197.931 266.422 197.931C265.66 197.931 265.074 198.136 264.664 198.546C264.254 198.957 264.049 199.565 264.049 200.373ZM281.226 207.648V200.724C281.226 199.852 281.028 199.201 280.631 198.771C280.234 198.341 279.612 198.126 278.765 198.126C277.646 198.126 276.825 198.429 276.305 199.035C275.784 199.64 275.523 200.639 275.523 202.033V207.648H273.902V196.945H275.221L275.484 198.41H275.562C275.894 197.882 276.36 197.475 276.959 197.189C277.558 196.896 278.225 196.75 278.961 196.75C280.25 196.75 281.22 197.062 281.871 197.687C282.522 198.306 282.847 199.298 282.847 200.666V207.648H281.226ZM287.711 196.945V203.888C287.711 204.761 287.909 205.412 288.306 205.841C288.704 206.271 289.325 206.486 290.172 206.486C291.291 206.486 292.109 206.18 292.623 205.568C293.144 204.956 293.404 203.957 293.404 202.57V196.945H295.025V207.648H293.687L293.453 206.212H293.365C293.033 206.74 292.571 207.143 291.978 207.423C291.392 207.703 290.722 207.843 289.967 207.843C288.665 207.843 287.688 207.534 287.037 206.916C286.392 206.297 286.07 205.307 286.07 203.947V196.945H287.711ZM303.453 207.843C302.756 207.843 302.118 207.716 301.539 207.462C300.966 207.202 300.484 206.805 300.094 206.271H299.976C300.055 206.896 300.094 207.488 300.094 208.048V212.453H298.472V196.945H299.791L300.015 198.41H300.094C300.51 197.824 300.995 197.401 301.549 197.14C302.102 196.88 302.737 196.75 303.453 196.75C304.872 196.75 305.966 197.235 306.734 198.205C307.509 199.175 307.896 200.535 307.896 202.287C307.896 204.044 307.502 205.412 306.715 206.388C305.933 207.358 304.846 207.843 303.453 207.843ZM303.219 198.126C302.125 198.126 301.334 198.429 300.846 199.035C300.357 199.64 300.107 200.604 300.094 201.925V202.287C300.094 203.791 300.344 204.868 300.846 205.519C301.347 206.164 302.151 206.486 303.258 206.486C304.182 206.486 304.905 206.111 305.426 205.363C305.953 204.614 306.217 203.582 306.217 202.267C306.217 200.932 305.953 199.91 305.426 199.201C304.905 198.485 304.169 198.126 303.219 198.126Z" fill="black"/>
<path d="M175.572 238.648H173.99V228.472C173.99 227.626 174.016 226.825 174.068 226.07C173.931 226.207 173.778 226.35 173.609 226.5C173.44 226.649 172.665 227.284 171.285 228.404L170.426 227.291L174.205 224.371H175.572V238.648ZM185.474 229.927C186.978 229.927 188.16 230.302 189.019 231.05C189.885 231.792 190.318 232.811 190.318 234.107C190.318 235.585 189.846 236.744 188.902 237.583C187.965 238.423 186.669 238.843 185.015 238.843C183.407 238.843 182.18 238.586 181.334 238.072V236.509C181.79 236.802 182.356 237.033 183.033 237.203C183.71 237.365 184.377 237.447 185.035 237.447C186.181 237.447 187.069 237.177 187.701 236.636C188.339 236.096 188.658 235.315 188.658 234.292C188.658 232.3 187.437 231.304 184.996 231.304C184.377 231.304 183.551 231.399 182.515 231.587L181.676 231.05L182.213 224.371H189.312V225.865H183.599L183.238 230.152C183.987 230.002 184.732 229.927 185.474 229.927ZM193.844 228.628C193.844 229.735 193.964 230.565 194.205 231.119C194.446 231.672 194.836 231.949 195.377 231.949C196.444 231.949 196.978 230.842 196.978 228.628C196.978 226.428 196.444 225.328 195.377 225.328C194.836 225.328 194.446 225.601 194.205 226.148C193.964 226.695 193.844 227.522 193.844 228.628ZM198.316 228.628C198.316 230.113 198.066 231.236 197.564 231.998C197.069 232.753 196.34 233.13 195.377 233.13C194.465 233.13 193.756 232.743 193.248 231.968C192.747 231.194 192.496 230.08 192.496 228.628C192.496 227.151 192.737 226.037 193.219 225.289C193.707 224.54 194.426 224.166 195.377 224.166C196.321 224.166 197.047 224.553 197.555 225.328C198.062 226.102 198.316 227.203 198.316 228.628ZM202.437 234.351C202.437 235.464 202.558 236.298 202.799 236.851C203.04 237.398 203.433 237.671 203.98 237.671C204.527 237.671 204.931 237.401 205.191 236.861C205.452 236.314 205.582 235.477 205.582 234.351C205.582 233.238 205.452 232.414 205.191 231.88C204.931 231.34 204.527 231.07 203.98 231.07C203.433 231.07 203.04 231.34 202.799 231.88C202.558 232.414 202.437 233.238 202.437 234.351ZM206.92 234.351C206.92 235.829 206.669 236.949 206.168 237.71C205.673 238.466 204.944 238.843 203.98 238.843C203.056 238.843 202.343 238.456 201.842 237.681C201.347 236.906 201.099 235.796 201.099 234.351C201.099 232.873 201.34 231.76 201.822 231.011C202.31 230.263 203.03 229.888 203.98 229.888C204.905 229.888 205.624 230.272 206.139 231.041C206.659 231.802 206.92 232.906 206.92 234.351ZM204.4 224.371L196.48 238.648H195.045L202.965 224.371H204.4ZM221.217 225.65C219.648 225.65 218.407 226.174 217.496 227.222C216.591 228.264 216.139 229.693 216.139 231.509C216.139 233.378 216.575 234.823 217.447 235.845C218.326 236.861 219.576 237.369 221.197 237.369C222.193 237.369 223.329 237.19 224.605 236.832V238.287C223.616 238.658 222.395 238.843 220.943 238.843C218.84 238.843 217.216 238.205 216.07 236.929C214.931 235.653 214.361 233.84 214.361 231.49C214.361 230.018 214.635 228.729 215.181 227.623C215.735 226.516 216.529 225.663 217.564 225.064C218.606 224.465 219.83 224.166 221.236 224.166C222.734 224.166 224.042 224.439 225.162 224.986L224.459 226.412C223.378 225.904 222.297 225.65 221.217 225.65ZM229.097 238.648H227.476V223.453H229.097V238.648ZM234.156 238.648H232.535V227.945H234.156V238.648ZM232.398 225.044C232.398 224.673 232.489 224.403 232.672 224.234C232.854 224.058 233.082 223.97 233.355 223.97C233.616 223.97 233.84 224.058 234.029 224.234C234.218 224.41 234.312 224.68 234.312 225.044C234.312 225.409 234.218 225.682 234.029 225.865C233.84 226.041 233.616 226.128 233.355 226.128C233.082 226.128 232.854 226.041 232.672 225.865C232.489 225.682 232.398 225.409 232.398 225.044ZM241.871 238.843C240.321 238.843 239.12 238.368 238.267 237.417C237.421 236.46 236.998 235.11 236.998 233.365C236.998 231.574 237.428 230.191 238.287 229.214C239.153 228.238 240.383 227.75 241.978 227.75C242.493 227.75 243.007 227.805 243.521 227.916C244.036 228.026 244.439 228.156 244.732 228.306L244.234 229.683C243.876 229.54 243.486 229.423 243.062 229.332C242.639 229.234 242.265 229.185 241.939 229.185C239.765 229.185 238.678 230.572 238.678 233.345C238.678 234.66 238.941 235.669 239.469 236.373C240.002 237.076 240.79 237.427 241.832 237.427C242.724 237.427 243.639 237.235 244.576 236.851V238.287C243.86 238.658 242.958 238.843 241.871 238.843ZM248.726 233.169C249.006 232.772 249.433 232.251 250.006 231.607L253.463 227.945H255.387L251.051 232.505L255.689 238.648H253.726L249.947 233.589L248.726 234.644V238.648H247.125V223.453H248.726V231.509C248.726 231.867 248.7 232.421 248.648 233.169H248.726ZM262.154 238.843C260.572 238.843 259.322 238.361 258.404 237.398C257.493 236.434 257.037 235.097 257.037 233.384C257.037 231.659 257.46 230.289 258.306 229.273C259.159 228.257 260.302 227.75 261.734 227.75C263.075 227.75 264.137 228.192 264.918 229.078C265.699 229.957 266.09 231.119 266.09 232.564V233.589H258.717C258.749 234.846 259.065 235.8 259.664 236.451C260.269 237.102 261.119 237.427 262.213 237.427C263.365 237.427 264.504 237.186 265.631 236.705V238.15C265.058 238.397 264.514 238.573 264 238.677C263.492 238.788 262.877 238.843 262.154 238.843ZM261.715 229.107C260.855 229.107 260.168 229.387 259.654 229.947C259.146 230.507 258.847 231.281 258.756 232.271H264.351C264.351 231.249 264.124 230.468 263.668 229.927C263.212 229.38 262.561 229.107 261.715 229.107ZM276.148 237.212H276.06C275.312 238.3 274.192 238.843 272.701 238.843C271.301 238.843 270.211 238.365 269.43 237.408C268.655 236.451 268.267 235.09 268.267 233.326C268.267 231.561 268.658 230.191 269.439 229.214C270.221 228.238 271.308 227.75 272.701 227.75C274.153 227.75 275.266 228.277 276.041 229.332H276.168L276.099 228.56L276.06 227.808V223.453H277.681V238.648H276.363L276.148 237.212ZM272.906 237.486C274.013 237.486 274.814 237.186 275.308 236.587C275.81 235.982 276.06 235.009 276.06 233.667V233.326C276.06 231.809 275.806 230.728 275.299 230.083C274.797 229.432 273.993 229.107 272.887 229.107C271.936 229.107 271.207 229.478 270.699 230.22C270.198 230.956 269.947 231.998 269.947 233.345C269.947 234.712 270.198 235.744 270.699 236.441C271.2 237.138 271.936 237.486 272.906 237.486Z" fill="black"/>
<path d="M137.838 269.648L143.756 256.865H135.972V255.371H145.474V256.669L139.635 269.648H137.838ZM147.642 263.544C147.642 260.738 148.186 258.642 149.273 257.255C150.367 255.862 151.982 255.166 154.117 255.166C154.853 255.166 155.432 255.227 155.855 255.351V256.748C155.354 256.585 154.781 256.503 154.137 256.503C152.607 256.503 151.438 256.982 150.631 257.939C149.823 258.889 149.381 260.387 149.303 262.431H149.42C150.136 261.311 151.269 260.751 152.818 260.751C154.101 260.751 155.11 261.139 155.846 261.914C156.588 262.688 156.959 263.74 156.959 265.068C156.959 266.552 156.552 267.721 155.738 268.574C154.931 269.42 153.837 269.843 152.457 269.843C150.979 269.843 149.807 269.29 148.941 268.183C148.075 267.07 147.642 265.524 147.642 263.544ZM152.437 268.466C153.362 268.466 154.078 268.177 154.586 267.597C155.1 267.011 155.357 266.168 155.357 265.068C155.357 264.124 155.12 263.382 154.644 262.841C154.169 262.301 153.459 262.031 152.515 262.031C151.93 262.031 151.392 262.151 150.904 262.392C150.416 262.633 150.025 262.965 149.732 263.388C149.446 263.811 149.303 264.251 149.303 264.707C149.303 265.377 149.433 266.002 149.693 266.582C149.954 267.161 150.321 267.62 150.797 267.958C151.278 268.297 151.825 268.466 152.437 268.466ZM160.308 259.628C160.308 260.735 160.429 261.565 160.67 262.119C160.911 262.672 161.301 262.949 161.842 262.949C162.909 262.949 163.443 261.842 163.443 259.628C163.443 257.428 162.909 256.328 161.842 256.328C161.301 256.328 160.911 256.601 160.67 257.148C160.429 257.695 160.308 258.522 160.308 259.628ZM164.781 259.628C164.781 261.113 164.53 262.236 164.029 262.998C163.534 263.753 162.805 264.13 161.842 264.13C160.93 264.13 160.221 263.743 159.713 262.968C159.211 262.194 158.961 261.08 158.961 259.628C158.961 258.151 159.202 257.037 159.683 256.289C160.172 255.54 160.891 255.166 161.842 255.166C162.786 255.166 163.512 255.553 164.019 256.328C164.527 257.102 164.781 258.203 164.781 259.628ZM168.902 265.351C168.902 266.464 169.023 267.298 169.264 267.851C169.504 268.398 169.898 268.671 170.445 268.671C170.992 268.671 171.396 268.401 171.656 267.861C171.916 267.314 172.047 266.477 172.047 265.351C172.047 264.238 171.916 263.414 171.656 262.88C171.396 262.34 170.992 262.07 170.445 262.07C169.898 262.07 169.504 262.34 169.264 262.88C169.023 263.414 168.902 264.238 168.902 265.351ZM173.385 265.351C173.385 266.829 173.134 267.949 172.633 268.71C172.138 269.466 171.409 269.843 170.445 269.843C169.521 269.843 168.808 269.456 168.306 268.681C167.812 267.906 167.564 266.796 167.564 265.351C167.564 263.873 167.805 262.76 168.287 262.011C168.775 261.263 169.495 260.888 170.445 260.888C171.37 260.888 172.089 261.272 172.603 262.041C173.124 262.802 173.385 263.906 173.385 265.351ZM170.865 255.371L162.945 269.648H161.51L169.43 255.371H170.865ZM192.721 269.648H190.826L183.023 257.666H182.945C183.049 259.072 183.101 260.361 183.101 261.533V269.648H181.568V255.371H183.443L191.226 267.304H191.305C191.291 267.128 191.262 266.565 191.217 265.615C191.171 264.658 191.155 263.974 191.168 263.564V255.371H192.721V269.648ZM205.64 264.287C205.64 266.031 205.201 267.395 204.322 268.378C203.443 269.355 202.229 269.843 200.68 269.843C199.722 269.843 198.873 269.619 198.131 269.169C197.389 268.72 196.816 268.076 196.412 267.236C196.008 266.396 195.806 265.413 195.806 264.287C195.806 262.542 196.243 261.184 197.115 260.214C197.987 259.238 199.198 258.75 200.748 258.75C202.245 258.75 203.433 259.248 204.312 260.244C205.198 261.24 205.64 262.587 205.64 264.287ZM197.486 264.287C197.486 265.654 197.76 266.695 198.306 267.412C198.853 268.128 199.657 268.486 200.719 268.486C201.78 268.486 202.584 268.131 203.131 267.421C203.684 266.705 203.961 265.66 203.961 264.287C203.961 262.926 203.684 261.894 203.131 261.191C202.584 260.481 201.773 260.126 200.699 260.126C199.638 260.126 198.837 260.475 198.297 261.171C197.756 261.868 197.486 262.906 197.486 264.287ZM215.308 269.648H213.687V258.945H215.308V269.648ZM213.551 256.044C213.551 255.673 213.642 255.403 213.824 255.234C214.006 255.058 214.234 254.97 214.508 254.97C214.768 254.97 214.993 255.058 215.181 255.234C215.37 255.41 215.465 255.68 215.465 256.044C215.465 256.409 215.37 256.682 215.181 256.865C214.993 257.041 214.768 257.128 214.508 257.128C214.234 257.128 214.006 257.041 213.824 256.865C213.642 256.682 213.551 256.409 213.551 256.044ZM226.07 269.648V262.724C226.07 261.852 225.872 261.201 225.474 260.771C225.077 260.341 224.456 260.126 223.609 260.126C222.489 260.126 221.669 260.429 221.148 261.035C220.627 261.64 220.367 262.639 220.367 264.033V269.648H218.746V258.945H220.064L220.328 260.41H220.406C220.738 259.882 221.204 259.475 221.803 259.189C222.402 258.896 223.069 258.75 223.805 258.75C225.094 258.75 226.064 259.062 226.715 259.687C227.366 260.306 227.691 261.298 227.691 262.666V269.648H226.07ZM234.488 268.505C234.775 268.505 235.051 268.486 235.318 268.447C235.585 268.401 235.797 268.356 235.953 268.31V269.55C235.777 269.635 235.517 269.703 235.172 269.755C234.833 269.814 234.527 269.843 234.254 269.843C232.183 269.843 231.148 268.753 231.148 266.572V260.205H229.615V259.423L231.148 258.75L231.832 256.464H232.769V258.945H235.875V260.205H232.769V266.503C232.769 267.148 232.922 267.643 233.228 267.988C233.534 268.333 233.954 268.505 234.488 268.505ZM242.623 269.843C241.041 269.843 239.791 269.361 238.873 268.398C237.961 267.434 237.506 266.097 237.506 264.384C237.506 262.659 237.929 261.289 238.775 260.273C239.628 259.257 240.771 258.75 242.203 258.75C243.544 258.75 244.605 259.192 245.387 260.078C246.168 260.957 246.558 262.119 246.558 263.564V264.589H239.185C239.218 265.846 239.534 266.8 240.133 267.451C240.738 268.102 241.588 268.427 242.681 268.427C243.834 268.427 244.973 268.186 246.099 267.705V269.15C245.527 269.397 244.983 269.573 244.469 269.677C243.961 269.788 243.346 269.843 242.623 269.843ZM242.183 260.107C241.324 260.107 240.637 260.387 240.123 260.947C239.615 261.507 239.316 262.281 239.224 263.271H244.82C244.82 262.249 244.592 261.468 244.137 260.927C243.681 260.38 243.03 260.107 242.183 260.107ZM254.215 258.75C254.69 258.75 255.116 258.789 255.494 258.867L255.269 260.371C254.827 260.273 254.436 260.224 254.097 260.224C253.232 260.224 252.489 260.576 251.871 261.279C251.259 261.982 250.953 262.858 250.953 263.906V269.648H249.332V258.945H250.67L250.855 260.927H250.933C251.331 260.231 251.809 259.694 252.369 259.316C252.929 258.938 253.544 258.75 254.215 258.75ZM264.078 269.648L263.756 268.125H263.678C263.144 268.795 262.61 269.251 262.076 269.492C261.549 269.726 260.888 269.843 260.094 269.843C259.032 269.843 258.199 269.57 257.594 269.023C256.995 268.476 256.695 267.698 256.695 266.689C256.695 264.528 258.424 263.395 261.881 263.291L263.697 263.232V262.568C263.697 261.728 263.515 261.11 263.15 260.712C262.792 260.309 262.216 260.107 261.422 260.107C260.53 260.107 259.521 260.38 258.394 260.927L257.896 259.687C258.424 259.401 259 259.176 259.625 259.013C260.256 258.85 260.888 258.769 261.519 258.769C262.795 258.769 263.739 259.052 264.351 259.619C264.97 260.185 265.279 261.093 265.279 262.343V269.648H264.078ZM260.416 268.505C261.425 268.505 262.216 268.229 262.789 267.675C263.368 267.122 263.658 266.347 263.658 265.351V264.384L262.037 264.453C260.748 264.498 259.817 264.7 259.244 265.058C258.678 265.41 258.394 265.96 258.394 266.708C258.394 267.294 258.57 267.74 258.922 268.046C259.28 268.352 259.778 268.505 260.416 268.505ZM272.906 269.843C271.357 269.843 270.155 269.368 269.303 268.417C268.456 267.46 268.033 266.11 268.033 264.365C268.033 262.574 268.463 261.191 269.322 260.214C270.188 259.238 271.418 258.75 273.014 258.75C273.528 258.75 274.042 258.805 274.556 258.916C275.071 259.026 275.474 259.156 275.767 259.306L275.269 260.683C274.911 260.54 274.521 260.423 274.097 260.332C273.674 260.234 273.3 260.185 272.974 260.185C270.8 260.185 269.713 261.572 269.713 264.345C269.713 265.66 269.976 266.669 270.504 267.373C271.038 268.076 271.825 268.427 272.867 268.427C273.759 268.427 274.674 268.235 275.611 267.851V269.287C274.895 269.658 273.993 269.843 272.906 269.843ZM281.617 268.505C281.903 268.505 282.18 268.486 282.447 268.447C282.714 268.401 282.926 268.356 283.082 268.31V269.55C282.906 269.635 282.646 269.703 282.301 269.755C281.962 269.814 281.656 269.843 281.383 269.843C279.312 269.843 278.277 268.753 278.277 266.572V260.205H276.744V259.423L278.277 258.75L278.961 256.464H279.898V258.945H283.004V260.205H279.898V266.503C279.898 267.148 280.051 267.643 280.357 267.988C280.663 268.333 281.083 268.505 281.617 268.505ZM286.851 269.648H285.23V258.945H286.851V269.648ZM285.094 256.044C285.094 255.673 285.185 255.403 285.367 255.234C285.549 255.058 285.777 254.97 286.051 254.97C286.311 254.97 286.536 255.058 286.724 255.234C286.913 255.41 287.008 255.68 287.008 256.044C287.008 256.409 286.913 256.682 286.724 256.865C286.536 257.041 286.311 257.128 286.051 257.128C285.777 257.128 285.549 257.041 285.367 256.865C285.185 256.682 285.094 256.409 285.094 256.044ZM299.527 264.287C299.527 266.031 299.088 267.395 298.209 268.378C297.33 269.355 296.116 269.843 294.566 269.843C293.609 269.843 292.76 269.619 292.017 269.169C291.275 268.72 290.702 268.076 290.299 267.236C289.895 266.396 289.693 265.413 289.693 264.287C289.693 262.542 290.129 261.184 291.002 260.214C291.874 259.238 293.085 258.75 294.635 258.75C296.132 258.75 297.32 259.248 298.199 260.244C299.084 261.24 299.527 262.587 299.527 264.287ZM291.373 264.287C291.373 265.654 291.646 266.695 292.193 267.412C292.74 268.128 293.544 268.486 294.605 268.486C295.666 268.486 296.471 268.131 297.017 267.421C297.571 266.705 297.847 265.66 297.847 264.287C297.847 262.926 297.571 261.894 297.017 261.191C296.471 260.481 295.66 260.126 294.586 260.126C293.525 260.126 292.724 260.475 292.183 261.171C291.643 261.868 291.373 262.906 291.373 264.287ZM309.703 269.648V262.724C309.703 261.852 309.504 261.201 309.107 260.771C308.71 260.341 308.088 260.126 307.242 260.126C306.122 260.126 305.302 260.429 304.781 261.035C304.26 261.64 304 262.639 304 264.033V269.648H302.379V258.945H303.697L303.961 260.41H304.039C304.371 259.882 304.836 259.475 305.435 259.189C306.034 258.896 306.702 258.75 307.437 258.75C308.726 258.75 309.696 259.062 310.347 259.687C310.999 260.306 311.324 261.298 311.324 262.666V269.648H309.703Z" fill="black"/>
</svg>
