<svg width="448" height="432" viewBox="0 0 448 432" fill="none" xmlns="http://www.w3.org/2000/svg">
<path d="M237.052 430.807C209.941 432.453 182.763 428.958 156.95 420.507L224 215.703L237.052 430.807Z" fill="#0A1B5F"/>
<path d="M151.814 418.754C108.934 403.509 71.981 375.082 46.2506 337.545C20.5201 300.008 7.33363 255.289 8.58096 209.797L224 215.703L151.814 418.754Z" fill="#4A4B4D"/>
<path d="M299.73 417.458C281.533 424.289 262.495 428.626 243.134 430.352L224 215.703L299.73 417.458Z" fill="#1F74FE"/>
<path d="M8.77962 204.729C10.745 166.185 23.0252 128.876 44.3372 96.7008C65.6492 64.5252 95.2109 38.6633 129.934 21.8171C164.657 4.97085 203.266 -2.24146 241.729 0.933661C280.192 4.10878 317.097 17.5548 348.587 39.867C380.077 62.1791 404.998 92.5385 420.745 127.773C436.492 163.008 442.488 201.826 438.107 240.17C433.725 278.514 419.126 314.978 395.836 345.752C372.546 376.526 341.419 400.48 305.706 415.113L224 215.703L8.77962 204.729Z" fill="#D0D0D1"/>
<rect x="25.5049" y="17.21" width="396.99" height="396.99" rx="198.495" fill="#F0F0F0"/>
<path d="M124.361 173.424H122.242V176.705H120.689V173.424H113.746V172.008L120.523 162.35H122.242V171.949H124.361V173.424ZM120.689 171.949V167.203C120.689 166.272 120.722 165.221 120.787 164.049H120.709C120.396 164.674 120.103 165.191 119.83 165.602L115.367 171.949H120.689ZM126.256 175.67C126.256 175.234 126.353 174.905 126.549 174.684C126.75 174.456 127.037 174.342 127.408 174.342C127.786 174.342 128.079 174.456 128.287 174.684C128.502 174.905 128.609 175.234 128.609 175.67C128.609 176.093 128.502 176.419 128.287 176.646C128.072 176.874 127.779 176.988 127.408 176.988C127.076 176.988 126.799 176.887 126.578 176.686C126.363 176.477 126.256 176.139 126.256 175.67ZM132.887 176.705L138.805 163.922H131.021V162.428H140.523V163.727L134.683 176.705H132.887ZM143.912 166.686C143.912 167.792 144.032 168.622 144.273 169.176C144.514 169.729 144.905 170.006 145.445 170.006C146.513 170.006 147.047 168.899 147.047 166.686C147.047 164.485 146.513 163.385 145.445 163.385C144.905 163.385 144.514 163.658 144.273 164.205C144.032 164.752 143.912 165.579 143.912 166.686ZM148.385 166.686C148.385 168.17 148.134 169.293 147.633 170.055C147.138 170.81 146.409 171.188 145.445 171.188C144.534 171.188 143.824 170.8 143.316 170.025C142.815 169.251 142.564 168.137 142.564 166.686C142.564 165.208 142.805 164.094 143.287 163.346C143.775 162.597 144.495 162.223 145.445 162.223C146.389 162.223 147.115 162.61 147.623 163.385C148.131 164.16 148.385 165.26 148.385 166.686ZM152.506 172.408C152.506 173.521 152.626 174.355 152.867 174.908C153.108 175.455 153.502 175.729 154.049 175.729C154.596 175.729 154.999 175.458 155.26 174.918C155.52 174.371 155.65 173.535 155.65 172.408C155.65 171.295 155.52 170.471 155.26 169.938C154.999 169.397 154.596 169.127 154.049 169.127C153.502 169.127 153.108 169.397 152.867 169.938C152.626 170.471 152.506 171.295 152.506 172.408ZM156.988 172.408C156.988 173.886 156.737 175.006 156.236 175.768C155.741 176.523 155.012 176.9 154.049 176.9C153.124 176.9 152.411 176.513 151.91 175.738C151.415 174.964 151.168 173.854 151.168 172.408C151.168 170.93 151.409 169.817 151.89 169.068C152.379 168.32 153.098 167.945 154.049 167.945C154.973 167.945 155.693 168.329 156.207 169.098C156.728 169.859 156.988 170.963 156.988 172.408ZM154.469 162.428L146.549 176.705H145.113L153.033 162.428H154.469ZM171.285 163.707C169.716 163.707 168.476 164.231 167.564 165.279C166.659 166.321 166.207 167.75 166.207 169.566C166.207 171.435 166.643 172.88 167.515 173.902C168.394 174.918 169.644 175.426 171.265 175.426C172.262 175.426 173.398 175.247 174.674 174.889V176.344C173.684 176.715 172.463 176.9 171.012 176.9C168.909 176.9 167.284 176.262 166.139 174.986C164.999 173.71 164.43 171.897 164.43 169.547C164.43 168.076 164.703 166.786 165.25 165.68C165.803 164.573 166.597 163.72 167.633 163.121C168.674 162.522 169.898 162.223 171.305 162.223C172.802 162.223 174.111 162.496 175.23 163.043L174.527 164.469C173.446 163.961 172.366 163.707 171.285 163.707ZM186.783 171.344C186.783 173.089 186.344 174.452 185.465 175.436C184.586 176.412 183.372 176.9 181.822 176.9C180.865 176.9 180.015 176.676 179.273 176.227C178.531 175.777 177.958 175.133 177.555 174.293C177.151 173.453 176.949 172.47 176.949 171.344C176.949 169.599 177.385 168.242 178.258 167.271C179.13 166.295 180.341 165.807 181.89 165.807C183.388 165.807 184.576 166.305 185.455 167.301C186.34 168.297 186.783 169.645 186.783 171.344ZM178.629 171.344C178.629 172.711 178.902 173.753 179.449 174.469C179.996 175.185 180.8 175.543 181.861 175.543C182.922 175.543 183.726 175.188 184.273 174.479C184.827 173.762 185.103 172.717 185.103 171.344C185.103 169.983 184.827 168.951 184.273 168.248C183.726 167.538 182.916 167.184 181.842 167.184C180.78 167.184 179.98 167.532 179.439 168.229C178.899 168.925 178.629 169.964 178.629 171.344ZM203.277 176.705V169.742C203.277 168.889 203.095 168.251 202.73 167.828C202.366 167.398 201.799 167.184 201.031 167.184C200.022 167.184 199.277 167.473 198.795 168.053C198.313 168.632 198.072 169.524 198.072 170.729V176.705H196.451V169.742C196.451 168.889 196.269 168.251 195.904 167.828C195.54 167.398 194.97 167.184 194.195 167.184C193.18 167.184 192.434 167.49 191.959 168.102C191.49 168.707 191.256 169.703 191.256 171.09V176.705H189.635V166.002H190.953L191.217 167.467H191.295C191.601 166.946 192.03 166.539 192.584 166.246C193.144 165.953 193.769 165.807 194.459 165.807C196.132 165.807 197.226 166.412 197.74 167.623H197.818C198.137 167.063 198.599 166.62 199.205 166.295C199.81 165.969 200.5 165.807 201.275 165.807C202.486 165.807 203.391 166.119 203.99 166.744C204.596 167.363 204.898 168.355 204.898 169.723V176.705H203.277ZM213.228 176.9C212.532 176.9 211.894 176.773 211.314 176.52C210.741 176.259 210.26 175.862 209.869 175.328H209.752C209.83 175.953 209.869 176.546 209.869 177.105V181.51H208.248V166.002H209.566L209.791 167.467H209.869C210.286 166.881 210.771 166.458 211.324 166.197C211.877 165.937 212.512 165.807 213.228 165.807C214.648 165.807 215.741 166.292 216.51 167.262C217.284 168.232 217.672 169.592 217.672 171.344C217.672 173.102 217.278 174.469 216.49 175.445C215.709 176.415 214.622 176.9 213.228 176.9ZM212.994 167.184C211.9 167.184 211.109 167.486 210.621 168.092C210.133 168.697 209.882 169.661 209.869 170.982V171.344C209.869 172.848 210.12 173.925 210.621 174.576C211.122 175.221 211.926 175.543 213.033 175.543C213.958 175.543 214.68 175.169 215.201 174.42C215.728 173.671 215.992 172.639 215.992 171.324C215.992 169.99 215.728 168.967 215.201 168.258C214.68 167.542 213.944 167.184 212.994 167.184ZM222.135 176.705H220.514V161.51H222.135V176.705ZM230.094 176.9C228.512 176.9 227.262 176.419 226.344 175.455C225.432 174.492 224.976 173.154 224.976 171.441C224.976 169.716 225.4 168.346 226.246 167.33C227.099 166.314 228.241 165.807 229.674 165.807C231.015 165.807 232.076 166.249 232.857 167.135C233.639 168.014 234.029 169.176 234.029 170.621V171.646H226.656C226.689 172.903 227.004 173.857 227.603 174.508C228.209 175.159 229.058 175.484 230.152 175.484C231.305 175.484 232.444 175.243 233.57 174.762V176.207C232.997 176.454 232.454 176.63 231.939 176.734C231.431 176.845 230.816 176.9 230.094 176.9ZM229.654 167.164C228.795 167.164 228.108 167.444 227.594 168.004C227.086 168.564 226.786 169.339 226.695 170.328H232.291C232.291 169.306 232.063 168.525 231.607 167.984C231.152 167.438 230.5 167.164 229.654 167.164ZM240.26 175.562C240.546 175.562 240.823 175.543 241.09 175.504C241.357 175.458 241.568 175.413 241.724 175.367V176.607C241.549 176.692 241.288 176.76 240.943 176.812C240.605 176.871 240.299 176.9 240.025 176.9C237.955 176.9 236.92 175.81 236.92 173.629V167.262H235.387V166.48L236.92 165.807L237.603 163.521H238.541V166.002H241.646V167.262H238.541V173.561C238.541 174.205 238.694 174.7 239 175.045C239.306 175.39 239.726 175.562 240.26 175.562ZM248.394 176.9C246.812 176.9 245.562 176.419 244.644 175.455C243.733 174.492 243.277 173.154 243.277 171.441C243.277 169.716 243.7 168.346 244.547 167.33C245.4 166.314 246.542 165.807 247.974 165.807C249.316 165.807 250.377 166.249 251.158 167.135C251.939 168.014 252.33 169.176 252.33 170.621V171.646H244.957C244.989 172.903 245.305 173.857 245.904 174.508C246.51 175.159 247.359 175.484 248.453 175.484C249.605 175.484 250.745 175.243 251.871 174.762V176.207C251.298 176.454 250.754 176.63 250.24 176.734C249.732 176.845 249.117 176.9 248.394 176.9ZM247.955 167.164C247.096 167.164 246.409 167.444 245.894 168.004C245.387 168.564 245.087 169.339 244.996 170.328H250.592C250.592 169.306 250.364 168.525 249.908 167.984C249.452 167.438 248.801 167.164 247.955 167.164ZM262.389 175.27H262.301C261.552 176.357 260.432 176.9 258.941 176.9C257.541 176.9 256.451 176.422 255.67 175.465C254.895 174.508 254.508 173.147 254.508 171.383C254.508 169.618 254.898 168.248 255.68 167.271C256.461 166.295 257.548 165.807 258.941 165.807C260.393 165.807 261.506 166.334 262.281 167.389H262.408L262.34 166.617L262.301 165.865V161.51H263.922V176.705H262.603L262.389 175.27ZM259.146 175.543C260.253 175.543 261.054 175.243 261.549 174.645C262.05 174.039 262.301 173.066 262.301 171.725V171.383C262.301 169.866 262.047 168.785 261.539 168.141C261.038 167.49 260.234 167.164 259.127 167.164C258.176 167.164 257.447 167.535 256.939 168.277C256.438 169.013 256.187 170.055 256.187 171.402C256.187 172.77 256.438 173.801 256.939 174.498C257.441 175.195 258.176 175.543 259.146 175.543ZM280.865 172.906C280.865 174.163 280.409 175.143 279.498 175.846C278.586 176.549 277.349 176.9 275.787 176.9C274.094 176.9 272.792 176.682 271.881 176.246V174.645C272.467 174.892 273.105 175.087 273.795 175.23C274.485 175.374 275.168 175.445 275.846 175.445C276.952 175.445 277.786 175.237 278.346 174.82C278.905 174.397 279.185 173.811 279.185 173.062C279.185 172.568 279.084 172.164 278.883 171.852C278.687 171.533 278.355 171.24 277.887 170.973C277.424 170.706 276.718 170.403 275.767 170.064C274.439 169.589 273.489 169.026 272.916 168.375C272.349 167.724 272.066 166.874 272.066 165.826C272.066 164.726 272.48 163.85 273.306 163.199C274.133 162.548 275.227 162.223 276.588 162.223C278.007 162.223 279.312 162.483 280.504 163.004L279.986 164.449C278.808 163.954 277.662 163.707 276.549 163.707C275.67 163.707 274.983 163.896 274.488 164.273C273.993 164.651 273.746 165.175 273.746 165.846C273.746 166.34 273.837 166.747 274.019 167.066C274.202 167.379 274.508 167.669 274.937 167.936C275.374 168.196 276.038 168.486 276.93 168.805C278.427 169.339 279.456 169.911 280.015 170.523C280.582 171.135 280.865 171.93 280.865 172.906ZM285.162 176.705H283.541V166.002H285.162V176.705ZM283.404 163.102C283.404 162.73 283.495 162.46 283.678 162.291C283.86 162.115 284.088 162.027 284.361 162.027C284.622 162.027 284.846 162.115 285.035 162.291C285.224 162.467 285.318 162.737 285.318 163.102C285.318 163.466 285.224 163.74 285.035 163.922C284.846 164.098 284.622 164.186 284.361 164.186C284.088 164.186 283.86 164.098 283.678 163.922C283.495 163.74 283.404 163.466 283.404 163.102ZM297.359 166.002V167.027L295.377 167.262C295.559 167.49 295.722 167.789 295.865 168.16C296.008 168.525 296.08 168.938 296.08 169.4C296.08 170.449 295.722 171.285 295.006 171.91C294.29 172.535 293.306 172.848 292.056 172.848C291.737 172.848 291.438 172.822 291.158 172.77C290.468 173.134 290.123 173.593 290.123 174.146C290.123 174.439 290.243 174.658 290.484 174.801C290.725 174.938 291.139 175.006 291.724 175.006H293.619C294.778 175.006 295.666 175.25 296.285 175.738C296.91 176.227 297.222 176.936 297.222 177.867C297.222 179.052 296.747 179.954 295.797 180.572C294.846 181.197 293.459 181.51 291.637 181.51C290.237 181.51 289.156 181.249 288.394 180.729C287.639 180.208 287.262 179.472 287.262 178.521C287.262 177.87 287.47 177.307 287.887 176.832C288.303 176.357 288.889 176.035 289.644 175.865C289.371 175.742 289.14 175.549 288.951 175.289C288.769 175.029 288.678 174.726 288.678 174.381C288.678 173.99 288.782 173.648 288.99 173.355C289.198 173.062 289.527 172.779 289.976 172.506C289.423 172.278 288.971 171.891 288.619 171.344C288.274 170.797 288.101 170.172 288.101 169.469C288.101 168.297 288.453 167.395 289.156 166.764C289.859 166.126 290.855 165.807 292.144 165.807C292.704 165.807 293.209 165.872 293.658 166.002H297.359ZM288.824 178.502C288.824 179.081 289.068 179.521 289.556 179.82C290.045 180.12 290.745 180.27 291.656 180.27C293.017 180.27 294.023 180.064 294.674 179.654C295.331 179.251 295.66 178.701 295.66 178.004C295.66 177.424 295.481 177.021 295.123 176.793C294.765 176.572 294.091 176.461 293.101 176.461H291.158C290.422 176.461 289.849 176.637 289.439 176.988C289.029 177.34 288.824 177.844 288.824 178.502ZM289.703 169.43C289.703 170.178 289.915 170.745 290.338 171.129C290.761 171.513 291.35 171.705 292.105 171.705C293.687 171.705 294.478 170.937 294.478 169.4C294.478 167.792 293.678 166.988 292.076 166.988C291.314 166.988 290.728 167.193 290.318 167.604C289.908 168.014 289.703 168.622 289.703 169.43ZM306.881 176.705V169.781C306.881 168.909 306.682 168.258 306.285 167.828C305.888 167.398 305.266 167.184 304.42 167.184C303.3 167.184 302.48 167.486 301.959 168.092C301.438 168.697 301.178 169.697 301.178 171.09V176.705H299.556V166.002H300.875L301.139 167.467H301.217C301.549 166.939 302.014 166.533 302.613 166.246C303.212 165.953 303.879 165.807 304.615 165.807C305.904 165.807 306.874 166.119 307.525 166.744C308.176 167.363 308.502 168.355 308.502 169.723V176.705H306.881ZM313.365 166.002V172.945C313.365 173.818 313.564 174.469 313.961 174.898C314.358 175.328 314.98 175.543 315.826 175.543C316.946 175.543 317.763 175.237 318.277 174.625C318.798 174.013 319.058 173.014 319.058 171.627V166.002H320.68V176.705H319.342L319.107 175.27H319.019C318.687 175.797 318.225 176.201 317.633 176.48C317.047 176.76 316.376 176.9 315.621 176.9C314.319 176.9 313.342 176.591 312.691 175.973C312.047 175.354 311.724 174.365 311.724 173.004V166.002H313.365ZM329.107 176.9C328.411 176.9 327.773 176.773 327.193 176.52C326.62 176.259 326.138 175.862 325.748 175.328H325.631C325.709 175.953 325.748 176.546 325.748 177.105V181.51H324.127V166.002H325.445L325.67 167.467H325.748C326.165 166.881 326.65 166.458 327.203 166.197C327.756 165.937 328.391 165.807 329.107 165.807C330.527 165.807 331.62 166.292 332.388 167.262C333.163 168.232 333.551 169.592 333.551 171.344C333.551 173.102 333.157 174.469 332.369 175.445C331.588 176.415 330.5 176.9 329.107 176.9ZM328.873 167.184C327.779 167.184 326.988 167.486 326.5 168.092C326.012 168.697 325.761 169.661 325.748 170.982V171.344C325.748 172.848 325.999 173.925 326.5 174.576C327.001 175.221 327.805 175.543 328.912 175.543C329.836 175.543 330.559 175.169 331.08 174.42C331.607 173.671 331.871 172.639 331.871 171.324C331.871 169.99 331.607 168.967 331.08 168.258C330.559 167.542 329.823 167.184 328.873 167.184Z" fill="black"/>
<path d="M131.734 201.602C131.734 198.796 132.278 196.699 133.365 195.312C134.459 193.919 136.073 193.223 138.209 193.223C138.944 193.223 139.524 193.285 139.947 193.408V194.805C139.446 194.642 138.873 194.561 138.228 194.561C136.698 194.561 135.53 195.039 134.722 195.996C133.915 196.947 133.472 198.444 133.394 200.488H133.512C134.228 199.368 135.361 198.809 136.91 198.809C138.193 198.809 139.202 199.196 139.937 199.971C140.68 200.745 141.051 201.797 141.051 203.125C141.051 204.609 140.644 205.778 139.83 206.631C139.023 207.477 137.929 207.9 136.549 207.9C135.071 207.9 133.899 207.347 133.033 206.24C132.167 205.127 131.734 203.581 131.734 201.602ZM136.529 206.523C137.454 206.523 138.17 206.234 138.678 205.654C139.192 205.068 139.449 204.225 139.449 203.125C139.449 202.181 139.211 201.439 138.736 200.898C138.261 200.358 137.551 200.088 136.607 200.088C136.021 200.088 135.484 200.208 134.996 200.449C134.508 200.69 134.117 201.022 133.824 201.445C133.538 201.868 133.394 202.308 133.394 202.764C133.394 203.434 133.525 204.059 133.785 204.639C134.045 205.218 134.413 205.677 134.889 206.016C135.37 206.354 135.917 206.523 136.529 206.523ZM143.521 206.67C143.521 206.234 143.619 205.905 143.814 205.684C144.016 205.456 144.303 205.342 144.674 205.342C145.051 205.342 145.344 205.456 145.553 205.684C145.767 205.905 145.875 206.234 145.875 206.67C145.875 207.093 145.767 207.419 145.553 207.646C145.338 207.874 145.045 207.988 144.674 207.988C144.342 207.988 144.065 207.887 143.844 207.686C143.629 207.477 143.521 207.139 143.521 206.67ZM157.193 196.787C157.193 197.699 156.936 198.444 156.422 199.023C155.914 199.603 155.191 199.99 154.254 200.186V200.264C155.4 200.407 156.249 200.771 156.803 201.357C157.356 201.943 157.633 202.712 157.633 203.662C157.633 205.023 157.161 206.071 156.217 206.807C155.273 207.536 153.931 207.9 152.193 207.9C151.438 207.9 150.745 207.842 150.113 207.725C149.488 207.614 148.879 207.415 148.287 207.129V205.586C148.905 205.892 149.563 206.126 150.26 206.289C150.963 206.445 151.627 206.523 152.252 206.523C154.719 206.523 155.953 205.557 155.953 203.623C155.953 201.891 154.592 201.025 151.871 201.025H150.465V199.629H151.89C153.004 199.629 153.886 199.385 154.537 198.896C155.188 198.402 155.514 197.718 155.514 196.846C155.514 196.149 155.273 195.602 154.791 195.205C154.316 194.808 153.668 194.609 152.847 194.609C152.222 194.609 151.633 194.694 151.08 194.863C150.527 195.033 149.895 195.345 149.185 195.801L148.365 194.707C148.951 194.245 149.625 193.883 150.387 193.623C151.155 193.356 151.962 193.223 152.808 193.223C154.195 193.223 155.273 193.542 156.041 194.18C156.809 194.811 157.193 195.68 157.193 196.787ZM161.178 197.686C161.178 198.792 161.298 199.622 161.539 200.176C161.78 200.729 162.17 201.006 162.711 201.006C163.778 201.006 164.312 199.899 164.312 197.686C164.312 195.485 163.778 194.385 162.711 194.385C162.17 194.385 161.78 194.658 161.539 195.205C161.298 195.752 161.178 196.579 161.178 197.686ZM165.65 197.686C165.65 199.17 165.4 200.293 164.898 201.055C164.403 201.81 163.674 202.188 162.711 202.188C161.799 202.188 161.09 201.8 160.582 201.025C160.081 200.251 159.83 199.137 159.83 197.686C159.83 196.208 160.071 195.094 160.553 194.346C161.041 193.597 161.76 193.223 162.711 193.223C163.655 193.223 164.381 193.61 164.889 194.385C165.396 195.16 165.65 196.26 165.65 197.686ZM169.771 203.408C169.771 204.521 169.892 205.355 170.133 205.908C170.374 206.455 170.767 206.729 171.314 206.729C171.861 206.729 172.265 206.458 172.525 205.918C172.786 205.371 172.916 204.535 172.916 203.408C172.916 202.295 172.786 201.471 172.525 200.938C172.265 200.397 171.861 200.127 171.314 200.127C170.767 200.127 170.374 200.397 170.133 200.938C169.892 201.471 169.771 202.295 169.771 203.408ZM174.254 203.408C174.254 204.886 174.003 206.006 173.502 206.768C173.007 207.523 172.278 207.9 171.314 207.9C170.39 207.9 169.677 207.513 169.176 206.738C168.681 205.964 168.433 204.854 168.433 203.408C168.433 201.93 168.674 200.817 169.156 200.068C169.644 199.32 170.364 198.945 171.314 198.945C172.239 198.945 172.958 199.329 173.472 200.098C173.993 200.859 174.254 201.963 174.254 203.408ZM171.734 193.428L163.814 207.705H162.379L170.299 193.428H171.734ZM190.494 203.906C190.494 205.163 190.038 206.143 189.127 206.846C188.215 207.549 186.978 207.9 185.416 207.9C183.723 207.9 182.421 207.682 181.51 207.246V205.645C182.096 205.892 182.734 206.087 183.424 206.23C184.114 206.374 184.797 206.445 185.474 206.445C186.581 206.445 187.415 206.237 187.974 205.82C188.534 205.397 188.814 204.811 188.814 204.062C188.814 203.568 188.713 203.164 188.512 202.852C188.316 202.533 187.984 202.24 187.515 201.973C187.053 201.706 186.347 201.403 185.396 201.064C184.068 200.589 183.118 200.026 182.545 199.375C181.978 198.724 181.695 197.874 181.695 196.826C181.695 195.726 182.109 194.85 182.935 194.199C183.762 193.548 184.856 193.223 186.217 193.223C187.636 193.223 188.941 193.483 190.133 194.004L189.615 195.449C188.437 194.954 187.291 194.707 186.178 194.707C185.299 194.707 184.612 194.896 184.117 195.273C183.622 195.651 183.375 196.175 183.375 196.846C183.375 197.34 183.466 197.747 183.648 198.066C183.831 198.379 184.137 198.669 184.566 198.936C185.002 199.196 185.666 199.486 186.558 199.805C188.056 200.339 189.084 200.911 189.644 201.523C190.211 202.135 190.494 202.93 190.494 203.906ZM196.627 206.562C196.913 206.562 197.19 206.543 197.457 206.504C197.724 206.458 197.935 206.413 198.092 206.367V207.607C197.916 207.692 197.655 207.76 197.31 207.812C196.972 207.871 196.666 207.9 196.392 207.9C194.322 207.9 193.287 206.81 193.287 204.629V198.262H191.754V197.48L193.287 196.807L193.971 194.521H194.908V197.002H198.014V198.262H194.908V204.561C194.908 205.205 195.061 205.7 195.367 206.045C195.673 206.39 196.093 206.562 196.627 206.562ZM206.822 207.705L206.5 206.182H206.422C205.888 206.852 205.354 207.308 204.82 207.549C204.293 207.783 203.632 207.9 202.838 207.9C201.777 207.9 200.943 207.627 200.338 207.08C199.739 206.533 199.439 205.755 199.439 204.746C199.439 202.585 201.168 201.452 204.625 201.348L206.441 201.289V200.625C206.441 199.785 206.259 199.167 205.894 198.77C205.536 198.366 204.96 198.164 204.166 198.164C203.274 198.164 202.265 198.438 201.139 198.984L200.64 197.744C201.168 197.458 201.744 197.233 202.369 197.07C203 196.908 203.632 196.826 204.264 196.826C205.54 196.826 206.484 197.109 207.096 197.676C207.714 198.242 208.023 199.15 208.023 200.4V207.705H206.822ZM203.16 206.562C204.169 206.562 204.96 206.286 205.533 205.732C206.112 205.179 206.402 204.404 206.402 203.408V202.441L204.781 202.51C203.492 202.555 202.561 202.757 201.988 203.115C201.422 203.467 201.139 204.017 201.139 204.766C201.139 205.352 201.314 205.798 201.666 206.104C202.024 206.41 202.522 206.562 203.16 206.562ZM216.256 196.807C216.731 196.807 217.157 196.846 217.535 196.924L217.31 198.428C216.868 198.33 216.477 198.281 216.139 198.281C215.273 198.281 214.53 198.633 213.912 199.336C213.3 200.039 212.994 200.915 212.994 201.963V207.705H211.373V197.002H212.711L212.896 198.984H212.974C213.372 198.288 213.85 197.751 214.41 197.373C214.97 196.995 215.585 196.807 216.256 196.807ZM222.994 206.562C223.28 206.562 223.557 206.543 223.824 206.504C224.091 206.458 224.303 206.413 224.459 206.367V207.607C224.283 207.692 224.023 207.76 223.678 207.812C223.339 207.871 223.033 207.9 222.76 207.9C220.689 207.9 219.654 206.81 219.654 204.629V198.262H218.121V197.48L219.654 196.807L220.338 194.521H221.275V197.002H224.381V198.262H221.275V204.561C221.275 205.205 221.428 205.7 221.734 206.045C222.04 206.39 222.46 206.562 222.994 206.562ZM231.129 207.9C229.547 207.9 228.297 207.419 227.379 206.455C226.467 205.492 226.012 204.154 226.012 202.441C226.012 200.716 226.435 199.346 227.281 198.33C228.134 197.314 229.277 196.807 230.709 196.807C232.05 196.807 233.111 197.249 233.892 198.135C234.674 199.014 235.064 200.176 235.064 201.621V202.646H227.691C227.724 203.903 228.04 204.857 228.639 205.508C229.244 206.159 230.094 206.484 231.187 206.484C232.34 206.484 233.479 206.243 234.605 205.762V207.207C234.032 207.454 233.489 207.63 232.974 207.734C232.467 207.845 231.851 207.9 231.129 207.9ZM230.689 198.164C229.83 198.164 229.143 198.444 228.629 199.004C228.121 199.564 227.821 200.339 227.73 201.328H233.326C233.326 200.306 233.098 199.525 232.642 198.984C232.187 198.438 231.536 198.164 230.689 198.164ZM245.123 206.27H245.035C244.286 207.357 243.166 207.9 241.676 207.9C240.276 207.9 239.185 207.422 238.404 206.465C237.629 205.508 237.242 204.147 237.242 202.383C237.242 200.618 237.633 199.248 238.414 198.271C239.195 197.295 240.282 196.807 241.676 196.807C243.127 196.807 244.241 197.334 245.015 198.389H245.142L245.074 197.617L245.035 196.865V192.51H246.656V207.705H245.338L245.123 206.27ZM241.881 206.543C242.987 206.543 243.788 206.243 244.283 205.645C244.784 205.039 245.035 204.066 245.035 202.725V202.383C245.035 200.866 244.781 199.785 244.273 199.141C243.772 198.49 242.968 198.164 241.861 198.164C240.911 198.164 240.181 198.535 239.674 199.277C239.172 200.013 238.922 201.055 238.922 202.402C238.922 203.77 239.172 204.801 239.674 205.498C240.175 206.195 240.911 206.543 241.881 206.543ZM263.599 203.906C263.599 205.163 263.144 206.143 262.232 206.846C261.321 207.549 260.084 207.9 258.521 207.9C256.829 207.9 255.527 207.682 254.615 207.246V205.645C255.201 205.892 255.839 206.087 256.529 206.23C257.219 206.374 257.903 206.445 258.58 206.445C259.687 206.445 260.52 206.237 261.08 205.82C261.64 205.397 261.92 204.811 261.92 204.062C261.92 203.568 261.819 203.164 261.617 202.852C261.422 202.533 261.09 202.24 260.621 201.973C260.159 201.706 259.452 201.403 258.502 201.064C257.174 200.589 256.223 200.026 255.65 199.375C255.084 198.724 254.801 197.874 254.801 196.826C254.801 195.726 255.214 194.85 256.041 194.199C256.868 193.548 257.961 193.223 259.322 193.223C260.741 193.223 262.047 193.483 263.238 194.004L262.721 195.449C261.542 194.954 260.396 194.707 259.283 194.707C258.404 194.707 257.717 194.896 257.222 195.273C256.728 195.651 256.48 196.175 256.48 196.846C256.48 197.34 256.571 197.747 256.754 198.066C256.936 198.379 257.242 198.669 257.672 198.936C258.108 199.196 258.772 199.486 259.664 199.805C261.161 200.339 262.19 200.911 262.75 201.523C263.316 202.135 263.599 202.93 263.599 203.906ZM267.896 207.705H266.275V197.002H267.896V207.705ZM266.139 194.102C266.139 193.73 266.23 193.46 266.412 193.291C266.594 193.115 266.822 193.027 267.096 193.027C267.356 193.027 267.581 193.115 267.769 193.291C267.958 193.467 268.053 193.737 268.053 194.102C268.053 194.466 267.958 194.74 267.769 194.922C267.581 195.098 267.356 195.186 267.096 195.186C266.822 195.186 266.594 195.098 266.412 194.922C266.23 194.74 266.139 194.466 266.139 194.102ZM280.094 197.002V198.027L278.111 198.262C278.293 198.49 278.456 198.789 278.599 199.16C278.743 199.525 278.814 199.938 278.814 200.4C278.814 201.449 278.456 202.285 277.74 202.91C277.024 203.535 276.041 203.848 274.791 203.848C274.472 203.848 274.172 203.822 273.892 203.77C273.202 204.134 272.857 204.593 272.857 205.146C272.857 205.439 272.978 205.658 273.219 205.801C273.459 205.938 273.873 206.006 274.459 206.006H276.353C277.512 206.006 278.401 206.25 279.019 206.738C279.644 207.227 279.957 207.936 279.957 208.867C279.957 210.052 279.482 210.954 278.531 211.572C277.581 212.197 276.194 212.51 274.371 212.51C272.971 212.51 271.89 212.249 271.129 211.729C270.374 211.208 269.996 210.472 269.996 209.521C269.996 208.87 270.204 208.307 270.621 207.832C271.038 207.357 271.624 207.035 272.379 206.865C272.105 206.742 271.874 206.549 271.685 206.289C271.503 206.029 271.412 205.726 271.412 205.381C271.412 204.99 271.516 204.648 271.724 204.355C271.933 204.062 272.262 203.779 272.711 203.506C272.157 203.278 271.705 202.891 271.353 202.344C271.008 201.797 270.836 201.172 270.836 200.469C270.836 199.297 271.187 198.395 271.89 197.764C272.594 197.126 273.59 196.807 274.879 196.807C275.439 196.807 275.943 196.872 276.392 197.002H280.094ZM271.558 209.502C271.558 210.081 271.803 210.521 272.291 210.82C272.779 211.12 273.479 211.27 274.39 211.27C275.751 211.27 276.757 211.064 277.408 210.654C278.066 210.251 278.394 209.701 278.394 209.004C278.394 208.424 278.215 208.021 277.857 207.793C277.499 207.572 276.825 207.461 275.836 207.461H273.892C273.157 207.461 272.584 207.637 272.174 207.988C271.764 208.34 271.558 208.844 271.558 209.502ZM272.437 200.43C272.437 201.178 272.649 201.745 273.072 202.129C273.495 202.513 274.084 202.705 274.84 202.705C276.422 202.705 277.213 201.937 277.213 200.4C277.213 198.792 276.412 197.988 274.81 197.988C274.049 197.988 273.463 198.193 273.053 198.604C272.642 199.014 272.437 199.622 272.437 200.43ZM289.615 207.705V200.781C289.615 199.909 289.416 199.258 289.019 198.828C288.622 198.398 288 198.184 287.154 198.184C286.034 198.184 285.214 198.486 284.693 199.092C284.172 199.697 283.912 200.697 283.912 202.09V207.705H282.291V197.002H283.609L283.873 198.467H283.951C284.283 197.939 284.749 197.533 285.347 197.246C285.946 196.953 286.614 196.807 287.349 196.807C288.639 196.807 289.609 197.119 290.26 197.744C290.911 198.363 291.236 199.355 291.236 200.723V207.705H289.615ZM296.099 197.002V203.945C296.099 204.818 296.298 205.469 296.695 205.898C297.092 206.328 297.714 206.543 298.56 206.543C299.68 206.543 300.497 206.237 301.012 205.625C301.532 205.013 301.793 204.014 301.793 202.627V197.002H303.414V207.705H302.076L301.842 206.27H301.754C301.422 206.797 300.959 207.201 300.367 207.48C299.781 207.76 299.111 207.9 298.355 207.9C297.053 207.9 296.077 207.591 295.426 206.973C294.781 206.354 294.459 205.365 294.459 204.004V197.002H296.099ZM311.842 207.9C311.145 207.9 310.507 207.773 309.928 207.52C309.355 207.259 308.873 206.862 308.482 206.328H308.365C308.443 206.953 308.482 207.546 308.482 208.105V212.51H306.861V197.002H308.18L308.404 198.467H308.482C308.899 197.881 309.384 197.458 309.937 197.197C310.491 196.937 311.125 196.807 311.842 196.807C313.261 196.807 314.355 197.292 315.123 198.262C315.898 199.232 316.285 200.592 316.285 202.344C316.285 204.102 315.891 205.469 315.103 206.445C314.322 207.415 313.235 207.9 311.842 207.9ZM311.607 198.184C310.514 198.184 309.722 198.486 309.234 199.092C308.746 199.697 308.495 200.661 308.482 201.982V202.344C308.482 203.848 308.733 204.925 309.234 205.576C309.736 206.221 310.54 206.543 311.646 206.543C312.571 206.543 313.293 206.169 313.814 205.42C314.342 204.671 314.605 203.639 314.605 202.324C314.605 200.99 314.342 199.967 313.814 199.258C313.293 198.542 312.558 198.184 311.607 198.184Z" fill="black"/>
<path d="M178.951 238.705H169.566V237.309L173.326 233.529C174.472 232.37 175.227 231.544 175.592 231.049C175.956 230.554 176.23 230.072 176.412 229.604C176.594 229.135 176.685 228.63 176.685 228.09C176.685 227.328 176.454 226.726 175.992 226.283C175.53 225.834 174.889 225.609 174.068 225.609C173.476 225.609 172.913 225.707 172.379 225.902C171.851 226.098 171.262 226.452 170.611 226.967L169.752 225.863C171.067 224.77 172.499 224.223 174.049 224.223C175.39 224.223 176.441 224.568 177.203 225.258C177.965 225.941 178.346 226.863 178.346 228.021C178.346 228.926 178.092 229.822 177.584 230.707C177.076 231.592 176.125 232.712 174.732 234.066L171.607 237.123V237.201H178.951V238.705ZM187.017 238.705H185.435V228.529C185.435 227.683 185.461 226.882 185.514 226.127C185.377 226.264 185.224 226.407 185.055 226.557C184.885 226.706 184.111 227.341 182.73 228.461L181.871 227.348L185.65 224.428H187.017V238.705ZM193.844 228.686C193.844 229.792 193.964 230.622 194.205 231.176C194.446 231.729 194.836 232.006 195.377 232.006C196.444 232.006 196.978 230.899 196.978 228.686C196.978 226.485 196.444 225.385 195.377 225.385C194.836 225.385 194.446 225.658 194.205 226.205C193.964 226.752 193.844 227.579 193.844 228.686ZM198.316 228.686C198.316 230.17 198.066 231.293 197.564 232.055C197.069 232.81 196.34 233.188 195.377 233.188C194.465 233.188 193.756 232.8 193.248 232.025C192.747 231.251 192.496 230.137 192.496 228.686C192.496 227.208 192.737 226.094 193.219 225.346C193.707 224.597 194.426 224.223 195.377 224.223C196.321 224.223 197.047 224.61 197.555 225.385C198.062 226.16 198.316 227.26 198.316 228.686ZM202.437 234.408C202.437 235.521 202.558 236.355 202.799 236.908C203.04 237.455 203.433 237.729 203.98 237.729C204.527 237.729 204.931 237.458 205.191 236.918C205.452 236.371 205.582 235.535 205.582 234.408C205.582 233.295 205.452 232.471 205.191 231.938C204.931 231.397 204.527 231.127 203.98 231.127C203.433 231.127 203.04 231.397 202.799 231.938C202.558 232.471 202.437 233.295 202.437 234.408ZM206.92 234.408C206.92 235.886 206.669 237.006 206.168 237.768C205.673 238.523 204.944 238.9 203.98 238.9C203.056 238.9 202.343 238.513 201.842 237.738C201.347 236.964 201.099 235.854 201.099 234.408C201.099 232.93 201.34 231.817 201.822 231.068C202.31 230.32 203.03 229.945 203.98 229.945C204.905 229.945 205.624 230.329 206.139 231.098C206.659 231.859 206.92 232.963 206.92 234.408ZM204.4 224.428L196.48 238.705H195.045L202.965 224.428H204.4ZM221.217 225.707C219.648 225.707 218.407 226.231 217.496 227.279C216.591 228.321 216.139 229.75 216.139 231.566C216.139 233.435 216.575 234.88 217.447 235.902C218.326 236.918 219.576 237.426 221.197 237.426C222.193 237.426 223.329 237.247 224.605 236.889V238.344C223.616 238.715 222.395 238.9 220.943 238.9C218.84 238.9 217.216 238.262 216.07 236.986C214.931 235.71 214.361 233.897 214.361 231.547C214.361 230.076 214.635 228.786 215.181 227.68C215.735 226.573 216.529 225.72 217.564 225.121C218.606 224.522 219.83 224.223 221.236 224.223C222.734 224.223 224.042 224.496 225.162 225.043L224.459 226.469C223.378 225.961 222.297 225.707 221.217 225.707ZM229.097 238.705H227.476V223.51H229.097V238.705ZM234.156 238.705H232.535V228.002H234.156V238.705ZM232.398 225.102C232.398 224.73 232.489 224.46 232.672 224.291C232.854 224.115 233.082 224.027 233.355 224.027C233.616 224.027 233.84 224.115 234.029 224.291C234.218 224.467 234.312 224.737 234.312 225.102C234.312 225.466 234.218 225.74 234.029 225.922C233.84 226.098 233.616 226.186 233.355 226.186C233.082 226.186 232.854 226.098 232.672 225.922C232.489 225.74 232.398 225.466 232.398 225.102ZM241.871 238.9C240.321 238.9 239.12 238.425 238.267 237.475C237.421 236.518 236.998 235.167 236.998 233.422C236.998 231.632 237.428 230.248 238.287 229.271C239.153 228.295 240.383 227.807 241.978 227.807C242.493 227.807 243.007 227.862 243.521 227.973C244.036 228.083 244.439 228.214 244.732 228.363L244.234 229.74C243.876 229.597 243.486 229.48 243.062 229.389C242.639 229.291 242.265 229.242 241.939 229.242C239.765 229.242 238.678 230.629 238.678 233.402C238.678 234.717 238.941 235.727 239.469 236.43C240.002 237.133 240.79 237.484 241.832 237.484C242.724 237.484 243.639 237.292 244.576 236.908V238.344C243.86 238.715 242.958 238.9 241.871 238.9ZM248.726 233.227C249.006 232.829 249.433 232.309 250.006 231.664L253.463 228.002H255.387L251.051 232.562L255.689 238.705H253.726L249.947 233.646L248.726 234.701V238.705H247.125V223.51H248.726V231.566C248.726 231.924 248.7 232.478 248.648 233.227H248.726ZM262.154 238.9C260.572 238.9 259.322 238.419 258.404 237.455C257.493 236.492 257.037 235.154 257.037 233.441C257.037 231.716 257.46 230.346 258.306 229.33C259.159 228.314 260.302 227.807 261.734 227.807C263.075 227.807 264.137 228.249 264.918 229.135C265.699 230.014 266.09 231.176 266.09 232.621V233.646H258.717C258.749 234.903 259.065 235.857 259.664 236.508C260.269 237.159 261.119 237.484 262.213 237.484C263.365 237.484 264.504 237.243 265.631 236.762V238.207C265.058 238.454 264.514 238.63 264 238.734C263.492 238.845 262.877 238.9 262.154 238.9ZM261.715 229.164C260.855 229.164 260.168 229.444 259.654 230.004C259.146 230.564 258.847 231.339 258.756 232.328H264.351C264.351 231.306 264.124 230.525 263.668 229.984C263.212 229.438 262.561 229.164 261.715 229.164ZM276.148 237.27H276.06C275.312 238.357 274.192 238.9 272.701 238.9C271.301 238.9 270.211 238.422 269.43 237.465C268.655 236.508 268.267 235.147 268.267 233.383C268.267 231.618 268.658 230.248 269.439 229.271C270.221 228.295 271.308 227.807 272.701 227.807C274.153 227.807 275.266 228.334 276.041 229.389H276.168L276.099 228.617L276.06 227.865V223.51H277.681V238.705H276.363L276.148 237.27ZM272.906 237.543C274.013 237.543 274.814 237.243 275.308 236.645C275.81 236.039 276.06 235.066 276.06 233.725V233.383C276.06 231.866 275.806 230.785 275.299 230.141C274.797 229.49 273.993 229.164 272.887 229.164C271.936 229.164 271.207 229.535 270.699 230.277C270.198 231.013 269.947 232.055 269.947 233.402C269.947 234.77 270.198 235.801 270.699 236.498C271.2 237.195 271.936 237.543 272.906 237.543Z" fill="black"/>
<path d="M136.197 263.602C136.197 260.796 136.741 258.699 137.828 257.312C138.922 255.919 140.536 255.223 142.672 255.223C143.407 255.223 143.987 255.285 144.41 255.408V256.805C143.909 256.642 143.336 256.561 142.691 256.561C141.161 256.561 139.993 257.039 139.185 257.996C138.378 258.947 137.935 260.444 137.857 262.488H137.974C138.691 261.368 139.823 260.809 141.373 260.809C142.655 260.809 143.665 261.196 144.4 261.971C145.142 262.745 145.514 263.797 145.514 265.125C145.514 266.609 145.107 267.778 144.293 268.631C143.486 269.477 142.392 269.9 141.012 269.9C139.534 269.9 138.362 269.347 137.496 268.24C136.63 267.127 136.197 265.581 136.197 263.602ZM140.992 268.523C141.916 268.523 142.633 268.234 143.14 267.654C143.655 267.068 143.912 266.225 143.912 265.125C143.912 264.181 143.674 263.439 143.199 262.898C142.724 262.358 142.014 262.088 141.07 262.088C140.484 262.088 139.947 262.208 139.459 262.449C138.971 262.69 138.58 263.022 138.287 263.445C138 263.868 137.857 264.308 137.857 264.764C137.857 265.434 137.987 266.059 138.248 266.639C138.508 267.218 138.876 267.677 139.351 268.016C139.833 268.354 140.38 268.523 140.992 268.523ZM152.203 255.223C153.505 255.223 154.537 255.525 155.299 256.131C156.06 256.736 156.441 257.573 156.441 258.641C156.441 259.344 156.223 259.985 155.787 260.564C155.351 261.144 154.654 261.671 153.697 262.146C154.856 262.7 155.68 263.283 156.168 263.895C156.656 264.5 156.9 265.203 156.9 266.004C156.9 267.189 156.487 268.136 155.66 268.846C154.833 269.549 153.7 269.9 152.262 269.9C150.738 269.9 149.566 269.568 148.746 268.904C147.926 268.234 147.515 267.286 147.515 266.062C147.515 264.428 148.512 263.156 150.504 262.244C149.605 261.736 148.961 261.189 148.57 260.604C148.18 260.011 147.984 259.35 147.984 258.621C147.984 257.586 148.365 256.762 149.127 256.15C149.895 255.532 150.92 255.223 152.203 255.223ZM149.117 266.102C149.117 266.883 149.387 267.492 149.928 267.928C150.474 268.364 151.239 268.582 152.222 268.582C153.193 268.582 153.948 268.354 154.488 267.898C155.028 267.443 155.299 266.818 155.299 266.023C155.299 265.392 155.045 264.832 154.537 264.344C154.029 263.849 153.144 263.37 151.881 262.908C150.911 263.325 150.208 263.787 149.771 264.295C149.335 264.796 149.117 265.398 149.117 266.102ZM152.183 256.541C151.37 256.541 150.732 256.736 150.269 257.127C149.807 257.518 149.576 258.038 149.576 258.689C149.576 259.288 149.768 259.803 150.152 260.232C150.536 260.662 151.246 261.092 152.281 261.521C153.212 261.131 153.87 260.711 154.254 260.262C154.644 259.812 154.84 259.288 154.84 258.689C154.84 258.032 154.602 257.511 154.127 257.127C153.658 256.736 153.01 256.541 152.183 256.541ZM160.308 259.686C160.308 260.792 160.429 261.622 160.67 262.176C160.911 262.729 161.301 263.006 161.842 263.006C162.909 263.006 163.443 261.899 163.443 259.686C163.443 257.485 162.909 256.385 161.842 256.385C161.301 256.385 160.911 256.658 160.67 257.205C160.429 257.752 160.308 258.579 160.308 259.686ZM164.781 259.686C164.781 261.17 164.53 262.293 164.029 263.055C163.534 263.81 162.805 264.188 161.842 264.188C160.93 264.188 160.221 263.8 159.713 263.025C159.211 262.251 158.961 261.137 158.961 259.686C158.961 258.208 159.202 257.094 159.683 256.346C160.172 255.597 160.891 255.223 161.842 255.223C162.786 255.223 163.512 255.61 164.019 256.385C164.527 257.16 164.781 258.26 164.781 259.686ZM168.902 265.408C168.902 266.521 169.023 267.355 169.264 267.908C169.504 268.455 169.898 268.729 170.445 268.729C170.992 268.729 171.396 268.458 171.656 267.918C171.916 267.371 172.047 266.535 172.047 265.408C172.047 264.295 171.916 263.471 171.656 262.938C171.396 262.397 170.992 262.127 170.445 262.127C169.898 262.127 169.504 262.397 169.264 262.938C169.023 263.471 168.902 264.295 168.902 265.408ZM173.385 265.408C173.385 266.886 173.134 268.006 172.633 268.768C172.138 269.523 171.409 269.9 170.445 269.9C169.521 269.9 168.808 269.513 168.306 268.738C167.812 267.964 167.564 266.854 167.564 265.408C167.564 263.93 167.805 262.817 168.287 262.068C168.775 261.32 169.495 260.945 170.445 260.945C171.37 260.945 172.089 261.329 172.603 262.098C173.124 262.859 173.385 263.963 173.385 265.408ZM170.865 255.428L162.945 269.705H161.51L169.43 255.428H170.865ZM192.721 269.705H190.826L183.023 257.723H182.945C183.049 259.129 183.101 260.418 183.101 261.59V269.705H181.568V255.428H183.443L191.226 267.361H191.305C191.291 267.186 191.262 266.622 191.217 265.672C191.171 264.715 191.155 264.031 191.168 263.621V255.428H192.721V269.705ZM205.64 264.344C205.64 266.089 205.201 267.452 204.322 268.436C203.443 269.412 202.229 269.9 200.68 269.9C199.722 269.9 198.873 269.676 198.131 269.227C197.389 268.777 196.816 268.133 196.412 267.293C196.008 266.453 195.806 265.47 195.806 264.344C195.806 262.599 196.243 261.242 197.115 260.271C197.987 259.295 199.198 258.807 200.748 258.807C202.245 258.807 203.433 259.305 204.312 260.301C205.198 261.297 205.64 262.645 205.64 264.344ZM197.486 264.344C197.486 265.711 197.76 266.753 198.306 267.469C198.853 268.185 199.657 268.543 200.719 268.543C201.78 268.543 202.584 268.188 203.131 267.479C203.684 266.762 203.961 265.717 203.961 264.344C203.961 262.983 203.684 261.951 203.131 261.248C202.584 260.538 201.773 260.184 200.699 260.184C199.638 260.184 198.837 260.532 198.297 261.229C197.756 261.925 197.486 262.964 197.486 264.344ZM215.308 269.705H213.687V259.002H215.308V269.705ZM213.551 256.102C213.551 255.73 213.642 255.46 213.824 255.291C214.006 255.115 214.234 255.027 214.508 255.027C214.768 255.027 214.993 255.115 215.181 255.291C215.37 255.467 215.465 255.737 215.465 256.102C215.465 256.466 215.37 256.74 215.181 256.922C214.993 257.098 214.768 257.186 214.508 257.186C214.234 257.186 214.006 257.098 213.824 256.922C213.642 256.74 213.551 256.466 213.551 256.102ZM226.07 269.705V262.781C226.07 261.909 225.872 261.258 225.474 260.828C225.077 260.398 224.456 260.184 223.609 260.184C222.489 260.184 221.669 260.486 221.148 261.092C220.627 261.697 220.367 262.697 220.367 264.09V269.705H218.746V259.002H220.064L220.328 260.467H220.406C220.738 259.939 221.204 259.533 221.803 259.246C222.402 258.953 223.069 258.807 223.805 258.807C225.094 258.807 226.064 259.119 226.715 259.744C227.366 260.363 227.691 261.355 227.691 262.723V269.705H226.07ZM234.488 268.562C234.775 268.562 235.051 268.543 235.318 268.504C235.585 268.458 235.797 268.413 235.953 268.367V269.607C235.777 269.692 235.517 269.76 235.172 269.812C234.833 269.871 234.527 269.9 234.254 269.9C232.183 269.9 231.148 268.81 231.148 266.629V260.262H229.615V259.48L231.148 258.807L231.832 256.521H232.769V259.002H235.875V260.262H232.769V266.561C232.769 267.205 232.922 267.7 233.228 268.045C233.534 268.39 233.954 268.562 234.488 268.562ZM242.623 269.9C241.041 269.9 239.791 269.419 238.873 268.455C237.961 267.492 237.506 266.154 237.506 264.441C237.506 262.716 237.929 261.346 238.775 260.33C239.628 259.314 240.771 258.807 242.203 258.807C243.544 258.807 244.605 259.249 245.387 260.135C246.168 261.014 246.558 262.176 246.558 263.621V264.646H239.185C239.218 265.903 239.534 266.857 240.133 267.508C240.738 268.159 241.588 268.484 242.681 268.484C243.834 268.484 244.973 268.243 246.099 267.762V269.207C245.527 269.454 244.983 269.63 244.469 269.734C243.961 269.845 243.346 269.9 242.623 269.9ZM242.183 260.164C241.324 260.164 240.637 260.444 240.123 261.004C239.615 261.564 239.316 262.339 239.224 263.328H244.82C244.82 262.306 244.592 261.525 244.137 260.984C243.681 260.438 243.03 260.164 242.183 260.164ZM254.215 258.807C254.69 258.807 255.116 258.846 255.494 258.924L255.269 260.428C254.827 260.33 254.436 260.281 254.097 260.281C253.232 260.281 252.489 260.633 251.871 261.336C251.259 262.039 250.953 262.915 250.953 263.963V269.705H249.332V259.002H250.67L250.855 260.984H250.933C251.331 260.288 251.809 259.751 252.369 259.373C252.929 258.995 253.544 258.807 254.215 258.807ZM264.078 269.705L263.756 268.182H263.678C263.144 268.852 262.61 269.308 262.076 269.549C261.549 269.783 260.888 269.9 260.094 269.9C259.032 269.9 258.199 269.627 257.594 269.08C256.995 268.533 256.695 267.755 256.695 266.746C256.695 264.585 258.424 263.452 261.881 263.348L263.697 263.289V262.625C263.697 261.785 263.515 261.167 263.15 260.77C262.792 260.366 262.216 260.164 261.422 260.164C260.53 260.164 259.521 260.438 258.394 260.984L257.896 259.744C258.424 259.458 259 259.233 259.625 259.07C260.256 258.908 260.888 258.826 261.519 258.826C262.795 258.826 263.739 259.109 264.351 259.676C264.97 260.242 265.279 261.15 265.279 262.4V269.705H264.078ZM260.416 268.562C261.425 268.562 262.216 268.286 262.789 267.732C263.368 267.179 263.658 266.404 263.658 265.408V264.441L262.037 264.51C260.748 264.555 259.817 264.757 259.244 265.115C258.678 265.467 258.394 266.017 258.394 266.766C258.394 267.352 258.57 267.798 258.922 268.104C259.28 268.41 259.778 268.562 260.416 268.562ZM272.906 269.9C271.357 269.9 270.155 269.425 269.303 268.475C268.456 267.518 268.033 266.167 268.033 264.422C268.033 262.632 268.463 261.248 269.322 260.271C270.188 259.295 271.418 258.807 273.014 258.807C273.528 258.807 274.042 258.862 274.556 258.973C275.071 259.083 275.474 259.214 275.767 259.363L275.269 260.74C274.911 260.597 274.521 260.48 274.097 260.389C273.674 260.291 273.3 260.242 272.974 260.242C270.8 260.242 269.713 261.629 269.713 264.402C269.713 265.717 269.976 266.727 270.504 267.43C271.038 268.133 271.825 268.484 272.867 268.484C273.759 268.484 274.674 268.292 275.611 267.908V269.344C274.895 269.715 273.993 269.9 272.906 269.9ZM281.617 268.562C281.903 268.562 282.18 268.543 282.447 268.504C282.714 268.458 282.926 268.413 283.082 268.367V269.607C282.906 269.692 282.646 269.76 282.301 269.812C281.962 269.871 281.656 269.9 281.383 269.9C279.312 269.9 278.277 268.81 278.277 266.629V260.262H276.744V259.48L278.277 258.807L278.961 256.521H279.898V259.002H283.004V260.262H279.898V266.561C279.898 267.205 280.051 267.7 280.357 268.045C280.663 268.39 281.083 268.562 281.617 268.562ZM286.851 269.705H285.23V259.002H286.851V269.705ZM285.094 256.102C285.094 255.73 285.185 255.46 285.367 255.291C285.549 255.115 285.777 255.027 286.051 255.027C286.311 255.027 286.536 255.115 286.724 255.291C286.913 255.467 287.008 255.737 287.008 256.102C287.008 256.466 286.913 256.74 286.724 256.922C286.536 257.098 286.311 257.186 286.051 257.186C285.777 257.186 285.549 257.098 285.367 256.922C285.185 256.74 285.094 256.466 285.094 256.102ZM299.527 264.344C299.527 266.089 299.088 267.452 298.209 268.436C297.33 269.412 296.116 269.9 294.566 269.9C293.609 269.9 292.76 269.676 292.017 269.227C291.275 268.777 290.702 268.133 290.299 267.293C289.895 266.453 289.693 265.47 289.693 264.344C289.693 262.599 290.129 261.242 291.002 260.271C291.874 259.295 293.085 258.807 294.635 258.807C296.132 258.807 297.32 259.305 298.199 260.301C299.084 261.297 299.527 262.645 299.527 264.344ZM291.373 264.344C291.373 265.711 291.646 266.753 292.193 267.469C292.74 268.185 293.544 268.543 294.605 268.543C295.666 268.543 296.471 268.188 297.017 267.479C297.571 266.762 297.847 265.717 297.847 264.344C297.847 262.983 297.571 261.951 297.017 261.248C296.471 260.538 295.66 260.184 294.586 260.184C293.525 260.184 292.724 260.532 292.183 261.229C291.643 261.925 291.373 262.964 291.373 264.344ZM309.703 269.705V262.781C309.703 261.909 309.504 261.258 309.107 260.828C308.71 260.398 308.088 260.184 307.242 260.184C306.122 260.184 305.302 260.486 304.781 261.092C304.26 261.697 304 262.697 304 264.09V269.705H302.379V259.002H303.697L303.961 260.467H304.039C304.371 259.939 304.836 259.533 305.435 259.246C306.034 258.953 306.702 258.807 307.437 258.807C308.726 258.807 309.696 259.119 310.347 259.744C310.999 260.363 311.324 261.355 311.324 262.723V269.705H309.703Z" fill="black"/>
</svg>
