<svg width="448" height="432" viewBox="0 0 448 432" fill="none" xmlns="http://www.w3.org/2000/svg">
<path d="M438.308 238.28C434.093 278.193 418.815 316.136 394.196 347.833L224 215.646L438.308 238.28Z" fill="#D32F2F"/>
<path d="M387.029 356.578C358.778 389.258 321.357 412.694 279.623 423.844C237.888 434.994 193.765 433.344 152.98 419.107C112.194 404.87 76.6291 378.705 50.8985 344.005C25.1678 309.306 10.4597 267.674 8.68246 224.512L224 215.646L387.029 356.578Z" fill="#D0D0D1"/>
<path d="M8.5 215.646C8.5 186.776 14.3007 158.201 25.5578 131.617C36.8149 105.032 53.2988 80.9805 74.0308 60.8898C94.7628 40.799 119.32 25.0788 146.245 14.6623C173.17 4.24582 201.914 -0.654482 230.769 0.252332C259.624 1.15915 288.003 7.85459 314.221 19.9411C340.439 32.0277 363.961 49.2589 383.39 70.6118C402.82 91.9646 417.761 117.004 427.327 144.243C436.892 171.481 440.887 200.365 439.075 229.177L224 215.646L8.5 215.646Z" fill="#1F74FE"/>
<rect x="25.5049" y="17.1531" width="396.99" height="396.99" rx="198.495" fill="#F0F0F0"/>
<path d="M169.303 183.232C170.741 183.232 171.881 183.613 172.721 184.375C173.56 185.136 173.98 186.175 173.98 187.49C173.98 189.013 173.502 190.205 172.545 191.064C171.594 191.917 170.24 192.343 168.482 192.343C166.887 192.343 165.634 192.086 164.722 191.572V189.492C165.25 189.791 165.855 190.022 166.539 190.185C167.222 190.348 167.857 190.429 168.443 190.429C169.478 190.429 170.266 190.198 170.806 189.736C171.347 189.274 171.617 188.597 171.617 187.705C171.617 185.999 170.53 185.146 168.355 185.146C168.049 185.146 167.672 185.179 167.222 185.244C166.773 185.302 166.379 185.371 166.041 185.449L165.015 184.843L165.562 177.871H172.984V179.912H167.584L167.262 183.447C167.489 183.408 167.766 183.362 168.092 183.31C168.424 183.258 168.827 183.232 169.303 183.232ZM185.562 192.148H175.885V190.41L179.566 186.708C180.653 185.595 181.373 184.807 181.724 184.345C182.083 183.876 182.343 183.437 182.506 183.027C182.668 182.617 182.75 182.177 182.75 181.708C182.75 181.064 182.555 180.556 182.164 180.185C181.78 179.814 181.246 179.628 180.562 179.628C180.015 179.628 179.485 179.729 178.971 179.931C178.463 180.133 177.874 180.498 177.203 181.025L175.963 179.511C176.757 178.841 177.528 178.365 178.277 178.085C179.026 177.806 179.823 177.666 180.67 177.666C181.998 177.666 183.062 178.014 183.863 178.71C184.664 179.401 185.064 180.332 185.064 181.503C185.064 182.148 184.947 182.76 184.713 183.339C184.485 183.919 184.13 184.518 183.648 185.136C183.173 185.748 182.379 186.578 181.265 187.626L178.785 190.029V190.126H185.562V192.148ZM189.156 182.148C189.156 183.118 189.25 183.841 189.439 184.316C189.628 184.791 189.937 185.029 190.367 185.029C191.226 185.029 191.656 184.069 191.656 182.148C191.656 180.227 191.226 179.267 190.367 179.267C189.937 179.267 189.628 179.505 189.439 179.98C189.25 180.455 189.156 181.178 189.156 182.148ZM193.551 182.128C193.551 183.626 193.28 184.752 192.74 185.507C192.206 186.256 191.415 186.63 190.367 186.63C189.377 186.63 188.609 186.243 188.062 185.468C187.522 184.687 187.252 183.574 187.252 182.128C187.252 179.153 188.29 177.666 190.367 177.666C191.389 177.666 192.174 178.053 192.721 178.828C193.274 179.596 193.551 180.696 193.551 182.128ZM198.453 187.851C198.453 188.821 198.547 189.547 198.736 190.029C198.931 190.511 199.244 190.751 199.674 190.751C200.527 190.751 200.953 189.785 200.953 187.851C200.953 185.944 200.527 184.99 199.674 184.99C199.244 184.99 198.931 185.224 198.736 185.693C198.547 186.162 198.453 186.881 198.453 187.851ZM202.847 187.851C202.847 189.348 202.577 190.472 202.037 191.22C201.497 191.969 200.709 192.343 199.674 192.343C198.684 192.343 197.916 191.959 197.369 191.191C196.822 190.416 196.549 189.303 196.549 187.851C196.549 184.876 197.59 183.388 199.674 183.388C200.676 183.388 201.454 183.772 202.008 184.541C202.568 185.309 202.847 186.412 202.847 187.851ZM199.947 177.871L192.027 192.148H190.133L198.053 177.871H199.947ZM220.211 182.187C220.211 183.678 219.722 184.82 218.746 185.615C217.769 186.409 216.379 186.806 214.576 186.806H213.092V192.148H210.758V177.871H214.869C216.653 177.871 217.987 178.235 218.873 178.964C219.765 179.694 220.211 180.768 220.211 182.187ZM213.092 184.843H214.332C215.53 184.843 216.409 184.635 216.969 184.218C217.528 183.802 217.808 183.151 217.808 182.265C217.808 181.445 217.558 180.833 217.056 180.429C216.555 180.026 215.774 179.824 214.713 179.824H213.092V184.843ZM232.398 186.728C232.398 188.492 231.946 189.869 231.041 190.859C230.136 191.848 228.876 192.343 227.262 192.343C226.252 192.343 225.361 192.115 224.586 191.66C223.811 191.204 223.215 190.55 222.799 189.697C222.382 188.844 222.174 187.854 222.174 186.728C222.174 184.977 222.623 183.61 223.521 182.626C224.42 181.643 225.686 181.152 227.32 181.152C228.883 181.152 230.12 181.656 231.031 182.666C231.943 183.668 232.398 185.022 232.398 186.728ZM224.537 186.728C224.537 189.222 225.458 190.468 227.301 190.468C229.124 190.468 230.035 189.222 230.035 186.728C230.035 184.261 229.117 183.027 227.281 183.027C226.318 183.027 225.618 183.346 225.181 183.984C224.752 184.622 224.537 185.537 224.537 186.728ZM242.301 189.072C242.301 190.126 241.916 190.937 241.148 191.503C240.38 192.063 239.28 192.343 237.847 192.343C236.409 192.343 235.253 192.125 234.381 191.689V189.707C235.65 190.292 236.832 190.585 237.926 190.585C239.338 190.585 240.045 190.159 240.045 189.306C240.045 189.033 239.967 188.805 239.81 188.623C239.654 188.44 239.397 188.251 239.039 188.056C238.681 187.861 238.183 187.639 237.545 187.392C236.301 186.91 235.458 186.429 235.015 185.947C234.579 185.465 234.361 184.84 234.361 184.072C234.361 183.147 234.732 182.431 235.474 181.923C236.223 181.409 237.239 181.152 238.521 181.152C239.791 181.152 240.992 181.409 242.125 181.923L241.383 183.652C240.217 183.17 239.237 182.929 238.443 182.929C237.232 182.929 236.627 183.274 236.627 183.964C236.627 184.303 236.783 184.589 237.096 184.824C237.415 185.058 238.105 185.38 239.166 185.791C240.058 186.136 240.706 186.451 241.109 186.738C241.513 187.024 241.812 187.356 242.008 187.734C242.203 188.105 242.301 188.551 242.301 189.072ZM247.086 192.148H244.791V181.347H247.086V192.148ZM244.654 178.486C244.654 178.076 244.765 177.76 244.986 177.539C245.214 177.317 245.536 177.207 245.953 177.207C246.357 177.207 246.669 177.317 246.89 177.539C247.118 177.76 247.232 178.076 247.232 178.486C247.232 178.876 247.118 179.186 246.89 179.414C246.669 179.635 246.357 179.746 245.953 179.746C245.536 179.746 245.214 179.635 244.986 179.414C244.765 179.186 244.654 178.876 244.654 178.486ZM254.4 190.488C254.96 190.488 255.52 190.4 256.08 190.224V191.953C255.826 192.063 255.497 192.154 255.094 192.226C254.696 192.304 254.283 192.343 253.853 192.343C251.679 192.343 250.592 191.197 250.592 188.906V183.085H249.117V182.07L250.699 181.23L251.48 178.945H252.896V181.347H255.972V183.085H252.896V188.867C252.896 189.42 253.033 189.83 253.306 190.097C253.586 190.358 253.951 190.488 254.4 190.488ZM260.543 192.148H258.248V181.347H260.543V192.148ZM258.111 178.486C258.111 178.076 258.222 177.76 258.443 177.539C258.671 177.317 258.993 177.207 259.41 177.207C259.814 177.207 260.126 177.317 260.347 177.539C260.575 177.76 260.689 178.076 260.689 178.486C260.689 178.876 260.575 179.186 260.347 179.414C260.126 179.635 259.814 179.746 259.41 179.746C258.993 179.746 258.671 179.635 258.443 179.414C258.222 179.186 258.111 178.876 258.111 178.486ZM266.295 192.148L262.193 181.347H264.615L266.812 187.626C267.19 188.681 267.418 189.534 267.496 190.185H267.574C267.633 189.716 267.861 188.863 268.258 187.626L270.455 181.347H272.896L268.775 192.148H266.295ZM279.254 192.343C277.574 192.343 276.259 191.855 275.308 190.878C274.364 189.895 273.892 188.544 273.892 186.826C273.892 185.061 274.332 183.675 275.211 182.666C276.09 181.656 277.297 181.152 278.834 181.152C280.26 181.152 281.386 181.585 282.213 182.451C283.04 183.317 283.453 184.508 283.453 186.025V187.265H276.256C276.288 188.313 276.571 189.121 277.105 189.687C277.639 190.247 278.391 190.527 279.361 190.527C279.999 190.527 280.592 190.468 281.139 190.351C281.692 190.227 282.284 190.026 282.916 189.746V191.611C282.356 191.878 281.79 192.067 281.217 192.177C280.644 192.288 279.989 192.343 279.254 192.343ZM278.834 182.89C278.105 182.89 277.519 183.121 277.076 183.583C276.64 184.046 276.379 184.72 276.295 185.605H281.197C281.184 184.713 280.969 184.039 280.553 183.583C280.136 183.121 279.563 182.89 278.834 182.89Z" fill="black"/>
<path d="M176.539 212.23C176.539 213.141 176.282 213.887 175.767 214.466C175.26 215.046 174.537 215.433 173.599 215.628V215.707C174.745 215.85 175.595 216.214 176.148 216.8C176.702 217.386 176.978 218.154 176.978 219.105C176.978 220.466 176.506 221.514 175.562 222.25C174.618 222.979 173.277 223.343 171.539 223.343C170.784 223.343 170.09 223.285 169.459 223.167C168.834 223.057 168.225 222.858 167.633 222.572V221.029C168.251 221.335 168.909 221.569 169.605 221.732C170.308 221.888 170.972 221.966 171.597 221.966C174.065 221.966 175.299 221 175.299 219.066C175.299 217.334 173.938 216.468 171.217 216.468H169.81V215.072H171.236C172.349 215.072 173.232 214.828 173.883 214.339C174.534 213.845 174.859 213.161 174.859 212.289C174.859 211.592 174.618 211.045 174.137 210.648C173.661 210.251 173.014 210.052 172.193 210.052C171.568 210.052 170.979 210.137 170.426 210.306C169.872 210.475 169.241 210.788 168.531 211.244L167.711 210.15C168.297 209.688 168.971 209.326 169.732 209.066C170.5 208.799 171.308 208.666 172.154 208.666C173.541 208.666 174.618 208.985 175.387 209.623C176.155 210.254 176.539 211.123 176.539 212.23ZM183.863 208.666C185.165 208.666 186.197 208.968 186.959 209.574C187.721 210.179 188.101 211.016 188.101 212.083C188.101 212.787 187.883 213.428 187.447 214.007C187.011 214.587 186.314 215.114 185.357 215.589C186.516 216.143 187.34 216.725 187.828 217.337C188.316 217.943 188.56 218.646 188.56 219.447C188.56 220.632 188.147 221.579 187.32 222.289C186.493 222.992 185.361 223.343 183.922 223.343C182.398 223.343 181.226 223.011 180.406 222.347C179.586 221.677 179.176 220.729 179.176 219.505C179.176 217.871 180.172 216.598 182.164 215.687C181.265 215.179 180.621 214.632 180.23 214.046C179.84 213.454 179.644 212.793 179.644 212.064C179.644 211.029 180.025 210.205 180.787 209.593C181.555 208.975 182.581 208.666 183.863 208.666ZM180.777 219.544C180.777 220.326 181.047 220.934 181.588 221.371C182.135 221.807 182.9 222.025 183.883 222.025C184.853 222.025 185.608 221.797 186.148 221.341C186.689 220.886 186.959 220.261 186.959 219.466C186.959 218.835 186.705 218.275 186.197 217.787C185.689 217.292 184.804 216.813 183.541 216.351C182.571 216.768 181.868 217.23 181.431 217.738C180.995 218.239 180.777 218.841 180.777 219.544ZM183.844 209.984C183.03 209.984 182.392 210.179 181.93 210.57C181.467 210.96 181.236 211.481 181.236 212.132C181.236 212.731 181.428 213.246 181.812 213.675C182.196 214.105 182.906 214.535 183.941 214.964C184.872 214.574 185.53 214.154 185.914 213.705C186.305 213.255 186.5 212.731 186.5 212.132C186.5 211.475 186.262 210.954 185.787 210.57C185.318 210.179 184.67 209.984 183.844 209.984ZM191.969 213.128C191.969 214.235 192.089 215.065 192.33 215.619C192.571 216.172 192.961 216.449 193.502 216.449C194.569 216.449 195.103 215.342 195.103 213.128C195.103 210.928 194.569 209.828 193.502 209.828C192.961 209.828 192.571 210.101 192.33 210.648C192.089 211.195 191.969 212.022 191.969 213.128ZM196.441 213.128C196.441 214.613 196.191 215.736 195.689 216.498C195.194 217.253 194.465 217.63 193.502 217.63C192.59 217.63 191.881 217.243 191.373 216.468C190.872 215.694 190.621 214.58 190.621 213.128C190.621 211.651 190.862 210.537 191.344 209.789C191.832 209.04 192.551 208.666 193.502 208.666C194.446 208.666 195.172 209.053 195.68 209.828C196.187 210.602 196.441 211.703 196.441 213.128ZM200.562 218.851C200.562 219.964 200.683 220.798 200.924 221.351C201.165 221.898 201.558 222.171 202.105 222.171C202.652 222.171 203.056 221.901 203.316 221.361C203.577 220.814 203.707 219.977 203.707 218.851C203.707 217.738 203.577 216.914 203.316 216.38C203.056 215.84 202.652 215.57 202.105 215.57C201.558 215.57 201.165 215.84 200.924 216.38C200.683 216.914 200.562 217.738 200.562 218.851ZM205.045 218.851C205.045 220.329 204.794 221.449 204.293 222.21C203.798 222.966 203.069 223.343 202.105 223.343C201.181 223.343 200.468 222.956 199.967 222.181C199.472 221.406 199.224 220.296 199.224 218.851C199.224 217.373 199.465 216.26 199.947 215.511C200.435 214.763 201.155 214.388 202.105 214.388C203.03 214.388 203.749 214.772 204.264 215.541C204.784 216.302 205.045 217.406 205.045 218.851ZM202.525 208.871L194.605 223.148H193.17L201.09 208.871H202.525ZM224.381 223.148H222.486L214.683 211.166H214.605C214.709 212.572 214.762 213.861 214.762 215.033V223.148H213.228V208.871H215.103L222.887 220.804H222.965C222.952 220.628 222.922 220.065 222.877 219.115C222.831 218.158 222.815 217.474 222.828 217.064V208.871H224.381V223.148ZM232.584 223.343C231.002 223.343 229.752 222.861 228.834 221.898C227.922 220.934 227.467 219.597 227.467 217.884C227.467 216.159 227.89 214.789 228.736 213.773C229.589 212.757 230.732 212.25 232.164 212.25C233.505 212.25 234.566 212.692 235.347 213.578C236.129 214.457 236.519 215.619 236.519 217.064V218.089H229.146C229.179 219.346 229.495 220.3 230.094 220.951C230.699 221.602 231.549 221.927 232.642 221.927C233.795 221.927 234.934 221.686 236.06 221.205V222.65C235.487 222.897 234.944 223.073 234.43 223.177C233.922 223.288 233.306 223.343 232.584 223.343ZM232.144 213.607C231.285 213.607 230.598 213.887 230.084 214.447C229.576 215.007 229.277 215.781 229.185 216.771H234.781C234.781 215.749 234.553 214.968 234.097 214.427C233.642 213.88 232.991 213.607 232.144 213.607ZM240.816 212.445V219.388C240.816 220.261 241.015 220.912 241.412 221.341C241.809 221.771 242.431 221.986 243.277 221.986C244.397 221.986 245.214 221.68 245.728 221.068C246.249 220.456 246.51 219.457 246.51 218.07V212.445H248.131V223.148H246.793L246.558 221.712H246.471C246.139 222.24 245.676 222.643 245.084 222.923C244.498 223.203 243.827 223.343 243.072 223.343C241.77 223.343 240.793 223.034 240.142 222.416C239.498 221.797 239.176 220.807 239.176 219.447V212.445H240.816ZM255.035 222.005C255.321 222.005 255.598 221.986 255.865 221.947C256.132 221.901 256.344 221.856 256.5 221.81V223.05C256.324 223.135 256.064 223.203 255.719 223.255C255.38 223.314 255.074 223.343 254.801 223.343C252.73 223.343 251.695 222.253 251.695 220.072V213.705H250.162V212.923L251.695 212.25L252.379 209.964H253.316V212.445H256.422V213.705H253.316V220.003C253.316 220.648 253.469 221.143 253.775 221.488C254.081 221.833 254.501 222.005 255.035 222.005ZM263.531 212.25C264.006 212.25 264.433 212.289 264.81 212.367L264.586 213.871C264.143 213.773 263.752 213.724 263.414 213.724C262.548 213.724 261.806 214.076 261.187 214.779C260.575 215.482 260.269 216.358 260.269 217.406V223.148H258.648V212.445H259.986L260.172 214.427H260.25C260.647 213.731 261.125 213.194 261.685 212.816C262.245 212.438 262.861 212.25 263.531 212.25ZM273.394 223.148L273.072 221.625H272.994C272.46 222.295 271.926 222.751 271.392 222.992C270.865 223.226 270.204 223.343 269.41 223.343C268.349 223.343 267.515 223.07 266.91 222.523C266.311 221.976 266.012 221.198 266.012 220.189C266.012 218.028 267.74 216.895 271.197 216.791L273.014 216.732V216.068C273.014 215.228 272.831 214.61 272.467 214.212C272.109 213.809 271.532 213.607 270.738 213.607C269.846 213.607 268.837 213.88 267.711 214.427L267.213 213.187C267.74 212.901 268.316 212.676 268.941 212.513C269.573 212.35 270.204 212.269 270.836 212.269C272.112 212.269 273.056 212.552 273.668 213.119C274.286 213.685 274.596 214.593 274.596 215.843V223.148H273.394ZM269.732 222.005C270.741 222.005 271.532 221.729 272.105 221.175C272.685 220.622 272.974 219.847 272.974 218.851V217.884L271.353 217.953C270.064 217.998 269.133 218.2 268.56 218.558C267.994 218.91 267.711 219.46 267.711 220.208C267.711 220.794 267.887 221.24 268.238 221.546C268.596 221.852 269.094 222.005 269.732 222.005ZM279.566 223.148H277.945V207.953H279.566V223.148Z" fill="black"/>
<path d="M167.818 254.148H166.236V243.972C166.236 243.126 166.262 242.325 166.314 241.57C166.178 241.707 166.025 241.85 165.855 242C165.686 242.149 164.911 242.784 163.531 243.904L162.672 242.791L166.451 239.871H167.818V254.148ZM182.721 246.99C182.721 249.457 182.33 251.3 181.549 252.517C180.774 253.735 179.586 254.343 177.984 254.343C176.448 254.343 175.279 253.722 174.478 252.478C173.678 251.228 173.277 249.399 173.277 246.99C173.277 244.503 173.665 242.657 174.439 241.453C175.214 240.248 176.396 239.646 177.984 239.646C179.534 239.646 180.709 240.274 181.51 241.531C182.317 242.787 182.721 244.607 182.721 246.99ZM174.918 246.99C174.918 249.067 175.162 250.58 175.65 251.531C176.139 252.475 176.916 252.947 177.984 252.947C179.065 252.947 179.846 252.468 180.328 251.511C180.816 250.548 181.06 249.041 181.06 246.99C181.06 244.939 180.816 243.438 180.328 242.488C179.846 241.531 179.065 241.052 177.984 241.052C176.916 241.052 176.139 241.524 175.65 242.468C175.162 243.406 174.918 244.913 174.918 246.99ZM186.09 244.128C186.09 245.235 186.21 246.065 186.451 246.619C186.692 247.172 187.083 247.449 187.623 247.449C188.691 247.449 189.224 246.342 189.224 244.128C189.224 241.928 188.691 240.828 187.623 240.828C187.083 240.828 186.692 241.101 186.451 241.648C186.21 242.195 186.09 243.022 186.09 244.128ZM190.562 244.128C190.562 245.613 190.312 246.736 189.81 247.498C189.316 248.253 188.586 248.63 187.623 248.63C186.711 248.63 186.002 248.243 185.494 247.468C184.993 246.694 184.742 245.58 184.742 244.128C184.742 242.651 184.983 241.537 185.465 240.789C185.953 240.04 186.672 239.666 187.623 239.666C188.567 239.666 189.293 240.053 189.801 240.828C190.308 241.602 190.562 242.703 190.562 244.128ZM194.683 249.851C194.683 250.964 194.804 251.798 195.045 252.351C195.286 252.898 195.68 253.171 196.226 253.171C196.773 253.171 197.177 252.901 197.437 252.361C197.698 251.814 197.828 250.977 197.828 249.851C197.828 248.738 197.698 247.914 197.437 247.38C197.177 246.84 196.773 246.57 196.226 246.57C195.68 246.57 195.286 246.84 195.045 247.38C194.804 247.914 194.683 248.738 194.683 249.851ZM199.166 249.851C199.166 251.329 198.915 252.449 198.414 253.21C197.919 253.966 197.19 254.343 196.226 254.343C195.302 254.343 194.589 253.956 194.088 253.181C193.593 252.406 193.346 251.296 193.346 249.851C193.346 248.373 193.586 247.26 194.068 246.511C194.556 245.763 195.276 245.388 196.226 245.388C197.151 245.388 197.87 245.772 198.385 246.541C198.905 247.302 199.166 248.406 199.166 249.851ZM196.646 239.871L188.726 254.148H187.291L195.211 239.871H196.646ZM218.502 254.148H216.607L208.805 242.166H208.726C208.831 243.572 208.883 244.861 208.883 246.033V254.148H207.349V239.871H209.224L217.008 251.804H217.086C217.073 251.628 217.043 251.065 216.998 250.115C216.952 249.158 216.936 248.474 216.949 248.064V239.871H218.502V254.148ZM226.705 254.343C225.123 254.343 223.873 253.861 222.955 252.898C222.043 251.934 221.588 250.597 221.588 248.884C221.588 247.159 222.011 245.789 222.857 244.773C223.71 243.757 224.853 243.25 226.285 243.25C227.626 243.25 228.687 243.692 229.469 244.578C230.25 245.457 230.64 246.619 230.64 248.064V249.089H223.267C223.3 250.346 223.616 251.3 224.215 251.951C224.82 252.602 225.67 252.927 226.764 252.927C227.916 252.927 229.055 252.686 230.181 252.205V253.65C229.609 253.897 229.065 254.073 228.551 254.177C228.043 254.288 227.428 254.343 226.705 254.343ZM226.265 244.607C225.406 244.607 224.719 244.887 224.205 245.447C223.697 246.007 223.398 246.781 223.306 247.771H228.902C228.902 246.749 228.674 245.968 228.219 245.427C227.763 244.88 227.112 244.607 226.265 244.607ZM242.174 243.445V244.47L240.191 244.705C240.374 244.932 240.536 245.232 240.68 245.603C240.823 245.968 240.894 246.381 240.894 246.843C240.894 247.891 240.536 248.728 239.82 249.353C239.104 249.978 238.121 250.291 236.871 250.291C236.552 250.291 236.252 250.264 235.972 250.212C235.282 250.577 234.937 251.036 234.937 251.589C234.937 251.882 235.058 252.1 235.299 252.244C235.54 252.38 235.953 252.449 236.539 252.449H238.433C239.592 252.449 240.481 252.693 241.099 253.181C241.724 253.669 242.037 254.379 242.037 255.31C242.037 256.495 241.562 257.397 240.611 258.015C239.661 258.64 238.274 258.953 236.451 258.953C235.051 258.953 233.971 258.692 233.209 258.171C232.454 257.651 232.076 256.915 232.076 255.964C232.076 255.313 232.284 254.75 232.701 254.275C233.118 253.8 233.704 253.477 234.459 253.308C234.185 253.184 233.954 252.992 233.765 252.732C233.583 252.472 233.492 252.169 233.492 251.824C233.492 251.433 233.596 251.091 233.805 250.798C234.013 250.505 234.342 250.222 234.791 249.949C234.237 249.721 233.785 249.333 233.433 248.787C233.088 248.24 232.916 247.615 232.916 246.912C232.916 245.74 233.267 244.838 233.971 244.207C234.674 243.569 235.67 243.25 236.959 243.25C237.519 243.25 238.023 243.315 238.472 243.445H242.174ZM233.639 255.945C233.639 256.524 233.883 256.964 234.371 257.263C234.859 257.563 235.559 257.712 236.471 257.712C237.831 257.712 238.837 257.507 239.488 257.097C240.146 256.694 240.474 256.143 240.474 255.447C240.474 254.867 240.295 254.464 239.937 254.236C239.579 254.014 238.905 253.904 237.916 253.904H235.972C235.237 253.904 234.664 254.08 234.254 254.431C233.844 254.783 233.639 255.287 233.639 255.945ZM234.517 246.873C234.517 247.621 234.729 248.188 235.152 248.572C235.575 248.956 236.165 249.148 236.92 249.148C238.502 249.148 239.293 248.38 239.293 246.843C239.293 245.235 238.492 244.431 236.89 244.431C236.129 244.431 235.543 244.636 235.133 245.046C234.722 245.457 234.517 246.065 234.517 246.873ZM250.953 254.148L250.631 252.625H250.553C250.019 253.295 249.485 253.751 248.951 253.992C248.424 254.226 247.763 254.343 246.969 254.343C245.907 254.343 245.074 254.07 244.469 253.523C243.87 252.976 243.57 252.198 243.57 251.189C243.57 249.028 245.299 247.895 248.756 247.791L250.572 247.732V247.068C250.572 246.228 250.39 245.61 250.025 245.212C249.667 244.809 249.091 244.607 248.297 244.607C247.405 244.607 246.396 244.88 245.269 245.427L244.771 244.187C245.299 243.901 245.875 243.676 246.5 243.513C247.131 243.35 247.763 243.269 248.394 243.269C249.67 243.269 250.614 243.552 251.226 244.119C251.845 244.685 252.154 245.593 252.154 246.843V254.148H250.953ZM247.291 253.005C248.3 253.005 249.091 252.729 249.664 252.175C250.243 251.622 250.533 250.847 250.533 249.851V248.884L248.912 248.953C247.623 248.998 246.692 249.2 246.119 249.558C245.553 249.91 245.269 250.46 245.269 251.208C245.269 251.794 245.445 252.24 245.797 252.546C246.155 252.852 246.653 253.005 247.291 253.005ZM258.961 253.005C259.247 253.005 259.524 252.986 259.791 252.947C260.058 252.901 260.269 252.856 260.426 252.81V254.05C260.25 254.135 259.989 254.203 259.644 254.255C259.306 254.314 259 254.343 258.726 254.343C256.656 254.343 255.621 253.253 255.621 251.072V244.705H254.088V243.923L255.621 243.25L256.305 240.964H257.242V243.445H260.347V244.705H257.242V251.003C257.242 251.648 257.395 252.143 257.701 252.488C258.007 252.833 258.427 253.005 258.961 253.005ZM264.195 254.148H262.574V243.445H264.195V254.148ZM262.437 240.544C262.437 240.173 262.528 239.903 262.711 239.734C262.893 239.558 263.121 239.47 263.394 239.47C263.655 239.47 263.879 239.558 264.068 239.734C264.257 239.91 264.351 240.18 264.351 240.544C264.351 240.909 264.257 241.182 264.068 241.365C263.879 241.541 263.655 241.628 263.394 241.628C263.121 241.628 262.893 241.541 262.711 241.365C262.528 241.182 262.437 240.909 262.437 240.544ZM269.976 254.148L265.914 243.445H267.652L269.957 249.792C270.478 251.277 270.784 252.24 270.875 252.683H270.953C271.025 252.338 271.249 251.625 271.627 250.544C272.011 249.457 272.867 247.091 274.195 243.445H275.933L271.871 254.148H269.976ZM282.174 254.343C280.592 254.343 279.342 253.861 278.424 252.898C277.512 251.934 277.056 250.597 277.056 248.884C277.056 247.159 277.48 245.789 278.326 244.773C279.179 243.757 280.321 243.25 281.754 243.25C283.095 243.25 284.156 243.692 284.937 244.578C285.719 245.457 286.109 246.619 286.109 248.064V249.089H278.736C278.769 250.346 279.084 251.3 279.683 251.951C280.289 252.602 281.139 252.927 282.232 252.927C283.385 252.927 284.524 252.686 285.65 252.205V253.65C285.077 253.897 284.534 254.073 284.019 254.177C283.512 254.288 282.896 254.343 282.174 254.343ZM281.734 244.607C280.875 244.607 280.188 244.887 279.674 245.447C279.166 246.007 278.866 246.781 278.775 247.771H284.371C284.371 246.749 284.143 245.968 283.687 245.427C283.232 244.88 282.581 244.607 281.734 244.607Z" fill="black"/>
</svg>
