<svg width="448" height="432" viewBox="0 0 448 432" fill="none" xmlns="http://www.w3.org/2000/svg">
<path d="M333.573 401.267C329.686 403.562 325.728 405.735 321.705 407.781L224 215.703L333.573 401.267Z" fill="#A1A2A4"/>
<path d="M318.653 409.303C298.338 419.236 276.586 425.909 254.195 429.077L224 215.703L318.653 409.303Z" fill="#D0D0D1"/>
<path d="M248.016 429.861C195.286 435.774 142.229 422.026 99.0067 391.251C55.7841 360.475 25.4345 314.836 13.771 263.074C2.10748 211.312 9.95007 157.067 35.7966 110.728C61.6431 64.3895 103.677 29.215 153.846 11.9419C204.015 -5.33121 258.793 -3.48854 307.689 17.1169C356.584 37.7224 396.158 75.6421 418.832 123.613C441.506 171.584 445.686 226.234 430.57 277.095C415.455 327.956 382.107 371.452 336.914 399.253L224 215.703L248.016 429.861Z" fill="#1F74FE"/>
<rect x="25.5049" y="17.21" width="396.99" height="396.99" rx="198.495" fill="#F0F0F0"/>
<path d="M171.91 184.021C171.91 186.834 171.344 188.934 170.211 190.32C169.078 191.707 167.372 192.4 165.094 192.4C164.228 192.4 163.606 192.348 163.228 192.244V190.32C163.808 190.483 164.39 190.564 164.976 190.564C166.526 190.564 167.681 190.148 168.443 189.314C169.205 188.481 169.622 187.173 169.693 185.389H169.576C169.192 185.975 168.726 186.398 168.18 186.658C167.639 186.919 167.004 187.049 166.275 187.049C165.012 187.049 164.019 186.655 163.297 185.867C162.574 185.079 162.213 183.999 162.213 182.625C162.213 181.134 162.629 179.949 163.463 179.07C164.303 178.185 165.445 177.742 166.89 177.742C167.906 177.742 168.791 177.99 169.547 178.484C170.302 178.979 170.885 179.699 171.295 180.643C171.705 181.58 171.91 182.706 171.91 184.021ZM166.93 179.646C166.135 179.646 165.527 179.907 165.103 180.428C164.68 180.942 164.469 181.668 164.469 182.605C164.469 183.419 164.664 184.061 165.055 184.529C165.452 184.992 166.051 185.223 166.851 185.223C167.626 185.223 168.277 184.992 168.805 184.529C169.332 184.067 169.596 183.527 169.596 182.908C169.596 182.329 169.482 181.788 169.254 181.287C169.032 180.779 168.72 180.379 168.316 180.086C167.913 179.793 167.45 179.646 166.93 179.646ZM183.355 185.066C183.355 187.547 182.955 189.389 182.154 190.594C181.36 191.798 180.142 192.4 178.502 192.4C176.913 192.4 175.709 191.779 174.889 190.535C174.068 189.292 173.658 187.469 173.658 185.066C173.658 182.547 174.055 180.691 174.849 179.5C175.65 178.302 176.868 177.703 178.502 177.703C180.097 177.703 181.305 178.328 182.125 179.578C182.945 180.828 183.355 182.658 183.355 185.066ZM175.982 185.066C175.982 187.013 176.181 188.403 176.578 189.236C176.982 190.07 177.623 190.486 178.502 190.486C179.381 190.486 180.022 190.063 180.426 189.217C180.836 188.37 181.041 186.987 181.041 185.066C181.041 183.152 180.836 181.769 180.426 180.916C180.022 180.057 179.381 179.627 178.502 179.627C177.623 179.627 176.982 180.047 176.578 180.887C176.181 181.727 175.982 183.12 175.982 185.066ZM186.949 182.205C186.949 183.175 187.043 183.898 187.232 184.373C187.421 184.848 187.73 185.086 188.16 185.086C189.019 185.086 189.449 184.126 189.449 182.205C189.449 180.285 189.019 179.324 188.16 179.324C187.73 179.324 187.421 179.562 187.232 180.037C187.043 180.512 186.949 181.235 186.949 182.205ZM191.344 182.186C191.344 183.683 191.073 184.809 190.533 185.564C189.999 186.313 189.208 186.688 188.16 186.688C187.17 186.688 186.402 186.3 185.855 185.525C185.315 184.744 185.045 183.631 185.045 182.186C185.045 179.21 186.083 177.723 188.16 177.723C189.182 177.723 189.967 178.11 190.514 178.885C191.067 179.653 191.344 180.753 191.344 182.186ZM196.246 187.908C196.246 188.878 196.34 189.604 196.529 190.086C196.724 190.568 197.037 190.809 197.467 190.809C198.319 190.809 198.746 189.842 198.746 187.908C198.746 186.001 198.319 185.047 197.467 185.047C197.037 185.047 196.724 185.281 196.529 185.75C196.34 186.219 196.246 186.938 196.246 187.908ZM200.64 187.908C200.64 189.406 200.37 190.529 199.83 191.277C199.29 192.026 198.502 192.4 197.467 192.4C196.477 192.4 195.709 192.016 195.162 191.248C194.615 190.473 194.342 189.36 194.342 187.908C194.342 184.933 195.383 183.445 197.467 183.445C198.469 183.445 199.247 183.829 199.801 184.598C200.361 185.366 200.64 186.469 200.64 187.908ZM197.74 177.928L189.82 192.205H187.926L195.846 177.928H197.74ZM220.162 184.93C220.162 187.286 219.508 189.09 218.199 190.34C216.89 191.583 215.006 192.205 212.545 192.205H208.551V177.928H212.965C215.237 177.928 217.004 178.54 218.267 179.764C219.53 180.988 220.162 182.71 220.162 184.93ZM217.701 185.008C217.701 181.59 216.103 179.881 212.906 179.881H210.885V190.242H212.545C215.982 190.242 217.701 188.497 217.701 185.008ZM227.711 192.4C226.031 192.4 224.716 191.912 223.765 190.936C222.821 189.952 222.349 188.602 222.349 186.883C222.349 185.118 222.789 183.732 223.668 182.723C224.547 181.714 225.754 181.209 227.291 181.209C228.717 181.209 229.843 181.642 230.67 182.508C231.497 183.374 231.91 184.565 231.91 186.082V187.322H224.713C224.745 188.37 225.028 189.178 225.562 189.744C226.096 190.304 226.848 190.584 227.818 190.584C228.456 190.584 229.049 190.525 229.596 190.408C230.149 190.285 230.741 190.083 231.373 189.803V191.668C230.813 191.935 230.247 192.124 229.674 192.234C229.101 192.345 228.446 192.4 227.711 192.4ZM227.291 182.947C226.562 182.947 225.976 183.178 225.533 183.641C225.097 184.103 224.836 184.777 224.752 185.662H229.654C229.641 184.77 229.426 184.096 229.01 183.641C228.593 183.178 228.02 182.947 227.291 182.947ZM241.773 189.129C241.773 190.184 241.389 190.994 240.621 191.561C239.853 192.12 238.752 192.4 237.32 192.4C235.881 192.4 234.726 192.182 233.853 191.746V189.764C235.123 190.35 236.305 190.643 237.398 190.643C238.811 190.643 239.517 190.216 239.517 189.363C239.517 189.09 239.439 188.862 239.283 188.68C239.127 188.497 238.87 188.309 238.512 188.113C238.153 187.918 237.655 187.697 237.017 187.449C235.774 186.967 234.931 186.486 234.488 186.004C234.052 185.522 233.834 184.897 233.834 184.129C233.834 183.204 234.205 182.488 234.947 181.98C235.696 181.466 236.711 181.209 237.994 181.209C239.264 181.209 240.465 181.466 241.597 181.98L240.855 183.709C239.69 183.227 238.71 182.986 237.916 182.986C236.705 182.986 236.099 183.331 236.099 184.021C236.099 184.36 236.256 184.646 236.568 184.881C236.887 185.115 237.577 185.438 238.639 185.848C239.53 186.193 240.178 186.508 240.582 186.795C240.986 187.081 241.285 187.413 241.48 187.791C241.676 188.162 241.773 188.608 241.773 189.129ZM246.48 186.502L247.779 184.881L251.041 181.404H253.687L249.342 186.043L253.961 192.205H251.265L247.799 187.469L246.539 188.504V192.205H244.264V177.01H246.539V184.422L246.422 186.502H246.48ZM259.732 190.545C260.292 190.545 260.852 190.457 261.412 190.281V192.01C261.158 192.12 260.829 192.212 260.426 192.283C260.028 192.361 259.615 192.4 259.185 192.4C257.011 192.4 255.924 191.255 255.924 188.963V183.143H254.449V182.127L256.031 181.287L256.812 179.002H258.228V181.404H261.305V183.143H258.228V188.924C258.228 189.477 258.365 189.887 258.639 190.154C258.918 190.415 259.283 190.545 259.732 190.545ZM273.16 186.785C273.16 188.549 272.708 189.926 271.803 190.916C270.898 191.906 269.638 192.4 268.023 192.4C267.014 192.4 266.122 192.173 265.347 191.717C264.573 191.261 263.977 190.607 263.56 189.754C263.144 188.901 262.935 187.911 262.935 186.785C262.935 185.034 263.385 183.667 264.283 182.684C265.181 181.701 266.448 181.209 268.082 181.209C269.644 181.209 270.881 181.714 271.793 182.723C272.704 183.725 273.16 185.079 273.16 186.785ZM265.299 186.785C265.299 189.279 266.22 190.525 268.062 190.525C269.885 190.525 270.797 189.279 270.797 186.785C270.797 184.318 269.879 183.084 268.043 183.084C267.079 183.084 266.379 183.403 265.943 184.041C265.514 184.679 265.299 185.594 265.299 186.785ZM281.285 192.4C279.918 192.4 278.857 191.909 278.101 190.926H277.965C278.056 191.837 278.101 192.391 278.101 192.586V197.01H275.806V181.404H277.662C277.714 181.606 277.821 182.088 277.984 182.85H278.101C278.818 181.756 279.892 181.209 281.324 181.209C282.672 181.209 283.72 181.697 284.469 182.674C285.224 183.65 285.601 185.021 285.601 186.785C285.601 188.549 285.217 189.926 284.449 190.916C283.687 191.906 282.633 192.4 281.285 192.4ZM280.728 183.084C279.817 183.084 279.15 183.351 278.726 183.885C278.31 184.419 278.101 185.271 278.101 186.443V186.785C278.101 188.1 278.31 189.054 278.726 189.646C279.143 190.232 279.823 190.525 280.767 190.525C281.562 190.525 282.174 190.2 282.603 189.549C283.033 188.898 283.248 187.97 283.248 186.766C283.248 185.555 283.033 184.64 282.603 184.021C282.18 183.396 281.555 183.084 280.728 183.084Z" fill="black"/>
<path d="M178.346 223.205L184.264 210.422H176.48V208.928H185.982V210.227L180.142 223.205H178.346ZM189.371 213.186C189.371 214.292 189.491 215.122 189.732 215.676C189.973 216.229 190.364 216.506 190.904 216.506C191.972 216.506 192.506 215.399 192.506 213.186C192.506 210.985 191.972 209.885 190.904 209.885C190.364 209.885 189.973 210.158 189.732 210.705C189.491 211.252 189.371 212.079 189.371 213.186ZM193.844 213.186C193.844 214.67 193.593 215.793 193.092 216.555C192.597 217.31 191.868 217.688 190.904 217.688C189.993 217.688 189.283 217.3 188.775 216.525C188.274 215.751 188.023 214.637 188.023 213.186C188.023 211.708 188.264 210.594 188.746 209.846C189.234 209.097 189.954 208.723 190.904 208.723C191.848 208.723 192.574 209.11 193.082 209.885C193.59 210.66 193.844 211.76 193.844 213.186ZM197.965 218.908C197.965 220.021 198.085 220.855 198.326 221.408C198.567 221.955 198.961 222.229 199.508 222.229C200.055 222.229 200.458 221.958 200.719 221.418C200.979 220.871 201.109 220.035 201.109 218.908C201.109 217.795 200.979 216.971 200.719 216.438C200.458 215.897 200.055 215.627 199.508 215.627C198.961 215.627 198.567 215.897 198.326 216.438C198.085 216.971 197.965 217.795 197.965 218.908ZM202.447 218.908C202.447 220.386 202.196 221.506 201.695 222.268C201.2 223.023 200.471 223.4 199.508 223.4C198.583 223.4 197.87 223.013 197.369 222.238C196.874 221.464 196.627 220.354 196.627 218.908C196.627 217.43 196.868 216.317 197.349 215.568C197.838 214.82 198.557 214.445 199.508 214.445C200.432 214.445 201.152 214.829 201.666 215.598C202.187 216.359 202.447 217.463 202.447 218.908ZM199.928 208.928L192.008 223.205H190.572L198.492 208.928H199.928ZM216.949 223.205L212.105 210.549H212.027C212.118 211.551 212.164 212.743 212.164 214.123V223.205H210.631V208.928H213.131L217.652 220.705H217.73L222.291 208.928H224.771V223.205H223.111V214.006C223.111 212.951 223.157 211.805 223.248 210.568H223.17L218.287 223.205H216.949ZM237.691 217.844C237.691 219.589 237.252 220.952 236.373 221.936C235.494 222.912 234.28 223.4 232.73 223.4C231.773 223.4 230.924 223.176 230.181 222.727C229.439 222.277 228.866 221.633 228.463 220.793C228.059 219.953 227.857 218.97 227.857 217.844C227.857 216.099 228.293 214.742 229.166 213.771C230.038 212.795 231.249 212.307 232.799 212.307C234.296 212.307 235.484 212.805 236.363 213.801C237.249 214.797 237.691 216.145 237.691 217.844ZM229.537 217.844C229.537 219.211 229.81 220.253 230.357 220.969C230.904 221.685 231.708 222.043 232.769 222.043C233.831 222.043 234.635 221.688 235.181 220.979C235.735 220.262 236.012 219.217 236.012 217.844C236.012 216.483 235.735 215.451 235.181 214.748C234.635 214.038 233.824 213.684 232.75 213.684C231.689 213.684 230.888 214.032 230.347 214.729C229.807 215.425 229.537 216.464 229.537 217.844ZM245.523 212.326C246.93 212.326 248.02 212.808 248.795 213.771C249.576 214.729 249.967 216.086 249.967 217.844C249.967 219.602 249.573 220.969 248.785 221.945C248.004 222.915 246.916 223.4 245.523 223.4C244.827 223.4 244.189 223.273 243.609 223.02C243.036 222.759 242.555 222.362 242.164 221.828H242.047L241.705 223.205H240.543V208.01H242.164V211.701C242.164 212.528 242.138 213.27 242.086 213.928H242.164C242.919 212.86 244.039 212.326 245.523 212.326ZM245.289 213.684C244.182 213.684 243.385 214.003 242.896 214.641C242.408 215.272 242.164 216.34 242.164 217.844C242.164 219.348 242.415 220.425 242.916 221.076C243.417 221.721 244.221 222.043 245.328 222.043C246.324 222.043 247.066 221.682 247.555 220.959C248.043 220.23 248.287 219.185 248.287 217.824C248.287 216.431 248.043 215.393 247.555 214.709C247.066 214.025 246.311 213.684 245.289 213.684ZM254.43 223.205H252.808V212.502H254.43V223.205ZM252.672 209.602C252.672 209.23 252.763 208.96 252.945 208.791C253.127 208.615 253.355 208.527 253.629 208.527C253.889 208.527 254.114 208.615 254.303 208.791C254.491 208.967 254.586 209.237 254.586 209.602C254.586 209.966 254.491 210.24 254.303 210.422C254.114 210.598 253.889 210.686 253.629 210.686C253.355 210.686 253.127 210.598 252.945 210.422C252.763 210.24 252.672 209.966 252.672 209.602ZM259.488 223.205H257.867V208.01H259.488V223.205ZM267.447 223.4C265.865 223.4 264.615 222.919 263.697 221.955C262.786 220.992 262.33 219.654 262.33 217.941C262.33 216.216 262.753 214.846 263.599 213.83C264.452 212.814 265.595 212.307 267.027 212.307C268.368 212.307 269.43 212.749 270.211 213.635C270.992 214.514 271.383 215.676 271.383 217.121V218.146H264.01C264.042 219.403 264.358 220.357 264.957 221.008C265.562 221.659 266.412 221.984 267.506 221.984C268.658 221.984 269.797 221.743 270.924 221.262V222.707C270.351 222.954 269.807 223.13 269.293 223.234C268.785 223.345 268.17 223.4 267.447 223.4ZM267.008 213.664C266.148 213.664 265.461 213.944 264.947 214.504C264.439 215.064 264.14 215.839 264.049 216.828H269.644C269.644 215.806 269.416 215.025 268.961 214.484C268.505 213.938 267.854 213.664 267.008 213.664Z" fill="black"/>
<path d="M188.355 243.287C188.355 244.199 188.098 244.944 187.584 245.523C187.076 246.103 186.353 246.49 185.416 246.686V246.764C186.562 246.907 187.411 247.271 187.965 247.857C188.518 248.443 188.795 249.212 188.795 250.162C188.795 251.523 188.323 252.571 187.379 253.307C186.435 254.036 185.094 254.4 183.355 254.4C182.6 254.4 181.907 254.342 181.275 254.225C180.65 254.114 180.041 253.915 179.449 253.629V252.086C180.068 252.392 180.725 252.626 181.422 252.789C182.125 252.945 182.789 253.023 183.414 253.023C185.881 253.023 187.115 252.057 187.115 250.123C187.115 248.391 185.754 247.525 183.033 247.525H181.627V246.129H183.053C184.166 246.129 185.048 245.885 185.699 245.396C186.35 244.902 186.676 244.218 186.676 243.346C186.676 242.649 186.435 242.102 185.953 241.705C185.478 241.308 184.83 241.109 184.01 241.109C183.385 241.109 182.795 241.194 182.242 241.363C181.689 241.533 181.057 241.845 180.347 242.301L179.527 241.207C180.113 240.745 180.787 240.383 181.549 240.123C182.317 239.856 183.124 239.723 183.971 239.723C185.357 239.723 186.435 240.042 187.203 240.68C187.971 241.311 188.355 242.18 188.355 243.287ZM192.34 244.186C192.34 245.292 192.46 246.122 192.701 246.676C192.942 247.229 193.333 247.506 193.873 247.506C194.941 247.506 195.474 246.399 195.474 244.186C195.474 241.985 194.941 240.885 193.873 240.885C193.333 240.885 192.942 241.158 192.701 241.705C192.46 242.252 192.34 243.079 192.34 244.186ZM196.812 244.186C196.812 245.67 196.562 246.793 196.06 247.555C195.566 248.31 194.836 248.688 193.873 248.688C192.961 248.688 192.252 248.3 191.744 247.525C191.243 246.751 190.992 245.637 190.992 244.186C190.992 242.708 191.233 241.594 191.715 240.846C192.203 240.097 192.922 239.723 193.873 239.723C194.817 239.723 195.543 240.11 196.051 240.885C196.558 241.66 196.812 242.76 196.812 244.186ZM200.933 249.908C200.933 251.021 201.054 251.855 201.295 252.408C201.536 252.955 201.93 253.229 202.476 253.229C203.023 253.229 203.427 252.958 203.687 252.418C203.948 251.871 204.078 251.035 204.078 249.908C204.078 248.795 203.948 247.971 203.687 247.438C203.427 246.897 203.023 246.627 202.476 246.627C201.93 246.627 201.536 246.897 201.295 247.438C201.054 247.971 200.933 248.795 200.933 249.908ZM205.416 249.908C205.416 251.386 205.165 252.506 204.664 253.268C204.169 254.023 203.44 254.4 202.476 254.4C201.552 254.4 200.839 254.013 200.338 253.238C199.843 252.464 199.596 251.354 199.596 249.908C199.596 248.43 199.836 247.317 200.318 246.568C200.806 245.82 201.526 245.445 202.476 245.445C203.401 245.445 204.12 245.829 204.635 246.598C205.155 247.359 205.416 248.463 205.416 249.908ZM202.896 239.928L194.976 254.205H193.541L201.461 239.928H202.896ZM217.994 254.205H216.334V241.402H211.812V239.928H222.515V241.402H217.994V254.205ZM231.012 254.205L230.689 252.682H230.611C230.077 253.352 229.543 253.808 229.01 254.049C228.482 254.283 227.821 254.4 227.027 254.4C225.966 254.4 225.133 254.127 224.527 253.58C223.928 253.033 223.629 252.255 223.629 251.246C223.629 249.085 225.357 247.952 228.814 247.848L230.631 247.789V247.125C230.631 246.285 230.448 245.667 230.084 245.27C229.726 244.866 229.15 244.664 228.355 244.664C227.463 244.664 226.454 244.938 225.328 245.484L224.83 244.244C225.357 243.958 225.933 243.733 226.558 243.57C227.19 243.408 227.821 243.326 228.453 243.326C229.729 243.326 230.673 243.609 231.285 244.176C231.903 244.742 232.213 245.65 232.213 246.9V254.205H231.012ZM227.349 253.062C228.359 253.062 229.15 252.786 229.722 252.232C230.302 251.679 230.592 250.904 230.592 249.908V248.941L228.971 249.01C227.681 249.055 226.75 249.257 226.178 249.615C225.611 249.967 225.328 250.517 225.328 251.266C225.328 251.852 225.504 252.298 225.855 252.604C226.213 252.91 226.711 253.062 227.349 253.062ZM240.543 243.326C241.949 243.326 243.04 243.808 243.814 244.771C244.596 245.729 244.986 247.086 244.986 248.844C244.986 250.602 244.592 251.969 243.805 252.945C243.023 253.915 241.936 254.4 240.543 254.4C239.846 254.4 239.208 254.273 238.629 254.02C238.056 253.759 237.574 253.362 237.183 252.828H237.066L236.724 254.205H235.562V239.01H237.183V242.701C237.183 243.528 237.157 244.27 237.105 244.928H237.183C237.939 243.86 239.058 243.326 240.543 243.326ZM240.308 244.684C239.202 244.684 238.404 245.003 237.916 245.641C237.428 246.272 237.183 247.34 237.183 248.844C237.183 250.348 237.434 251.425 237.935 252.076C238.437 252.721 239.241 253.043 240.347 253.043C241.344 253.043 242.086 252.682 242.574 251.959C243.062 251.23 243.306 250.185 243.306 248.824C243.306 247.431 243.062 246.393 242.574 245.709C242.086 245.025 241.331 244.684 240.308 244.684ZM249.449 254.205H247.828V239.01H249.449V254.205ZM257.408 254.4C255.826 254.4 254.576 253.919 253.658 252.955C252.747 251.992 252.291 250.654 252.291 248.941C252.291 247.216 252.714 245.846 253.56 244.83C254.413 243.814 255.556 243.307 256.988 243.307C258.329 243.307 259.39 243.749 260.172 244.635C260.953 245.514 261.344 246.676 261.344 248.121V249.146H253.971C254.003 250.403 254.319 251.357 254.918 252.008C255.523 252.659 256.373 252.984 257.467 252.984C258.619 252.984 259.758 252.743 260.885 252.262V253.707C260.312 253.954 259.768 254.13 259.254 254.234C258.746 254.345 258.131 254.4 257.408 254.4ZM256.969 244.664C256.109 244.664 255.422 244.944 254.908 245.504C254.4 246.064 254.101 246.839 254.01 247.828H259.605C259.605 246.806 259.377 246.025 258.922 245.484C258.466 244.938 257.815 244.664 256.969 244.664ZM267.574 253.062C267.861 253.062 268.137 253.043 268.404 253.004C268.671 252.958 268.883 252.913 269.039 252.867V254.107C268.863 254.192 268.603 254.26 268.258 254.312C267.919 254.371 267.613 254.4 267.34 254.4C265.269 254.4 264.234 253.31 264.234 251.129V244.762H262.701V243.98L264.234 243.307L264.918 241.021H265.855V243.502H268.961V244.762H265.855V251.061C265.855 251.705 266.008 252.2 266.314 252.545C266.62 252.89 267.04 253.062 267.574 253.062Z" fill="black"/>
</svg>
