<svg width="448" height="432" viewBox="0 0 448 432" fill="none" xmlns="http://www.w3.org/2000/svg">
<path d="M333.573 401.21C329.686 403.505 325.728 405.677 321.705 407.724L224 215.646L333.573 401.21Z" fill="#A1A2A4"/>
<path d="M318.653 409.246C298.338 419.179 276.586 425.852 254.195 429.02L224 215.646L318.653 409.246Z" fill="#D0D0D1"/>
<path d="M248.016 429.804C195.286 435.717 142.229 421.969 99.0067 391.194C55.7841 360.418 25.4345 314.779 13.771 263.017C2.10748 211.255 9.95007 157.01 35.7966 110.671C61.6431 64.3324 103.677 29.1579 153.846 11.8848C204.015 -5.38834 258.793 -3.54567 307.689 17.0598C356.584 37.6653 396.158 75.585 418.832 123.556C441.506 171.527 445.686 226.176 430.57 277.037C415.455 327.898 382.107 371.395 336.914 399.196L224 215.646L248.016 429.804Z" fill="#1F74FE"/>
<rect x="25.5049" y="17.1531" width="396.99" height="396.99" rx="198.495" fill="#F0F0F0"/>
<path d="M171.91 183.964C171.91 186.777 171.344 188.877 170.211 190.263C169.078 191.65 167.372 192.343 165.094 192.343C164.228 192.343 163.606 192.291 163.228 192.187V190.263C163.808 190.426 164.39 190.507 164.976 190.507C166.526 190.507 167.681 190.091 168.443 189.257C169.205 188.424 169.622 187.116 169.693 185.332H169.576C169.192 185.918 168.726 186.341 168.18 186.601C167.639 186.862 167.004 186.992 166.275 186.992C165.012 186.992 164.019 186.598 163.297 185.81C162.574 185.022 162.213 183.942 162.213 182.568C162.213 181.077 162.629 179.892 163.463 179.013C164.303 178.128 165.445 177.685 166.89 177.685C167.906 177.685 168.791 177.933 169.547 178.427C170.302 178.922 170.885 179.642 171.295 180.586C171.705 181.523 171.91 182.649 171.91 183.964ZM166.93 179.589C166.135 179.589 165.527 179.85 165.103 180.371C164.68 180.885 164.469 181.611 164.469 182.548C164.469 183.362 164.664 184.004 165.055 184.472C165.452 184.935 166.051 185.166 166.851 185.166C167.626 185.166 168.277 184.935 168.805 184.472C169.332 184.01 169.596 183.47 169.596 182.851C169.596 182.272 169.482 181.731 169.254 181.23C169.032 180.722 168.72 180.322 168.316 180.029C167.913 179.736 167.45 179.589 166.93 179.589ZM182.818 181.152C182.818 182.057 182.555 182.812 182.027 183.418C181.5 184.017 180.758 184.42 179.801 184.629V184.707C180.946 184.85 181.806 185.208 182.379 185.781C182.952 186.347 183.238 187.102 183.238 188.047C183.238 189.42 182.753 190.481 181.783 191.23C180.813 191.972 179.433 192.343 177.642 192.343C176.06 192.343 174.726 192.086 173.639 191.572V189.531C174.244 189.83 174.885 190.061 175.562 190.224C176.239 190.387 176.89 190.468 177.515 190.468C178.622 190.468 179.449 190.263 179.996 189.853C180.543 189.443 180.816 188.808 180.816 187.949C180.816 187.187 180.514 186.627 179.908 186.269C179.303 185.911 178.352 185.732 177.056 185.732H175.816V183.867H177.076C179.355 183.867 180.494 183.079 180.494 181.504C180.494 180.892 180.295 180.42 179.898 180.088C179.501 179.755 178.915 179.589 178.14 179.589C177.6 179.589 177.079 179.668 176.578 179.824C176.077 179.974 175.484 180.27 174.801 180.713L173.678 179.111C174.986 178.147 176.506 177.666 178.238 177.666C179.677 177.666 180.8 177.975 181.607 178.593C182.415 179.212 182.818 180.065 182.818 181.152ZM186.949 182.148C186.949 183.118 187.043 183.841 187.232 184.316C187.421 184.791 187.73 185.029 188.16 185.029C189.019 185.029 189.449 184.069 189.449 182.148C189.449 180.227 189.019 179.267 188.16 179.267C187.73 179.267 187.421 179.505 187.232 179.98C187.043 180.455 186.949 181.178 186.949 182.148ZM191.344 182.129C191.344 183.626 191.073 184.752 190.533 185.507C189.999 186.256 189.208 186.63 188.16 186.63C187.17 186.63 186.402 186.243 185.855 185.468C185.315 184.687 185.045 183.574 185.045 182.129C185.045 179.153 186.083 177.666 188.16 177.666C189.182 177.666 189.967 178.053 190.514 178.828C191.067 179.596 191.344 180.696 191.344 182.129ZM196.246 187.851C196.246 188.821 196.34 189.547 196.529 190.029C196.724 190.511 197.037 190.752 197.467 190.752C198.319 190.752 198.746 189.785 198.746 187.851C198.746 185.944 198.319 184.99 197.467 184.99C197.037 184.99 196.724 185.224 196.529 185.693C196.34 186.162 196.246 186.881 196.246 187.851ZM200.64 187.851C200.64 189.349 200.37 190.472 199.83 191.22C199.29 191.969 198.502 192.343 197.467 192.343C196.477 192.343 195.709 191.959 195.162 191.191C194.615 190.416 194.342 189.303 194.342 187.851C194.342 184.876 195.383 183.388 197.467 183.388C198.469 183.388 199.247 183.772 199.801 184.541C200.361 185.309 200.64 186.412 200.64 187.851ZM197.74 177.871L189.82 192.148H187.926L195.846 177.871H197.74ZM220.162 184.873C220.162 187.229 219.508 189.033 218.199 190.283C216.89 191.526 215.006 192.148 212.545 192.148H208.551V177.871H212.965C215.237 177.871 217.004 178.483 218.267 179.707C219.53 180.931 220.162 182.653 220.162 184.873ZM217.701 184.951C217.701 181.533 216.103 179.824 212.906 179.824H210.885V190.185H212.545C215.982 190.185 217.701 188.44 217.701 184.951ZM227.711 192.343C226.031 192.343 224.716 191.855 223.765 190.879C222.821 189.895 222.349 188.545 222.349 186.826C222.349 185.061 222.789 183.675 223.668 182.666C224.547 181.657 225.754 181.152 227.291 181.152C228.717 181.152 229.843 181.585 230.67 182.451C231.497 183.317 231.91 184.508 231.91 186.025V187.265H224.713C224.745 188.313 225.028 189.121 225.562 189.687C226.096 190.247 226.848 190.527 227.818 190.527C228.456 190.527 229.049 190.468 229.596 190.351C230.149 190.227 230.741 190.026 231.373 189.746V191.611C230.813 191.878 230.247 192.067 229.674 192.177C229.101 192.288 228.446 192.343 227.711 192.343ZM227.291 182.89C226.562 182.89 225.976 183.121 225.533 183.584C225.097 184.046 224.836 184.72 224.752 185.605H229.654C229.641 184.713 229.426 184.039 229.01 183.584C228.593 183.121 228.02 182.89 227.291 182.89ZM241.773 189.072C241.773 190.127 241.389 190.937 240.621 191.504C239.853 192.063 238.752 192.343 237.32 192.343C235.881 192.343 234.726 192.125 233.853 191.689V189.707C235.123 190.293 236.305 190.586 237.398 190.586C238.811 190.586 239.517 190.159 239.517 189.306C239.517 189.033 239.439 188.805 239.283 188.623C239.127 188.44 238.87 188.252 238.512 188.056C238.153 187.861 237.655 187.64 237.017 187.392C235.774 186.91 234.931 186.429 234.488 185.947C234.052 185.465 233.834 184.84 233.834 184.072C233.834 183.147 234.205 182.431 234.947 181.923C235.696 181.409 236.711 181.152 237.994 181.152C239.264 181.152 240.465 181.409 241.597 181.923L240.855 183.652C239.69 183.17 238.71 182.929 237.916 182.929C236.705 182.929 236.099 183.274 236.099 183.964C236.099 184.303 236.256 184.589 236.568 184.824C236.887 185.058 237.577 185.38 238.639 185.791C239.53 186.136 240.178 186.451 240.582 186.738C240.986 187.024 241.285 187.356 241.48 187.734C241.676 188.105 241.773 188.551 241.773 189.072ZM246.48 186.445L247.779 184.824L251.041 181.347H253.687L249.342 185.986L253.961 192.148H251.265L247.799 187.412L246.539 188.447V192.148H244.264V176.953H246.539V184.365L246.422 186.445H246.48ZM259.732 190.488C260.292 190.488 260.852 190.4 261.412 190.224V191.953C261.158 192.063 260.829 192.155 260.426 192.226C260.028 192.304 259.615 192.343 259.185 192.343C257.011 192.343 255.924 191.198 255.924 188.906V183.086H254.449V182.07L256.031 181.23L256.812 178.945H258.228V181.347H261.305V183.086H258.228V188.867C258.228 189.42 258.365 189.83 258.639 190.097C258.918 190.358 259.283 190.488 259.732 190.488ZM273.16 186.728C273.16 188.492 272.708 189.869 271.803 190.859C270.898 191.849 269.638 192.343 268.023 192.343C267.014 192.343 266.122 192.116 265.347 191.66C264.573 191.204 263.977 190.55 263.56 189.697C263.144 188.844 262.935 187.854 262.935 186.728C262.935 184.977 263.385 183.61 264.283 182.627C265.181 181.644 266.448 181.152 268.082 181.152C269.644 181.152 270.881 181.657 271.793 182.666C272.704 183.668 273.16 185.022 273.16 186.728ZM265.299 186.728C265.299 189.222 266.22 190.468 268.062 190.468C269.885 190.468 270.797 189.222 270.797 186.728C270.797 184.261 269.879 183.027 268.043 183.027C267.079 183.027 266.379 183.346 265.943 183.984C265.514 184.622 265.299 185.537 265.299 186.728ZM281.285 192.343C279.918 192.343 278.857 191.852 278.101 190.869H277.965C278.056 191.78 278.101 192.334 278.101 192.529V196.953H275.806V181.347H277.662C277.714 181.549 277.821 182.031 277.984 182.793H278.101C278.818 181.699 279.892 181.152 281.324 181.152C282.672 181.152 283.72 181.64 284.469 182.617C285.224 183.593 285.601 184.964 285.601 186.728C285.601 188.492 285.217 189.869 284.449 190.859C283.687 191.849 282.633 192.343 281.285 192.343ZM280.728 183.027C279.817 183.027 279.15 183.294 278.726 183.828C278.31 184.362 278.101 185.214 278.101 186.386V186.728C278.101 188.043 278.31 188.997 278.726 189.589C279.143 190.175 279.823 190.468 280.767 190.468C281.562 190.468 282.174 190.143 282.603 189.492C283.033 188.841 283.248 187.913 283.248 186.709C283.248 185.498 283.033 184.583 282.603 183.964C282.18 183.339 281.555 183.027 280.728 183.027Z" fill="black"/>
<path d="M181.002 214.427C182.506 214.427 183.687 214.802 184.547 215.55C185.413 216.293 185.846 217.311 185.846 218.607C185.846 220.085 185.374 221.244 184.43 222.084C183.492 222.923 182.196 223.343 180.543 223.343C178.935 223.343 177.708 223.086 176.861 222.572V221.009C177.317 221.302 177.883 221.533 178.56 221.703C179.237 221.866 179.905 221.947 180.562 221.947C181.708 221.947 182.597 221.677 183.228 221.136C183.866 220.596 184.185 219.815 184.185 218.793C184.185 216.8 182.965 215.804 180.523 215.804C179.905 215.804 179.078 215.899 178.043 216.088L177.203 215.55L177.74 208.871H184.84V210.365H179.127L178.765 214.652C179.514 214.502 180.26 214.427 181.002 214.427ZM189.371 213.129C189.371 214.235 189.491 215.065 189.732 215.619C189.973 216.172 190.364 216.449 190.904 216.449C191.972 216.449 192.506 215.342 192.506 213.129C192.506 210.928 191.972 209.828 190.904 209.828C190.364 209.828 189.973 210.101 189.732 210.648C189.491 211.195 189.371 212.022 189.371 213.129ZM193.844 213.129C193.844 214.613 193.593 215.736 193.092 216.498C192.597 217.253 191.868 217.63 190.904 217.63C189.993 217.63 189.283 217.243 188.775 216.468C188.274 215.694 188.023 214.58 188.023 213.129C188.023 211.651 188.264 210.537 188.746 209.789C189.234 209.04 189.954 208.666 190.904 208.666C191.848 208.666 192.574 209.053 193.082 209.828C193.59 210.602 193.844 211.703 193.844 213.129ZM197.965 218.851C197.965 219.964 198.085 220.798 198.326 221.351C198.567 221.898 198.961 222.172 199.508 222.172C200.055 222.172 200.458 221.901 200.719 221.361C200.979 220.814 201.109 219.977 201.109 218.851C201.109 217.738 200.979 216.914 200.719 216.38C200.458 215.84 200.055 215.57 199.508 215.57C198.961 215.57 198.567 215.84 198.326 216.38C198.085 216.914 197.965 217.738 197.965 218.851ZM202.447 218.851C202.447 220.329 202.196 221.449 201.695 222.211C201.2 222.966 200.471 223.343 199.508 223.343C198.583 223.343 197.87 222.956 197.369 222.181C196.874 221.407 196.627 220.297 196.627 218.851C196.627 217.373 196.868 216.26 197.349 215.511C197.838 214.763 198.557 214.388 199.508 214.388C200.432 214.388 201.152 214.772 201.666 215.541C202.187 216.302 202.447 217.406 202.447 218.851ZM199.928 208.871L192.008 223.148H190.572L198.492 208.871H199.928ZM216.949 223.148L212.105 210.492H212.027C212.118 211.494 212.164 212.686 212.164 214.066V223.148H210.631V208.871H213.131L217.652 220.648H217.73L222.291 208.871H224.771V223.148H223.111V213.949C223.111 212.894 223.157 211.748 223.248 210.511H223.17L218.287 223.148H216.949ZM237.691 217.787C237.691 219.532 237.252 220.895 236.373 221.879C235.494 222.855 234.28 223.343 232.73 223.343C231.773 223.343 230.924 223.119 230.181 222.67C229.439 222.22 228.866 221.576 228.463 220.736C228.059 219.896 227.857 218.913 227.857 217.787C227.857 216.042 228.293 214.685 229.166 213.714C230.038 212.738 231.249 212.25 232.799 212.25C234.296 212.25 235.484 212.748 236.363 213.744C237.249 214.74 237.691 216.088 237.691 217.787ZM229.537 217.787C229.537 219.154 229.81 220.196 230.357 220.912C230.904 221.628 231.708 221.986 232.769 221.986C233.831 221.986 234.635 221.631 235.181 220.922C235.735 220.205 236.012 219.16 236.012 217.787C236.012 216.426 235.735 215.394 235.181 214.691C234.635 213.981 233.824 213.627 232.75 213.627C231.689 213.627 230.888 213.975 230.347 214.672C229.807 215.368 229.537 216.407 229.537 217.787ZM245.523 212.269C246.93 212.269 248.02 212.751 248.795 213.714C249.576 214.672 249.967 216.029 249.967 217.787C249.967 219.545 249.573 220.912 248.785 221.888C248.004 222.858 246.916 223.343 245.523 223.343C244.827 223.343 244.189 223.216 243.609 222.963C243.036 222.702 242.555 222.305 242.164 221.771H242.047L241.705 223.148H240.543V207.953H242.164V211.644C242.164 212.471 242.138 213.213 242.086 213.871H242.164C242.919 212.803 244.039 212.269 245.523 212.269ZM245.289 213.627C244.182 213.627 243.385 213.946 242.896 214.584C242.408 215.215 242.164 216.283 242.164 217.787C242.164 219.291 242.415 220.368 242.916 221.019C243.417 221.664 244.221 221.986 245.328 221.986C246.324 221.986 247.066 221.625 247.555 220.902C248.043 220.173 248.287 219.128 248.287 217.767C248.287 216.374 248.043 215.336 247.555 214.652C247.066 213.968 246.311 213.627 245.289 213.627ZM254.43 223.148H252.808V212.445H254.43V223.148ZM252.672 209.545C252.672 209.173 252.763 208.903 252.945 208.734C253.127 208.558 253.355 208.47 253.629 208.47C253.889 208.47 254.114 208.558 254.303 208.734C254.491 208.91 254.586 209.18 254.586 209.545C254.586 209.909 254.491 210.183 254.303 210.365C254.114 210.541 253.889 210.629 253.629 210.629C253.355 210.629 253.127 210.541 252.945 210.365C252.763 210.183 252.672 209.909 252.672 209.545ZM259.488 223.148H257.867V207.953H259.488V223.148ZM267.447 223.343C265.865 223.343 264.615 222.862 263.697 221.898C262.786 220.935 262.33 219.597 262.33 217.884C262.33 216.159 262.753 214.789 263.599 213.773C264.452 212.757 265.595 212.25 267.027 212.25C268.368 212.25 269.43 212.692 270.211 213.578C270.992 214.457 271.383 215.619 271.383 217.064V218.089H264.01C264.042 219.346 264.358 220.3 264.957 220.951C265.562 221.602 266.412 221.927 267.506 221.927C268.658 221.927 269.797 221.686 270.924 221.205V222.65C270.351 222.897 269.807 223.073 269.293 223.177C268.785 223.288 268.17 223.343 267.447 223.343ZM267.008 213.607C266.148 213.607 265.461 213.887 264.947 214.447C264.439 215.007 264.14 215.782 264.049 216.771H269.644C269.644 215.749 269.416 214.968 268.961 214.427C268.505 213.88 267.854 213.607 267.008 213.607Z" fill="black"/>
<path d="M188.892 254.148H179.508V252.752L183.267 248.972C184.413 247.813 185.168 246.987 185.533 246.492C185.898 245.997 186.171 245.515 186.353 245.047C186.536 244.578 186.627 244.073 186.627 243.533C186.627 242.771 186.396 242.169 185.933 241.726C185.471 241.277 184.83 241.052 184.01 241.052C183.417 241.052 182.854 241.15 182.32 241.345C181.793 241.541 181.204 241.895 180.553 242.41L179.693 241.306C181.008 240.213 182.441 239.666 183.99 239.666C185.331 239.666 186.383 240.011 187.144 240.701C187.906 241.384 188.287 242.306 188.287 243.464C188.287 244.369 188.033 245.265 187.525 246.15C187.017 247.035 186.067 248.155 184.674 249.509L181.549 252.566V252.644H188.892V254.148ZM192.34 244.129C192.34 245.235 192.46 246.065 192.701 246.619C192.942 247.172 193.333 247.449 193.873 247.449C194.941 247.449 195.474 246.342 195.474 244.129C195.474 241.928 194.941 240.828 193.873 240.828C193.333 240.828 192.942 241.101 192.701 241.648C192.46 242.195 192.34 243.022 192.34 244.129ZM196.812 244.129C196.812 245.613 196.562 246.736 196.06 247.498C195.566 248.253 194.836 248.63 193.873 248.63C192.961 248.63 192.252 248.243 191.744 247.468C191.243 246.694 190.992 245.58 190.992 244.129C190.992 242.651 191.233 241.537 191.715 240.789C192.203 240.04 192.922 239.666 193.873 239.666C194.817 239.666 195.543 240.053 196.051 240.828C196.558 241.602 196.812 242.703 196.812 244.129ZM200.933 249.851C200.933 250.964 201.054 251.798 201.295 252.351C201.536 252.898 201.93 253.172 202.476 253.172C203.023 253.172 203.427 252.901 203.687 252.361C203.948 251.814 204.078 250.977 204.078 249.851C204.078 248.738 203.948 247.914 203.687 247.38C203.427 246.84 203.023 246.57 202.476 246.57C201.93 246.57 201.536 246.84 201.295 247.38C201.054 247.914 200.933 248.738 200.933 249.851ZM205.416 249.851C205.416 251.329 205.165 252.449 204.664 253.211C204.169 253.966 203.44 254.343 202.476 254.343C201.552 254.343 200.839 253.956 200.338 253.181C199.843 252.407 199.596 251.297 199.596 249.851C199.596 248.373 199.836 247.26 200.318 246.511C200.806 245.763 201.526 245.388 202.476 245.388C203.401 245.388 204.12 245.772 204.635 246.541C205.155 247.302 205.416 248.406 205.416 249.851ZM202.896 239.871L194.976 254.148H193.541L201.461 239.871H202.896ZM217.994 254.148H216.334V241.345H211.812V239.871H222.515V241.345H217.994V254.148ZM231.012 254.148L230.689 252.625H230.611C230.077 253.295 229.543 253.751 229.01 253.992C228.482 254.226 227.821 254.343 227.027 254.343C225.966 254.343 225.133 254.07 224.527 253.523C223.928 252.976 223.629 252.198 223.629 251.189C223.629 249.028 225.357 247.895 228.814 247.791L230.631 247.732V247.068C230.631 246.228 230.448 245.61 230.084 245.213C229.726 244.809 229.15 244.607 228.355 244.607C227.463 244.607 226.454 244.88 225.328 245.427L224.83 244.187C225.357 243.901 225.933 243.676 226.558 243.513C227.19 243.351 227.821 243.269 228.453 243.269C229.729 243.269 230.673 243.552 231.285 244.119C231.903 244.685 232.213 245.593 232.213 246.843V254.148H231.012ZM227.349 253.005C228.359 253.005 229.15 252.729 229.722 252.175C230.302 251.622 230.592 250.847 230.592 249.851V248.884L228.971 248.953C227.681 248.998 226.75 249.2 226.178 249.558C225.611 249.91 225.328 250.46 225.328 251.209C225.328 251.795 225.504 252.241 225.855 252.547C226.213 252.852 226.711 253.005 227.349 253.005ZM240.543 243.269C241.949 243.269 243.04 243.751 243.814 244.714C244.596 245.672 244.986 247.029 244.986 248.787C244.986 250.545 244.592 251.912 243.805 252.888C243.023 253.858 241.936 254.343 240.543 254.343C239.846 254.343 239.208 254.216 238.629 253.963C238.056 253.702 237.574 253.305 237.183 252.771H237.066L236.724 254.148H235.562V238.953H237.183V242.644C237.183 243.471 237.157 244.213 237.105 244.871H237.183C237.939 243.803 239.058 243.269 240.543 243.269ZM240.308 244.627C239.202 244.627 238.404 244.946 237.916 245.584C237.428 246.215 237.183 247.283 237.183 248.787C237.183 250.291 237.434 251.368 237.935 252.019C238.437 252.664 239.241 252.986 240.347 252.986C241.344 252.986 242.086 252.625 242.574 251.902C243.062 251.173 243.306 250.128 243.306 248.767C243.306 247.374 243.062 246.336 242.574 245.652C242.086 244.968 241.331 244.627 240.308 244.627ZM249.449 254.148H247.828V238.953H249.449V254.148ZM257.408 254.343C255.826 254.343 254.576 253.862 253.658 252.898C252.747 251.935 252.291 250.597 252.291 248.884C252.291 247.159 252.714 245.789 253.56 244.773C254.413 243.757 255.556 243.25 256.988 243.25C258.329 243.25 259.39 243.692 260.172 244.578C260.953 245.457 261.344 246.619 261.344 248.064V249.089H253.971C254.003 250.346 254.319 251.3 254.918 251.951C255.523 252.602 256.373 252.927 257.467 252.927C258.619 252.927 259.758 252.686 260.885 252.205V253.65C260.312 253.897 259.768 254.073 259.254 254.177C258.746 254.288 258.131 254.343 257.408 254.343ZM256.969 244.607C256.109 244.607 255.422 244.887 254.908 245.447C254.4 246.007 254.101 246.782 254.01 247.771H259.605C259.605 246.749 259.377 245.968 258.922 245.427C258.466 244.88 257.815 244.607 256.969 244.607ZM267.574 253.005C267.861 253.005 268.137 252.986 268.404 252.947C268.671 252.901 268.883 252.856 269.039 252.81V254.05C268.863 254.135 268.603 254.203 268.258 254.255C267.919 254.314 267.613 254.343 267.34 254.343C265.269 254.343 264.234 253.253 264.234 251.072V244.705H262.701V243.923L264.234 243.25L264.918 240.964H265.855V243.445H268.961V244.705H265.855V251.004C265.855 251.648 266.008 252.143 266.314 252.488C266.62 252.833 267.04 253.005 267.574 253.005Z" fill="black"/>
</svg>
