<svg width="432" height="432" viewBox="0 0 432 432" fill="none" xmlns="http://www.w3.org/2000/svg">
<path d="M368.382 63.4974C398.113 93.228 418.497 131.006 427.023 172.178C435.549 213.35 431.845 256.117 416.367 295.21C400.889 334.303 374.314 368.014 339.914 392.19C305.515 416.367 264.794 429.952 222.77 431.273L216 215.879L368.382 63.4974Z" fill="#A1A2A4"/>
<path d="M216 431.379C165.853 431.379 117.275 413.89 78.6356 381.924L216 215.879L216 431.379Z" fill="#4A4B4D"/>
<path d="M307.701 20.8629C328.165 30.4856 346.987 43.2693 363.476 58.7447L216 215.879L307.701 20.8629Z" fill="#D0D0D1"/>
<path d="M75.133 378.964C36.1947 345.33 10.5754 298.874 2.90716 247.996C-4.76107 197.117 6.0279 145.174 33.3234 101.558C60.6189 57.9415 102.619 25.5309 151.731 10.1858C200.843 -5.15934 253.824 -2.42608 301.096 17.8914L216 215.879L75.133 378.964Z" fill="#81BC01"/>
<rect x="17.5054" y="17.3859" width="396.99" height="396.99" rx="198.495" fill="#F0F0F0"/>
<path d="M148.774 170.777C148.774 167.971 149.317 165.875 150.405 164.488C151.498 163.095 153.113 162.398 155.248 162.398C155.984 162.398 156.563 162.46 156.987 162.584V163.98C156.485 163.818 155.912 163.736 155.268 163.736C153.738 163.736 152.569 164.215 151.762 165.172C150.955 166.122 150.512 167.62 150.434 169.664H150.551C151.267 168.544 152.4 167.984 153.95 167.984C155.232 167.984 156.241 168.372 156.977 169.146C157.719 169.921 158.09 170.973 158.09 172.301C158.09 173.785 157.683 174.954 156.869 175.807C156.062 176.653 154.968 177.076 153.588 177.076C152.11 177.076 150.938 176.523 150.073 175.416C149.207 174.303 148.774 172.757 148.774 170.777ZM153.569 175.699C154.493 175.699 155.209 175.41 155.717 174.83C156.231 174.244 156.489 173.401 156.489 172.301C156.489 171.357 156.251 170.615 155.776 170.074C155.3 169.534 154.591 169.264 153.647 169.264C153.061 169.264 152.524 169.384 152.035 169.625C151.547 169.866 151.157 170.198 150.864 170.621C150.577 171.044 150.434 171.484 150.434 171.939C150.434 172.61 150.564 173.235 150.825 173.814C151.085 174.394 151.453 174.853 151.928 175.191C152.41 175.53 152.957 175.699 153.569 175.699ZM161.44 166.861C161.44 167.968 161.56 168.798 161.801 169.352C162.042 169.905 162.433 170.182 162.973 170.182C164.041 170.182 164.575 169.075 164.575 166.861C164.575 164.661 164.041 163.561 162.973 163.561C162.433 163.561 162.042 163.834 161.801 164.381C161.56 164.928 161.44 165.755 161.44 166.861ZM165.912 166.861C165.912 168.346 165.662 169.469 165.16 170.23C164.666 170.986 163.937 171.363 162.973 171.363C162.062 171.363 161.352 170.976 160.844 170.201C160.343 169.426 160.092 168.313 160.092 166.861C160.092 165.383 160.333 164.27 160.815 163.521C161.303 162.773 162.022 162.398 162.973 162.398C163.917 162.398 164.643 162.786 165.151 163.561C165.659 164.335 165.912 165.436 165.912 166.861ZM170.034 172.584C170.034 173.697 170.154 174.531 170.395 175.084C170.636 175.631 171.03 175.904 171.576 175.904C172.123 175.904 172.527 175.634 172.787 175.094C173.048 174.547 173.178 173.71 173.178 172.584C173.178 171.471 173.048 170.647 172.787 170.113C172.527 169.573 172.123 169.303 171.576 169.303C171.03 169.303 170.636 169.573 170.395 170.113C170.154 170.647 170.034 171.471 170.034 172.584ZM174.516 172.584C174.516 174.062 174.265 175.182 173.764 175.943C173.269 176.699 172.54 177.076 171.576 177.076C170.652 177.076 169.939 176.689 169.438 175.914C168.943 175.139 168.696 174.029 168.696 172.584C168.696 171.106 168.937 169.993 169.418 169.244C169.907 168.495 170.626 168.121 171.576 168.121C172.501 168.121 173.22 168.505 173.735 169.273C174.256 170.035 174.516 171.139 174.516 172.584ZM171.996 162.604L164.076 176.881H162.641L170.561 162.604H171.996ZM191.137 174.518L181.752 170.396V169.439L191.137 164.762V166.217L183.5 169.84L191.137 173.043V174.518ZM197.621 168.16C199.125 168.16 200.307 168.535 201.166 169.283C202.032 170.025 202.465 171.044 202.465 172.34C202.465 173.818 201.993 174.977 201.049 175.816C200.112 176.656 198.816 177.076 197.162 177.076C195.554 177.076 194.327 176.819 193.481 176.305V174.742C193.937 175.035 194.503 175.266 195.18 175.436C195.857 175.598 196.524 175.68 197.182 175.68C198.328 175.68 199.216 175.41 199.848 174.869C200.486 174.329 200.805 173.548 200.805 172.525C200.805 170.533 199.584 169.537 197.143 169.537C196.524 169.537 195.698 169.632 194.662 169.82L193.823 169.283L194.36 162.604H201.459V164.098H195.746L195.385 168.385C196.134 168.235 196.879 168.16 197.621 168.16ZM217.104 176.881L212.26 164.225H212.182C212.273 165.227 212.319 166.419 212.319 167.799V176.881H210.785V162.604H213.285L217.807 174.381H217.885L222.446 162.604H224.926V176.881H223.266V167.682C223.266 166.627 223.312 165.481 223.403 164.244H223.325L218.442 176.881H217.104ZM230.229 176.881H228.608V166.178H230.229V176.881ZM228.471 163.277C228.471 162.906 228.562 162.636 228.744 162.467C228.927 162.291 229.155 162.203 229.428 162.203C229.688 162.203 229.913 162.291 230.102 162.467C230.291 162.643 230.385 162.913 230.385 163.277C230.385 163.642 230.291 163.915 230.102 164.098C229.913 164.273 229.688 164.361 229.428 164.361C229.155 164.361 228.927 164.273 228.744 164.098C228.562 163.915 228.471 163.642 228.471 163.277ZM240.991 176.881V169.957C240.991 169.085 240.792 168.434 240.395 168.004C239.998 167.574 239.376 167.359 238.53 167.359C237.41 167.359 236.59 167.662 236.069 168.268C235.548 168.873 235.287 169.872 235.287 171.266V176.881H233.666V166.178H234.985L235.248 167.643H235.326C235.659 167.115 236.124 166.708 236.723 166.422C237.322 166.129 237.989 165.982 238.725 165.982C240.014 165.982 240.984 166.295 241.635 166.92C242.286 167.538 242.612 168.531 242.612 169.898V176.881H240.991ZM247.475 166.178V173.121C247.475 173.994 247.673 174.645 248.071 175.074C248.468 175.504 249.09 175.719 249.936 175.719C251.056 175.719 251.873 175.413 252.387 174.801C252.908 174.189 253.168 173.189 253.168 171.803V166.178H254.789V176.881H253.451L253.217 175.445H253.129C252.797 175.973 252.335 176.376 251.743 176.656C251.157 176.936 250.486 177.076 249.731 177.076C248.429 177.076 247.452 176.767 246.801 176.148C246.157 175.53 245.834 174.54 245.834 173.18V166.178H247.475ZM261.694 175.738C261.98 175.738 262.257 175.719 262.524 175.68C262.791 175.634 263.002 175.589 263.159 175.543V176.783C262.983 176.868 262.722 176.936 262.377 176.988C262.039 177.047 261.733 177.076 261.459 177.076C259.389 177.076 258.354 175.986 258.354 173.805V167.438H256.821V166.656L258.354 165.982L259.037 163.697H259.975V166.178H263.08V167.438H259.975V173.736C259.975 174.381 260.128 174.876 260.434 175.221C260.74 175.566 261.16 175.738 261.694 175.738ZM269.828 177.076C268.246 177.076 266.996 176.594 266.078 175.631C265.167 174.667 264.711 173.329 264.711 171.617C264.711 169.892 265.134 168.521 265.981 167.506C266.834 166.49 267.976 165.982 269.409 165.982C270.75 165.982 271.811 166.425 272.592 167.311C273.373 168.189 273.764 169.352 273.764 170.797V171.822H266.391C266.423 173.079 266.739 174.033 267.338 174.684C267.944 175.335 268.793 175.66 269.887 175.66C271.039 175.66 272.179 175.419 273.305 174.938V176.383C272.732 176.63 272.188 176.806 271.674 176.91C271.166 177.021 270.551 177.076 269.828 177.076ZM269.389 167.34C268.53 167.34 267.843 167.62 267.328 168.18C266.821 168.74 266.521 169.514 266.43 170.504H272.026C272.026 169.482 271.798 168.701 271.342 168.16C270.886 167.613 270.235 167.34 269.389 167.34ZM283.442 173.961C283.442 174.957 283.071 175.725 282.328 176.266C281.586 176.806 280.545 177.076 279.203 177.076C277.784 177.076 276.677 176.852 275.883 176.402V174.898C276.397 175.159 276.948 175.364 277.534 175.514C278.126 175.663 278.696 175.738 279.243 175.738C280.089 175.738 280.74 175.605 281.196 175.338C281.651 175.064 281.879 174.651 281.879 174.098C281.879 173.681 281.697 173.326 281.332 173.033C280.974 172.734 280.271 172.382 279.223 171.979C278.227 171.607 277.517 171.285 277.094 171.012C276.677 170.732 276.365 170.416 276.157 170.064C275.955 169.713 275.854 169.293 275.854 168.805C275.854 167.932 276.209 167.245 276.918 166.744C277.628 166.236 278.601 165.982 279.838 165.982C280.991 165.982 282.117 166.217 283.217 166.686L282.641 168.004C281.567 167.561 280.593 167.34 279.721 167.34C278.953 167.34 278.373 167.46 277.983 167.701C277.592 167.942 277.397 168.274 277.397 168.697C277.397 168.984 277.468 169.228 277.612 169.43C277.761 169.632 277.999 169.824 278.325 170.006C278.65 170.188 279.275 170.452 280.2 170.797C281.469 171.259 282.325 171.725 282.768 172.193C283.217 172.662 283.442 173.251 283.442 173.961Z" fill="black"/>
<path d="M150.063 196.885C150.063 197.79 149.799 198.545 149.272 199.15C148.744 199.749 148.002 200.153 147.045 200.361V200.439C148.191 200.583 149.05 200.941 149.623 201.514C150.196 202.08 150.483 202.835 150.483 203.779C150.483 205.153 149.998 206.214 149.028 206.963C148.058 207.705 146.677 208.076 144.887 208.076C143.305 208.076 141.97 207.819 140.883 207.305V205.264C141.489 205.563 142.13 205.794 142.807 205.957C143.484 206.12 144.135 206.201 144.76 206.201C145.867 206.201 146.694 205.996 147.241 205.586C147.787 205.176 148.061 204.541 148.061 203.682C148.061 202.92 147.758 202.36 147.153 202.002C146.547 201.644 145.597 201.465 144.301 201.465H143.061V199.6H144.321C146.599 199.6 147.739 198.812 147.739 197.236C147.739 196.624 147.54 196.152 147.143 195.82C146.746 195.488 146.16 195.322 145.385 195.322C144.845 195.322 144.324 195.4 143.823 195.557C143.321 195.706 142.729 196.003 142.045 196.445L140.922 194.844C142.231 193.88 143.751 193.398 145.483 193.398C146.922 193.398 148.045 193.708 148.852 194.326C149.659 194.945 150.063 195.798 150.063 196.885ZM153.969 207.881L159.614 195.645H152.192V193.623H162.065V195.225L156.45 207.881H153.969ZM165.619 197.881C165.619 198.851 165.714 199.574 165.903 200.049C166.091 200.524 166.401 200.762 166.83 200.762C167.69 200.762 168.119 199.801 168.119 197.881C168.119 195.96 167.69 195 166.83 195C166.401 195 166.091 195.238 165.903 195.713C165.714 196.188 165.619 196.911 165.619 197.881ZM170.014 197.861C170.014 199.359 169.744 200.485 169.203 201.24C168.67 201.989 167.879 202.363 166.83 202.363C165.841 202.363 165.073 201.976 164.526 201.201C163.985 200.42 163.715 199.307 163.715 197.861C163.715 194.886 164.754 193.398 166.83 193.398C167.853 193.398 168.637 193.786 169.184 194.561C169.737 195.329 170.014 196.429 170.014 197.861ZM174.916 203.584C174.916 204.554 175.011 205.28 175.2 205.762C175.395 206.244 175.707 206.484 176.137 206.484C176.99 206.484 177.416 205.518 177.416 203.584C177.416 201.676 176.99 200.723 176.137 200.723C175.707 200.723 175.395 200.957 175.2 201.426C175.011 201.895 174.916 202.614 174.916 203.584ZM179.311 203.584C179.311 205.081 179.041 206.204 178.5 206.953C177.96 207.702 177.172 208.076 176.137 208.076C175.147 208.076 174.379 207.692 173.832 206.924C173.285 206.149 173.012 205.036 173.012 203.584C173.012 200.609 174.054 199.121 176.137 199.121C177.14 199.121 177.918 199.505 178.471 200.273C179.031 201.042 179.311 202.145 179.311 203.584ZM176.41 193.604L168.491 207.881H166.596L174.516 193.604H176.41ZM186.274 203.799L193.432 200.84L186.274 197.48V195.576L195.815 200.342V201.523L186.274 205.723V203.799ZM202.485 198.965C203.923 198.965 205.063 199.346 205.903 200.107C206.743 200.869 207.162 201.908 207.162 203.223C207.162 204.746 206.684 205.938 205.727 206.797C204.776 207.65 203.422 208.076 201.664 208.076C200.069 208.076 198.816 207.819 197.905 207.305V205.225C198.432 205.524 199.037 205.755 199.721 205.918C200.405 206.081 201.039 206.162 201.625 206.162C202.66 206.162 203.448 205.931 203.989 205.469C204.529 205.007 204.799 204.329 204.799 203.438C204.799 201.732 203.712 200.879 201.537 200.879C201.231 200.879 200.854 200.911 200.405 200.977C199.955 201.035 199.562 201.104 199.223 201.182L198.198 200.576L198.744 193.604H206.166V195.645H200.766L200.444 199.18C200.672 199.141 200.948 199.095 201.274 199.043C201.606 198.991 202.009 198.965 202.485 198.965ZM221.44 207.881L217.299 195.957H217.221C217.332 197.728 217.387 199.388 217.387 200.938V207.881H215.268V193.604H218.559L222.524 204.961H222.582L226.664 193.604H229.965V207.881H227.719V200.82C227.719 200.111 227.735 199.186 227.768 198.047C227.807 196.908 227.84 196.217 227.866 195.977H227.787L223.5 207.881H221.44ZM235.776 207.881H233.481V197.08H235.776V207.881ZM233.344 194.219C233.344 193.809 233.455 193.493 233.676 193.271C233.904 193.05 234.226 192.939 234.643 192.939C235.047 192.939 235.359 193.05 235.58 193.271C235.808 193.493 235.922 193.809 235.922 194.219C235.922 194.609 235.808 194.919 235.58 195.146C235.359 195.368 235.047 195.479 234.643 195.479C234.226 195.479 233.904 195.368 233.676 195.146C233.455 194.919 233.344 194.609 233.344 194.219ZM248.569 207.881H246.264V201.24C246.264 200.407 246.095 199.785 245.756 199.375C245.424 198.965 244.894 198.76 244.164 198.76C243.194 198.76 242.485 199.046 242.035 199.619C241.586 200.192 241.362 201.152 241.362 202.5V207.881H239.067V197.08H240.864L241.186 198.496H241.303C241.629 197.982 242.091 197.585 242.69 197.305C243.289 197.025 243.953 196.885 244.682 196.885C247.273 196.885 248.569 198.203 248.569 200.84V207.881ZM259.379 207.881L259.057 206.465H258.94C258.621 206.966 258.165 207.36 257.573 207.646C256.987 207.933 256.316 208.076 255.561 208.076C254.252 208.076 253.276 207.751 252.631 207.1C251.987 206.449 251.664 205.462 251.664 204.141V197.08H253.979V203.74C253.979 204.567 254.148 205.189 254.487 205.605C254.825 206.016 255.356 206.221 256.078 206.221C257.042 206.221 257.748 205.934 258.198 205.361C258.653 204.782 258.881 203.815 258.881 202.461V197.08H261.186V207.881H259.379ZM268.481 206.221C269.041 206.221 269.601 206.133 270.16 205.957V207.686C269.907 207.796 269.578 207.887 269.174 207.959C268.777 208.037 268.364 208.076 267.934 208.076C265.759 208.076 264.672 206.93 264.672 204.639V198.818H263.198V197.803L264.78 196.963L265.561 194.678H266.977V197.08H270.053V198.818H266.977V204.6C266.977 205.153 267.114 205.563 267.387 205.83C267.667 206.091 268.032 206.221 268.481 206.221ZM277.045 208.076C275.366 208.076 274.05 207.588 273.1 206.611C272.156 205.628 271.684 204.277 271.684 202.559C271.684 200.794 272.123 199.408 273.002 198.398C273.881 197.389 275.089 196.885 276.625 196.885C278.051 196.885 279.177 197.318 280.004 198.184C280.831 199.049 281.244 200.241 281.244 201.758V202.998H274.047C274.08 204.046 274.363 204.854 274.897 205.42C275.431 205.98 276.183 206.26 277.153 206.26C277.791 206.26 278.383 206.201 278.93 206.084C279.483 205.96 280.076 205.758 280.707 205.479V207.344C280.147 207.611 279.581 207.799 279.008 207.91C278.435 208.021 277.781 208.076 277.045 208.076ZM276.625 198.623C275.896 198.623 275.31 198.854 274.868 199.316C274.431 199.779 274.171 200.452 274.086 201.338H278.989C278.976 200.446 278.761 199.772 278.344 199.316C277.927 198.854 277.354 198.623 276.625 198.623ZM291.108 204.805C291.108 205.859 290.724 206.67 289.955 207.236C289.187 207.796 288.087 208.076 286.655 208.076C285.216 208.076 284.06 207.858 283.188 207.422V205.439C284.457 206.025 285.639 206.318 286.733 206.318C288.146 206.318 288.852 205.892 288.852 205.039C288.852 204.766 288.774 204.538 288.618 204.355C288.461 204.173 288.204 203.984 287.846 203.789C287.488 203.594 286.99 203.372 286.352 203.125C285.108 202.643 284.265 202.161 283.823 201.68C283.386 201.198 283.168 200.573 283.168 199.805C283.168 198.88 283.539 198.164 284.282 197.656C285.03 197.142 286.046 196.885 287.328 196.885C288.598 196.885 289.799 197.142 290.932 197.656L290.19 199.385C289.024 198.903 288.045 198.662 287.25 198.662C286.039 198.662 285.434 199.007 285.434 199.697C285.434 200.036 285.59 200.322 285.903 200.557C286.222 200.791 286.912 201.113 287.973 201.523C288.865 201.869 289.513 202.184 289.916 202.471C290.32 202.757 290.619 203.089 290.815 203.467C291.01 203.838 291.108 204.284 291.108 204.805Z" fill="black"/>
<path d="M145.395 235.766H143.471V238.881H141.235V235.766H134.711V233.998L141.235 224.564H143.471V233.861H145.395V235.766ZM141.235 233.861V230.277C141.235 229.001 141.267 227.956 141.332 227.143H141.254C141.072 227.572 140.785 228.093 140.395 228.705L136.85 233.861H141.235ZM146.674 232.797C146.674 227.211 148.95 224.418 153.5 224.418C154.216 224.418 154.822 224.473 155.317 224.584V226.498C154.822 226.355 154.249 226.283 153.598 226.283C152.068 226.283 150.919 226.693 150.151 227.514C149.382 228.334 148.966 229.649 148.901 231.459H149.018C149.324 230.932 149.754 230.525 150.307 230.238C150.86 229.945 151.511 229.799 152.26 229.799C153.556 229.799 154.565 230.196 155.287 230.99C156.01 231.785 156.371 232.862 156.371 234.223C156.371 235.72 155.951 236.905 155.112 237.777C154.278 238.643 153.139 239.076 151.694 239.076C150.672 239.076 149.783 238.832 149.028 238.344C148.272 237.849 147.69 237.133 147.28 236.195C146.876 235.251 146.674 234.119 146.674 232.797ZM151.655 237.182C152.442 237.182 153.048 236.928 153.471 236.42C153.901 235.912 154.116 235.186 154.116 234.242C154.116 233.422 153.914 232.777 153.51 232.309C153.113 231.84 152.514 231.605 151.713 231.605C151.218 231.605 150.763 231.713 150.346 231.928C149.929 232.136 149.601 232.426 149.36 232.797C149.119 233.161 148.998 233.536 148.998 233.92C148.998 234.838 149.246 235.613 149.741 236.244C150.242 236.869 150.88 237.182 151.655 237.182ZM159.907 228.881C159.907 229.851 160.001 230.574 160.19 231.049C160.379 231.524 160.688 231.762 161.118 231.762C161.977 231.762 162.407 230.801 162.407 228.881C162.407 226.96 161.977 226 161.118 226C160.688 226 160.379 226.238 160.19 226.713C160.001 227.188 159.907 227.911 159.907 228.881ZM164.301 228.861C164.301 230.359 164.031 231.485 163.491 232.24C162.957 232.989 162.166 233.363 161.118 233.363C160.128 233.363 159.36 232.976 158.813 232.201C158.272 231.42 158.002 230.307 158.002 228.861C158.002 225.886 159.041 224.398 161.118 224.398C162.14 224.398 162.924 224.786 163.471 225.561C164.024 226.329 164.301 227.429 164.301 228.861ZM169.203 234.584C169.203 235.554 169.298 236.28 169.487 236.762C169.682 237.244 169.994 237.484 170.424 237.484C171.277 237.484 171.703 236.518 171.703 234.584C171.703 232.676 171.277 231.723 170.424 231.723C169.994 231.723 169.682 231.957 169.487 232.426C169.298 232.895 169.203 233.614 169.203 234.584ZM173.598 234.584C173.598 236.081 173.328 237.204 172.787 237.953C172.247 238.702 171.459 239.076 170.424 239.076C169.435 239.076 168.666 238.692 168.119 237.924C167.573 237.149 167.299 236.036 167.299 234.584C167.299 231.609 168.341 230.121 170.424 230.121C171.427 230.121 172.205 230.505 172.758 231.273C173.318 232.042 173.598 233.145 173.598 234.584ZM170.698 224.604L162.778 238.881H160.883L168.803 224.604H170.698ZM180.561 234.799L187.719 231.84L180.561 228.48V226.576L190.102 231.342V232.523L180.561 236.723V234.799ZM198.666 238.881H196.371V229.662C196.371 228.562 196.397 227.689 196.45 227.045C196.3 227.201 196.114 227.374 195.893 227.563C195.678 227.751 194.949 228.35 193.705 229.359L192.553 227.904L196.752 224.604H198.666V238.881ZM213.032 231.742C213.032 234.223 212.631 236.065 211.83 237.27C211.036 238.474 209.819 239.076 208.178 239.076C206.59 239.076 205.385 238.454 204.565 237.211C203.744 235.967 203.334 234.145 203.334 231.742C203.334 229.223 203.731 227.367 204.526 226.176C205.326 224.978 206.544 224.379 208.178 224.379C209.773 224.379 210.981 225.004 211.801 226.254C212.621 227.504 213.032 229.333 213.032 231.742ZM205.659 231.742C205.659 233.689 205.857 235.079 206.254 235.912C206.658 236.745 207.299 237.162 208.178 237.162C209.057 237.162 209.698 236.739 210.102 235.893C210.512 235.046 210.717 233.663 210.717 231.742C210.717 229.828 210.512 228.445 210.102 227.592C209.698 226.732 209.057 226.303 208.178 226.303C207.299 226.303 206.658 226.723 206.254 227.563C205.857 228.402 205.659 229.796 205.659 231.742ZM227.153 238.881L223.012 226.957H222.934C223.045 228.728 223.1 230.388 223.1 231.938V238.881H220.981V224.604H224.272L228.237 235.961H228.295L232.377 224.604H235.678V238.881H233.432V231.82C233.432 231.111 233.448 230.186 233.481 229.047C233.52 227.908 233.552 227.217 233.578 226.977H233.5L229.213 238.881H227.153ZM241.489 238.881H239.194V228.08H241.489V238.881ZM239.057 225.219C239.057 224.809 239.168 224.493 239.389 224.271C239.617 224.05 239.939 223.939 240.356 223.939C240.759 223.939 241.072 224.05 241.293 224.271C241.521 224.493 241.635 224.809 241.635 225.219C241.635 225.609 241.521 225.919 241.293 226.146C241.072 226.368 240.759 226.479 240.356 226.479C239.939 226.479 239.617 226.368 239.389 226.146C239.168 225.919 239.057 225.609 239.057 225.219ZM254.282 238.881H251.977V232.24C251.977 231.407 251.808 230.785 251.469 230.375C251.137 229.965 250.606 229.76 249.877 229.76C248.907 229.76 248.198 230.046 247.748 230.619C247.299 231.192 247.075 232.152 247.075 233.5V238.881H244.78V228.08H246.576L246.899 229.496H247.016C247.341 228.982 247.804 228.585 248.403 228.305C249.002 228.025 249.666 227.885 250.395 227.885C252.986 227.885 254.282 229.203 254.282 231.84V238.881ZM265.092 238.881L264.77 237.465H264.653C264.334 237.966 263.878 238.36 263.285 238.646C262.7 238.933 262.029 239.076 261.274 239.076C259.965 239.076 258.989 238.751 258.344 238.1C257.7 237.449 257.377 236.462 257.377 235.141V228.08H259.692V234.74C259.692 235.567 259.861 236.189 260.2 236.605C260.538 237.016 261.069 237.221 261.791 237.221C262.755 237.221 263.461 236.934 263.91 236.361C264.366 235.782 264.594 234.815 264.594 233.461V228.08H266.899V238.881H265.092ZM274.194 237.221C274.754 237.221 275.313 237.133 275.873 236.957V238.686C275.619 238.796 275.291 238.887 274.887 238.959C274.49 239.037 274.076 239.076 273.647 239.076C271.472 239.076 270.385 237.93 270.385 235.639V229.818H268.91V228.803L270.493 227.963L271.274 225.678H272.69V228.08H275.766V229.818H272.69V235.6C272.69 236.153 272.826 236.563 273.1 236.83C273.38 237.091 273.744 237.221 274.194 237.221ZM282.758 239.076C281.078 239.076 279.763 238.588 278.813 237.611C277.869 236.628 277.397 235.277 277.397 233.559C277.397 231.794 277.836 230.408 278.715 229.398C279.594 228.389 280.802 227.885 282.338 227.885C283.764 227.885 284.89 228.318 285.717 229.184C286.544 230.049 286.957 231.241 286.957 232.758V233.998H279.76C279.793 235.046 280.076 235.854 280.61 236.42C281.144 236.98 281.896 237.26 282.866 237.26C283.504 237.26 284.096 237.201 284.643 237.084C285.196 236.96 285.789 236.758 286.42 236.479V238.344C285.86 238.611 285.294 238.799 284.721 238.91C284.148 239.021 283.494 239.076 282.758 239.076ZM282.338 229.623C281.609 229.623 281.023 229.854 280.58 230.316C280.144 230.779 279.884 231.452 279.799 232.338H284.701C284.688 231.446 284.474 230.772 284.057 230.316C283.64 229.854 283.067 229.623 282.338 229.623ZM296.821 235.805C296.821 236.859 296.437 237.67 295.668 238.236C294.9 238.796 293.8 239.076 292.368 239.076C290.929 239.076 289.773 238.858 288.901 238.422V236.439C290.17 237.025 291.352 237.318 292.446 237.318C293.858 237.318 294.565 236.892 294.565 236.039C294.565 235.766 294.487 235.538 294.33 235.355C294.174 235.173 293.917 234.984 293.559 234.789C293.201 234.594 292.703 234.372 292.065 234.125C290.821 233.643 289.978 233.161 289.535 232.68C289.099 232.198 288.881 231.573 288.881 230.805C288.881 229.88 289.252 229.164 289.994 228.656C290.743 228.142 291.759 227.885 293.041 227.885C294.311 227.885 295.512 228.142 296.645 228.656L295.903 230.385C294.737 229.903 293.757 229.662 292.963 229.662C291.752 229.662 291.147 230.007 291.147 230.697C291.147 231.036 291.303 231.322 291.616 231.557C291.935 231.791 292.625 232.113 293.686 232.523C294.578 232.869 295.226 233.184 295.629 233.471C296.033 233.757 296.332 234.089 296.528 234.467C296.723 234.838 296.821 235.284 296.821 235.805Z" fill="black"/>
<path d="M143.168 269.881H141.586V259.705C141.586 258.859 141.612 258.058 141.664 257.303C141.528 257.439 141.375 257.583 141.205 257.732C141.036 257.882 140.261 258.517 138.881 259.637L138.022 258.523L141.801 255.604H143.168V269.881ZM154.614 269.881H153.032V259.705C153.032 258.859 153.058 258.058 153.11 257.303C152.973 257.439 152.82 257.583 152.651 257.732C152.481 257.882 151.707 258.517 150.326 259.637L149.467 258.523L153.246 255.604H154.614V269.881ZM161.44 259.861C161.44 260.968 161.56 261.798 161.801 262.352C162.042 262.905 162.433 263.182 162.973 263.182C164.041 263.182 164.575 262.075 164.575 259.861C164.575 257.661 164.041 256.561 162.973 256.561C162.433 256.561 162.042 256.834 161.801 257.381C161.56 257.928 161.44 258.755 161.44 259.861ZM165.912 259.861C165.912 261.346 165.662 262.469 165.16 263.23C164.666 263.986 163.937 264.363 162.973 264.363C162.062 264.363 161.352 263.976 160.844 263.201C160.343 262.426 160.092 261.313 160.092 259.861C160.092 258.383 160.333 257.27 160.815 256.521C161.303 255.773 162.022 255.398 162.973 255.398C163.917 255.398 164.643 255.786 165.151 256.561C165.659 257.335 165.912 258.436 165.912 259.861ZM170.034 265.584C170.034 266.697 170.154 267.531 170.395 268.084C170.636 268.631 171.03 268.904 171.576 268.904C172.123 268.904 172.527 268.634 172.787 268.094C173.048 267.547 173.178 266.71 173.178 265.584C173.178 264.471 173.048 263.647 172.787 263.113C172.527 262.573 172.123 262.303 171.576 262.303C171.03 262.303 170.636 262.573 170.395 263.113C170.154 263.647 170.034 264.471 170.034 265.584ZM174.516 265.584C174.516 267.062 174.265 268.182 173.764 268.943C173.269 269.699 172.54 270.076 171.576 270.076C170.652 270.076 169.939 269.689 169.438 268.914C168.943 268.139 168.696 267.029 168.696 265.584C168.696 264.106 168.937 262.993 169.418 262.244C169.907 261.495 170.626 261.121 171.576 261.121C172.501 261.121 173.22 261.505 173.735 262.273C174.256 263.035 174.516 264.139 174.516 265.584ZM171.996 255.604L164.076 269.881H162.641L170.561 255.604H171.996ZM181.752 266.043L189.399 262.859L181.752 259.217V257.762L191.137 262.439V263.396L181.752 267.518V266.043ZM199.164 269.881H197.582V259.705C197.582 258.859 197.608 258.058 197.66 257.303C197.524 257.439 197.371 257.583 197.201 257.732C197.032 257.882 196.257 258.517 194.877 259.637L194.018 258.523L197.797 255.604H199.164V269.881ZM209.067 261.16C210.571 261.16 211.752 261.535 212.612 262.283C213.478 263.025 213.91 264.044 213.91 265.34C213.91 266.818 213.438 267.977 212.494 268.816C211.557 269.656 210.261 270.076 208.608 270.076C207 270.076 205.772 269.819 204.926 269.305V267.742C205.382 268.035 205.948 268.266 206.625 268.436C207.302 268.598 207.97 268.68 208.627 268.68C209.773 268.68 210.662 268.41 211.293 267.869C211.931 267.329 212.25 266.548 212.25 265.525C212.25 263.533 211.03 262.537 208.588 262.537C207.97 262.537 207.143 262.632 206.108 262.82L205.268 262.283L205.805 255.604H212.905V257.098H207.192L206.83 261.385C207.579 261.235 208.325 261.16 209.067 261.16ZM228.549 269.881L223.705 257.225H223.627C223.718 258.227 223.764 259.419 223.764 260.799V269.881H222.231V255.604H224.731L229.252 267.381H229.33L233.891 255.604H236.371V269.881H234.711V260.682C234.711 259.627 234.757 258.481 234.848 257.244H234.77L229.887 269.881H228.549ZM241.674 269.881H240.053V259.178H241.674V269.881ZM239.916 256.277C239.916 255.906 240.007 255.636 240.19 255.467C240.372 255.291 240.6 255.203 240.873 255.203C241.134 255.203 241.358 255.291 241.547 255.467C241.736 255.643 241.83 255.913 241.83 256.277C241.83 256.642 241.736 256.915 241.547 257.098C241.358 257.273 241.134 257.361 240.873 257.361C240.6 257.361 240.372 257.273 240.19 257.098C240.007 256.915 239.916 256.642 239.916 256.277ZM252.436 269.881V262.957C252.436 262.085 252.237 261.434 251.84 261.004C251.443 260.574 250.821 260.359 249.975 260.359C248.855 260.359 248.035 260.662 247.514 261.268C246.993 261.873 246.733 262.872 246.733 264.266V269.881H245.112V259.178H246.43L246.694 260.643H246.772C247.104 260.115 247.569 259.708 248.168 259.422C248.767 259.129 249.435 258.982 250.17 258.982C251.459 258.982 252.429 259.295 253.08 259.92C253.731 260.538 254.057 261.531 254.057 262.898V269.881H252.436ZM258.92 259.178V266.121C258.92 266.993 259.119 267.645 259.516 268.074C259.913 268.504 260.535 268.719 261.381 268.719C262.501 268.719 263.318 268.413 263.832 267.801C264.353 267.189 264.614 266.189 264.614 264.803V259.178H266.235V269.881H264.897L264.662 268.445H264.575C264.243 268.973 263.78 269.376 263.188 269.656C262.602 269.936 261.931 270.076 261.176 270.076C259.874 270.076 258.897 269.767 258.246 269.148C257.602 268.53 257.28 267.54 257.28 266.18V259.178H258.92ZM273.139 268.738C273.425 268.738 273.702 268.719 273.969 268.68C274.236 268.634 274.448 268.589 274.604 268.543V269.783C274.428 269.868 274.168 269.936 273.823 269.988C273.484 270.047 273.178 270.076 272.905 270.076C270.834 270.076 269.799 268.986 269.799 266.805V260.438H268.266V259.656L269.799 258.982L270.483 256.697H271.42V259.178H274.526V260.438H271.42V266.736C271.42 267.381 271.573 267.876 271.879 268.221C272.185 268.566 272.605 268.738 273.139 268.738ZM281.274 270.076C279.692 270.076 278.442 269.594 277.524 268.631C276.612 267.667 276.157 266.329 276.157 264.617C276.157 262.892 276.58 261.521 277.426 260.506C278.279 259.49 279.422 258.982 280.854 258.982C282.195 258.982 283.256 259.425 284.037 260.311C284.819 261.189 285.209 262.352 285.209 263.797V264.822H277.836C277.869 266.079 278.185 267.033 278.784 267.684C279.389 268.335 280.239 268.66 281.332 268.66C282.485 268.66 283.624 268.419 284.75 267.938V269.383C284.177 269.63 283.634 269.806 283.119 269.91C282.612 270.021 281.996 270.076 281.274 270.076ZM280.834 260.34C279.975 260.34 279.288 260.62 278.774 261.18C278.266 261.74 277.966 262.514 277.875 263.504H283.471C283.471 262.482 283.243 261.701 282.787 261.16C282.332 260.613 281.681 260.34 280.834 260.34ZM294.887 266.961C294.887 267.957 294.516 268.725 293.774 269.266C293.032 269.806 291.99 270.076 290.649 270.076C289.229 270.076 288.123 269.852 287.328 269.402V267.898C287.843 268.159 288.393 268.364 288.979 268.514C289.571 268.663 290.141 268.738 290.688 268.738C291.534 268.738 292.185 268.605 292.641 268.338C293.097 268.064 293.325 267.651 293.325 267.098C293.325 266.681 293.142 266.326 292.778 266.033C292.42 265.734 291.716 265.382 290.668 264.979C289.672 264.607 288.963 264.285 288.539 264.012C288.123 263.732 287.81 263.416 287.602 263.064C287.4 262.713 287.299 262.293 287.299 261.805C287.299 260.932 287.654 260.245 288.364 259.744C289.073 259.236 290.047 258.982 291.284 258.982C292.436 258.982 293.562 259.217 294.662 259.686L294.086 261.004C293.012 260.561 292.039 260.34 291.166 260.34C290.398 260.34 289.819 260.46 289.428 260.701C289.037 260.942 288.842 261.274 288.842 261.697C288.842 261.984 288.914 262.228 289.057 262.43C289.207 262.632 289.444 262.824 289.77 263.006C290.095 263.188 290.72 263.452 291.645 263.797C292.914 264.259 293.771 264.725 294.213 265.193C294.662 265.662 294.887 266.251 294.887 266.961Z" fill="black"/>
</svg>
