<svg width="448" height="432" viewBox="0 0 448 432" fill="none" xmlns="http://www.w3.org/2000/svg">
<path d="M438.358 238.041C434.266 277.615 419.299 315.285 395.115 346.875C370.931 378.466 338.473 402.745 301.338 417.023C264.204 431.301 223.841 435.021 184.722 427.769C145.604 420.518 109.256 402.579 79.7059 375.939L224 215.879L438.358 238.041Z" fill="#A1A2A4"/>
<path d="M74.4106 371.002C33.2695 331.328 9.57366 276.936 8.53601 219.791C7.49835 162.647 29.2038 107.43 68.8775 66.2891C108.551 25.1479 162.943 1.45209 220.088 0.414426C277.233 -0.62324 332.449 21.0822 373.59 60.7559L224 215.879L74.4106 371.002Z" fill="#81BC01"/>
<path d="M376.382 63.4974C398.432 85.5472 415.434 112.12 426.214 141.38C436.994 170.641 441.295 201.892 438.821 232.977L224 215.879L376.382 63.4974Z" fill="#D0D0D1"/>
<rect x="25.5054" y="17.3859" width="396.99" height="396.99" rx="198.495" fill="#F0F0F0"/>
<path d="M166.071 169.723C166.071 172.19 165.68 174.033 164.899 175.25C164.124 176.467 162.936 177.076 161.334 177.076C159.798 177.076 158.629 176.454 157.828 175.211C157.028 173.961 156.627 172.132 156.627 169.723C156.627 167.236 157.015 165.39 157.789 164.186C158.564 162.981 159.746 162.379 161.334 162.379C162.884 162.379 164.059 163.007 164.86 164.264C165.667 165.52 166.071 167.34 166.071 169.723ZM158.268 169.723C158.268 171.799 158.512 173.313 159 174.264C159.489 175.208 160.267 175.68 161.334 175.68C162.415 175.68 163.196 175.201 163.678 174.244C164.166 173.281 164.41 171.773 164.41 169.723C164.41 167.672 164.166 166.171 163.678 165.221C163.196 164.264 162.415 163.785 161.334 163.785C160.267 163.785 159.489 164.257 159 165.201C158.512 166.139 158.268 167.646 158.268 169.723ZM169.44 166.861C169.44 167.968 169.56 168.798 169.801 169.352C170.042 169.905 170.433 170.182 170.973 170.182C172.041 170.182 172.575 169.075 172.575 166.861C172.575 164.661 172.041 163.561 170.973 163.561C170.433 163.561 170.042 163.834 169.801 164.381C169.56 164.928 169.44 165.755 169.44 166.861ZM173.912 166.861C173.912 168.346 173.662 169.469 173.16 170.23C172.666 170.986 171.937 171.363 170.973 171.363C170.062 171.363 169.352 170.976 168.844 170.201C168.343 169.426 168.092 168.313 168.092 166.861C168.092 165.383 168.333 164.27 168.815 163.521C169.303 162.773 170.022 162.398 170.973 162.398C171.917 162.398 172.643 162.786 173.151 163.561C173.659 164.335 173.912 165.436 173.912 166.861ZM178.034 172.584C178.034 173.697 178.154 174.531 178.395 175.084C178.636 175.631 179.03 175.904 179.576 175.904C180.123 175.904 180.527 175.634 180.787 175.094C181.048 174.547 181.178 173.71 181.178 172.584C181.178 171.471 181.048 170.647 180.787 170.113C180.527 169.573 180.123 169.303 179.576 169.303C179.03 169.303 178.636 169.573 178.395 170.113C178.154 170.647 178.034 171.471 178.034 172.584ZM182.516 172.584C182.516 174.062 182.265 175.182 181.764 175.943C181.269 176.699 180.54 177.076 179.576 177.076C178.652 177.076 177.939 176.689 177.438 175.914C176.943 175.139 176.696 174.029 176.696 172.584C176.696 171.106 176.937 169.993 177.418 169.244C177.907 168.495 178.626 168.121 179.576 168.121C180.501 168.121 181.22 168.505 181.735 169.273C182.256 170.035 182.516 171.139 182.516 172.584ZM179.996 162.604L172.076 176.881H170.641L178.561 162.604H179.996ZM199.137 174.518L189.752 170.396V169.439L199.137 164.762V166.217L191.5 169.84L199.137 173.043V174.518ZM205.621 168.16C207.125 168.16 208.307 168.535 209.166 169.283C210.032 170.025 210.465 171.044 210.465 172.34C210.465 173.818 209.993 174.977 209.049 175.816C208.112 176.656 206.816 177.076 205.162 177.076C203.554 177.076 202.327 176.819 201.481 176.305V174.742C201.937 175.035 202.503 175.266 203.18 175.436C203.857 175.598 204.524 175.68 205.182 175.68C206.328 175.68 207.216 175.41 207.848 174.869C208.486 174.329 208.805 173.548 208.805 172.525C208.805 170.533 207.584 169.537 205.143 169.537C204.524 169.537 203.698 169.632 202.662 169.82L201.823 169.283L202.36 162.604H209.459V164.098H203.746L203.385 168.385C204.134 168.235 204.879 168.16 205.621 168.16ZM225.104 176.881L220.26 164.225H220.182C220.273 165.227 220.319 166.419 220.319 167.799V176.881H218.785V162.604H221.285L225.807 174.381H225.885L230.446 162.604H232.926V176.881H231.266V167.682C231.266 166.627 231.312 165.481 231.403 164.244H231.325L226.442 176.881H225.104ZM238.229 176.881H236.608V166.178H238.229V176.881ZM236.471 163.277C236.471 162.906 236.562 162.636 236.744 162.467C236.927 162.291 237.155 162.203 237.428 162.203C237.688 162.203 237.913 162.291 238.102 162.467C238.291 162.643 238.385 162.913 238.385 163.277C238.385 163.642 238.291 163.915 238.102 164.098C237.913 164.273 237.688 164.361 237.428 164.361C237.155 164.361 236.927 164.273 236.744 164.098C236.562 163.915 236.471 163.642 236.471 163.277ZM248.991 176.881V169.957C248.991 169.085 248.792 168.434 248.395 168.004C247.998 167.574 247.376 167.359 246.53 167.359C245.41 167.359 244.59 167.662 244.069 168.268C243.548 168.873 243.287 169.872 243.287 171.266V176.881H241.666V166.178H242.985L243.248 167.643H243.326C243.659 167.115 244.124 166.708 244.723 166.422C245.322 166.129 245.989 165.982 246.725 165.982C248.014 165.982 248.984 166.295 249.635 166.92C250.286 167.538 250.612 168.531 250.612 169.898V176.881H248.991ZM255.475 166.178V173.121C255.475 173.994 255.673 174.645 256.071 175.074C256.468 175.504 257.09 175.719 257.936 175.719C259.056 175.719 259.873 175.413 260.387 174.801C260.908 174.189 261.168 173.189 261.168 171.803V166.178H262.789V176.881H261.451L261.217 175.445H261.129C260.797 175.973 260.335 176.376 259.743 176.656C259.157 176.936 258.486 177.076 257.731 177.076C256.429 177.076 255.452 176.767 254.801 176.148C254.157 175.53 253.834 174.54 253.834 173.18V166.178H255.475ZM269.694 175.738C269.98 175.738 270.257 175.719 270.524 175.68C270.791 175.634 271.002 175.589 271.159 175.543V176.783C270.983 176.868 270.722 176.936 270.377 176.988C270.039 177.047 269.733 177.076 269.459 177.076C267.389 177.076 266.354 175.986 266.354 173.805V167.438H264.821V166.656L266.354 165.982L267.037 163.697H267.975V166.178H271.08V167.438H267.975V173.736C267.975 174.381 268.128 174.876 268.434 175.221C268.74 175.566 269.16 175.738 269.694 175.738ZM277.828 177.076C276.246 177.076 274.996 176.594 274.078 175.631C273.167 174.667 272.711 173.329 272.711 171.617C272.711 169.892 273.134 168.521 273.981 167.506C274.834 166.49 275.976 165.982 277.409 165.982C278.75 165.982 279.811 166.425 280.592 167.311C281.373 168.189 281.764 169.352 281.764 170.797V171.822H274.391C274.423 173.079 274.739 174.033 275.338 174.684C275.944 175.335 276.793 175.66 277.887 175.66C279.039 175.66 280.179 175.419 281.305 174.938V176.383C280.732 176.63 280.188 176.806 279.674 176.91C279.166 177.021 278.551 177.076 277.828 177.076ZM277.389 167.34C276.53 167.34 275.843 167.62 275.328 168.18C274.821 168.74 274.521 169.514 274.43 170.504H280.026C280.026 169.482 279.798 168.701 279.342 168.16C278.886 167.613 278.235 167.34 277.389 167.34ZM291.442 173.961C291.442 174.957 291.071 175.725 290.328 176.266C289.586 176.806 288.545 177.076 287.203 177.076C285.784 177.076 284.677 176.852 283.883 176.402V174.898C284.397 175.159 284.948 175.364 285.534 175.514C286.126 175.663 286.696 175.738 287.243 175.738C288.089 175.738 288.74 175.605 289.196 175.338C289.651 175.064 289.879 174.651 289.879 174.098C289.879 173.681 289.697 173.326 289.332 173.033C288.974 172.734 288.271 172.382 287.223 171.979C286.227 171.607 285.517 171.285 285.094 171.012C284.677 170.732 284.365 170.416 284.157 170.064C283.955 169.713 283.854 169.293 283.854 168.805C283.854 167.932 284.209 167.245 284.918 166.744C285.628 166.236 286.601 165.982 287.838 165.982C288.991 165.982 290.117 166.217 291.217 166.686L290.641 168.004C289.567 167.561 288.593 167.34 287.721 167.34C286.953 167.34 286.373 167.46 285.983 167.701C285.592 167.942 285.397 168.274 285.397 168.697C285.397 168.984 285.468 169.228 285.612 169.43C285.761 169.632 285.999 169.824 286.325 170.006C286.65 170.188 287.275 170.452 288.2 170.797C289.469 171.259 290.325 171.725 290.768 172.193C291.217 172.662 291.442 173.251 291.442 173.961Z" fill="black"/>
<path d="M156.891 207.881H155.309V197.705C155.309 196.859 155.335 196.058 155.387 195.303C155.25 195.439 155.097 195.583 154.928 195.732C154.759 195.882 153.984 196.517 152.604 197.637L151.744 196.523L155.524 193.604H156.891V207.881ZM171.715 207.881H162.33V206.484L166.09 202.705C167.236 201.546 167.991 200.719 168.356 200.225C168.72 199.73 168.994 199.248 169.176 198.779C169.358 198.311 169.45 197.806 169.45 197.266C169.45 196.504 169.218 195.902 168.756 195.459C168.294 195.01 167.653 194.785 166.832 194.785C166.24 194.785 165.677 194.883 165.143 195.078C164.616 195.273 164.026 195.628 163.375 196.143L162.516 195.039C163.831 193.945 165.263 193.398 166.813 193.398C168.154 193.398 169.205 193.744 169.967 194.434C170.729 195.117 171.11 196.038 171.11 197.197C171.11 198.102 170.856 198.997 170.348 199.883C169.84 200.768 168.89 201.888 167.496 203.242L164.371 206.299V206.377H171.715V207.881ZM175.162 197.861C175.162 198.968 175.283 199.798 175.524 200.352C175.765 200.905 176.155 201.182 176.696 201.182C177.763 201.182 178.297 200.075 178.297 197.861C178.297 195.661 177.763 194.561 176.696 194.561C176.155 194.561 175.765 194.834 175.524 195.381C175.283 195.928 175.162 196.755 175.162 197.861ZM179.635 197.861C179.635 199.346 179.384 200.469 178.883 201.23C178.388 201.986 177.659 202.363 176.696 202.363C175.784 202.363 175.075 201.976 174.567 201.201C174.065 200.426 173.815 199.313 173.815 197.861C173.815 196.383 174.056 195.27 174.537 194.521C175.026 193.773 175.745 193.398 176.696 193.398C177.64 193.398 178.366 193.786 178.873 194.561C179.381 195.335 179.635 196.436 179.635 197.861ZM183.756 203.584C183.756 204.697 183.877 205.531 184.118 206.084C184.358 206.631 184.752 206.904 185.299 206.904C185.846 206.904 186.25 206.634 186.51 206.094C186.771 205.547 186.901 204.71 186.901 203.584C186.901 202.471 186.771 201.647 186.51 201.113C186.25 200.573 185.846 200.303 185.299 200.303C184.752 200.303 184.358 200.573 184.118 201.113C183.877 201.647 183.756 202.471 183.756 203.584ZM188.239 203.584C188.239 205.062 187.988 206.182 187.487 206.943C186.992 207.699 186.263 208.076 185.299 208.076C184.375 208.076 183.662 207.689 183.16 206.914C182.666 206.139 182.418 205.029 182.418 203.584C182.418 202.106 182.659 200.993 183.141 200.244C183.629 199.495 184.349 199.121 185.299 199.121C186.224 199.121 186.943 199.505 187.457 200.273C187.978 201.035 188.239 202.139 188.239 203.584ZM185.719 193.604L177.799 207.881H176.364L184.284 193.604H185.719ZM195.475 204.043L203.121 200.859L195.475 197.217V195.762L204.86 200.439V201.396L195.475 205.518V204.043ZM211.344 199.16C212.848 199.16 214.03 199.535 214.889 200.283C215.755 201.025 216.188 202.044 216.188 203.34C216.188 204.818 215.716 205.977 214.772 206.816C213.834 207.656 212.539 208.076 210.885 208.076C209.277 208.076 208.05 207.819 207.203 207.305V205.742C207.659 206.035 208.226 206.266 208.903 206.436C209.58 206.598 210.247 206.68 210.905 206.68C212.05 206.68 212.939 206.41 213.571 205.869C214.209 205.329 214.528 204.548 214.528 203.525C214.528 201.533 213.307 200.537 210.866 200.537C210.247 200.537 209.42 200.632 208.385 200.82L207.545 200.283L208.082 193.604H215.182V195.098H209.469L209.108 199.385C209.856 199.235 210.602 199.16 211.344 199.16ZM230.826 207.881L225.983 195.225H225.905C225.996 196.227 226.041 197.419 226.041 198.799V207.881H224.508V193.604H227.008L231.53 205.381H231.608L236.168 193.604H238.649V207.881H236.989V198.682C236.989 197.627 237.034 196.481 237.125 195.244H237.047L232.164 207.881H230.826ZM243.951 207.881H242.33V197.178H243.951V207.881ZM242.194 194.277C242.194 193.906 242.285 193.636 242.467 193.467C242.649 193.291 242.877 193.203 243.151 193.203C243.411 193.203 243.636 193.291 243.825 193.467C244.013 193.643 244.108 193.913 244.108 194.277C244.108 194.642 244.013 194.915 243.825 195.098C243.636 195.273 243.411 195.361 243.151 195.361C242.877 195.361 242.649 195.273 242.467 195.098C242.285 194.915 242.194 194.642 242.194 194.277ZM254.713 207.881V200.957C254.713 200.085 254.515 199.434 254.118 199.004C253.72 198.574 253.099 198.359 252.252 198.359C251.132 198.359 250.312 198.662 249.791 199.268C249.271 199.873 249.01 200.872 249.01 202.266V207.881H247.389V197.178H248.707L248.971 198.643H249.049C249.381 198.115 249.847 197.708 250.446 197.422C251.045 197.129 251.712 196.982 252.448 196.982C253.737 196.982 254.707 197.295 255.358 197.92C256.009 198.538 256.334 199.531 256.334 200.898V207.881H254.713ZM261.198 197.178V204.121C261.198 204.994 261.396 205.645 261.793 206.074C262.19 206.504 262.812 206.719 263.659 206.719C264.778 206.719 265.595 206.413 266.11 205.801C266.631 205.189 266.891 204.189 266.891 202.803V197.178H268.512V207.881H267.174L266.94 206.445H266.852C266.52 206.973 266.058 207.376 265.465 207.656C264.879 207.936 264.209 208.076 263.453 208.076C262.151 208.076 261.175 207.767 260.524 207.148C259.879 206.53 259.557 205.54 259.557 204.18V197.178H261.198ZM275.416 206.738C275.703 206.738 275.979 206.719 276.246 206.68C276.513 206.634 276.725 206.589 276.881 206.543V207.783C276.705 207.868 276.445 207.936 276.1 207.988C275.761 208.047 275.455 208.076 275.182 208.076C273.112 208.076 272.076 206.986 272.076 204.805V198.438H270.543V197.656L272.076 196.982L272.76 194.697H273.698V197.178H276.803V198.438H273.698V204.736C273.698 205.381 273.851 205.876 274.157 206.221C274.463 206.566 274.882 206.738 275.416 206.738ZM283.551 208.076C281.969 208.076 280.719 207.594 279.801 206.631C278.89 205.667 278.434 204.329 278.434 202.617C278.434 200.892 278.857 199.521 279.703 198.506C280.556 197.49 281.699 196.982 283.131 196.982C284.472 196.982 285.534 197.425 286.315 198.311C287.096 199.189 287.487 200.352 287.487 201.797V202.822H280.114C280.146 204.079 280.462 205.033 281.061 205.684C281.666 206.335 282.516 206.66 283.61 206.66C284.762 206.66 285.901 206.419 287.028 205.938V207.383C286.455 207.63 285.911 207.806 285.397 207.91C284.889 208.021 284.274 208.076 283.551 208.076ZM283.112 198.34C282.252 198.34 281.565 198.62 281.051 199.18C280.543 199.74 280.244 200.514 280.153 201.504H285.748C285.748 200.482 285.521 199.701 285.065 199.16C284.609 198.613 283.958 198.34 283.112 198.34ZM297.164 204.961C297.164 205.957 296.793 206.725 296.051 207.266C295.309 207.806 294.267 208.076 292.926 208.076C291.507 208.076 290.4 207.852 289.606 207.402V205.898C290.12 206.159 290.67 206.364 291.256 206.514C291.849 206.663 292.418 206.738 292.965 206.738C293.812 206.738 294.463 206.605 294.918 206.338C295.374 206.064 295.602 205.651 295.602 205.098C295.602 204.681 295.42 204.326 295.055 204.033C294.697 203.734 293.994 203.382 292.946 202.979C291.95 202.607 291.24 202.285 290.817 202.012C290.4 201.732 290.088 201.416 289.879 201.064C289.677 200.713 289.576 200.293 289.576 199.805C289.576 198.932 289.931 198.245 290.641 197.744C291.351 197.236 292.324 196.982 293.561 196.982C294.713 196.982 295.84 197.217 296.94 197.686L296.364 199.004C295.289 198.561 294.316 198.34 293.444 198.34C292.675 198.34 292.096 198.46 291.705 198.701C291.315 198.942 291.119 199.274 291.119 199.697C291.119 199.984 291.191 200.228 291.334 200.43C291.484 200.632 291.722 200.824 292.047 201.006C292.373 201.188 292.998 201.452 293.922 201.797C295.192 202.259 296.048 202.725 296.491 203.193C296.94 203.662 297.164 204.251 297.164 204.961Z" fill="black"/>
<path d="M148.053 229.965C149.492 229.965 150.631 230.346 151.471 231.107C152.311 231.869 152.731 232.908 152.731 234.223C152.731 235.746 152.252 236.938 151.295 237.797C150.345 238.65 148.991 239.076 147.233 239.076C145.638 239.076 144.384 238.819 143.473 238.305V236.225C144 236.524 144.606 236.755 145.289 236.918C145.973 237.081 146.608 237.162 147.194 237.162C148.229 237.162 149.017 236.931 149.557 236.469C150.097 236.007 150.368 235.329 150.368 234.438C150.368 232.732 149.28 231.879 147.106 231.879C146.8 231.879 146.422 231.911 145.973 231.977C145.524 232.035 145.13 232.104 144.791 232.182L143.766 231.576L144.313 224.604H151.735V226.645H146.334L146.012 230.18C146.24 230.141 146.517 230.095 146.842 230.043C147.174 229.991 147.578 229.965 148.053 229.965ZM161.373 238.881H159.078V229.662C159.078 228.562 159.104 227.689 159.157 227.045C159.007 227.201 158.821 227.374 158.6 227.563C158.385 227.751 157.656 228.35 156.412 229.359L155.26 227.904L159.459 224.604H161.373V238.881ZM167.907 228.881C167.907 229.851 168.001 230.574 168.19 231.049C168.379 231.524 168.688 231.762 169.118 231.762C169.977 231.762 170.407 230.801 170.407 228.881C170.407 226.96 169.977 226 169.118 226C168.688 226 168.379 226.238 168.19 226.713C168.001 227.188 167.907 227.911 167.907 228.881ZM172.301 228.861C172.301 230.359 172.031 231.485 171.491 232.24C170.957 232.989 170.166 233.363 169.118 233.363C168.128 233.363 167.36 232.976 166.813 232.201C166.272 231.42 166.002 230.307 166.002 228.861C166.002 225.886 167.041 224.398 169.118 224.398C170.14 224.398 170.924 224.786 171.471 225.561C172.024 226.329 172.301 227.429 172.301 228.861ZM177.203 234.584C177.203 235.554 177.298 236.28 177.487 236.762C177.682 237.244 177.994 237.484 178.424 237.484C179.277 237.484 179.703 236.518 179.703 234.584C179.703 232.676 179.277 231.723 178.424 231.723C177.994 231.723 177.682 231.957 177.487 232.426C177.298 232.895 177.203 233.614 177.203 234.584ZM181.598 234.584C181.598 236.081 181.328 237.204 180.787 237.953C180.247 238.702 179.459 239.076 178.424 239.076C177.435 239.076 176.666 238.692 176.119 237.924C175.573 237.149 175.299 236.036 175.299 234.584C175.299 231.609 176.341 230.121 178.424 230.121C179.427 230.121 180.205 230.505 180.758 231.273C181.318 232.042 181.598 233.145 181.598 234.584ZM178.698 224.604L170.778 238.881H168.883L176.803 224.604H178.698ZM188.561 234.799L195.719 231.84L188.561 228.48V226.576L198.102 231.342V232.523L188.561 236.723V234.799ZM206.666 238.881H204.371V229.662C204.371 228.562 204.397 227.689 204.45 227.045C204.3 227.201 204.114 227.374 203.893 227.563C203.678 227.751 202.949 228.35 201.705 229.359L200.553 227.904L204.752 224.604H206.666V238.881ZM221.032 231.742C221.032 234.223 220.631 236.065 219.83 237.27C219.036 238.474 217.819 239.076 216.178 239.076C214.59 239.076 213.385 238.454 212.565 237.211C211.744 235.967 211.334 234.145 211.334 231.742C211.334 229.223 211.731 227.367 212.526 226.176C213.326 224.978 214.544 224.379 216.178 224.379C217.773 224.379 218.981 225.004 219.801 226.254C220.621 227.504 221.032 229.333 221.032 231.742ZM213.659 231.742C213.659 233.689 213.857 235.079 214.254 235.912C214.658 236.745 215.299 237.162 216.178 237.162C217.057 237.162 217.698 236.739 218.102 235.893C218.512 235.046 218.717 233.663 218.717 231.742C218.717 229.828 218.512 228.445 218.102 227.592C217.698 226.732 217.057 226.303 216.178 226.303C215.299 226.303 214.658 226.723 214.254 227.563C213.857 228.402 213.659 229.796 213.659 231.742ZM235.153 238.881L231.012 226.957H230.934C231.045 228.728 231.1 230.388 231.1 231.938V238.881H228.981V224.604H232.272L236.237 235.961H236.295L240.377 224.604H243.678V238.881H241.432V231.82C241.432 231.111 241.448 230.186 241.481 229.047C241.52 227.908 241.552 227.217 241.578 226.977H241.5L237.213 238.881H235.153ZM249.489 238.881H247.194V228.08H249.489V238.881ZM247.057 225.219C247.057 224.809 247.168 224.493 247.389 224.271C247.617 224.05 247.939 223.939 248.356 223.939C248.759 223.939 249.072 224.05 249.293 224.271C249.521 224.493 249.635 224.809 249.635 225.219C249.635 225.609 249.521 225.919 249.293 226.146C249.072 226.368 248.759 226.479 248.356 226.479C247.939 226.479 247.617 226.368 247.389 226.146C247.168 225.919 247.057 225.609 247.057 225.219ZM262.282 238.881H259.977V232.24C259.977 231.407 259.808 230.785 259.469 230.375C259.137 229.965 258.606 229.76 257.877 229.76C256.907 229.76 256.198 230.046 255.748 230.619C255.299 231.192 255.075 232.152 255.075 233.5V238.881H252.78V228.08H254.576L254.899 229.496H255.016C255.341 228.982 255.804 228.585 256.403 228.305C257.002 228.025 257.666 227.885 258.395 227.885C260.986 227.885 262.282 229.203 262.282 231.84V238.881ZM273.092 238.881L272.77 237.465H272.653C272.334 237.966 271.878 238.36 271.285 238.646C270.7 238.933 270.029 239.076 269.274 239.076C267.965 239.076 266.989 238.751 266.344 238.1C265.7 237.449 265.377 236.462 265.377 235.141V228.08H267.692V234.74C267.692 235.567 267.861 236.189 268.2 236.605C268.538 237.016 269.069 237.221 269.791 237.221C270.755 237.221 271.461 236.934 271.91 236.361C272.366 235.782 272.594 234.815 272.594 233.461V228.08H274.899V238.881H273.092ZM282.194 237.221C282.754 237.221 283.313 237.133 283.873 236.957V238.686C283.619 238.796 283.291 238.887 282.887 238.959C282.49 239.037 282.076 239.076 281.647 239.076C279.472 239.076 278.385 237.93 278.385 235.639V229.818H276.91V228.803L278.493 227.963L279.274 225.678H280.69V228.08H283.766V229.818H280.69V235.6C280.69 236.153 280.826 236.563 281.1 236.83C281.38 237.091 281.744 237.221 282.194 237.221ZM290.758 239.076C289.078 239.076 287.763 238.588 286.813 237.611C285.869 236.628 285.397 235.277 285.397 233.559C285.397 231.794 285.836 230.408 286.715 229.398C287.594 228.389 288.802 227.885 290.338 227.885C291.764 227.885 292.89 228.318 293.717 229.184C294.544 230.049 294.957 231.241 294.957 232.758V233.998H287.76C287.793 235.046 288.076 235.854 288.61 236.42C289.144 236.98 289.896 237.26 290.866 237.26C291.504 237.26 292.096 237.201 292.643 237.084C293.196 236.96 293.789 236.758 294.42 236.479V238.344C293.86 238.611 293.294 238.799 292.721 238.91C292.148 239.021 291.494 239.076 290.758 239.076ZM290.338 229.623C289.609 229.623 289.023 229.854 288.58 230.316C288.144 230.779 287.884 231.452 287.799 232.338H292.701C292.688 231.446 292.474 230.772 292.057 230.316C291.64 229.854 291.067 229.623 290.338 229.623ZM304.821 235.805C304.821 236.859 304.437 237.67 303.668 238.236C302.9 238.796 301.8 239.076 300.368 239.076C298.929 239.076 297.773 238.858 296.901 238.422V236.439C298.17 237.025 299.352 237.318 300.446 237.318C301.858 237.318 302.565 236.892 302.565 236.039C302.565 235.766 302.487 235.538 302.33 235.355C302.174 235.173 301.917 234.984 301.559 234.789C301.201 234.594 300.703 234.372 300.065 234.125C298.821 233.643 297.978 233.161 297.535 232.68C297.099 232.198 296.881 231.573 296.881 230.805C296.881 229.88 297.252 229.164 297.994 228.656C298.743 228.142 299.759 227.885 301.041 227.885C302.311 227.885 303.512 228.142 304.645 228.656L303.903 230.385C302.737 229.903 301.757 229.662 300.963 229.662C299.752 229.662 299.147 230.007 299.147 230.697C299.147 231.036 299.303 231.322 299.616 231.557C299.935 231.791 300.625 232.113 301.686 232.523C302.578 232.869 303.226 233.184 303.629 233.471C304.033 233.757 304.332 234.089 304.528 234.467C304.723 234.838 304.821 235.284 304.821 235.805Z" fill="black"/>
<path d="M152.35 258.885C152.35 259.79 152.086 260.545 151.559 261.15C151.032 261.749 150.289 262.153 149.332 262.361V262.439C150.478 262.583 151.338 262.941 151.91 263.514C152.483 264.08 152.77 264.835 152.77 265.779C152.77 267.153 152.285 268.214 151.315 268.963C150.345 269.705 148.965 270.076 147.174 270.076C145.592 270.076 144.257 269.819 143.17 269.305V267.264C143.776 267.563 144.417 267.794 145.094 267.957C145.771 268.12 146.422 268.201 147.047 268.201C148.154 268.201 148.981 267.996 149.528 267.586C150.075 267.176 150.348 266.541 150.348 265.682C150.348 264.92 150.045 264.36 149.44 264.002C148.834 263.644 147.884 263.465 146.588 263.465H145.348V261.6H146.608C148.886 261.6 150.026 260.812 150.026 259.236C150.026 258.624 149.827 258.152 149.43 257.82C149.033 257.488 148.447 257.322 147.672 257.322C147.132 257.322 146.611 257.4 146.11 257.557C145.608 257.706 145.016 258.003 144.332 258.445L143.209 256.844C144.518 255.88 146.038 255.398 147.77 255.398C149.209 255.398 150.332 255.708 151.139 256.326C151.946 256.945 152.35 257.798 152.35 258.885ZM156.256 269.881L161.901 257.645H154.479V255.623H164.352V257.225L158.737 269.881H156.256ZM167.907 259.881C167.907 260.851 168.001 261.574 168.19 262.049C168.379 262.524 168.688 262.762 169.118 262.762C169.977 262.762 170.407 261.801 170.407 259.881C170.407 257.96 169.977 257 169.118 257C168.688 257 168.379 257.238 168.19 257.713C168.001 258.188 167.907 258.911 167.907 259.881ZM172.301 259.861C172.301 261.359 172.031 262.485 171.491 263.24C170.957 263.989 170.166 264.363 169.118 264.363C168.128 264.363 167.36 263.976 166.813 263.201C166.272 262.42 166.002 261.307 166.002 259.861C166.002 256.886 167.041 255.398 169.118 255.398C170.14 255.398 170.924 255.786 171.471 256.561C172.024 257.329 172.301 258.429 172.301 259.861ZM177.203 265.584C177.203 266.554 177.298 267.28 177.487 267.762C177.682 268.243 177.994 268.484 178.424 268.484C179.277 268.484 179.703 267.518 179.703 265.584C179.703 263.676 179.277 262.723 178.424 262.723C177.994 262.723 177.682 262.957 177.487 263.426C177.298 263.895 177.203 264.614 177.203 265.584ZM181.598 265.584C181.598 267.081 181.328 268.204 180.787 268.953C180.247 269.702 179.459 270.076 178.424 270.076C177.435 270.076 176.666 269.692 176.119 268.924C175.573 268.149 175.299 267.036 175.299 265.584C175.299 262.609 176.341 261.121 178.424 261.121C179.427 261.121 180.205 261.505 180.758 262.273C181.318 263.042 181.598 264.145 181.598 265.584ZM178.698 255.604L170.778 269.881H168.883L176.803 255.604H178.698ZM188.561 265.799L195.719 262.84L188.561 259.48V257.576L198.102 262.342V263.523L188.561 267.723V265.799ZM206.666 269.881H204.371V260.662C204.371 259.562 204.397 258.689 204.45 258.045C204.3 258.201 204.114 258.374 203.893 258.562C203.678 258.751 202.949 259.35 201.705 260.359L200.553 258.904L204.752 255.604H206.666V269.881ZM216.198 260.965C217.636 260.965 218.776 261.346 219.616 262.107C220.455 262.869 220.875 263.908 220.875 265.223C220.875 266.746 220.397 267.938 219.44 268.797C218.489 269.65 217.135 270.076 215.377 270.076C213.782 270.076 212.529 269.819 211.618 269.305V267.225C212.145 267.524 212.75 267.755 213.434 267.918C214.118 268.081 214.752 268.162 215.338 268.162C216.373 268.162 217.161 267.931 217.701 267.469C218.242 267.007 218.512 266.329 218.512 265.438C218.512 263.732 217.425 262.879 215.25 262.879C214.944 262.879 214.567 262.911 214.118 262.977C213.668 263.035 213.274 263.104 212.936 263.182L211.91 262.576L212.457 255.604H219.879V257.645H214.479L214.157 261.18C214.384 261.141 214.661 261.095 214.987 261.043C215.319 260.991 215.722 260.965 216.198 260.965ZM235.153 269.881L231.012 257.957H230.934C231.045 259.728 231.1 261.388 231.1 262.938V269.881H228.981V255.604H232.272L236.237 266.961H236.295L240.377 255.604H243.678V269.881H241.432V262.82C241.432 262.111 241.448 261.186 241.481 260.047C241.52 258.908 241.552 258.217 241.578 257.977H241.5L237.213 269.881H235.153ZM249.489 269.881H247.194V259.08H249.489V269.881ZM247.057 256.219C247.057 255.809 247.168 255.493 247.389 255.271C247.617 255.05 247.939 254.939 248.356 254.939C248.759 254.939 249.072 255.05 249.293 255.271C249.521 255.493 249.635 255.809 249.635 256.219C249.635 256.609 249.521 256.919 249.293 257.146C249.072 257.368 248.759 257.479 248.356 257.479C247.939 257.479 247.617 257.368 247.389 257.146C247.168 256.919 247.057 256.609 247.057 256.219ZM262.282 269.881H259.977V263.24C259.977 262.407 259.808 261.785 259.469 261.375C259.137 260.965 258.606 260.76 257.877 260.76C256.907 260.76 256.198 261.046 255.748 261.619C255.299 262.192 255.075 263.152 255.075 264.5V269.881H252.78V259.08H254.576L254.899 260.496H255.016C255.341 259.982 255.804 259.585 256.403 259.305C257.002 259.025 257.666 258.885 258.395 258.885C260.986 258.885 262.282 260.203 262.282 262.84V269.881ZM273.092 269.881L272.77 268.465H272.653C272.334 268.966 271.878 269.36 271.285 269.646C270.7 269.933 270.029 270.076 269.274 270.076C267.965 270.076 266.989 269.751 266.344 269.1C265.7 268.449 265.377 267.462 265.377 266.141V259.08H267.692V265.74C267.692 266.567 267.861 267.189 268.2 267.605C268.538 268.016 269.069 268.221 269.791 268.221C270.755 268.221 271.461 267.934 271.91 267.361C272.366 266.782 272.594 265.815 272.594 264.461V259.08H274.899V269.881H273.092ZM282.194 268.221C282.754 268.221 283.313 268.133 283.873 267.957V269.686C283.619 269.796 283.291 269.887 282.887 269.959C282.49 270.037 282.076 270.076 281.647 270.076C279.472 270.076 278.385 268.93 278.385 266.639V260.818H276.91V259.803L278.493 258.963L279.274 256.678H280.69V259.08H283.766V260.818H280.69V266.6C280.69 267.153 280.826 267.563 281.1 267.83C281.38 268.09 281.744 268.221 282.194 268.221ZM290.758 270.076C289.078 270.076 287.763 269.588 286.813 268.611C285.869 267.628 285.397 266.277 285.397 264.559C285.397 262.794 285.836 261.408 286.715 260.398C287.594 259.389 288.802 258.885 290.338 258.885C291.764 258.885 292.89 259.318 293.717 260.184C294.544 261.049 294.957 262.241 294.957 263.758V264.998H287.76C287.793 266.046 288.076 266.854 288.61 267.42C289.144 267.98 289.896 268.26 290.866 268.26C291.504 268.26 292.096 268.201 292.643 268.084C293.196 267.96 293.789 267.758 294.42 267.479V269.344C293.86 269.611 293.294 269.799 292.721 269.91C292.148 270.021 291.494 270.076 290.758 270.076ZM290.338 260.623C289.609 260.623 289.023 260.854 288.58 261.316C288.144 261.779 287.884 262.452 287.799 263.338H292.701C292.688 262.446 292.474 261.772 292.057 261.316C291.64 260.854 291.067 260.623 290.338 260.623ZM304.821 266.805C304.821 267.859 304.437 268.67 303.668 269.236C302.9 269.796 301.8 270.076 300.368 270.076C298.929 270.076 297.773 269.858 296.901 269.422V267.439C298.17 268.025 299.352 268.318 300.446 268.318C301.858 268.318 302.565 267.892 302.565 267.039C302.565 266.766 302.487 266.538 302.33 266.355C302.174 266.173 301.917 265.984 301.559 265.789C301.201 265.594 300.703 265.372 300.065 265.125C298.821 264.643 297.978 264.161 297.535 263.68C297.099 263.198 296.881 262.573 296.881 261.805C296.881 260.88 297.252 260.164 297.994 259.656C298.743 259.142 299.759 258.885 301.041 258.885C302.311 258.885 303.512 259.142 304.645 259.656L303.903 261.385C302.737 260.903 301.757 260.662 300.963 260.662C299.752 260.662 299.147 261.007 299.147 261.697C299.147 262.036 299.303 262.322 299.616 262.557C299.935 262.791 300.625 263.113 301.686 263.523C302.578 263.868 303.226 264.184 303.629 264.471C304.033 264.757 304.332 265.089 304.528 265.467C304.723 265.838 304.821 266.284 304.821 266.805Z" fill="black"/>
</svg>
