<svg width="246" height="246" viewBox="0 0 246 246" fill="none" xmlns="http://www.w3.org/2000/svg">
<path d="M2.33712 104.783C5.80539 82.2163 15.5157 61.0689 30.371 43.7305C45.2263 26.3921 64.6345 13.5537 86.4027 6.66578C108.171 -0.22212 131.432 -0.884973 153.557 4.75211C175.682 10.3892 195.79 22.1015 211.608 38.5659L123.333 123.379L2.33712 104.783Z" fill="#81BC01"/>
<path d="M215.775 43.1278C229.137 58.5199 238.445 77.005 242.853 96.9057C247.261 116.806 246.63 137.493 241.017 157.088C235.404 176.683 224.987 194.566 210.712 209.115C196.436 223.664 178.754 234.419 159.269 240.402C139.784 246.386 119.113 247.409 99.1322 243.379C79.1514 239.35 60.4931 230.395 44.8502 217.327C29.2073 204.259 17.075 187.492 9.55424 168.547C2.03343 149.603 -0.637834 129.08 1.78283 108.841L123.333 123.379L215.775 43.1278Z" fill="#D0D0D1"/>
<rect x="10.5762" y="10.6238" width="225.513" height="225.513" rx="112.757" fill="#F0F0F0"/>
<path d="M94.8856 104.462C94.8856 105.374 94.6284 106.119 94.1141 106.699C93.6063 107.278 92.8836 107.666 91.9461 107.861V107.939C93.0919 108.082 93.9415 108.447 94.4949 109.033C95.0483 109.619 95.325 110.387 95.325 111.337C95.325 112.698 94.853 113.746 93.909 114.482C92.965 115.211 91.6238 115.576 89.8856 115.576C89.1303 115.576 88.437 115.517 87.8055 115.4C87.1805 115.289 86.5717 115.091 85.9793 114.804V113.261C86.5978 113.567 87.2553 113.802 87.952 113.964C88.6551 114.121 89.3191 114.199 89.9441 114.199C92.4116 114.199 93.6453 113.232 93.6453 111.298C93.6453 109.567 92.2846 108.701 89.5633 108.701H88.157V107.304H89.5828C90.6961 107.304 91.5783 107.06 92.2293 106.572C92.8803 106.077 93.2059 105.393 93.2059 104.521C93.2059 103.824 92.965 103.278 92.4832 102.88C92.0079 102.483 91.3602 102.285 90.5398 102.285C89.9148 102.285 89.3257 102.369 88.7723 102.539C88.2189 102.708 87.5874 103.02 86.8777 103.476L86.0574 102.382C86.6434 101.92 87.3172 101.559 88.0789 101.298C88.8471 101.031 89.6544 100.898 90.5008 100.898C91.8875 100.898 92.965 101.217 93.7332 101.855C94.5014 102.486 94.8856 103.356 94.8856 104.462ZM99.2898 115.38L105.208 102.597H97.4246V101.103H106.927V102.402L101.087 115.38H99.2898ZM110.315 105.361C110.315 106.468 110.436 107.298 110.677 107.851C110.917 108.404 111.308 108.681 111.848 108.681C112.916 108.681 113.45 107.574 113.45 105.361C113.45 103.16 112.916 102.06 111.848 102.06C111.308 102.06 110.917 102.333 110.677 102.88C110.436 103.427 110.315 104.254 110.315 105.361ZM114.788 105.361C114.788 106.845 114.537 107.968 114.036 108.73C113.541 109.485 112.812 109.863 111.848 109.863C110.937 109.863 110.227 109.475 109.72 108.701C109.218 107.926 108.968 106.813 108.968 105.361C108.968 103.883 109.208 102.77 109.69 102.021C110.179 101.272 110.898 100.898 111.848 100.898C112.792 100.898 113.518 101.285 114.026 102.06C114.534 102.835 114.788 103.935 114.788 105.361ZM118.909 111.083C118.909 112.197 119.029 113.03 119.27 113.583C119.511 114.13 119.905 114.404 120.452 114.404C120.999 114.404 121.402 114.134 121.663 113.593C121.923 113.046 122.054 112.21 122.054 111.083C122.054 109.97 121.923 109.147 121.663 108.613C121.402 108.072 120.999 107.802 120.452 107.802C119.905 107.802 119.511 108.072 119.27 108.613C119.029 109.147 118.909 109.97 118.909 111.083ZM123.391 111.083C123.391 112.561 123.141 113.681 122.639 114.443C122.145 115.198 121.415 115.576 120.452 115.576C119.527 115.576 118.815 115.188 118.313 114.414C117.818 113.639 117.571 112.529 117.571 111.083C117.571 109.606 117.812 108.492 118.294 107.744C118.782 106.995 119.501 106.621 120.452 106.621C121.376 106.621 122.096 107.005 122.61 107.773C123.131 108.535 123.391 109.638 123.391 111.083ZM120.872 101.103L112.952 115.38H111.516L119.436 101.103H120.872ZM135.208 108.242L139.016 101.103H140.813L136.048 109.843V115.38H134.368V109.921L129.612 101.103H131.429L135.208 108.242ZM147.063 115.576C145.481 115.576 144.231 115.094 143.313 114.13C142.402 113.167 141.946 111.829 141.946 110.117C141.946 108.391 142.369 107.021 143.216 106.005C144.068 104.99 145.211 104.482 146.643 104.482C147.985 104.482 149.046 104.925 149.827 105.81C150.608 106.689 150.999 107.851 150.999 109.296V110.322H143.626C143.658 111.578 143.974 112.532 144.573 113.183C145.179 113.834 146.028 114.16 147.122 114.16C148.274 114.16 149.414 113.919 150.54 113.437V114.882C149.967 115.13 149.423 115.306 148.909 115.41C148.401 115.52 147.786 115.576 147.063 115.576ZM146.624 105.839C145.764 105.839 145.078 106.119 144.563 106.679C144.055 107.239 143.756 108.014 143.665 109.003H149.261C149.261 107.981 149.033 107.2 148.577 106.66C148.121 106.113 147.47 105.839 146.624 105.839ZM160.677 112.46C160.677 113.457 160.305 114.225 159.563 114.765C158.821 115.306 157.779 115.576 156.438 115.576C155.019 115.576 153.912 115.351 153.118 114.902V113.398C153.632 113.658 154.182 113.863 154.768 114.013C155.361 114.163 155.93 114.238 156.477 114.238C157.324 114.238 157.975 114.104 158.43 113.837C158.886 113.564 159.114 113.151 159.114 112.597C159.114 112.181 158.932 111.826 158.567 111.533C158.209 111.233 157.506 110.882 156.458 110.478C155.462 110.107 154.752 109.785 154.329 109.511C153.912 109.231 153.6 108.916 153.391 108.564C153.19 108.212 153.089 107.792 153.089 107.304C153.089 106.432 153.443 105.745 154.153 105.244C154.863 104.736 155.836 104.482 157.073 104.482C158.225 104.482 159.352 104.716 160.452 105.185L159.876 106.503C158.802 106.061 157.828 105.839 156.956 105.839C156.188 105.839 155.608 105.96 155.218 106.201C154.827 106.442 154.632 106.774 154.632 107.197C154.632 107.483 154.703 107.727 154.846 107.929C154.996 108.131 155.234 108.323 155.559 108.505C155.885 108.688 156.51 108.951 157.434 109.296C158.704 109.759 159.56 110.224 160.003 110.693C160.452 111.162 160.677 111.751 160.677 112.46Z" fill="black"/>
<path d="M87.659 140.296C87.659 134.71 89.9344 131.917 94.4852 131.917C95.2013 131.917 95.8068 131.973 96.3016 132.083V133.998C95.8068 133.854 95.2339 133.783 94.5828 133.783C93.0529 133.783 91.9038 134.193 91.1356 135.013C90.3673 135.833 89.9507 137.149 89.8856 138.958H90.0027C90.3087 138.431 90.7384 138.024 91.2918 137.738C91.8452 137.445 92.4962 137.298 93.2449 137.298C94.5405 137.298 95.5496 137.695 96.2723 138.49C96.9949 139.284 97.3563 140.361 97.3563 141.722C97.3563 143.22 96.9363 144.404 96.0965 145.277C95.2632 146.143 94.1238 146.576 92.6785 146.576C91.6564 146.576 90.7677 146.332 90.0125 145.843C89.2573 145.348 88.6746 144.632 88.2645 143.695C87.8608 142.751 87.659 141.618 87.659 140.296ZM92.6395 144.681C93.4272 144.681 94.0327 144.427 94.4559 143.919C94.8856 143.412 95.1004 142.686 95.1004 141.742C95.1004 140.921 94.8986 140.277 94.4949 139.808C94.0978 139.339 93.4988 139.105 92.6981 139.105C92.2033 139.105 91.7475 139.212 91.3309 139.427C90.9142 139.636 90.5854 139.925 90.3445 140.296C90.1037 140.661 89.9832 141.035 89.9832 141.419C89.9832 142.337 90.2306 143.112 90.7254 143.744C91.2267 144.369 91.8647 144.681 92.6395 144.681ZM108.186 135.384C108.186 136.289 107.923 137.044 107.395 137.65C106.868 138.249 106.126 138.653 105.169 138.861V138.939C106.315 139.082 107.174 139.44 107.747 140.013C108.32 140.58 108.606 141.335 108.606 142.279C108.606 143.653 108.121 144.714 107.151 145.462C106.181 146.205 104.801 146.576 103.011 146.576C101.429 146.576 100.094 146.319 99.0066 145.804V143.763C99.6121 144.063 100.253 144.294 100.93 144.457C101.608 144.619 102.259 144.701 102.884 144.701C103.99 144.701 104.817 144.496 105.364 144.085C105.911 143.675 106.184 143.041 106.184 142.181C106.184 141.419 105.882 140.86 105.276 140.501C104.671 140.143 103.72 139.964 102.425 139.964H101.184V138.099H102.444C104.723 138.099 105.862 137.311 105.862 135.736C105.862 135.124 105.664 134.652 105.266 134.32C104.869 133.988 104.283 133.822 103.509 133.822C102.968 133.822 102.447 133.9 101.946 134.056C101.445 134.206 100.852 134.502 100.169 134.945L99.0457 133.343C100.354 132.38 101.874 131.898 103.606 131.898C105.045 131.898 106.168 132.207 106.975 132.826C107.783 133.444 108.186 134.297 108.186 135.384ZM112.317 136.38C112.317 137.35 112.412 138.073 112.6 138.548C112.789 139.024 113.098 139.261 113.528 139.261C114.388 139.261 114.817 138.301 114.817 136.38C114.817 134.46 114.388 133.5 113.528 133.5C113.098 133.5 112.789 133.737 112.6 134.212C112.412 134.688 112.317 135.41 112.317 136.38ZM116.712 136.361C116.712 137.858 116.442 138.985 115.901 139.74C115.367 140.488 114.576 140.863 113.528 140.863C112.539 140.863 111.77 140.475 111.223 139.701C110.683 138.919 110.413 137.806 110.413 136.361C110.413 133.386 111.451 131.898 113.528 131.898C114.55 131.898 115.335 132.285 115.882 133.06C116.435 133.828 116.712 134.929 116.712 136.361ZM121.614 142.083C121.614 143.054 121.708 143.779 121.897 144.261C122.093 144.743 122.405 144.984 122.835 144.984C123.688 144.984 124.114 144.017 124.114 142.083C124.114 140.176 123.688 139.222 122.835 139.222C122.405 139.222 122.093 139.457 121.897 139.925C121.708 140.394 121.614 141.113 121.614 142.083ZM126.009 142.083C126.009 143.581 125.738 144.704 125.198 145.453C124.658 146.201 123.87 146.576 122.835 146.576C121.845 146.576 121.077 146.192 120.53 145.423C119.983 144.649 119.71 143.535 119.71 142.083C119.71 139.108 120.751 137.621 122.835 137.621C123.837 137.621 124.615 138.005 125.169 138.773C125.729 139.541 126.009 140.645 126.009 142.083ZM123.108 132.103L115.188 146.38H113.294L121.214 132.103H123.108ZM145.813 146.38H142.952L135.93 135.003H135.852L135.901 135.638C135.992 136.849 136.038 137.956 136.038 138.958V146.38H133.919V132.103H136.751L143.753 143.421H143.811C143.798 143.272 143.772 142.728 143.733 141.791C143.694 140.847 143.675 140.111 143.675 139.583V132.103H145.813V146.38ZM158.919 140.96C158.919 142.725 158.466 144.102 157.561 145.091C156.656 146.081 155.397 146.576 153.782 146.576C152.773 146.576 151.881 146.348 151.106 145.892C150.332 145.436 149.736 144.782 149.319 143.929C148.902 143.076 148.694 142.087 148.694 140.96C148.694 139.209 149.143 137.842 150.042 136.859C150.94 135.876 152.207 135.384 153.841 135.384C155.403 135.384 156.64 135.889 157.552 136.898C158.463 137.901 158.919 139.255 158.919 140.96ZM151.057 140.96C151.057 143.454 151.979 144.701 153.821 144.701C155.644 144.701 156.555 143.454 156.555 140.96C156.555 138.493 155.638 137.259 153.802 137.259C152.838 137.259 152.138 137.578 151.702 138.216C151.272 138.854 151.057 139.769 151.057 140.96Z" fill="black"/>
</svg>
