<svg width="448" height="432" viewBox="0 0 448 432" fill="none" xmlns="http://www.w3.org/2000/svg">
<path d="M438.074 240.634C432.586 288.09 411.485 332.378 378.087 366.536C344.689 400.694 300.888 422.787 253.567 429.341L224 215.879L438.074 240.634Z" fill="#A1A2A4"/>
<path d="M439.367 208.281C439.698 217.685 439.414 227.1 438.515 236.467L224 215.879L439.367 208.281Z" fill="#D0D0D1"/>
<path d="M248.016 430.037C205.148 434.844 161.825 426.675 123.651 406.588C85.4765 386.502 54.2092 355.421 33.8944 317.367C13.5796 279.314 5.15231 236.04 9.70306 193.144C14.2538 150.249 31.5731 109.706 59.4199 76.7621C87.2667 43.8183 124.359 19.9896 165.898 8.35933C207.437 -3.27092 251.51 -2.16742 292.415 11.5271C333.32 25.2215 369.174 50.8767 395.337 85.1728C421.5 119.469 436.769 160.828 439.167 203.897L224 215.879L248.016 430.037Z" fill="#81BC01"/>
<rect x="25.5054" y="17.3859" width="396.99" height="396.99" rx="198.495" fill="#F0F0F0"/>
<path d="M163.873 192.381L169.518 180.145H162.096V178.123H171.969V179.725L166.354 192.381H163.873ZM175.299 192.381L180.944 180.145H173.522V178.123H183.395V179.725L177.78 192.381H175.299ZM186.95 182.381C186.95 183.351 187.044 184.074 187.233 184.549C187.422 185.024 187.731 185.262 188.16 185.262C189.02 185.262 189.45 184.301 189.45 182.381C189.45 180.46 189.02 179.5 188.16 179.5C187.731 179.5 187.422 179.738 187.233 180.213C187.044 180.688 186.95 181.411 186.95 182.381ZM191.344 182.361C191.344 183.859 191.074 184.985 190.534 185.74C190 186.489 189.209 186.863 188.16 186.863C187.171 186.863 186.403 186.476 185.856 185.701C185.315 184.92 185.045 183.807 185.045 182.361C185.045 179.386 186.084 177.898 188.16 177.898C189.183 177.898 189.967 178.286 190.514 179.061C191.067 179.829 191.344 180.929 191.344 182.361ZM196.246 188.084C196.246 189.054 196.341 189.78 196.53 190.262C196.725 190.743 197.037 190.984 197.467 190.984C198.32 190.984 198.746 190.018 198.746 188.084C198.746 186.176 198.32 185.223 197.467 185.223C197.037 185.223 196.725 185.457 196.53 185.926C196.341 186.395 196.246 187.114 196.246 188.084ZM200.641 188.084C200.641 189.581 200.371 190.704 199.83 191.453C199.29 192.202 198.502 192.576 197.467 192.576C196.478 192.576 195.709 192.192 195.162 191.424C194.616 190.649 194.342 189.536 194.342 188.084C194.342 185.109 195.384 183.621 197.467 183.621C198.47 183.621 199.248 184.005 199.801 184.773C200.361 185.542 200.641 186.645 200.641 188.084ZM197.741 178.104L189.821 192.381H187.926L195.846 178.104H197.741ZM220.162 185.105C220.162 187.462 219.508 189.266 218.2 190.516C216.891 191.759 215.006 192.381 212.545 192.381H208.551V178.104H212.965C215.237 178.104 217.005 178.715 218.268 179.939C219.531 181.163 220.162 182.885 220.162 185.105ZM217.701 185.184C217.701 181.766 216.103 180.057 212.907 180.057H210.885V190.418H212.545C215.983 190.418 217.701 188.673 217.701 185.184ZM227.711 192.576C226.032 192.576 224.716 192.088 223.766 191.111C222.822 190.128 222.35 188.777 222.35 187.059C222.35 185.294 222.789 183.908 223.668 182.898C224.547 181.889 225.755 181.385 227.291 181.385C228.717 181.385 229.843 181.818 230.67 182.684C231.497 183.549 231.91 184.741 231.91 186.258V187.498H224.713C224.746 188.546 225.029 189.354 225.563 189.92C226.097 190.48 226.849 190.76 227.819 190.76C228.457 190.76 229.049 190.701 229.596 190.584C230.149 190.46 230.742 190.258 231.373 189.979V191.844C230.813 192.111 230.247 192.299 229.674 192.41C229.101 192.521 228.447 192.576 227.711 192.576ZM227.291 183.123C226.562 183.123 225.976 183.354 225.534 183.816C225.097 184.279 224.837 184.952 224.752 185.838H229.655C229.642 184.946 229.427 184.272 229.01 183.816C228.593 183.354 228.021 183.123 227.291 183.123ZM241.774 189.305C241.774 190.359 241.39 191.17 240.621 191.736C239.853 192.296 238.753 192.576 237.321 192.576C235.882 192.576 234.726 192.358 233.854 191.922V189.939C235.123 190.525 236.305 190.818 237.399 190.818C238.812 190.818 239.518 190.392 239.518 189.539C239.518 189.266 239.44 189.038 239.284 188.855C239.127 188.673 238.87 188.484 238.512 188.289C238.154 188.094 237.656 187.872 237.018 187.625C235.774 187.143 234.931 186.661 234.489 186.18C234.052 185.698 233.834 185.073 233.834 184.305C233.834 183.38 234.205 182.664 234.948 182.156C235.696 181.642 236.712 181.385 237.994 181.385C239.264 181.385 240.465 181.642 241.598 182.156L240.856 183.885C239.69 183.403 238.711 183.162 237.916 183.162C236.705 183.162 236.1 183.507 236.1 184.197C236.1 184.536 236.256 184.822 236.569 185.057C236.888 185.291 237.578 185.613 238.639 186.023C239.531 186.368 240.179 186.684 240.582 186.971C240.986 187.257 241.285 187.589 241.481 187.967C241.676 188.338 241.774 188.784 241.774 189.305ZM246.481 186.678L247.78 185.057L251.041 181.58H253.688L249.342 186.219L253.961 192.381H251.266L247.799 187.645L246.539 188.68V192.381H244.264V177.186H246.539V184.598L246.422 186.678H246.481ZM259.733 190.721C260.293 190.721 260.853 190.633 261.412 190.457V192.186C261.159 192.296 260.83 192.387 260.426 192.459C260.029 192.537 259.616 192.576 259.186 192.576C257.011 192.576 255.924 191.43 255.924 189.139V183.318H254.45V182.303L256.032 181.463L256.813 179.178H258.229V181.58H261.305V183.318H258.229V189.1C258.229 189.653 258.366 190.063 258.639 190.33C258.919 190.59 259.284 190.721 259.733 190.721ZM273.16 186.961C273.16 188.725 272.708 190.102 271.803 191.092C270.898 192.081 269.638 192.576 268.024 192.576C267.015 192.576 266.123 192.348 265.348 191.893C264.573 191.437 263.978 190.783 263.561 189.93C263.144 189.077 262.936 188.087 262.936 186.961C262.936 185.21 263.385 183.842 264.284 182.859C265.182 181.876 266.448 181.385 268.082 181.385C269.645 181.385 270.882 181.889 271.793 182.898C272.705 183.901 273.16 185.255 273.16 186.961ZM265.299 186.961C265.299 189.454 266.22 190.701 268.063 190.701C269.886 190.701 270.797 189.454 270.797 186.961C270.797 184.493 269.879 183.26 268.043 183.26C267.08 183.26 266.38 183.579 265.944 184.217C265.514 184.855 265.299 185.77 265.299 186.961ZM281.285 192.576C279.918 192.576 278.857 192.085 278.102 191.102H277.965C278.056 192.013 278.102 192.566 278.102 192.762V197.186H275.807V181.58H277.662C277.715 181.782 277.822 182.264 277.985 183.025H278.102C278.818 181.932 279.892 181.385 281.325 181.385C282.672 181.385 283.72 181.873 284.469 182.85C285.224 183.826 285.602 185.197 285.602 186.961C285.602 188.725 285.218 190.102 284.45 191.092C283.688 192.081 282.633 192.576 281.285 192.576ZM280.729 183.26C279.817 183.26 279.15 183.527 278.727 184.061C278.31 184.594 278.102 185.447 278.102 186.619V186.961C278.102 188.276 278.31 189.23 278.727 189.822C279.144 190.408 279.824 190.701 280.768 190.701C281.562 190.701 282.174 190.376 282.604 189.725C283.034 189.074 283.248 188.146 283.248 186.941C283.248 185.73 283.034 184.816 282.604 184.197C282.181 183.572 281.556 183.26 280.729 183.26Z" fill="black"/>
<path d="M180.201 223.381H170.817V221.984L174.576 218.205C175.722 217.046 176.478 216.219 176.842 215.725C177.207 215.23 177.48 214.748 177.662 214.279C177.845 213.811 177.936 213.306 177.936 212.766C177.936 212.004 177.705 211.402 177.243 210.959C176.78 210.51 176.139 210.285 175.319 210.285C174.726 210.285 174.163 210.383 173.629 210.578C173.102 210.773 172.513 211.128 171.862 211.643L171.002 210.539C172.317 209.445 173.75 208.898 175.299 208.898C176.64 208.898 177.692 209.243 178.453 209.934C179.215 210.617 179.596 211.538 179.596 212.697C179.596 213.602 179.342 214.497 178.834 215.383C178.326 216.268 177.376 217.388 175.983 218.742L172.858 221.799V221.877H180.201V223.381ZM188.268 223.381H186.686V213.205C186.686 212.359 186.712 211.558 186.764 210.803C186.627 210.939 186.474 211.083 186.305 211.232C186.136 211.382 185.361 212.017 183.981 213.137L183.121 212.023L186.901 209.104H188.268V223.381ZM195.094 213.361C195.094 214.468 195.215 215.298 195.455 215.852C195.696 216.405 196.087 216.682 196.627 216.682C197.695 216.682 198.229 215.575 198.229 213.361C198.229 211.161 197.695 210.061 196.627 210.061C196.087 210.061 195.696 210.334 195.455 210.881C195.215 211.428 195.094 212.255 195.094 213.361ZM199.567 213.361C199.567 214.846 199.316 215.969 198.815 216.73C198.32 217.486 197.591 217.863 196.627 217.863C195.716 217.863 195.006 217.476 194.498 216.701C193.997 215.926 193.746 214.813 193.746 213.361C193.746 211.883 193.987 210.77 194.469 210.021C194.957 209.273 195.677 208.898 196.627 208.898C197.571 208.898 198.297 209.286 198.805 210.061C199.313 210.835 199.567 211.936 199.567 213.361ZM203.688 219.084C203.688 220.197 203.808 221.031 204.049 221.584C204.29 222.131 204.684 222.404 205.231 222.404C205.778 222.404 206.181 222.134 206.442 221.594C206.702 221.047 206.832 220.21 206.832 219.084C206.832 217.971 206.702 217.147 206.442 216.613C206.181 216.073 205.778 215.803 205.231 215.803C204.684 215.803 204.29 216.073 204.049 216.613C203.808 217.147 203.688 217.971 203.688 219.084ZM208.17 219.084C208.17 220.562 207.92 221.682 207.418 222.443C206.923 223.199 206.194 223.576 205.231 223.576C204.306 223.576 203.593 223.189 203.092 222.414C202.597 221.639 202.35 220.529 202.35 219.084C202.35 217.606 202.591 216.493 203.073 215.744C203.561 214.995 204.28 214.621 205.231 214.621C206.155 214.621 206.875 215.005 207.389 215.773C207.91 216.535 208.17 217.639 208.17 219.084ZM205.651 209.104L197.731 223.381H196.295L204.215 209.104H205.651ZM222.672 223.381L217.828 210.725H217.75C217.841 211.727 217.887 212.919 217.887 214.299V223.381H216.354V209.104H218.854L223.375 220.881H223.453L228.014 209.104H230.494V223.381H228.834V214.182C228.834 213.127 228.88 211.981 228.971 210.744H228.893L224.01 223.381H222.672ZM243.414 218.02C243.414 219.764 242.975 221.128 242.096 222.111C241.217 223.088 240.003 223.576 238.453 223.576C237.496 223.576 236.647 223.352 235.905 222.902C235.162 222.453 234.59 221.809 234.186 220.969C233.782 220.129 233.58 219.146 233.58 218.02C233.58 216.275 234.017 214.917 234.889 213.947C235.761 212.971 236.972 212.482 238.522 212.482C240.019 212.482 241.207 212.98 242.086 213.977C242.972 214.973 243.414 216.32 243.414 218.02ZM235.26 218.02C235.26 219.387 235.534 220.428 236.08 221.145C236.627 221.861 237.431 222.219 238.493 222.219C239.554 222.219 240.358 221.864 240.905 221.154C241.458 220.438 241.735 219.393 241.735 218.02C241.735 216.659 241.458 215.627 240.905 214.924C240.358 214.214 239.547 213.859 238.473 213.859C237.412 213.859 236.611 214.208 236.071 214.904C235.53 215.601 235.26 216.639 235.26 218.02ZM251.246 212.502C252.653 212.502 253.743 212.984 254.518 213.947C255.299 214.904 255.69 216.262 255.69 218.02C255.69 219.777 255.296 221.145 254.508 222.121C253.727 223.091 252.64 223.576 251.246 223.576C250.55 223.576 249.912 223.449 249.332 223.195C248.759 222.935 248.278 222.538 247.887 222.004H247.77L247.428 223.381H246.266V208.186H247.887V211.877C247.887 212.704 247.861 213.446 247.809 214.104H247.887C248.642 213.036 249.762 212.502 251.246 212.502ZM251.012 213.859C249.905 213.859 249.108 214.178 248.619 214.816C248.131 215.448 247.887 216.516 247.887 218.02C247.887 219.523 248.138 220.601 248.639 221.252C249.14 221.896 249.944 222.219 251.051 222.219C252.047 222.219 252.789 221.857 253.278 221.135C253.766 220.406 254.01 219.361 254.01 218C254.01 216.607 253.766 215.568 253.278 214.885C252.789 214.201 252.034 213.859 251.012 213.859ZM260.153 223.381H258.532V212.678H260.153V223.381ZM258.395 209.777C258.395 209.406 258.486 209.136 258.668 208.967C258.851 208.791 259.078 208.703 259.352 208.703C259.612 208.703 259.837 208.791 260.026 208.967C260.215 209.143 260.309 209.413 260.309 209.777C260.309 210.142 260.215 210.415 260.026 210.598C259.837 210.773 259.612 210.861 259.352 210.861C259.078 210.861 258.851 210.773 258.668 210.598C258.486 210.415 258.395 210.142 258.395 209.777ZM265.211 223.381H263.59V208.186H265.211V223.381ZM273.17 223.576C271.588 223.576 270.338 223.094 269.42 222.131C268.509 221.167 268.053 219.829 268.053 218.117C268.053 216.392 268.476 215.021 269.323 214.006C270.175 212.99 271.318 212.482 272.75 212.482C274.091 212.482 275.153 212.925 275.934 213.811C276.715 214.689 277.106 215.852 277.106 217.297V218.322H269.733C269.765 219.579 270.081 220.533 270.68 221.184C271.285 221.835 272.135 222.16 273.229 222.16C274.381 222.16 275.521 221.919 276.647 221.438V222.883C276.074 223.13 275.53 223.306 275.016 223.41C274.508 223.521 273.893 223.576 273.17 223.576ZM272.731 213.84C271.871 213.84 271.185 214.12 270.67 214.68C270.162 215.24 269.863 216.014 269.772 217.004H275.368C275.368 215.982 275.14 215.201 274.684 214.66C274.228 214.113 273.577 213.84 272.731 213.84Z" fill="black"/>
<path d="M188.893 254.381H179.508V252.984L183.268 249.205C184.414 248.046 185.169 247.219 185.534 246.725C185.898 246.23 186.172 245.748 186.354 245.279C186.536 244.811 186.627 244.306 186.627 243.766C186.627 243.004 186.396 242.402 185.934 241.959C185.472 241.51 184.83 241.285 184.01 241.285C183.418 241.285 182.854 241.383 182.321 241.578C181.793 241.773 181.204 242.128 180.553 242.643L179.694 241.539C181.009 240.445 182.441 239.898 183.991 239.898C185.332 239.898 186.383 240.243 187.145 240.934C187.907 241.617 188.287 242.538 188.287 243.697C188.287 244.602 188.034 245.497 187.526 246.383C187.018 247.268 186.067 248.388 184.674 249.742L181.549 252.799V252.877H188.893V254.381ZM192.34 244.361C192.34 245.468 192.461 246.298 192.701 246.852C192.942 247.405 193.333 247.682 193.873 247.682C194.941 247.682 195.475 246.575 195.475 244.361C195.475 242.161 194.941 241.061 193.873 241.061C193.333 241.061 192.942 241.334 192.701 241.881C192.461 242.428 192.34 243.255 192.34 244.361ZM196.813 244.361C196.813 245.846 196.562 246.969 196.061 247.73C195.566 248.486 194.837 248.863 193.873 248.863C192.962 248.863 192.252 248.476 191.744 247.701C191.243 246.926 190.993 245.813 190.993 244.361C190.993 242.883 191.233 241.77 191.715 241.021C192.203 240.273 192.923 239.898 193.873 239.898C194.817 239.898 195.543 240.286 196.051 241.061C196.559 241.835 196.813 242.936 196.813 244.361ZM200.934 250.084C200.934 251.197 201.054 252.031 201.295 252.584C201.536 253.131 201.93 253.404 202.477 253.404C203.024 253.404 203.427 253.134 203.688 252.594C203.948 252.047 204.078 251.21 204.078 250.084C204.078 248.971 203.948 248.147 203.688 247.613C203.427 247.073 203.024 246.803 202.477 246.803C201.93 246.803 201.536 247.073 201.295 247.613C201.054 248.147 200.934 248.971 200.934 250.084ZM205.416 250.084C205.416 251.562 205.166 252.682 204.664 253.443C204.17 254.199 203.44 254.576 202.477 254.576C201.552 254.576 200.84 254.189 200.338 253.414C199.843 252.639 199.596 251.529 199.596 250.084C199.596 248.606 199.837 247.493 200.319 246.744C200.807 245.995 201.526 245.621 202.477 245.621C203.401 245.621 204.121 246.005 204.635 246.773C205.156 247.535 205.416 248.639 205.416 250.084ZM202.897 240.104L194.977 254.381H193.541L201.461 240.104H202.897ZM217.994 254.381H216.334V241.578H211.813V240.104H222.516V241.578H217.994V254.381ZM231.012 254.381L230.69 252.857H230.612C230.078 253.528 229.544 253.984 229.01 254.225C228.483 254.459 227.822 254.576 227.028 254.576C225.966 254.576 225.133 254.303 224.528 253.756C223.929 253.209 223.629 252.431 223.629 251.422C223.629 249.26 225.358 248.128 228.815 248.023L230.631 247.965V247.301C230.631 246.461 230.449 245.842 230.084 245.445C229.726 245.042 229.15 244.84 228.356 244.84C227.464 244.84 226.455 245.113 225.328 245.66L224.83 244.42C225.358 244.133 225.934 243.909 226.559 243.746C227.19 243.583 227.822 243.502 228.453 243.502C229.729 243.502 230.673 243.785 231.285 244.352C231.904 244.918 232.213 245.826 232.213 247.076V254.381H231.012ZM227.35 253.238C228.359 253.238 229.15 252.962 229.723 252.408C230.302 251.855 230.592 251.08 230.592 250.084V249.117L228.971 249.186C227.682 249.231 226.751 249.433 226.178 249.791C225.612 250.143 225.328 250.693 225.328 251.441C225.328 252.027 225.504 252.473 225.856 252.779C226.214 253.085 226.712 253.238 227.35 253.238ZM240.543 243.502C241.95 243.502 243.04 243.984 243.815 244.947C244.596 245.904 244.987 247.262 244.987 249.02C244.987 250.777 244.593 252.145 243.805 253.121C243.024 254.091 241.937 254.576 240.543 254.576C239.847 254.576 239.209 254.449 238.629 254.195C238.056 253.935 237.575 253.538 237.184 253.004H237.067L236.725 254.381H235.563V239.186H237.184V242.877C237.184 243.704 237.158 244.446 237.106 245.104H237.184C237.939 244.036 239.059 243.502 240.543 243.502ZM240.309 244.859C239.202 244.859 238.405 245.178 237.916 245.816C237.428 246.448 237.184 247.516 237.184 249.02C237.184 250.523 237.435 251.601 237.936 252.252C238.437 252.896 239.241 253.219 240.348 253.219C241.344 253.219 242.086 252.857 242.575 252.135C243.063 251.406 243.307 250.361 243.307 249C243.307 247.607 243.063 246.568 242.575 245.885C242.086 245.201 241.331 244.859 240.309 244.859ZM249.45 254.381H247.828V239.186H249.45V254.381ZM257.409 254.576C255.826 254.576 254.576 254.094 253.659 253.131C252.747 252.167 252.291 250.829 252.291 249.117C252.291 247.392 252.715 246.021 253.561 245.006C254.414 243.99 255.556 243.482 256.989 243.482C258.33 243.482 259.391 243.925 260.172 244.811C260.953 245.689 261.344 246.852 261.344 248.297V249.322H253.971C254.004 250.579 254.319 251.533 254.918 252.184C255.524 252.835 256.373 253.16 257.467 253.16C258.619 253.16 259.759 252.919 260.885 252.438V253.883C260.312 254.13 259.769 254.306 259.254 254.41C258.746 254.521 258.131 254.576 257.409 254.576ZM256.969 244.84C256.11 244.84 255.423 245.12 254.909 245.68C254.401 246.24 254.101 247.014 254.01 248.004H259.606C259.606 246.982 259.378 246.201 258.922 245.66C258.466 245.113 257.815 244.84 256.969 244.84ZM267.575 253.238C267.861 253.238 268.138 253.219 268.405 253.18C268.672 253.134 268.883 253.089 269.039 253.043V254.283C268.864 254.368 268.603 254.436 268.258 254.488C267.92 254.547 267.614 254.576 267.34 254.576C265.27 254.576 264.235 253.486 264.235 251.305V244.938H262.701V244.156L264.235 243.482L264.918 241.197H265.856V243.678H268.961V244.938H265.856V251.236C265.856 251.881 266.009 252.376 266.315 252.721C266.621 253.066 267.041 253.238 267.575 253.238Z" fill="black"/>
</svg>
