<svg width="246" height="246" viewBox="0 0 246 246" fill="none" xmlns="http://www.w3.org/2000/svg">
<path d="M122.666 245.795C102.059 245.795 81.7852 240.593 63.7238 230.671C45.6625 220.749 30.3982 206.427 19.3459 189.034C8.29354 171.642 1.81078 151.74 0.498473 131.175C-0.813839 110.609 3.08677 90.045 11.8388 71.3884C20.5908 52.7318 33.9109 36.5866 50.5646 24.4491C67.2183 12.3115 86.6665 4.57458 107.107 1.95528C127.547 -0.664011 148.318 1.91913 167.494 9.46528C186.67 17.0114 203.631 29.2764 216.804 45.1233L122.667 123.379L122.666 245.795Z" fill="#81BC01"/>
<path d="M219.028 47.8788C232.98 65.6863 241.725 87.0117 244.292 109.488C246.859 131.964 243.148 154.712 233.57 175.207C223.992 195.702 208.923 213.142 190.034 225.592C171.145 238.041 149.176 245.013 126.565 245.733L122.667 123.379L219.028 47.8788Z" fill="#D0D0D1"/>
<rect x="9.90967" y="10.6238" width="225.513" height="225.513" rx="112.757" fill="#F0F0F0"/>
<path d="M86.9827 109.296C86.9827 103.71 89.2581 100.917 93.8089 100.917C94.525 100.917 95.1305 100.973 95.6253 101.083V102.998C95.1305 102.854 94.5576 102.783 93.9065 102.783C92.3766 102.783 91.2275 103.193 90.4593 104.013C89.6911 104.833 89.2744 106.149 89.2093 107.958H89.3265C89.6325 107.431 90.0621 107.024 90.6155 106.738C91.1689 106.445 91.82 106.298 92.5687 106.298C93.8642 106.298 94.8733 106.695 95.596 107.49C96.3187 108.284 96.68 109.361 96.68 110.722C96.68 112.22 96.2601 113.404 95.4202 114.277C94.5869 115.143 93.4476 115.576 92.0023 115.576C90.9801 115.576 90.0914 115.332 89.3362 114.843C88.581 114.348 87.9983 113.632 87.5882 112.695C87.1845 111.751 86.9827 110.618 86.9827 109.296ZM91.9632 113.681C92.7509 113.681 93.3564 113.427 93.7796 112.919C94.2093 112.412 94.4241 111.686 94.4241 110.742C94.4241 109.921 94.2223 109.277 93.8187 108.808C93.4215 108.339 92.8226 108.105 92.0218 108.105C91.527 108.105 91.0713 108.212 90.6546 108.427C90.2379 108.636 89.9092 108.925 89.6683 109.296C89.4274 109.661 89.3069 110.035 89.3069 110.419C89.3069 111.337 89.5543 112.112 90.0491 112.744C90.5504 113.369 91.1884 113.681 91.9632 113.681ZM108.555 112.265H106.631V115.38H104.395V112.265H97.8714V110.498L104.395 101.064H106.631V110.361H108.555V112.265ZM104.395 110.361V106.777C104.395 105.501 104.427 104.456 104.492 103.642H104.414C104.232 104.072 103.946 104.593 103.555 105.205L100.01 110.361H104.395ZM111.641 105.38C111.641 106.35 111.735 107.073 111.924 107.548C112.113 108.024 112.422 108.261 112.852 108.261C113.711 108.261 114.141 107.301 114.141 105.38C114.141 103.46 113.711 102.5 112.852 102.5C112.422 102.5 112.113 102.737 111.924 103.212C111.735 103.688 111.641 104.41 111.641 105.38ZM116.035 105.361C116.035 106.858 115.765 107.985 115.225 108.74C114.691 109.488 113.9 109.863 112.852 109.863C111.862 109.863 111.094 109.475 110.547 108.701C110.007 107.919 109.737 106.806 109.737 105.361C109.737 102.386 110.775 100.898 112.852 100.898C113.874 100.898 114.659 101.285 115.205 102.06C115.759 102.828 116.035 103.929 116.035 105.361ZM120.938 111.083C120.938 112.054 121.032 112.779 121.221 113.261C121.416 113.743 121.729 113.984 122.159 113.984C123.011 113.984 123.438 113.017 123.438 111.083C123.438 109.176 123.011 108.222 122.159 108.222C121.729 108.222 121.416 108.457 121.221 108.925C121.032 109.394 120.938 110.113 120.938 111.083ZM125.332 111.083C125.332 112.581 125.062 113.704 124.522 114.453C123.981 115.201 123.194 115.576 122.159 115.576C121.169 115.576 120.401 115.192 119.854 114.423C119.307 113.649 119.034 112.535 119.034 111.083C119.034 108.108 120.075 106.621 122.159 106.621C123.161 106.621 123.939 107.005 124.492 107.773C125.052 108.541 125.332 109.645 125.332 111.083ZM122.432 101.103L114.512 115.38H112.617L120.537 101.103H122.432ZM137.276 107.617L140.655 101.103H143.194L138.438 109.843V115.38H136.094V109.921L131.358 101.103H133.897L137.276 107.617ZM149.551 115.576C147.871 115.576 146.556 115.087 145.606 114.111C144.662 113.128 144.19 111.777 144.19 110.058C144.19 108.294 144.629 106.907 145.508 105.898C146.387 104.889 147.595 104.384 149.131 104.384C150.557 104.384 151.683 104.817 152.51 105.683C153.337 106.549 153.75 107.74 153.75 109.257V110.498H146.553C146.586 111.546 146.869 112.353 147.403 112.919C147.936 113.479 148.688 113.759 149.659 113.759C150.297 113.759 150.889 113.701 151.436 113.583C151.989 113.46 152.582 113.258 153.213 112.978V114.843C152.653 115.11 152.087 115.299 151.514 115.41C150.941 115.52 150.287 115.576 149.551 115.576ZM149.131 106.123C148.402 106.123 147.816 106.354 147.373 106.816C146.937 107.278 146.677 107.952 146.592 108.837H151.494C151.481 107.945 151.267 107.272 150.85 106.816C150.433 106.354 149.86 106.123 149.131 106.123ZM163.614 112.304C163.614 113.359 163.229 114.169 162.461 114.736C161.693 115.296 160.593 115.576 159.16 115.576C157.722 115.576 156.566 115.358 155.694 114.921V112.939C156.963 113.525 158.145 113.818 159.239 113.818C160.651 113.818 161.358 113.391 161.358 112.539C161.358 112.265 161.28 112.037 161.123 111.855C160.967 111.673 160.71 111.484 160.352 111.289C159.994 111.093 159.496 110.872 158.858 110.625C157.614 110.143 156.771 109.661 156.328 109.179C155.892 108.697 155.674 108.072 155.674 107.304C155.674 106.38 156.045 105.664 156.787 105.156C157.536 104.641 158.552 104.384 159.834 104.384C161.104 104.384 162.305 104.641 163.438 105.156L162.696 106.884C161.53 106.403 160.55 106.162 159.756 106.162C158.545 106.162 157.94 106.507 157.94 107.197C157.94 107.535 158.096 107.822 158.409 108.056C158.728 108.291 159.418 108.613 160.479 109.023C161.371 109.368 162.019 109.684 162.422 109.97C162.826 110.257 163.125 110.589 163.321 110.966C163.516 111.337 163.614 111.783 163.614 112.304Z" fill="black"/>
<path d="M96.6312 135.462C96.6312 136.374 96.374 137.119 95.8597 137.699C95.3519 138.278 94.6292 138.666 93.6917 138.861V138.939C94.8375 139.082 95.6871 139.447 96.2405 140.033C96.7939 140.619 97.0706 141.387 97.0706 142.337C97.0706 143.698 96.5986 144.746 95.6546 145.482C94.7106 146.211 93.3694 146.576 91.6312 146.576C90.8759 146.576 90.1826 146.517 89.5511 146.4C88.9261 146.289 88.3174 146.091 87.7249 145.804V144.261C88.3434 144.567 89.0009 144.802 89.6976 144.964C90.4007 145.121 91.0648 145.199 91.6898 145.199C94.1572 145.199 95.3909 144.232 95.3909 142.298C95.3909 140.567 94.0302 139.701 91.3089 139.701H89.9026V138.304H91.3284C92.4417 138.304 93.3239 138.06 93.9749 137.572C94.6259 137.077 94.9515 136.393 94.9515 135.521C94.9515 134.824 94.7106 134.278 94.2288 133.88C93.7536 133.483 93.1058 133.285 92.2855 133.285C91.6605 133.285 91.0713 133.369 90.5179 133.539C89.9645 133.708 89.333 134.02 88.6233 134.476L87.803 133.382C88.389 132.92 89.0628 132.559 89.8245 132.298C90.5927 132.031 91.4 131.898 92.2464 131.898C93.6331 131.898 94.7106 132.217 95.4788 132.855C96.247 133.486 96.6312 134.356 96.6312 135.462ZM99.3948 140.277C99.3948 137.471 99.9384 135.375 101.026 133.988C102.119 132.595 103.734 131.898 105.869 131.898C106.605 131.898 107.185 131.96 107.608 132.083V133.48C107.106 133.317 106.534 133.236 105.889 133.236C104.359 133.236 103.19 133.714 102.383 134.671C101.576 135.622 101.133 137.119 101.055 139.164H101.172C101.888 138.044 103.021 137.484 104.571 137.484C105.853 137.484 106.862 137.871 107.598 138.646C108.34 139.421 108.711 140.472 108.711 141.8C108.711 143.285 108.304 144.453 107.491 145.306C106.683 146.153 105.589 146.576 104.209 146.576C102.731 146.576 101.56 146.022 100.694 144.916C99.8278 143.802 99.3948 142.256 99.3948 140.277ZM104.19 145.199C105.114 145.199 105.83 144.909 106.338 144.33C106.853 143.744 107.11 142.901 107.11 141.8C107.11 140.856 106.872 140.114 106.397 139.574C105.922 139.033 105.212 138.763 104.268 138.763C103.682 138.763 103.145 138.884 102.657 139.125C102.168 139.365 101.778 139.697 101.485 140.121C101.198 140.544 101.055 140.983 101.055 141.439C101.055 142.11 101.185 142.735 101.446 143.314C101.706 143.893 102.074 144.352 102.549 144.691C103.031 145.029 103.578 145.199 104.19 145.199ZM112.061 136.361C112.061 137.468 112.181 138.298 112.422 138.851C112.663 139.404 113.054 139.681 113.594 139.681C114.662 139.681 115.196 138.574 115.196 136.361C115.196 134.16 114.662 133.06 113.594 133.06C113.054 133.06 112.663 133.333 112.422 133.88C112.181 134.427 112.061 135.254 112.061 136.361ZM116.534 136.361C116.534 137.845 116.283 138.968 115.782 139.73C115.287 140.485 114.558 140.863 113.594 140.863C112.683 140.863 111.973 140.475 111.465 139.701C110.964 138.926 110.713 137.813 110.713 136.361C110.713 134.883 110.954 133.77 111.436 133.021C111.924 132.272 112.644 131.898 113.594 131.898C114.538 131.898 115.264 132.285 115.772 133.06C116.28 133.835 116.534 134.935 116.534 136.361ZM120.655 142.083C120.655 143.197 120.775 144.03 121.016 144.583C121.257 145.13 121.651 145.404 122.198 145.404C122.744 145.404 123.148 145.134 123.409 144.593C123.669 144.046 123.799 143.21 123.799 142.083C123.799 140.97 123.669 140.147 123.409 139.613C123.148 139.072 122.744 138.802 122.198 138.802C121.651 138.802 121.257 139.072 121.016 139.613C120.775 140.147 120.655 140.97 120.655 142.083ZM125.137 142.083C125.137 143.561 124.886 144.681 124.385 145.443C123.89 146.198 123.161 146.576 122.198 146.576C121.273 146.576 120.56 146.188 120.059 145.414C119.564 144.639 119.317 143.529 119.317 142.083C119.317 140.606 119.558 139.492 120.039 138.744C120.528 137.995 121.247 137.621 122.198 137.621C123.122 137.621 123.841 138.005 124.356 138.773C124.877 139.535 125.137 140.638 125.137 142.083ZM122.617 132.103L114.698 146.38H113.262L121.182 132.103H122.617ZM144.473 146.38H142.578L134.776 134.398H134.698C134.802 135.804 134.854 137.093 134.854 138.265V146.38H133.321V132.103H135.196L142.979 144.037H143.057C143.044 143.861 143.015 143.298 142.969 142.347C142.923 141.39 142.907 140.707 142.92 140.296V132.103H144.473V146.38ZM157.393 141.019C157.393 142.764 156.953 144.128 156.075 145.111C155.196 146.087 153.981 146.576 152.432 146.576C151.475 146.576 150.625 146.351 149.883 145.902C149.141 145.453 148.568 144.808 148.164 143.968C147.761 143.128 147.559 142.145 147.559 141.019C147.559 139.274 147.995 137.917 148.867 136.947C149.74 135.97 150.951 135.482 152.5 135.482C153.998 135.482 155.186 135.98 156.065 136.976C156.95 137.972 157.393 139.32 157.393 141.019ZM149.239 141.019C149.239 142.386 149.512 143.428 150.059 144.144C150.606 144.86 151.41 145.218 152.471 145.218C153.532 145.218 154.336 144.863 154.883 144.154C155.436 143.438 155.713 142.393 155.713 141.019C155.713 139.658 155.436 138.626 154.883 137.923C154.336 137.214 153.526 136.859 152.451 136.859C151.39 136.859 150.589 137.207 150.049 137.904C149.509 138.6 149.239 139.639 149.239 141.019Z" fill="black"/>
</svg>
