<svg width="246" height="246" viewBox="0 0 246 246" fill="none" xmlns="http://www.w3.org/2000/svg">
<path d="M123 245.795C94.1231 245.795 66.1758 235.587 44.0974 216.975C22.019 198.362 7.23103 172.544 2.34706 144.083C-2.5369 115.622 2.79759 86.3511 17.4077 61.4429C32.0179 36.5346 54.963 17.5931 82.1879 7.96586C109.413 -1.66134 139.165 -1.35435 166.185 8.83257C193.205 19.0195 215.755 38.4305 229.848 63.6349C243.941 88.8393 248.67 118.214 243.2 146.568C237.73 174.923 222.412 200.43 199.955 218.583L123 123.379L123 245.795Z" fill="#81BC01"/>
<path d="M196.089 221.582C176.35 236.273 152.641 244.675 128.055 245.691L123 123.379L196.089 221.582Z" fill="#D0D0D1"/>
<rect x="10.2432" y="10.6238" width="225.513" height="225.513" rx="112.757" fill="#F0F0F0"/>
<path d="M92.1014 100.917C93.4555 100.917 94.5265 101.23 95.3143 101.855C96.102 102.473 96.4959 103.304 96.4959 104.345C96.4959 105.81 95.617 106.975 93.8592 107.841C94.979 108.401 95.7732 108.99 96.242 109.609C96.7173 110.227 96.9549 110.917 96.9549 111.679C96.9549 112.858 96.5219 113.802 95.6561 114.511C94.7902 115.221 93.6183 115.576 92.1404 115.576C90.591 115.576 89.3898 115.244 88.5369 114.58C87.6841 113.916 87.2576 112.975 87.2576 111.757C87.2576 110.963 87.479 110.25 87.9217 109.619C88.3709 108.981 89.1033 108.414 90.1189 107.919C89.2466 107.399 88.6248 106.848 88.2537 106.269C87.8826 105.69 87.6971 105.039 87.6971 104.316C87.6971 103.281 88.104 102.457 88.9178 101.845C89.7316 101.227 90.7928 100.917 92.1014 100.917ZM89.4549 111.679C89.4549 112.356 89.6925 112.884 90.1678 113.261C90.643 113.632 91.2876 113.818 92.1014 113.818C92.9412 113.818 93.5923 113.626 94.0545 113.242C94.5232 112.851 94.7576 112.324 94.7576 111.66C94.7576 111.132 94.5428 110.651 94.1131 110.214C93.6834 109.778 93.0324 109.375 92.16 109.003L91.8768 108.876C91.0174 109.254 90.3989 109.671 90.0213 110.126C89.6437 110.576 89.4549 111.093 89.4549 111.679ZM92.0818 102.685C91.4308 102.685 90.9067 102.848 90.5096 103.173C90.1124 103.492 89.9139 103.929 89.9139 104.482C89.9139 104.82 89.9855 105.123 90.1287 105.39C90.2719 105.657 90.4803 105.901 90.7537 106.123C91.0272 106.337 91.4894 106.598 92.1404 106.904C92.9217 106.559 93.4718 106.197 93.7908 105.82C94.1163 105.436 94.2791 104.99 94.2791 104.482C94.2791 103.929 94.0773 103.492 93.6736 103.173C93.2765 102.848 92.7459 102.685 92.0818 102.685ZM108.361 107.197C108.361 110.009 107.795 112.109 106.662 113.496C105.529 114.882 103.823 115.576 101.545 115.576C100.679 115.576 100.057 115.524 99.6795 115.419V113.496C100.259 113.658 100.842 113.74 101.428 113.74C102.977 113.74 104.133 113.323 104.894 112.49C105.656 111.656 106.073 110.348 106.144 108.564H106.027C105.643 109.15 105.178 109.573 104.631 109.833C104.09 110.094 103.456 110.224 102.726 110.224C101.463 110.224 100.471 109.83 99.7479 109.042C99.0252 108.255 98.6639 107.174 98.6639 105.8C98.6639 104.309 99.0805 103.125 99.9139 102.246C100.754 101.36 101.896 100.917 103.342 100.917C104.357 100.917 105.243 101.165 105.998 101.66C106.753 102.154 107.336 102.874 107.746 103.818C108.156 104.755 108.361 105.882 108.361 107.197ZM103.381 102.822C102.586 102.822 101.978 103.082 101.554 103.603C101.131 104.117 100.92 104.843 100.92 105.781C100.92 106.595 101.115 107.236 101.506 107.705C101.903 108.167 102.502 108.398 103.303 108.398C104.077 108.398 104.728 108.167 105.256 107.705C105.783 107.242 106.047 106.702 106.047 106.083C106.047 105.504 105.933 104.964 105.705 104.462C105.484 103.955 105.171 103.554 104.767 103.261C104.364 102.968 103.902 102.822 103.381 102.822ZM111.974 105.38C111.974 106.35 112.069 107.073 112.258 107.548C112.446 108.024 112.756 108.261 113.185 108.261C114.045 108.261 114.474 107.301 114.474 105.38C114.474 103.46 114.045 102.5 113.185 102.5C112.756 102.5 112.446 102.737 112.258 103.212C112.069 103.688 111.974 104.41 111.974 105.38ZM116.369 105.361C116.369 106.858 116.099 107.985 115.558 108.74C115.025 109.488 114.234 109.863 113.185 109.863C112.196 109.863 111.428 109.475 110.881 108.701C110.34 107.919 110.07 106.806 110.07 105.361C110.07 102.386 111.109 100.898 113.185 100.898C114.207 100.898 114.992 101.285 115.539 102.06C116.092 102.828 116.369 103.929 116.369 105.361ZM121.271 111.083C121.271 112.054 121.366 112.779 121.554 113.261C121.75 113.743 122.062 113.984 122.492 113.984C123.345 113.984 123.771 113.017 123.771 111.083C123.771 109.176 123.345 108.222 122.492 108.222C122.062 108.222 121.75 108.457 121.554 108.925C121.366 109.394 121.271 110.113 121.271 111.083ZM125.666 111.083C125.666 112.581 125.396 113.704 124.855 114.453C124.315 115.201 123.527 115.576 122.492 115.576C121.502 115.576 120.734 115.192 120.187 114.423C119.64 113.649 119.367 112.535 119.367 111.083C119.367 108.108 120.409 106.621 122.492 106.621C123.495 106.621 124.273 107.005 124.826 107.773C125.386 108.541 125.666 109.645 125.666 111.083ZM122.765 101.103L114.846 115.38H112.951L120.871 101.103H122.765ZM137.609 107.617L140.988 101.103H143.527L138.771 109.843V115.38H136.428V109.921L131.691 101.103H134.23L137.609 107.617ZM149.885 115.576C148.205 115.576 146.89 115.087 145.939 114.111C144.995 113.128 144.523 111.777 144.523 110.058C144.523 108.294 144.963 106.907 145.842 105.898C146.721 104.889 147.928 104.384 149.465 104.384C150.89 104.384 152.017 104.817 152.844 105.683C153.67 106.549 154.084 107.74 154.084 109.257V110.498H146.887C146.919 111.546 147.202 112.353 147.736 112.919C148.27 113.479 149.022 113.759 149.992 113.759C150.63 113.759 151.222 113.701 151.769 113.583C152.323 113.46 152.915 113.258 153.547 112.978V114.843C152.987 115.11 152.42 115.299 151.847 115.41C151.275 115.52 150.62 115.576 149.885 115.576ZM149.465 106.123C148.735 106.123 148.15 106.354 147.707 106.816C147.271 107.278 147.01 107.952 146.926 108.837H151.828C151.815 107.945 151.6 107.272 151.183 106.816C150.767 106.354 150.194 106.123 149.465 106.123ZM163.947 112.304C163.947 113.359 163.563 114.169 162.795 114.736C162.027 115.296 160.926 115.576 159.494 115.576C158.055 115.576 156.9 115.358 156.027 114.921V112.939C157.297 113.525 158.478 113.818 159.572 113.818C160.985 113.818 161.691 113.391 161.691 112.539C161.691 112.265 161.613 112.037 161.457 111.855C161.301 111.673 161.043 111.484 160.685 111.289C160.327 111.093 159.829 110.872 159.191 110.625C157.948 110.143 157.105 109.661 156.662 109.179C156.226 108.697 156.008 108.072 156.008 107.304C156.008 106.38 156.379 105.664 157.121 105.156C157.87 104.641 158.885 104.384 160.168 104.384C161.437 104.384 162.638 104.641 163.771 105.156L163.029 106.884C161.864 106.403 160.884 106.162 160.09 106.162C158.879 106.162 158.273 106.507 158.273 107.197C158.273 107.535 158.429 107.822 158.742 108.056C159.061 108.291 159.751 108.613 160.812 109.023C161.704 109.368 162.352 109.684 162.756 109.97C163.159 110.257 163.459 110.589 163.654 110.966C163.849 111.337 163.947 111.783 163.947 112.304Z" fill="black"/>
<path d="M94.1229 146.38H92.5408V136.205C92.5408 135.358 92.5669 134.557 92.6189 133.802C92.4822 133.939 92.3292 134.082 92.16 134.232C91.9907 134.382 91.216 135.016 89.8357 136.136L88.9764 135.023L92.7557 132.103H94.1229V146.38ZM105.568 146.38H103.986V136.205C103.986 135.358 104.012 134.557 104.064 133.802C103.928 133.939 103.775 134.082 103.605 134.232C103.436 134.382 102.661 135.016 101.281 136.136L100.422 135.023L104.201 132.103H105.568V146.38ZM112.394 136.361C112.394 137.468 112.515 138.298 112.756 138.851C112.997 139.404 113.387 139.681 113.928 139.681C114.995 139.681 115.529 138.574 115.529 136.361C115.529 134.16 114.995 133.06 113.928 133.06C113.387 133.06 112.997 133.333 112.756 133.88C112.515 134.427 112.394 135.254 112.394 136.361ZM116.867 136.361C116.867 137.845 116.616 138.968 116.115 139.73C115.62 140.485 114.891 140.863 113.928 140.863C113.016 140.863 112.306 140.475 111.799 139.701C111.297 138.926 111.047 137.813 111.047 136.361C111.047 134.883 111.288 133.77 111.769 133.021C112.258 132.272 112.977 131.898 113.928 131.898C114.872 131.898 115.597 132.285 116.105 133.06C116.613 133.835 116.867 134.935 116.867 136.361ZM120.988 142.083C120.988 143.197 121.109 144.03 121.349 144.583C121.59 145.13 121.984 145.404 122.531 145.404C123.078 145.404 123.482 145.134 123.742 144.593C124.002 144.046 124.133 143.21 124.133 142.083C124.133 140.97 124.002 140.147 123.742 139.613C123.482 139.072 123.078 138.802 122.531 138.802C121.984 138.802 121.59 139.072 121.349 139.613C121.109 140.147 120.988 140.97 120.988 142.083ZM125.471 142.083C125.471 143.561 125.22 144.681 124.719 145.443C124.224 146.198 123.495 146.576 122.531 146.576C121.607 146.576 120.894 146.188 120.392 145.414C119.898 144.639 119.65 143.529 119.65 142.083C119.65 140.606 119.891 139.492 120.373 138.744C120.861 137.995 121.581 137.621 122.531 137.621C123.456 137.621 124.175 138.005 124.689 138.773C125.21 139.535 125.471 140.638 125.471 142.083ZM122.951 132.103L115.031 146.38H113.596L121.515 132.103H122.951ZM144.806 146.38H142.912L135.109 134.398H135.031C135.135 135.804 135.187 137.093 135.187 138.265V146.38H133.654V132.103H135.529L143.312 144.037H143.39C143.377 143.861 143.348 143.298 143.303 142.347C143.257 141.39 143.241 140.707 143.254 140.296V132.103H144.806V146.38ZM157.726 141.019C157.726 142.764 157.287 144.128 156.408 145.111C155.529 146.087 154.315 146.576 152.765 146.576C151.808 146.576 150.959 146.351 150.217 145.902C149.474 145.453 148.902 144.808 148.498 143.968C148.094 143.128 147.892 142.145 147.892 141.019C147.892 139.274 148.329 137.917 149.201 136.947C150.073 135.97 151.284 135.482 152.834 135.482C154.331 135.482 155.519 135.98 156.398 136.976C157.284 137.972 157.726 139.32 157.726 141.019ZM149.572 141.019C149.572 142.386 149.846 143.428 150.392 144.144C150.939 144.86 151.743 145.218 152.804 145.218C153.866 145.218 154.67 144.863 155.217 144.154C155.77 143.438 156.047 142.393 156.047 141.019C156.047 139.658 155.77 138.626 155.217 137.923C154.67 137.214 153.859 136.859 152.785 136.859C151.724 136.859 150.923 137.207 150.383 137.904C149.842 138.6 149.572 139.639 149.572 141.019Z" fill="black"/>
</svg>
